G04 ================== begin FILE IDENTIFICATION RECORD ==================*
G04 Layout Name:  F103_BOOM_V10_220614.brd*
G04 Film Name:    BOTTOM*
G04 File Format:  Gerber RS274X*
G04 File Origin:  Cadence Allegro 17.2-S079*
G04 Origin Date:  Thu Jun 16 17:04:26 2022*
G04 *
G04 Layer:  ETCH/BOTTOM*
G04 Layer:  PIN/BOTTOM*
G04 Layer:  VIA CLASS/BOTTOM*
G04 *
G04 Offset:    (0.0000 0.0000)*
G04 Mirror:    No*
G04 Mode:      Positive*
G04 Rotation:  0*
G04 FullContactRelief:  No*
G04 UndefLineWidth:     0.1524*
G04 ================== end FILE IDENTIFICATION RECORD ====================*
%FSLAX55Y55*MOMM*%
%IR0*IPPOS*OFA0.00000B0.00000*MIA0B0*SFA1.00000B1.00000*%
%ADD31R,1.2X.3*%
%ADD32R,.3X1.2*%
%ADD33R,.5X2.*%
%ADD20R,.6X1.1*%
%ADD34R,.6X1.5*%
%ADD22R,.8X1.4*%
%ADD29R,.6X1.8*%
%ADD37R,1.6X.9*%
%ADD28R,1.9X.9*%
%ADD23C,.75*%
%ADD18R,.8X.8*%
%ADD11C,.6096*%
%ADD19R,1.2X1.*%
%ADD30R,1.X1.2*%
%ADD35R,1.2X1.4*%
%ADD21R,4.2X1.4*%
%ADD24R,2.3X4.4*%
%ADD26C,1.*%
%ADD36R,.3X.7*%
%ADD25R,.5X.6*%
%ADD17C,2.*%
%ADD16R,1.8X1.6*%
%ADD15R,.6X.5*%
%ADD12C,1.3*%
%ADD27R,1.X1.*%
%ADD14C,1.65*%
%ADD10C,6.9*%
%ADD13R,1.65X1.65*%
%ADD38C,.2032*%
%ADD39C,.254*%
%ADD40C,.508*%
%ADD41C,1.27*%
%ADD43C,1.2004*%
%ADD42C,2.2004*%
%ADD44C,3.0164*%
%ADD46C,2.3164*%
%ADD45C,1.8146*%
G75*
%LPD*%
G75*
G36*
G01X30000Y5130000D02*
G02X690000I330000J0D01*
G01Y5060000D01*
G03X816930Y4854390I229996J0D01*
G02X807830Y4815900I-9099J-18170D01*
G01X610000D01*
G03X570470Y4799530I0J-55913D01*
G01X280470Y4509530D01*
G03X264100Y4470000I39543J-39530D01*
G01Y1570000D01*
G03X280470Y1530470I55913J0D01*
G01X490470Y1320470D01*
G03X530000Y1304100I39530J39543D01*
G01X6135910D01*
G02X6150280Y1269410I1J-20321D01*
G01X5939550Y1058690D01*
X5933410Y1061020D01*
G03X5879920Y1070820I-53480J-141022D01*
G03X5740880Y978440I0J-150824D01*
G01X4768960D01*
G03X4629920Y1070820I-139040J-58444D01*
G03X4479100Y920000I0J-150820D01*
G03X4517260Y819730I150816J0D01*
G02X4502080Y785900I-15178J-13510D01*
G01X3258150D01*
X3183690Y860370D01*
X3186020Y866510D01*
G03X3195820Y920000I-141022J53480D01*
G03X3045000Y1070820I-150820J0D01*
G03X2905960Y978440I0J-150824D01*
G01X1934040D01*
G03X1795000Y1070820I-139040J-58444D01*
G03Y769180I0J-150820D01*
G03X1934040Y861560I0J150824D01*
G01X2905960D01*
G03X3045000Y769180I139040J58444D01*
G03X3098490Y778980I10J150822D01*
G01X3104630Y781310D01*
X3195470Y690470D01*
G03X3235000Y674100I39530J39543D01*
G01X8820000D01*
G03X8859530Y690470I0J55913D01*
G01X8949530Y780470D01*
G03X8965900Y820000I-39543J39530D01*
G01Y1050320D01*
G03X8949530Y1089850I-55913J0D01*
G01X8665900Y1373470D01*
Y1390520D01*
G02X8683240Y1397700I10159J-5D01*
G01X8740470Y1340470D01*
G03X8780000Y1324100I39530J39543D01*
G01X9672000D01*
G03X9711530Y1340470I0J55913D01*
G01X9795690Y1424630D01*
X9801210Y1423320D01*
G03X9828000Y1420180I26786J112680D01*
G03Y1651820I0J115820D01*
G03X9819090Y1651480I-42J-115822D01*
G02X9803160Y1686100I-1560J20257D01*
G01X9810030Y1692970D01*
G03X9826400Y1732500I-39543J39530D01*
G01Y2998180D01*
G02X9853880Y3017190I20318J-4D01*
G03X9870000Y3014260I16108J42812D01*
G01X9892450D01*
X9892950Y3014210D01*
G03X9900000Y3013860I7048J70790D01*
G01X9962580D01*
X9964250Y3013260D01*
G03X9990000Y3008780I25746J71741D01*
G03X10066220Y3085000I0J76220D01*
G03X10056580Y3122100I-76211J0D01*
G02X10068230Y3151370I17752J9888D01*
G03X10100240Y3195000I-13729J43630D01*
G01Y3321190D01*
X10139530Y3360470D01*
G03X10155900Y3400000I-39543J39530D01*
G01Y3610530D01*
G02X10189690Y3625750I20321J4D01*
G03X10220000Y3614260I30316J34248D01*
G01X10350000D01*
G03X10360000Y3615370I-15J45738D01*
G03X10370000Y3614260I10015J44628D01*
G01X10400000D01*
G03X10445740Y3660000I0J45740D01*
G01Y3730000D01*
G03X10443010Y3745560I-45739J-5D01*
G03X10461220Y3795000I-58010J49440D01*
G03X10385000Y3871220I-76220J0D01*
G03X10342380Y3858190I0J-76218D01*
G02X10310810Y3872920I-11362J16846D01*
G03X10235000Y3941220I-75810J-7923D01*
G03X10188590Y3925460I0J-76214D01*
G02X10155900Y3941580I-12370J16121D01*
G01Y4312000D01*
G03X10139530Y4351530I-55913J0D01*
G01X9939370Y4551690D01*
X9940680Y4557210D01*
G03X9943820Y4584000I-112680J26786D01*
G03X9712180I-115820J0D01*
G03X9718710Y4545670I115818J10D01*
G01X9720820Y4539640D01*
X9709120Y4527930D01*
X9685370Y4551690D01*
X9686680Y4557210D01*
G03X9689820Y4584000I-112680J26786D01*
G03X9458180I-115820J0D01*
G03X9464710Y4545660I115819J0D01*
G01X9466820Y4539640D01*
X9455120Y4527930D01*
X9431370Y4551690D01*
X9432680Y4557210D01*
G03X9435820Y4584000I-112680J26786D01*
G03X9204180I-115820J0D01*
G03X9210710Y4545660I115819J0D01*
G01X9212820Y4539640D01*
X9201120Y4527930D01*
X9177370Y4551690D01*
X9178680Y4557210D01*
G03X9181820Y4584000I-112680J26786D01*
G03X9066000Y4699820I-115820J0D01*
G03X8988760Y4670300I0J-115810D01*
G01X8909530Y4749530D01*
G03X8870000Y4765900I-39530J-39543D01*
G01X7016000D01*
G03X6976470Y4749530I0J-55913D01*
G01X6922310Y4695370D01*
X6916790Y4696680D01*
G03X6890000Y4699820I-26786J-112680D01*
G03X6863210Y4696680I-4J-115820D01*
G01X6857690Y4695370D01*
X6753530Y4799530D01*
G03X6737680Y4810640I-39527J-39530D01*
G01X6731820Y4813380D01*
Y4830000D01*
X9610000D01*
G03X9840000Y5060000I0J230000D01*
G01Y5120000D01*
G02X10500000I330000J0D01*
G01Y360000D01*
G02X10170000Y30000I-330000J0D01*
G01X360000D01*
G02X30000Y360000I0J330000D01*
G01Y5130000D01*
G37*
G36*
G01X1177690Y4472630D02*
X1183210Y4471320D01*
G03X1210000Y4468180I26786J112680D01*
G03X1236790Y4471320I4J115820D01*
G01X1242310Y4472630D01*
X1344470Y4370470D01*
G03X1384000Y4354100I39530J39543D01*
G01X4920120D01*
G02X4938080Y4324260I7J-20321D01*
G03X4929780Y4290920I62838J-33347D01*
G01Y4274940D01*
G03X4929480Y4274640I71140J-71440D01*
G01X2593500D01*
G03X2543200Y4253800I0J-71123D01*
G01X2479700Y4190300D01*
G03X2458860Y4140000I50297J-50306D01*
G01Y4040000D01*
X2370000D01*
Y4035740D01*
X2068950D01*
X2055740Y4048950D01*
Y4265740D01*
X1701050D01*
X1634260Y4198950D01*
Y4145740D01*
X1528950D01*
X1358950Y4315740D01*
X994260D01*
Y4054260D01*
X1211050D01*
X1222230Y4043080D01*
G02X1215050Y4025740I-7186J-7181D01*
G01X1050000D01*
G03X1014830Y4009240I0J-45733D01*
G01X878790D01*
X875810Y4014090D01*
G03X832500Y4038320I-43310J-26592D01*
G01X667500D01*
G03X616680Y3987500I0J-50820D01*
G01Y3822500D01*
G03X667500Y3771680I50820J0D01*
G01X832500D01*
G03X872190Y3790760I0J50821D01*
G01X1014830D01*
G03X1050000Y3774260I35170J29233D01*
G01X1230000D01*
G03X1263650Y3789020I0J45738D01*
G02X1276370Y3790840I7475J-6883D01*
G03X1300000Y3784260I23635J39159D01*
G01X1360000D01*
G03X1373140Y3786190I-6J45739D01*
G02X1396700Y3776660I5834J-19464D01*
G03X1436600Y3753290I39900J22376D01*
G01X1584260D01*
Y3744260D01*
X1672550D01*
X1678170Y3725630D01*
G03X1669510Y3718560I30845J-46621D01*
G01X1645730Y3694770D01*
X1626600D01*
G03X1580860Y3649030I0J-45740D01*
G01Y3539030D01*
G03X1626600Y3493290I45740J0D01*
G01X1686600D01*
G03X1732340Y3539030I0J45740D01*
G01Y3590290D01*
G02X1757990Y3609890I20318J-6D01*
G03X1770000Y3608290I11992J44142D01*
G01X1830000D01*
G03X1832730Y3608370I26J45741D01*
G02X1854260Y3588090I1211J-20283D01*
G01Y3373440D01*
X1545740D01*
Y3430000D01*
G03X1522500Y3469820I-45734J0D01*
G01Y3501330D01*
G03X1542340Y3539030I-25899J37700D01*
G01Y3649030D01*
G03X1496600Y3694770I-45740J0D01*
G01X1436600D01*
G03X1390860Y3649030I0J-45740D01*
G01Y3539030D01*
G03X1410700Y3501330I45739J0D01*
G01Y3465120D01*
G03X1406280Y3460900I29304J-35118D01*
G01X1393960D01*
X1391040Y3463600D01*
G03X1360000Y3475740I-31040J-33612D01*
G01X1300000D01*
G03X1254260Y3430000I0J-45740D01*
G01Y3380000D01*
G03X1300000Y3334260I45740J0D01*
G01X1360000D01*
G03X1369650Y3335290I-2J45740D01*
G02X1394260Y3315430I4290J-19862D01*
G01Y3290000D01*
G03X1440000Y3244260I45740J0D01*
G01X1500000D01*
G03X1531210Y3256560I0J45746D01*
G01X1854260D01*
Y3224260D01*
X2458860D01*
Y1980000D01*
G03X2479700Y1929700I71137J6D01*
G01X2569700Y1839700D01*
G03X2620000Y1818860I50306J50297D01*
G01X5859940D01*
Y1807900D01*
X5859820Y1807120D01*
G03X5859260Y1800000I45179J-7135D01*
G01Y1710000D01*
G03X5905000Y1664260I45740J0D01*
G01X6095000D01*
G03X6140740Y1710000I0J45740D01*
G01Y1800000D01*
G03X6095000Y1845740I-45740J0D01*
G01X6015400D01*
G02X6001040Y1880430I4J20319D01*
G01X6040300Y1919700D01*
G03X6061140Y1970000I-50283J50300D01*
G01Y2014260D01*
X6085000D01*
G03X6130740Y2060000I0J45740D01*
G01Y2150000D01*
G03X6086060Y2195730I-45742J0D01*
G02X6076140Y2205880I239J10156D01*
G01Y2216270D01*
X6078790Y2219180D01*
G03X6090740Y2250000I-33787J30827D01*
G01Y2263880D01*
G02X6112940Y2284110I20320J-3D01*
G03X6120000Y2283780I7085J75889D01*
G03Y2436220I0J76220D01*
G03X6094250Y2431740I-4J-76221D01*
G01X6092580Y2431140D01*
X6065100D01*
X6063170Y2431980D01*
G03X6045000Y2435740I-18162J-41982D01*
G01X5965000D01*
G03X5919260Y2390000I0J-45740D01*
G01Y2250000D01*
G03X5931210Y2219180I45737J7D01*
G01X5933860Y2216270D01*
Y2195740D01*
X5895000D01*
G03X5849260Y2150000I0J-45740D01*
G01Y2060000D01*
G03X5895000Y2014260I45740J0D01*
G01X5918860D01*
Y1999470D01*
X5880530Y1961140D01*
X2649470D01*
X2601140Y2009470D01*
Y3088860D01*
X4860530D01*
X4893860Y3055530D01*
Y2750000D01*
G03X4894210Y2742950I71140J-2D01*
G01X4894260Y2742450D01*
Y2720000D01*
G03X4940000Y2674260I45740J0D01*
G01X4961280D01*
Y2660800D01*
X4959330Y2658120D01*
G03X4937180Y2590000I93673J-68120D01*
G03X5168820I115820J0D01*
G03X5121900Y2683100I-115826J0D01*
G02X5119230Y2696480I6047J8163D01*
G03X5125740Y2720000I-39233J23520D01*
G01Y2780000D01*
G03X5080000Y2825740I-45740J0D01*
G01X5036140D01*
Y3085000D01*
G03X5015300Y3135300I-71137J-6D01*
G01X4990610Y3160000D01*
X5015300Y3184700D01*
G03X5036140Y3235000I-50297J50306D01*
G01Y3454260D01*
X5080000D01*
G03X5106400Y3462650I0J45730D01*
G02X5120390Y3460450I5863J-8299D01*
G03X5213000Y3414180I92610J69545D01*
G03Y3645820I0J115820D01*
G03X5120390Y3599550I0J-115815D01*
G02X5106400Y3597350I-8127J6099D01*
G03X5080000Y3605740I-26400J-37340D01*
G01X5075400D01*
G02X5061040Y3640430I4J20319D01*
G01X5129470Y3708860D01*
X5918530D01*
X5920200Y3700750D01*
G03X5965000Y3664260I44800J9256D01*
G01X6045000D01*
G03X6088910Y3697210I0J45733D01*
G02X6100000Y3704440I9756J-2844D01*
G03X6110000Y3703780I10009J75559D01*
G03Y3856220I0J76220D01*
G03X6100000Y3855560I9J-76219D01*
G02X6088910Y3862790I-1334J10074D01*
G03X6080660Y3878640I-43914J-12785D01*
G02Y3891360I7927J6360D01*
G03X6090740Y3920000I-35647J28640D01*
G01Y4053460D01*
X6269260D01*
Y3920000D01*
G03X6279340Y3891360I45727J0D01*
G02Y3878640I-7927J-6360D01*
G03X6269260Y3850000I35647J-28640D01*
G01Y3710000D01*
G03X6315000Y3664260I45740J0D01*
G01X6372970D01*
G03X6410000Y3653860I37034J60739D01*
G01X6524880D01*
Y3643360D01*
X6524860Y3643030D01*
G03X6524760Y3640000I45640J-3023D01*
G01Y3460000D01*
G03X6570500Y3414260I45740J0D01*
G01X6874100D01*
Y2795900D01*
X6630000D01*
G03X6590470Y2779530I0J-55913D01*
G01X6560970Y2750030D01*
G03X6544600Y2710500I39543J-39530D01*
G01Y2685740D01*
X6443500D01*
G03X6397760Y2640000I0J-45740D01*
G01Y2460000D01*
G03X6397840Y2457270I45741J-26D01*
G02X6377560Y2435740I-20283J-1211D01*
G01X6315000D01*
G03X6269260Y2390000I0J-45740D01*
G01Y2250000D01*
G03X6286890Y2213920I45734J0D01*
G01X6290810Y2210860D01*
Y2195740D01*
X6275000D01*
G03X6229260Y2150000I0J-45740D01*
G01Y2060000D01*
G03X6275000Y2014260I45740J0D01*
G01X6465000D01*
G03X6504300Y2036600I0J45738D01*
G01X6507250Y2041560D01*
X7010000D01*
G03X7051320Y2058680I-6J58438D01*
G01X7111320Y2118680D01*
G03X7128440Y2160000I-41318J41326D01*
G01Y2955790D01*
X7134210Y2961560D01*
X7158790D01*
G03X7190000Y2949260I31210J33446D01*
G01X7250000D01*
G03X7293940Y2982280I0J45746D01*
G02X7304840Y2989550I9758J-2823D01*
G03X7310000Y2989260I5143J45451D01*
G01X7370000D01*
G03X7415740Y3035000I0J45740D01*
G01Y3053090D01*
X7464210Y3101560D01*
X7614250D01*
Y3015000D01*
G03X7659990Y2969260I45740J0D01*
G01X7692090D01*
G02X7699270Y2951920I-6J-10159D01*
G01X7688680Y2941320D01*
G03X7676200Y2922830I41308J-41338D01*
G02X7649530Y2912080I-18702J7941D01*
G03X7631600Y2915740I-17930J-42089D01*
G01X7328400D01*
G03X7287270Y2890010I0J-45739D01*
G02X7276000Y2884520I-9137J4444D01*
G03X7260000Y2886220I-16008J-74519D01*
G03Y2733780I0J-76220D01*
G03X7276000Y2735480I-8J76219D01*
G02X7287270Y2729990I2133J-9934D01*
G03X7328400Y2704260I41130J20009D01*
G01X7486010D01*
Y2693730D01*
X7485980Y2693350D01*
G03X7485860Y2690000I45621J-3311D01*
G01Y2570000D01*
G03X7531600Y2524260I45740J0D01*
G01X7631600D01*
G03X7677340Y2570000I0J45740D01*
G01Y2613980D01*
G02X7698380Y2634290I20320J3D01*
G03X7700000Y2634260I1657J45709D01*
G01X7760000D01*
G03X7805730Y2679080I0J45739D01*
G01X7805810Y2683170D01*
X7841320Y2718680D01*
G03X7846240Y2724260I-41285J41361D01*
G01X7900000D01*
G03X7907450Y2724870I5J45740D01*
G01X7908270Y2725010D01*
X7919260D01*
Y2670000D01*
G03X7965000Y2624260I45740J0D01*
G01X8015000D01*
G03X8060740Y2670000I0J45740D01*
G01Y2861560D01*
X8159260D01*
Y2670000D01*
G03X8205000Y2624260I45740J0D01*
G01X8255000D01*
G03X8300740Y2670000I0J45740D01*
G01Y2870000D01*
G03X8300070Y2877780I-45738J-20D01*
G02X8320100Y2901560I20024J3459D01*
G01X8489120D01*
G02X8509300Y2878870I-2J-20320D01*
G03X8508780Y2870000I75699J-8888D01*
G03X8661220I76220J0D01*
G03X8650570Y2908870I-76223J10D01*
G03X8655740Y2930000I-40571J21124D01*
G01Y2990000D01*
G03X8644530Y3020000I-45748J0D01*
G03X8655740Y3050000I-34538J30000D01*
G01Y3104100D01*
X8750000D01*
G03X8789530Y3120470I0J55913D01*
G01X8798310Y3129260D01*
X8830000D01*
G03X8873940Y3162280I0J45746D01*
G02X8884840Y3169550I9758J-2823D01*
G03X8890000Y3169260I5143J45451D01*
G01X8930140D01*
Y2229190D01*
X8470470Y1769530D01*
G03X8454100Y1730000I39543J-39530D01*
G01Y1383150D01*
X8416850Y1345900D01*
X6828010D01*
G02X6813640Y1380590I-1J20321D01*
G01X6857690Y1424630D01*
X6863210Y1423320D01*
G03X6890000Y1420180I26786J112680D01*
G03X6774180Y1536000I0J115820D01*
G03X6777320Y1509210I115820J-4D01*
G01X6778630Y1503690D01*
X6754880Y1479930D01*
X6743180Y1491640D01*
X6745290Y1497660D01*
G03X6751820Y1536000I-109289J38340D01*
G03X6520180I-115820J0D01*
G03X6557210Y1451110I115819J0D01*
G02X6543380Y1415900I-13827J-14890D01*
G01X6474620D01*
G02X6460790Y1451110I-3J20320D01*
G03X6497820Y1536000I-78789J84890D01*
G03X6266180I-115820J0D01*
G03X6303210Y1451110I115819J0D01*
G02X6289380Y1415900I-13827J-14890D01*
G01X4240620D01*
G02X4226790Y1451110I-3J20320D01*
G03X4263820Y1536000I-78789J84890D01*
G03X4032180I-115820J0D01*
G03X4069210Y1451110I115819J0D01*
G02X4055380Y1415900I-13827J-14890D01*
G01X3986620D01*
G02X3972790Y1451110I-3J20320D01*
G03X4009820Y1536000I-78789J84890D01*
G03X3778180I-115820J0D01*
G03X3815210Y1451110I115819J0D01*
G02X3801380Y1415900I-13827J-14890D01*
G01X3732620D01*
G02X3718790Y1451110I-3J20320D01*
G03X3755820Y1536000I-78789J84890D01*
G03X3524180I-115820J0D01*
G03X3527320Y1509210I115820J-4D01*
G01X3528630Y1503690D01*
X3504880Y1479930D01*
X3493180Y1491640D01*
X3495290Y1497660D01*
G03X3501820Y1536000I-109289J38340D01*
G03X3270180I-115820J0D01*
G03X3278200Y1493650I115826J0D01*
G02X3259290Y1465900I-18912J-7430D01*
G01X3258710D01*
G02X3239800Y1493650I2J20320D01*
G03X3247820Y1536000I-107806J42350D01*
G03X3016180I-115820J0D01*
G03X3024200Y1493650I115826J0D01*
G02X3005290Y1465900I-18912J-7430D01*
G01X1844710D01*
G02X1825800Y1493650I2J20320D01*
G03X1833820Y1536000I-107806J42350D01*
G03X1602180I-115820J0D01*
G03X1610200Y1493650I115826J0D01*
G02X1591290Y1465900I-18912J-7430D01*
G01X1590710D01*
G02X1571800Y1493650I2J20320D01*
G03X1579820Y1536000I-107806J42350D01*
G03X1348180I-115820J0D01*
G03X1356200Y1493650I115826J0D01*
G02X1337290Y1465900I-18912J-7430D01*
G01X1336710D01*
G02X1317800Y1493650I2J20320D01*
G03X1325820Y1536000I-107806J42350D01*
G03X1210000Y1651820I-115820J0D01*
G03X1183210Y1648680I-4J-115820D01*
G01X1177690Y1647370D01*
X1125530Y1699530D01*
G03X1086000Y1715900I-39530J-39543D01*
G01X573150D01*
X505900Y1783150D01*
Y4276850D01*
X583150Y4354100D01*
X1036000D01*
G03X1075530Y4370470I0J55913D01*
G01X1177690Y4472630D01*
G37*
G36*
G01X1040000Y4270000D02*
X1340000D01*
X1510000Y4100000D01*
X1630000D01*
Y3980000D01*
X1590000Y3940000D01*
Y3936630D01*
X1588340Y3934090D01*
G03X1580860Y3909030I38258J-25066D01*
G01Y3800000D01*
X1542340D01*
Y3909030D01*
G03X1532240Y3937700I-45742J0D01*
G01X1530000Y3940480D01*
Y3950000D01*
X1480000Y4000000D01*
X1330000D01*
X1230000Y4100000D01*
X1040000D01*
Y4270000D01*
G37*
G36*
G01X2320000Y3285740D02*
G03X2285470Y3270000I0J-45746D01*
G01X1900000D01*
Y3610000D01*
X2520000D01*
X2570000Y3560000D01*
Y3290000D01*
X2550000Y3270000D01*
X2414530D01*
G03X2380000Y3285740I-34530J-30006D01*
G01X2320000D01*
G37*
G36*
G01X1635970Y3921280D02*
X1675740Y3961050D01*
Y3975740D01*
X1680000Y3980000D01*
Y4180000D01*
X1720000Y4220000D01*
X2010000D01*
Y4030000D01*
X2050000Y3990000D01*
X2350000D01*
Y3850000D01*
X1760000D01*
X1700000Y3790000D01*
X1637340D01*
Y3909040D01*
G03X1636780Y3916170I-45740J-6D01*
G01X1635970Y3921280D01*
G37*
G36*
G01X2622970Y4132360D02*
X3497230D01*
G02X3515000Y4102180I2J-20320D01*
G03X3509260Y4080000I39999J-22184D01*
G01Y3640000D01*
G03X3555000Y3594260I45740J0D01*
G01X3785000D01*
G03X3830740Y3640000I0J45740D01*
G01Y3788860D01*
X4959200D01*
G02X4973560Y3754170I-4J-20319D01*
G01X4914700Y3695300D01*
G03X4893860Y3645000I50297J-50306D01*
G01Y3264470D01*
X4860530Y3231140D01*
X2601140D01*
Y3256450D01*
X2615740Y3271050D01*
Y3578950D01*
X2601140Y3593550D01*
Y4110530D01*
X2622970Y4132360D01*
G37*
G36*
G01X3842770D02*
X4929480D01*
G03X5000920Y4102680I71440J71138D01*
G03X5005920Y4102800I82J100822D01*
G02X5027220Y4081500I1009J-20291D01*
G03X5027100Y4076500I100702J-4918D01*
G03X5127920Y3975680I100820J0D01*
G03X5191420Y3998190I0J100821D01*
G03X5254920Y3975680I63500J78311D01*
G03X5318420Y3998190I0J100821D01*
G03X5376570Y3975820I63503J78309D01*
G01X5380460Y3975620D01*
X5404660Y3951410D01*
G03X5407310Y3948930I39503J39555D01*
G01X5400600Y3931140D01*
X3830740D01*
Y4080000D01*
G03X3825000Y4102180I-45739J-4D01*
G02X3842770Y4132360I17768J9860D01*
G37*
G36*
G01X8479530Y1250470D02*
X8510120Y1281060D01*
X8517550Y1273620D01*
X8517790Y1273350D01*
G03X8520470Y1270470I42238J36618D01*
G01X8679100Y1111850D01*
Y1060080D01*
G03X8595960Y978440I55899J-140080D01*
G01X7624040D01*
G03X7485000Y1070820I-139040J-58444D01*
G03X7334180Y920000I0J-150820D01*
G03X7372340Y819730I150816J0D01*
G02X7357160Y785900I-15178J-13510D01*
G01X6007760D01*
G02X5992580Y819730I-2J20320D01*
G03X6030740Y920000I-112656J100270D01*
G03X6020940Y973490I-150822J10D01*
G01X6018610Y979630D01*
X6273070Y1234100D01*
X8019480D01*
G02X8033590Y1199160I0J-20319D01*
G03X7999980Y1120000I76416J-79160D01*
G03X8220020I110020J0D01*
G03X8186410Y1199160I-110026J0D01*
G02X8200520Y1234100I14110J14621D01*
G01X8440000D01*
G03X8479530Y1250470I0J55913D01*
G37*
G36*
G01X5624880Y4258860D02*
X7636550D01*
G02X7654120Y4228320I4J-20322D01*
G03X7643780Y4190000I65877J-38331D01*
G03X7674050Y4129190I76216J0D01*
G02X7675110Y4097610I-12244J-16219D01*
G03X7648790Y4040000I49889J-57610D01*
G03X7649510Y4029520I76222J-28D01*
G03X7614250Y3985000I10476J-44520D01*
G01Y3969330D01*
G02X7596910Y3962150I-10159J5D01*
G01X7369530Y4189530D01*
G03X7330000Y4205900I-39530J-39543D01*
G01X5690000D01*
G03X5650470Y4189530I0J-55913D01*
G01X5644290Y4183340D01*
G02X5609620Y4198680I-14371J14369D01*
G03X5609740Y4203500I-100698J4918D01*
G03X5605430Y4232660I-100820J-3D01*
G02X5624880Y4258860I19451J5880D01*
G37*
G36*
G01X7008160Y3519110D02*
X7419080D01*
X7419270Y3509140D01*
G03X7420360Y3500000I45734J819D01*
G03X7419260Y3490010I44642J-9971D01*
G01Y3460010D01*
G03X7420370Y3450000I45739J5D01*
G03X7419260Y3439990I44629J-10015D01*
G01Y3409990D01*
G03X7420360Y3400000I45742J-19D01*
G03X7419260Y3390010I44642J-9971D01*
G01Y3360010D01*
G03X7420370Y3350000I45739J5D01*
G03X7419260Y3339990I44629J-10015D01*
G01Y3309990D01*
G03X7420360Y3300000I45742J-19D01*
G03X7419260Y3290010I44642J-9971D01*
G01Y3260010D01*
G03X7420370Y3250000I45739J5D01*
G03X7419260Y3239990I44629J-10015D01*
G01Y3214990D01*
X7413680Y3212180D01*
G03X7398680Y3201320I26338J-52168D01*
G01X7328090Y3130740D01*
X7310000D01*
G03X7266060Y3097720I0J-45746D01*
G02X7255160Y3090450I-9758J2823D01*
G03X7250000Y3090740I-5143J-45451D01*
G01X7190000D01*
G03X7158790Y3078440I0J-45746D01*
G01X7110000D01*
G03X7068680Y3061320I6J-58438D01*
G01X7028680Y3021320D01*
G03X7011560Y2980000I41304J-41320D01*
G01Y2184210D01*
X6985790Y2158440D01*
X6510530D01*
X6508130Y2165220D01*
G03X6465000Y2195740I-43130J-15215D01*
G01X6451670D01*
G02X6434240Y2226500I3J20320D01*
G03X6440740Y2250000I-39231J23500D01*
G01Y2390000D01*
G03X6440660Y2392730I-45741J26D01*
G02X6460940Y2414260I20283J1211D01*
G01X6504060D01*
G02X6524340Y2392730I-3J-20319D01*
G03X6524260Y2390000I45661J-2704D01*
G01Y2340000D01*
G03X6528860Y2320000I45742J-8D01*
G03X6524260Y2300000I41142J-19992D01*
G01Y2250000D01*
G03X6570000Y2204260I45740J0D01*
G01X6630000D01*
G03X6675730Y2249080I0J45739D01*
G01X6675810Y2253170D01*
X6716910Y2294260D01*
X6760000D01*
G03X6776570Y2297370I-8J45739D01*
G03X6820000Y2283780I43438J62627D01*
G03X6896220Y2360000I0J76220D01*
G03X6889910Y2390370I-76221J4D01*
G02X6901150Y2417400I18634J8103D01*
G03X6930240Y2460000I-16647J42600D01*
G01Y2640000D01*
G03X6923150Y2664460I-45738J0D01*
G02X6929570Y2692560I17174J10860D01*
G03X6939530Y2700470I-29560J47447D01*
G01X6969530Y2730470D01*
G03X6985900Y2770000I-39543J39530D01*
G01Y3496850D01*
X7008160Y3519110D01*
G37*
G36*
G01X6440740Y4053460D02*
X7290010D01*
X7490370Y3853090D01*
G02X7483190Y3835750I-7185J-7181D01*
G01X7465000D01*
G03X7452010Y3833870I-11J-45742D01*
G01X7450600Y3833450D01*
X7336290D01*
X7334360Y3841140D01*
G03X7329090Y3853750I-44363J-11134D01*
G03X7341220Y3895000I-64089J41254D01*
G03X7188780I-76220J0D01*
G03X7200910Y3853750I76219J4D01*
G03X7194260Y3830000I39086J-23750D01*
G01Y3770000D01*
G03X7196150Y3757000I45738J12D01*
G02X7176660Y3730910I-19485J-5769D01*
G01X7138140D01*
X7125900Y3743150D01*
Y3940000D01*
G03X7109530Y3979530I-55913J0D01*
G01X7079530Y4009530D01*
G03X7040000Y4025900I-39530J-39543D01*
G01X6840000D01*
G03X6800470Y4009530I0J-55913D01*
G01X6770470Y3979530D01*
G03X6762250Y3969060I39546J-39509D01*
G03X6730000Y3976220I-32250J-69050D01*
G03X6653780Y3900000I0J-76220D01*
G03X6662030Y3865510I76220J0D01*
G03X6654260Y3840000I37972J-25504D01*
G01Y3815940D01*
G02X6632730Y3795660I-20319J3D01*
G03X6630000Y3795740I-2704J-45661D01*
G01X6607550D01*
X6607050Y3795790D01*
G03X6600000Y3796140I-7048J-70790D01*
G01X6440740D01*
Y3850000D01*
G03X6430660Y3878640I-45727J0D01*
G02Y3891360I7927J6360D01*
G03X6440740Y3920000I-35647J28640D01*
G01Y4053460D01*
G37*
G36*
G01X8149530Y3610470D02*
X8259250Y3720200D01*
X8269110Y3710350D01*
X8269390Y3706590D01*
G03X8270360Y3700000I45618J3348D01*
G03X8269260Y3690010I44642J-9971D01*
G01Y3660010D01*
G03X8270370Y3650000I45739J5D01*
G03X8269260Y3639990I44629J-10015D01*
G01Y3609990D01*
G03X8270360Y3600000I45742J-19D01*
G03X8269260Y3590010I44642J-9971D01*
G01Y3560010D01*
G03X8270370Y3550000I45739J5D01*
G03X8269260Y3539990I44629J-10015D01*
G01Y3509990D01*
G03X8270360Y3500000I45742J-19D01*
G03X8269260Y3490010I44642J-9971D01*
G01Y3460010D01*
G03X8270370Y3450000I45739J5D01*
G03X8269260Y3439990I44629J-10015D01*
G01Y3409990D01*
G03X8270360Y3400000I45742J-19D01*
G03X8269260Y3390010I44642J-9971D01*
G01Y3360010D01*
G03X8270370Y3350000I45739J5D01*
G03X8269260Y3339990I44629J-10015D01*
G01Y3309990D01*
G03X8279340Y3281350I45727J0D01*
G02Y3268630I-7927J-6360D01*
G03X8269260Y3239990I35647J-28640D01*
G01Y3209990D01*
G03X8269750Y3203320I45739J7D01*
G02X8246680Y3180250I-20103J-2967D01*
G03X8240010Y3180740I-6677J-45249D01*
G01X8159990D01*
G03X8150000Y3179640I-19J-45742D01*
G03X8140010Y3180740I-9971J-44642D01*
G01X8059990D01*
G03X8050000Y3179640I-19J-45742D01*
G03X8040010Y3180740I-9971J-44642D01*
G01X7959990D01*
G03X7950000Y3179640I-19J-45742D01*
G03X7940010Y3180740I-9971J-44642D01*
G01X7859990D01*
G03X7850000Y3179640I-19J-45742D01*
G03X7840010Y3180740I-9971J-44642D01*
G01X7831570D01*
X7828960Y3187000D01*
G03X7816310Y3205920I-53974J-22398D01*
G01X7790910Y3231320D01*
G03X7749590Y3248440I-41326J-41318D01*
G01X7650000D01*
G03X7642220Y3247920I-1J-58440D01*
G02X7630710Y3258360I-1357J10069D01*
G03X7630740Y3260010I-45710J1656D01*
G01Y3290010D01*
G03X7629640Y3300000I-45742J19D01*
G03X7630740Y3309990I-44642J9971D01*
G01Y3339990D01*
G03X7629630Y3350000I-45739J-5D01*
G03X7630740Y3360010I-44629J10015D01*
G01Y3390010D01*
G03X7629640Y3400000I-45742J19D01*
G03X7630740Y3409990I-44642J9971D01*
G01Y3439990D01*
G03X7629630Y3450000I-45739J-5D01*
G03X7630740Y3460010I-44629J10015D01*
G01Y3490010D01*
G03X7629640Y3500000I-45742J19D01*
G03X7630740Y3509990I-44642J9971D01*
G01Y3539990D01*
G03X7629630Y3550000I-45739J-5D01*
G03X7630740Y3560010I-44629J10015D01*
G01Y3590010D01*
G03X7629640Y3600000I-45742J19D01*
G03X7630610Y3606590I-44648J9938D01*
G01X7630890Y3610350D01*
X7640750Y3620200D01*
X7650470Y3610470D01*
G03X7690000Y3594100I39530J39543D01*
G01X8110000D01*
G03X8149530Y3610470I0J55913D01*
G37*
G36*
G01X8380000Y4154260D02*
G03X8387780Y4154930I-20J45738D01*
G02X8411560Y4134900I3459J-20024D01*
G01Y4130000D01*
G03X8428680Y4088680I58424J0D01*
G01X8509730Y4007620D01*
X8510340Y4004640D01*
G03X8512430Y3996700I74648J15404D01*
G01X8512910Y3995190D01*
Y3983440D01*
X8286540D01*
X8285210Y3992040D01*
G03X8240010Y4030740I-45200J-7046D01*
G01X8210010D01*
G03X8188900Y4025580I-5J-45741D01*
G01X8182300Y4022140D01*
X8169850Y4034590D01*
X8203310Y4068060D01*
X8250000D01*
G03X8295740Y4113800I0J45740D01*
G01Y4134060D01*
G02X8317270Y4154340I20319J-3D01*
G03X8320000Y4154260I2704J45661D01*
G01X8380000D01*
G37*
G36*
G01X8623150Y3534100D02*
X8859560D01*
G02X8878600Y3506670I4J-20320D01*
G03X8873780Y3480000I71399J-26674D01*
G03X8893500Y3428840I76223J0D01*
G03X8898830Y3406750I55870J1793D01*
G02X8888780Y3379530I-18374J-8682D01*
G03X8843780Y3310000I31216J-69530D01*
G03X8848370Y3283950I76217J0D01*
G03X8846060Y3277720I41621J-18976D01*
G02X8835160Y3270450I-9758J2823D01*
G03X8830000Y3270740I-5143J-45451D01*
G01X8776010D01*
X8773850Y3278010D01*
G03X8771630Y3283950I-43852J-13004D01*
G03X8776220Y3310000I-71627J26050D01*
G03X8700000Y3386220I-76220J0D01*
G03X8681100Y3383840I0J-76234D01*
G02X8655740Y3403520I-5040J19684D01*
G01Y3430000D01*
G03X8610000Y3475740I-45740J0D01*
G01X8589320D01*
G02X8582140Y3493080I5J10159D01*
G01X8623150Y3534100D01*
G37*
G36*
G01X8285750Y3135000D02*
G03X8285260Y3141670I-45739J-7D01*
G02X8308330Y3164740I20103J2967D01*
G03X8315000Y3164250I6677J45249D01*
G01X8413090D01*
X8514260Y3063080D01*
Y3050000D01*
G03X8514930Y3042220I45738J20D01*
G02X8494900Y3018440I-20024J-3459D01*
G01X8324220D01*
X8285750Y3056910D01*
Y3135000D01*
G37*
G36*
G01X8725260Y4254960D02*
X8769750Y4210470D01*
G03X8809280Y4194100I39530J39543D01*
G01X9016850D01*
X9079600Y4131350D01*
Y3982700D01*
G03X9059760Y3945000I25899J-37700D01*
G01Y3795000D01*
G03X9105500Y3749260I45740J0D01*
G01X9206600D01*
Y3715900D01*
X8600000D01*
G03X8560470Y3699530I0J-55913D01*
G01X8490740Y3629800D01*
X8480890Y3639650D01*
X8480610Y3643410D01*
G03X8479630Y3650000I-45611J-3415D01*
G03X8480740Y3660010I-44629J10015D01*
G01Y3690010D01*
G03X8479640Y3700000I-45742J19D01*
G03X8480740Y3709990I-44642J9971D01*
G01Y3739990D01*
G03X8479630Y3750000I-45739J-5D01*
G03X8480740Y3760010I-44629J10015D01*
G01Y3790010D01*
G03X8435000Y3835750I-45740J0D01*
G01X8315000D01*
G03X8296380Y3831790I-3J-45741D01*
G01X8294410Y3830910D01*
X8280370D01*
Y3843350D01*
X8281350Y3845420D01*
G03X8285210Y3857960I-41336J19588D01*
G01X8286540Y3866560D01*
X8528790D01*
G03X8560000Y3854260I31210J33446D01*
G01X8610000D01*
G03X8655740Y3900000I0J45740D01*
G01Y3960000D01*
G03X8650570Y3981130I-45741J6D01*
G03X8661220Y4020000I-65573J38860D01*
G03X8590150Y4096050I-76224J0D01*
G01X8586340Y4096300D01*
X8528440Y4154210D01*
Y4163910D01*
X8531580Y4166920D01*
G03X8545740Y4200000I-31577J33087D01*
G01Y4200260D01*
G02X8567270Y4220540I20319J-3D01*
G03X8570000Y4220460I2704J45661D01*
G01X8650000D01*
G03X8692160Y4248470I0J45734D01*
G02X8725260Y4254960I18731J-7877D01*
G37*
G36*
G01X9191400Y3149260D02*
X9460600D01*
Y2263650D01*
X8844310Y1647370D01*
X8838790Y1648680D01*
G03X8812000Y1651820I-26786J-112680D01*
G03X8742180Y1628410I0J-115824D01*
G01X8739470Y1626360D01*
X8725900D01*
Y1646850D01*
X9175030Y2095970D01*
G03X9191400Y2135500I-39543J39530D01*
G01Y3149260D01*
G37*
G36*
G01X9463490Y4085230D02*
X9474600Y4096340D01*
X9587220Y3983730D01*
X9580380Y3976550D01*
G03X9567760Y3945000I33128J-31550D01*
G01Y3795000D01*
G03X9613500Y3749260I45740J0D01*
G01X9648080D01*
Y3597130D01*
X9586850Y3535900D01*
X9410000D01*
G03X9387160Y3531020I0J-55889D01*
G02X9383680Y3530160I-4139J9278D01*
G03X9375420Y3524860I674J-10137D01*
G02X9373180Y3522060I-8930J4848D01*
G03X9370470Y3519530I36772J-42104D01*
G01X9241690Y3390740D01*
X9183830D01*
G02X9164150Y3416110I1J20319D01*
G03X9165870Y3428150I-54151J13879D01*
G03X9186220Y3480000I-55880J51850D01*
G03X9181400Y3506670I-76219J-4D01*
G02X9200440Y3534100I19036J7110D01*
G01X9339500D01*
G03X9362340Y3538980I0J55889D01*
G02X9365820Y3539840I4139J-9278D01*
G03X9374080Y3545140I-674J10137D01*
G02X9376320Y3547940I8930J-4848D01*
G03X9379030Y3550470I-36772J42104D01*
G01X9429030Y3600470D01*
G03X9445400Y3640000I-39543J39530D01*
G01Y3678190D01*
G03X9465720Y3730000I-55890J51810D01*
G03X9455940Y3767350I-76210J0D01*
G03X9465240Y3795000I-36453J27650D01*
G01Y3945000D01*
G03X9453620Y3975460I-45733J0D01*
G02X9453710Y3989090I7582J6765D01*
G03X9465740Y4020000I-33708J30915D01*
G01Y4070000D01*
G03X9464680Y4079800I-45741J10D01*
G01X9463490Y4085230D01*
G37*
%LPC*%
G75*
G36*
G01X10200000Y3520000D02*
X10297690D01*
X10299810Y3521040D01*
G02X10320000Y3525740I20195J-41039D01*
G01X10400000D01*
G02X10445740Y3480000I0J-45740D01*
G01Y3410000D01*
G02X10443860Y3397010I-45742J-11D01*
G01X10443440Y3395600D01*
Y3149280D01*
G02X10465740Y3110000I-23445J-39280D01*
G01Y3060000D01*
G02X10420000Y3014260I-45740J0D01*
G01X10383610D01*
X10345740Y2976390D01*
Y2970000D01*
G02X10300000Y2924260I-45740J0D01*
G01X10240000D01*
G02X10216250Y2930910I0J45736D01*
G02X10175000Y2918780I-41254J64089D01*
G02X10098780Y2995000I0J76220D01*
G02X10174160Y3071220I76225J0D01*
G03X10194260Y3091530I-218J20317D01*
G01Y3110000D01*
G02X10214100Y3147700I45739J0D01*
G01Y3190000D01*
G02X10230470Y3229530I55913J0D01*
G01X10279100Y3278150D01*
Y3389520D01*
G02X10278860Y3390000I40792J20696D01*
G01X10200000D01*
Y3520000D01*
G37*
G36*
G01X10074260Y2680000D02*
G02X10120000Y2725740I45740J0D01*
G01X10240000D01*
G02X10285740Y2680000I0J-45740D01*
G01Y2572260D01*
G03X10317170Y2555250I20318J1D01*
G02X10350000Y2565020I32823J-50252D01*
G02Y2444980I0J-60020D01*
G02X10292340Y2488320I0J60026D01*
G03X10262730Y2500310I-19519J-5646D01*
G02X10259750Y2498740I-22796J39655D01*
G03X10254240Y2487270I4383J-9164D01*
G02X10256220Y2470000I-74241J-17260D01*
G02X10103780I-76220J0D01*
G02X10105760Y2487270I76221J10D01*
G03X10100250Y2498740I-9893J2306D01*
G02X10074260Y2540000I19756J41260D01*
G01Y2680000D01*
G37*
G54D43*
X10350000Y2275000D03*
G54D42*
X5254920Y220000D03*
Y1120000D03*
X2420000Y220000D03*
Y1120000D03*
X8110000Y220000D03*
G54D44*
X3045000Y420000D03*
X1795000D03*
G54D46*
X7398000Y1536000D03*
X5307000Y2590000D03*
X5467000Y3530000D03*
X7144000Y1536000D03*
G54D45*
X3670000Y2700000D03*
Y3450000D03*
%LPD*%
G75*
G54D10*
X360000Y360000D03*
Y5130000D03*
X10170000Y360000D03*
Y5120000D03*
G54D11*
X264410Y918370D03*
X156010Y1927280D03*
Y2427280D03*
Y2927280D03*
Y3427280D03*
Y3927280D03*
Y4427280D03*
X764410Y918370D03*
X883810Y2337910D03*
X1264410Y418370D03*
Y918370D03*
X1383810Y2337910D03*
X1280000Y3720000D03*
Y3570000D03*
X1883810Y2337910D03*
X1850000Y2970000D03*
X1680000D03*
X1850000Y3120000D03*
X1680000D03*
X1580000Y3430000D03*
X1690000D03*
X1800000D03*
Y3550000D03*
X1560000Y3720000D03*
X1430000D03*
Y4310000D03*
X1700000D03*
X1870000D03*
X2050000Y2970000D03*
X2260000D03*
Y3120000D03*
X2050000D03*
X2430000Y3490000D03*
Y3420000D03*
Y3560000D03*
X2050000Y4310000D03*
X2230000D03*
X2410000D03*
X2937280Y2203990D03*
X2520000Y3490000D03*
Y3420000D03*
Y3560000D03*
X3478540Y278860D03*
X3498540Y1028860D03*
X3437280Y2203990D03*
X3407280Y3533990D03*
X3417280Y4053990D03*
X3978540Y278860D03*
X3998540Y1028860D03*
X3937280Y2203990D03*
X3907280Y3533990D03*
X3917280Y4053990D03*
X4478540Y278860D03*
X4437280Y2203990D03*
X4407280Y3533990D03*
X4417280Y4053990D03*
X4978540Y278860D03*
X4937280Y2203990D03*
X5478540Y278860D03*
X5437280Y2203990D03*
X5130000Y3030000D03*
X5978540Y278860D03*
X6120000Y2360000D03*
X5677280Y3033990D03*
X5680000Y3570000D03*
X6110000Y3780000D03*
X6478540Y278860D03*
X6508540Y988860D03*
X6177280Y3033990D03*
X6600000Y4010000D03*
X6978540Y278860D03*
X7008540Y988860D03*
X6820000Y2260000D03*
Y2360000D03*
X6970000Y2500000D03*
X7160000D03*
Y2810000D03*
X6677280Y3033990D03*
X7178540Y3398860D03*
X6880000Y3900000D03*
X6730000D03*
X7478540Y278860D03*
X7540840Y1930570D03*
X7380000Y2500000D03*
X7260000Y2810000D03*
X7678540Y3398860D03*
X7390000Y3900000D03*
X7590000Y4030000D03*
X7265000Y3895000D03*
X7978540Y278860D03*
X7738540Y1418860D03*
X8040840Y1930570D03*
X8110000Y2580000D03*
X7960000D03*
X7870000Y2870000D03*
X8110000Y3400000D03*
X7725010Y4040000D03*
X7774990Y3800000D03*
X7825010Y4040000D03*
X7820000Y4280000D03*
Y4190000D03*
X7720000D03*
X8478540Y278860D03*
X8238540Y1418860D03*
X8540840Y1930570D03*
X8270000Y2580000D03*
X8430000D03*
Y2730000D03*
Y2870000D03*
X8585000D03*
X8360000Y3100000D03*
X8700000Y3310000D03*
X8350000Y4040000D03*
X8519410Y3800720D03*
X8585000Y4020000D03*
X8978540Y278860D03*
X9260000Y3480000D03*
X8820000Y3030000D03*
Y3380000D03*
X8920000Y3310000D03*
X8950000Y3480000D03*
X9026680D03*
X9110000D03*
X9019410Y3800720D03*
X9262500Y3660000D03*
X9020000Y4130000D03*
X9260000Y4220000D03*
X9478540Y278860D03*
X9378540Y2328860D03*
Y2658860D03*
X9390000Y3020000D03*
X9580000Y3640000D03*
X9510000Y4010000D03*
X9389500Y3730000D03*
X10219280Y1409410D03*
Y909410D03*
Y1909410D03*
X9878540Y2328860D03*
X10180000Y2470000D03*
X9878540Y2658860D03*
X10175000Y2995000D03*
X10180000Y3260000D03*
X9990000Y3085000D03*
X10310000Y3570000D03*
X10250000D03*
X10235000Y3865000D03*
X10319280Y4069410D03*
Y4569410D03*
X10370000Y3570000D03*
X10385000Y3795000D03*
G54D20*
X1561600Y3854030D03*
X1656600D03*
X1466600D03*
Y3594030D03*
X1561600D03*
X1656600D03*
G54D12*
X702000Y1536000D03*
Y4584000D03*
X1210000Y1536000D03*
X956000D03*
Y4584000D03*
X1210000D03*
X1718000Y1536000D03*
X1464000D03*
Y4584000D03*
X1718000D03*
X3386000Y1536000D03*
X3132000D03*
Y4584000D03*
X3386000D03*
X3894000Y1536000D03*
X3640000D03*
Y4584000D03*
X3894000D03*
X4148000Y1536000D03*
Y4584000D03*
X5053000Y2590000D03*
X5307000D03*
X5467000Y3530000D03*
X5213000D03*
X6636000Y1536000D03*
X6382000D03*
Y4584000D03*
X6636000D03*
X7144000Y1536000D03*
X6890000D03*
Y4584000D03*
X7144000D03*
X7398000Y1536000D03*
Y4584000D03*
X9066000Y1536000D03*
X8812000D03*
Y4584000D03*
X9066000D03*
X9828000Y1536000D03*
X9574000D03*
X9320000D03*
Y4584000D03*
X9574000D03*
X9828000D03*
G54D21*
X2140000Y3529030D03*
Y3919030D03*
G54D30*
X7378400Y2630000D03*
X7581600D03*
X7378400Y2810000D03*
X7581600D03*
G54D40*
G01X2530000Y3160000D02*
Y1980000D01*
X2620000Y1890000D01*
X5910000D01*
X5990000Y1970000D01*
Y2105000D01*
G01X2530000Y3330000D02*
Y3160000D01*
G01D02*
X4890000D01*
G01X2520000Y3560000D02*
X2530000Y3570000D01*
G01D02*
Y4140000D01*
X2593500Y4203500D01*
X5000920D01*
G01X3670000Y3860000D02*
X5875000D01*
X6005000Y3990000D01*
G01X4890000Y3160000D02*
X4965000Y3085000D01*
Y2750000D01*
G01X4890000Y3160000D02*
X4965000Y3235000D01*
Y3530000D01*
G01D02*
Y3645000D01*
X5100000Y3780000D01*
X6005000D01*
G01X7820000Y4280000D02*
X7770000Y4330000D01*
X5040000D01*
X5000920Y4290920D01*
Y4203500D01*
G01X6005000Y2320000D02*
Y2120000D01*
X5990000Y2105000D01*
G01X6005000Y2320000D02*
X6045000Y2360000D01*
X6120000D01*
G01X6005000Y3780000D02*
X6110000D01*
G01X6600500Y3550000D02*
Y3724500D01*
X6600000Y3725000D01*
G01D02*
X6410000D01*
X6355000Y3780000D01*
G01D02*
Y3990000D01*
G01X7378400Y2810000D02*
X7260000D01*
G01X9897500Y3270000D02*
Y3087500D01*
X9900000Y3085000D01*
G01D02*
X9990000D01*
G54D13*
X750000Y3905000D03*
G54D22*
X2315000Y4140000D03*
X1965000D03*
X6005000Y2320000D03*
Y3990000D03*
Y3780000D03*
X6355000Y2320000D03*
Y3990000D03*
Y3780000D03*
G54D31*
X7525000Y3475010D03*
Y3424990D03*
Y3375010D03*
Y3324990D03*
Y3275010D03*
Y3224990D03*
Y3775010D03*
Y3724990D03*
Y3675010D03*
Y3624990D03*
Y3575010D03*
Y3524990D03*
X8375000Y3224990D03*
Y3275010D03*
Y3324990D03*
Y3375010D03*
Y3424990D03*
Y3475010D03*
Y3524990D03*
Y3575010D03*
Y3624990D03*
Y3675010D03*
Y3724990D03*
Y3775010D03*
G54D41*
G01X1140000Y3900000D02*
X755000D01*
X750000Y3905000D01*
G54D14*
Y4155000D03*
X10380000Y2015000D03*
Y2765000D03*
G54D23*
X2530000Y3330000D03*
G54D32*
X7674990Y3075000D03*
Y3925000D03*
X7725010Y3075000D03*
X7774990D03*
X7825010D03*
X7874990D03*
X7925010D03*
X7974990D03*
X8025010D03*
X8074990D03*
X8125010D03*
X8174990D03*
Y3925000D03*
X8125010D03*
X8074990D03*
X8025010D03*
X7974990D03*
X7925010D03*
X7874990D03*
X7825010D03*
X7774990D03*
X7725010D03*
X8225010Y3075000D03*
Y3925000D03*
G54D15*
X1330000Y3405000D03*
Y3315000D03*
Y3945000D03*
Y3855000D03*
X1470000Y3315000D03*
Y3405000D03*
X1800000Y3679030D03*
Y3769030D03*
X2350000Y3305000D03*
Y3215000D03*
X6600000Y2365000D03*
Y2275000D03*
Y3725000D03*
Y3815000D03*
X6730000Y2275000D03*
Y2365000D03*
Y3815000D03*
Y3725000D03*
X6880000Y3815000D03*
Y3725000D03*
X7340000Y2980000D03*
Y3060000D03*
X7220000Y3020000D03*
X7730000Y2705000D03*
Y2795000D03*
X7870000D03*
Y2705000D03*
X7930000Y4225000D03*
Y4315000D03*
X8580000Y3280000D03*
Y3200000D03*
X8700000Y3240000D03*
X8350000Y4225000D03*
Y4315000D03*
X8470000Y4225000D03*
Y4315000D03*
X8800000Y3280000D03*
Y3200000D03*
X8920000Y3240000D03*
X9260000Y4135000D03*
Y4045000D03*
X9390000Y4135000D03*
Y4045000D03*
X9900000Y3085000D03*
Y2995000D03*
X10270000D03*
Y3085000D03*
X10390000D03*
Y2995000D03*
G54D24*
X3670000Y2260000D03*
Y3860000D03*
G54D33*
X8110000Y2770000D03*
X7990000D03*
X8230000D03*
G54D16*
X1140000Y3900000D03*
Y4180000D03*
G54D25*
X4965000Y2750000D03*
X5055000D03*
X4965000Y3530000D03*
X5055000D03*
X7175000Y3800000D03*
X7265000D03*
X8675000Y2960000D03*
X8585000D03*
X8675000Y3080000D03*
X8585000D03*
Y3400000D03*
X8675000D03*
Y3930000D03*
X8585000D03*
G54D34*
X9135500Y3270000D03*
X9262500D03*
Y3870000D03*
X9135500D03*
X9389500Y3270000D03*
X9516500D03*
X9643500D03*
X9770500D03*
Y3870000D03*
X9643500D03*
X9516500D03*
X9389500D03*
X9897500Y3270000D03*
X10024500D03*
Y3870000D03*
X9897500D03*
G54D17*
X1795000Y420000D03*
Y920000D03*
X3045000Y420000D03*
Y920000D03*
X4629920Y420000D03*
Y920000D03*
X5879920Y420000D03*
Y920000D03*
X7485000Y420000D03*
Y920000D03*
X8735000Y420000D03*
Y920000D03*
G54D26*
X5000920Y4203500D03*
Y4076500D03*
X5127920Y4203500D03*
Y4076500D03*
X5254920Y4203500D03*
Y4076500D03*
X5381920Y4203500D03*
Y4076500D03*
X5508920Y4203500D03*
G54D35*
X10180000Y2170000D03*
Y2610000D03*
G54D27*
X5508920Y4076500D03*
G54D36*
X10235000Y3445000D03*
X10285000D03*
Y3695000D03*
X10235000D03*
X10335000Y3445000D03*
X10385000D03*
Y3695000D03*
X10335000D03*
G54D18*
X1950000Y3316200D03*
Y3163800D03*
X2160000Y3316200D03*
Y3163800D03*
X8070000Y4306200D03*
Y4153800D03*
X8210000Y4306200D03*
Y4153800D03*
X8610000Y4306200D03*
Y4153800D03*
G54D19*
X1561600Y4038400D03*
Y4241600D03*
G54D28*
X6000000Y1755000D03*
X5990000Y2105000D03*
X6370000D03*
G54D37*
X10310000Y3570000D03*
G54D38*
G01X6890000Y4584000D02*
X6714000Y4760000D01*
X610000D01*
X320000Y4470000D01*
Y1570000D01*
X530000Y1360000D01*
X6714000D01*
X6890000Y1536000D01*
G01X1210000D02*
X1086000Y1660000D01*
X550000D01*
X450000Y1760000D01*
Y4300000D01*
X560000Y4410000D01*
X1036000D01*
X1210000Y4584000D01*
G01X3640000Y1536000D02*
X3514000Y1410000D01*
X550000D01*
X390000Y1570000D01*
Y4450000D01*
X630000Y4690000D01*
X3534000D01*
X3640000Y4584000D01*
G01X1330000Y3405000D02*
X1470000D01*
G01X1330000Y3855000D02*
X1465630D01*
X1466600Y3854030D01*
G01X1330000Y3945000D02*
Y4020000D01*
G01X1210000Y4584000D02*
X1384000Y4410000D01*
X8649280D01*
X8809280Y4250000D01*
X9040000D01*
X9135500Y4154500D01*
Y3870000D01*
G01X1466600Y3594030D02*
Y3408400D01*
X1470000Y3405000D01*
G01X1800000Y3679030D02*
X1709040D01*
X1656600Y3626590D01*
Y3594030D01*
G01X1800000Y3769030D02*
Y3880000D01*
G01X9110000Y3480000D02*
Y3430000D01*
X9070000Y3390000D01*
Y2148560D01*
X8610000Y1688560D01*
Y1350320D01*
X8910000Y1050320D01*
Y820000D01*
X8820000Y730000D01*
X3235000D01*
X3045000Y920000D01*
G01X3640000Y4584000D02*
X3764000Y4460000D01*
X8670000D01*
X8830000Y4300000D01*
X9350000D01*
X9643500Y4006500D01*
Y3870000D01*
G01X5053000Y2590000D02*
Y2748000D01*
X5055000Y2750000D01*
G01X5213000Y3530000D02*
X5055000D01*
G01X8375000Y3775010D02*
X8235010D01*
X8110000Y3650000D01*
X7690000D01*
X7640000Y3700000D01*
Y3782520D01*
X7313160Y4109360D01*
X5706840D01*
X5588420Y3990940D01*
X5444190D01*
X5381920Y4053210D01*
Y4076500D01*
G01X5508920D02*
X5616500D01*
X5690000Y4150000D01*
X7330000D01*
X7680640Y3799360D01*
Y3720000D01*
X7710000Y3690640D01*
X8090640D01*
X8125010Y3725010D01*
Y3925000D01*
G01X5879920Y920000D02*
X6249920Y1290000D01*
X8440000D01*
X8510000Y1360000D01*
Y1730000D01*
X8986040Y2206040D01*
Y3393960D01*
X8949370Y3430630D01*
Y3479370D01*
X8950000Y3480000D01*
G01X6600500Y2550000D02*
Y2365500D01*
X6600000Y2365000D01*
G01X7525000Y3575010D02*
X6985010D01*
X6930000Y3520000D01*
Y2770000D01*
X6900000Y2740000D01*
X6630000D01*
X6600500Y2710500D01*
Y2550000D01*
G01X6880000Y3815000D02*
Y3900000D01*
G01X6730000Y3815000D02*
Y3900000D01*
G01X7525000Y3624990D02*
X6880330D01*
X6860000Y3604660D01*
G01X6854500Y3550000D02*
X6860000Y3555500D01*
Y3604660D01*
G01D02*
Y3657140D01*
X6880000Y3677140D01*
Y3725000D01*
G01X6727500Y3550000D02*
X6730000Y3552500D01*
Y3725000D01*
G01D02*
X6745000D01*
X6810000Y3790000D01*
Y3940000D01*
X6840000Y3970000D01*
X7040000D01*
X7070000Y3940000D01*
Y3720000D01*
X7114990Y3675010D01*
X7525000D01*
G01X6890000Y4584000D02*
X7016000Y4710000D01*
X8870000D01*
X8950000Y4630000D01*
Y4490000D01*
X9040640Y4399360D01*
X9389680D01*
X9770500Y4018540D01*
Y3870000D01*
G01X8074990Y3925000D02*
Y4018790D01*
X8210000Y4153800D01*
G01X8025010Y3925000D02*
Y4108810D01*
X8070000Y4153800D01*
G01X7820000Y4190000D02*
X7820630Y4190630D01*
X7849370D01*
X7974990Y4065010D01*
Y3925000D01*
G01X7720000Y4190000D02*
X7790000Y4120000D01*
X7850000D01*
X7925010Y4044990D01*
Y3925000D01*
G01X7725010Y4040000D02*
Y3925000D01*
G01X7774990D02*
Y3800000D01*
G01X7825010Y3925000D02*
Y4040000D01*
G01X8070000Y4306200D02*
X7991660D01*
X7982860Y4315000D01*
X7930000D01*
G01X9026680Y3480000D02*
Y2175960D01*
X8560000Y1709280D01*
Y1310000D01*
X8735000Y1135000D01*
Y920000D01*
G01X9828000Y1536000D02*
X9672000Y1380000D01*
X8780000D01*
X8670000Y1490000D01*
Y1670000D01*
X9135500Y2135500D01*
Y3270000D01*
G01X8375000Y3424990D02*
X8560010D01*
X8585000Y3400000D01*
G01X8700000Y3240000D02*
Y3310000D01*
G01X8580000Y3200000D02*
X8620000Y3160000D01*
X8750000D01*
X8790000Y3200000D01*
X8800000D01*
G01X8580000D02*
X8521060D01*
X8500000Y3221060D01*
Y3354690D01*
X8479680Y3375010D01*
X8375000D01*
G01Y3475010D02*
X8485010D01*
X8600000Y3590000D01*
X9339500D01*
X9389500Y3640000D01*
Y3730000D01*
G01X9262500Y3660000D02*
X8600000D01*
X8464990Y3524990D01*
X8375000D01*
G01X8610000Y4306200D02*
X8531660D01*
X8522860Y4315000D01*
X8470000D01*
G01X8210000Y4306200D02*
X8272860D01*
X8281660Y4315000D01*
X8350000D01*
G01X9516500Y3270000D02*
Y2240500D01*
X8812000Y1536000D01*
G01X9643500Y3270000D02*
Y2113500D01*
X9066000Y1536000D01*
G01X8920000Y3240000D02*
Y3310000D01*
G01X9389500Y3270000D02*
Y3329500D01*
X9490000Y3430000D01*
X9670000D01*
X9837020Y3597020D01*
Y4009500D01*
X9406520Y4440000D01*
X9210000D01*
X9066000Y4584000D01*
G01X8812000D02*
Y4468000D01*
X8930000Y4350000D01*
X9370000D01*
X9703980Y4016020D01*
Y3573980D01*
X9610000Y3480000D01*
X9410000D01*
X9262500Y3332500D01*
Y3270000D01*
G01X9770500D02*
Y1732500D01*
X9574000Y1536000D01*
G01X9897500Y3870000D02*
Y3547500D01*
X9710000Y3360000D01*
Y1926000D01*
X9320000Y1536000D01*
G01X9389500Y3870000D02*
X9390000Y3870500D01*
Y4045000D01*
G01X9389500Y3730000D02*
Y3870000D01*
G01X9262500D02*
X9260000Y3872500D01*
Y4045000D01*
G01X9262500Y3870000D02*
Y3660000D01*
G01X10024500Y3870000D02*
Y4133500D01*
X9574000Y4584000D01*
G01X9897500Y3870000D02*
Y4006500D01*
X9320000Y4584000D01*
G01X10180000Y2610000D02*
Y2470000D01*
G01X10024500Y3270000D02*
Y3324500D01*
X10100000Y3400000D01*
Y4312000D01*
X9828000Y4584000D01*
G01X10335000Y3445000D02*
Y3255000D01*
X10270000Y3190000D01*
Y3085000D01*
G01X10235000Y3695000D02*
Y3865000D01*
G01X10385000Y3695000D02*
Y3795000D01*
G54D29*
X6092500Y2550000D03*
X5965500D03*
X6092500Y3550000D03*
X5965500D03*
X6600500Y2550000D03*
X6346500D03*
X6473500D03*
X6219500D03*
X6600500Y3550000D03*
X6346500D03*
X6473500D03*
X6219500D03*
X6854500Y2550000D03*
X6727500D03*
X6854500Y3550000D03*
X6727500D03*
G54D39*
G01X3045000Y920000D02*
X1795000D01*
G01X1470000Y3315000D02*
X1948800D01*
G01D02*
X1950000Y3316200D01*
G01X5879920Y920000D02*
X4629920D01*
G01X6730000Y2365000D02*
X6705000D01*
X6615000Y2275000D01*
X6600000D01*
G01X6355000Y2320000D02*
Y2120000D01*
X6370000Y2105000D01*
G01D02*
X6375000Y2100000D01*
X7010000D01*
X7070000Y2160000D01*
Y2980000D01*
X7110000Y3020000D01*
X7220000D01*
G01X6727500Y2550000D02*
Y2367500D01*
X6730000Y2365000D01*
G01D02*
X6815000D01*
X6820000Y2360000D01*
G01X8735000Y920000D02*
X7485000D01*
G01X7730000Y2705000D02*
X7646600D01*
X7581600Y2640000D01*
Y2630000D01*
G01Y2810000D02*
X7596600Y2795000D01*
X7730000D01*
G01X7340000Y3060000D02*
X7440000Y3160000D01*
X7620000D01*
X7650000Y3190000D01*
X7749590D01*
X7774990Y3164600D01*
Y3075000D01*
G01X7170000Y3744600D02*
X7189610Y3724990D01*
X7525000D01*
G01Y3775010D02*
X7289990D01*
X7265000Y3800000D01*
G01Y3895000D02*
Y3800000D01*
G01X7730000Y2705000D02*
X7745000D01*
X7800000Y2760000D01*
Y2900000D01*
X7874990Y2974990D01*
Y3075000D01*
G01X7730000Y2795000D02*
Y2900000D01*
X7825010Y2995010D01*
Y3075000D01*
G01X7870000Y2870000D02*
Y2795000D01*
G01X7925010Y3075000D02*
Y2925010D01*
X7870000Y2870000D01*
G01X8230000Y2770000D02*
Y2900000D01*
X8210000Y2920000D01*
X8060000D01*
X8025010Y2954990D01*
Y3075000D01*
G01X7974990D02*
Y2785010D01*
X7990000Y2770000D01*
G01X8190000Y4030000D02*
X8174990Y4014990D01*
Y3925000D01*
G01X7930000Y4225000D02*
X7915000D01*
X7860000Y4280000D01*
X7820000D01*
G01X8585000Y2960000D02*
X8300010D01*
X8225010Y3035000D01*
Y3075000D01*
G01X8585000Y3080000D02*
Y2960000D01*
G01D02*
Y2870000D01*
G01X8250000Y3270000D02*
X8255010Y3275010D01*
G01X8675000Y3400000D02*
Y3388300D01*
G01D02*
X8580000Y3293300D01*
Y3280000D01*
G01X8300000Y3150000D02*
X8260000Y3190000D01*
G01D02*
X8250000D01*
G01X8255010Y3275010D02*
X8375000D01*
G01Y3224990D02*
X8435000D01*
X8579990Y3080000D01*
X8585000D01*
G01X8225010Y3925000D02*
X8580000D01*
X8585000Y3930000D01*
G01D02*
Y4020000D01*
G01D02*
X8580000D01*
X8470000Y4130000D01*
Y4225000D01*
G01D02*
X8350000D01*
G01X9390000Y4135000D02*
X9260000D01*
G01D02*
Y4220000D01*
G01X10230000Y3360000D02*
X10235000Y3365000D01*
G01X10285000Y3445000D02*
Y3545000D01*
G01X10180000Y3450000D02*
X10185000Y3445000D01*
G01X10265360Y3324640D02*
X10285000Y3344280D01*
Y3445000D01*
G01X10235000Y3365000D02*
Y3445000D01*
G01X10185000D02*
X10235000D01*
G01X10260400Y3545000D02*
X10235000Y3519600D01*
Y3445000D01*
G01X10270000Y2995000D02*
X10175000D01*
G01X10390000Y3085000D02*
X10371700D01*
X10281700Y2995000D01*
X10270000D01*
G01X10310000Y3570000D02*
X10285000Y3545000D01*
G01Y3695000D02*
Y3595000D01*
G01Y3695000D02*
Y3818010D01*
X10330000Y3863010D01*
G01X10285000Y3545000D02*
X10260400D01*
G01X10285000Y3595000D02*
X10310000Y3570000D01*
G01X10390000Y3085000D02*
X10385000Y3090000D01*
Y3445000D01*
G01X10330000Y3863010D02*
Y3870000D01*
M02*
