M48
METRIC,TZ
T01C.3048
T02C.6
T03C.8
T04C1.
T05C1.3
T06C3.3
;LEADER: 12 
;HEADER: 
;CODE  : ASCII 
;FILE  : F103_BOOM_V10_220614-1-2.drl for board G:/github/Nixie-Tube-Clock/HARDWARE/F103_BOOM_V10_220614/PCB/#Taaaaia00980.tmp ... layers TOP and BOTTOM
;T01 Holesize 1. = 0.304800 Tolerance = +0.000000/-0.000000 PLATED MM Quantity = 150
;T02 Holesize 2. = 0.600000 Tolerance = +0.000000/-0.000000 PLATED MM Quantity = 10
;T03 Holesize 3. = 0.800000 Tolerance = +0.000000/-0.000000 PLATED MM Quantity = 44
;T04 Holesize 4. = 1.000000 Tolerance = +0.000000/-0.000000 PLATED MM Quantity = 4
;T05 Holesize 5. = 1.300000 Tolerance = +0.000000/-0.000000 PLATED MM Quantity = 12
;T06 Holesize 6. = 3.300000 Tolerance = +0.000000/-0.000000 PLATED MM Quantity = 4
%
G90
T01
X264410Y918370
X764410Y918370
X1264410Y418370
X1264410Y918370
X3478540Y278860
X3498540Y1028860
X3978540Y278860
X3998540Y1028860
X4478540Y278860
X4978540Y278860
X5478540Y278860
X5978540Y278860
X6478540Y278860
X6508540Y988860
X6978540Y278860
X7008540Y988860
X7478540Y278860
X7978540Y278860
X8478540Y278860
X8978540Y278860
X9478540Y278860
X10219280Y909410
X10219280Y1909410
X10219280Y1409410
X10180000Y2470000
X9878540Y2328860
X9378540Y2328860
X8540840Y1930570
X8238540Y1418860
X8040840Y1930570
X7738540Y1418860
X7540840Y1930570
X7380000Y2500000
X7160000Y2500000
X6970000Y2500000
X6820000Y2360000
X6820000Y2260000
X6120000Y2360000
X5437280Y2203990
X4937280Y2203990
X4437280Y2203990
X3937280Y2203990
X3437280Y2203990
X2937280Y2203990
X1883810Y2337910
X1383810Y2337910
X883810Y2337910
X156010Y2427280
X156010Y1927280
X156010Y2927280
X156010Y3427280
X1280000Y3570000
X1280000Y3720000
X1430000Y3720000
X1560000Y3720000
X1580000Y3430000
X1680000Y2970000
X1680000Y3120000
X1690000Y3430000
X1800000Y3430000
X1800000Y3550000
X1850000Y2970000
X1850000Y3120000
X2050000Y2970000
X2050000Y3120000
X2260000Y2970000
X2260000Y3120000
X2430000Y3420000
X2430000Y3490000
X2430000Y3560000
X2520000Y3420000
X2520000Y3490000
X2520000Y3560000
X3407280Y3533990
X3907280Y3533990
X4407280Y3533990
X5130000Y3030000
X5677280Y3033990
X5680000Y3570000
X6110000Y3780000
X6177280Y3033990
X6677280Y3033990
X7160000Y2810000
X7178540Y3398860
X7260000Y2810000
X7678540Y3398860
X7774990Y3800000
X7870000Y2870000
X7960000Y2580000
X8110000Y2580000
X8110000Y3400000
X8270000Y2580000
X8360000Y3100000
X8430000Y2580000
X8430000Y2730000
X8430000Y2870000
X8519410Y3800720
X8585000Y2870000
X8700000Y3310000
X8820000Y3030000
X8820000Y3380000
X8920000Y3310000
X8950000Y3480000
X9019410Y3800720
X9026680Y3480000
X9110000Y3480000
X9260000Y3480000
X9262500Y3660000
X9378540Y2658860
X9390000Y3020000
X9389500Y3730000
X9580000Y3640000
X9878540Y2658860
X9990000Y3085000
X10175000Y2995000
X10180000Y3260000
X10250000Y3570000
X10310000Y3570000
X10370000Y3570000
X10385000Y3795000
X10319280Y4569410
X10319280Y4069410
X10235000Y3865000
X9510000Y4010000
X9260000Y4220000
X9020000Y4130000
X8585000Y4020000
X8350000Y4040000
X7825010Y4040000
X7820000Y4280000
X7820000Y4190000
X7725010Y4040000
X7720000Y4190000
X7590000Y4030000
X7390000Y3900000
X7265000Y3895000
X6880000Y3900000
X6730000Y3900000
X6600000Y4010000
X4417280Y4053990
X3917280Y4053990
X3417280Y4053990
X2410000Y4310000
X2230000Y4310000
X2050000Y4310000
X1870000Y4310000
X1700000Y4310000
X1430000Y4310000
X156010Y4427280
X156010Y3927280
T02
X5000920Y4076500
X5000920Y4203500
X5127920Y4076500
X5127920Y4203500
X5254920Y4076500
X5254920Y4203500
X5381920Y4076500
X5381920Y4203500
X5508920Y4076500
X5508920Y4203500
T03
X702000Y1536000
X956000Y1536000
X1210000Y1536000
X1464000Y1536000
X1718000Y1536000
X3132000Y1536000
X3386000Y1536000
X3640000Y1536000
X3894000Y1536000
X4148000Y1536000
X6382000Y1536000
X6636000Y1536000
X6890000Y1536000
X7144000Y1536000
X7398000Y1536000
X8812000Y1536000
X9066000Y1536000
X9320000Y1536000
X9574000Y1536000
X9828000Y1536000
X9828000Y4584000
X9574000Y4584000
X9320000Y4584000
X9066000Y4584000
X8812000Y4584000
X7398000Y4584000
X7144000Y4584000
X6890000Y4584000
X6636000Y4584000
X6382000Y4584000
X5467000Y3530000
X5307000Y2590000
X5213000Y3530000
X5053000Y2590000
X4148000Y4584000
X3894000Y4584000
X3640000Y4584000
X3386000Y4584000
X3132000Y4584000
X1718000Y4584000
X1464000Y4584000
X1210000Y4584000
X956000Y4584000
X702000Y4584000
T04
X10380000Y2015000
X10380000Y2765000
X750000Y3905000
X750000Y4155000
T05
X1795000Y420000
X1795000Y920000
X3045000Y920000
X3045000Y420000
X4629920Y420000
X4629920Y920000
X5879920Y920000
X5879920Y420000
X7485000Y420000
X7485000Y920000
X8735000Y920000
X8735000Y420000
T06
X360000Y360000
X360000Y5130000
X10170000Y5120000
X10170000Y360000
M30
