G04 ================== begin FILE IDENTIFICATION RECORD ==================*
G04 Layout Name:  F103_BOOM_V10_220614.brd*
G04 Film Name:    PasteMask_Bottom*
G04 File Format:  Gerber RS274X*
G04 File Origin:  Cadence Allegro 17.2-S079*
G04 Origin Date:  Thu Jun 16 17:04:26 2022*
G04 *
G04 Layer:  PIN/PASTEMASK_BOTTOM*
G04 Layer:  PACKAGE GEOMETRY/PASTEMASK_BOTTOM*
G04 *
G04 Offset:    (0.0000 0.0000)*
G04 Mirror:    No*
G04 Mode:      Positive*
G04 Rotation:  0*
G04 FullContactRelief:  No*
G04 UndefLineWidth:     0.1524*
G04 ================== end FILE IDENTIFICATION RECORD ====================*
%FSLAX55Y55*MOMM*%
%IR0*IPPOS*OFA0.00000B0.00000*MIA0B0*SFA1.00000B1.00000*%
%ADD24R,1.2X.3*%
%ADD25R,.3X1.2*%
%ADD26R,.5X2.*%
%ADD15R,.6X1.1*%
%ADD27R,.6X1.5*%
%ADD17R,.8X1.4*%
%ADD22R,.6X1.8*%
%ADD30R,1.6X.9*%
%ADD21R,1.9X.9*%
%ADD18C,.75*%
%ADD13R,.8X.8*%
%ADD14R,1.2X1.*%
%ADD23R,1.X1.2*%
%ADD28R,1.2X1.4*%
%ADD16R,4.2X1.4*%
%ADD19R,2.3X4.4*%
%ADD29R,.3X.7*%
%ADD20R,.5X.6*%
%ADD12R,1.8X1.6*%
%ADD11R,.6X.5*%
%ADD10C,6.9*%
%LPD*%
G75*
G54D10*
X360000Y360000D03*
Y5130000D03*
X10170000Y360000D03*
Y5120000D03*
G54D11*
X1330000Y3405000D03*
Y3315000D03*
Y3945000D03*
Y3855000D03*
X1470000Y3315000D03*
Y3405000D03*
X1800000Y3679030D03*
Y3769030D03*
X2350000Y3305000D03*
Y3215000D03*
X6600000Y2365000D03*
Y2275000D03*
Y3725000D03*
Y3815000D03*
X6730000Y2275000D03*
Y2365000D03*
Y3815000D03*
Y3725000D03*
X6880000Y3815000D03*
Y3725000D03*
X7340000Y2980000D03*
Y3060000D03*
X7220000Y3020000D03*
X7730000Y2705000D03*
Y2795000D03*
X7870000D03*
Y2705000D03*
X7930000Y4225000D03*
Y4315000D03*
X8580000Y3280000D03*
Y3200000D03*
X8700000Y3240000D03*
X8350000Y4225000D03*
Y4315000D03*
X8470000Y4225000D03*
Y4315000D03*
X8800000Y3280000D03*
Y3200000D03*
X8920000Y3240000D03*
X9260000Y4135000D03*
Y4045000D03*
X9390000Y4135000D03*
Y4045000D03*
X9900000Y3085000D03*
Y2995000D03*
X10270000D03*
Y3085000D03*
X10390000D03*
Y2995000D03*
G54D20*
X4965000Y2750000D03*
X5055000D03*
X4965000Y3530000D03*
X5055000D03*
X7175000Y3800000D03*
X7265000D03*
X8675000Y2960000D03*
X8585000D03*
X8675000Y3080000D03*
X8585000D03*
Y3400000D03*
X8675000D03*
Y3930000D03*
X8585000D03*
G54D12*
X1140000Y3900000D03*
Y4180000D03*
G54D21*
X6000000Y1755000D03*
X5990000Y2105000D03*
X6370000D03*
G54D30*
X10310000Y3570000D03*
G54D13*
X1950000Y3316200D03*
Y3163800D03*
X2160000Y3316200D03*
Y3163800D03*
X8070000Y4306200D03*
Y4153800D03*
X8210000Y4306200D03*
Y4153800D03*
X8610000Y4306200D03*
Y4153800D03*
G54D22*
X6092500Y2550000D03*
X5965500D03*
X6092500Y3550000D03*
X5965500D03*
X6600500Y2550000D03*
X6346500D03*
X6473500D03*
X6219500D03*
X6600500Y3550000D03*
X6346500D03*
X6473500D03*
X6219500D03*
X6854500Y2550000D03*
X6727500D03*
X6854500Y3550000D03*
X6727500D03*
G54D23*
X7378400Y2630000D03*
X7581600D03*
X7378400Y2810000D03*
X7581600D03*
G54D14*
X1561600Y4038400D03*
Y4241600D03*
G54D15*
Y3854030D03*
X1656600D03*
X1466600D03*
Y3594030D03*
X1561600D03*
X1656600D03*
G54D24*
X7525000Y3475010D03*
Y3424990D03*
Y3375010D03*
Y3324990D03*
Y3275010D03*
Y3224990D03*
Y3775010D03*
Y3724990D03*
Y3675010D03*
Y3624990D03*
Y3575010D03*
Y3524990D03*
X8375000Y3224990D03*
Y3275010D03*
Y3324990D03*
Y3375010D03*
Y3424990D03*
Y3475010D03*
Y3524990D03*
Y3575010D03*
Y3624990D03*
Y3675010D03*
Y3724990D03*
Y3775010D03*
G54D16*
X2140000Y3529030D03*
Y3919030D03*
G54D25*
X7674990Y3075000D03*
Y3925000D03*
X7725010Y3075000D03*
X7774990D03*
X7825010D03*
X7874990D03*
X7925010D03*
X7974990D03*
X8025010D03*
X8074990D03*
X8125010D03*
X8174990D03*
Y3925000D03*
X8125010D03*
X8074990D03*
X8025010D03*
X7974990D03*
X7925010D03*
X7874990D03*
X7825010D03*
X7774990D03*
X7725010D03*
X8225010Y3075000D03*
Y3925000D03*
G54D17*
X2315000Y4140000D03*
X1965000D03*
X6005000Y2320000D03*
Y3990000D03*
Y3780000D03*
X6355000Y2320000D03*
Y3990000D03*
Y3780000D03*
G54D26*
X8110000Y2770000D03*
X7990000D03*
X8230000D03*
G54D18*
X2530000Y3330000D03*
G54D27*
X9135500Y3270000D03*
X9262500D03*
Y3870000D03*
X9135500D03*
X9389500Y3270000D03*
X9516500D03*
X9643500D03*
X9770500D03*
Y3870000D03*
X9643500D03*
X9516500D03*
X9389500D03*
X9897500Y3270000D03*
X10024500D03*
Y3870000D03*
X9897500D03*
G54D19*
X3670000Y2260000D03*
Y3860000D03*
G54D28*
X10180000Y2170000D03*
Y2610000D03*
G54D29*
X10235000Y3445000D03*
X10285000D03*
Y3695000D03*
X10235000D03*
X10335000Y3445000D03*
X10385000D03*
Y3695000D03*
X10335000D03*
M02*
