G04 ================== begin FILE IDENTIFICATION RECORD ==================*
G04 Layout Name:  F103_BOOM_V10_220614.brd*
G04 Film Name:    SilkScreen_Bottom*
G04 File Format:  Gerber RS274X*
G04 File Origin:  Cadence Allegro 17.2-S079*
G04 Origin Date:  Thu Jun 16 17:04:26 2022*
G04 *
G04 Layer:  PACKAGE GEOMETRY/SILKSCREEN_BOTTOM*
G04 Layer:  BOARD GEOMETRY/SILKSCREEN_BOTTOM*
G04 *
G04 Offset:    (0.0000 0.0000)*
G04 Mirror:    No*
G04 Mode:      Positive*
G04 Rotation:  0*
G04 FullContactRelief:  No*
G04 UndefLineWidth:     0.1524*
G04 ================== end FILE IDENTIFICATION RECORD ====================*
%FSLAX55Y55*MOMM*%
%IR0*IPPOS*OFA0.00000B0.00000*MIA0B0*SFA1.00000B1.00000*%
%ADD10C,.2*%
%ADD11C,.2032*%
%ADD12C,.1524*%
G75*
%LPD*%
G75*
G36*
G01X210000Y3880000D02*
X10000D01*
Y4180000D01*
X210000D01*
Y3880000D01*
G37*
G36*
G01X690000Y3700000D02*
X740000D01*
Y3650000D01*
X690000D01*
Y3700000D01*
G37*
G36*
G01X1683600Y3495430D02*
G03I-25400J0D01*
G37*
G36*
G01X2100000Y4140000D02*
X2180000Y4060000D01*
Y4220000D01*
X2100000Y4140000D01*
G37*
G36*
G01X5508920Y3879500D02*
X5548920Y3839500D01*
X5468920D01*
X5508920Y3879500D01*
G37*
G36*
G01X6140000Y2320000D02*
X6220000Y2240000D01*
Y2400000D01*
X6140000Y2320000D01*
G37*
G36*
G01X6220000Y3990000D02*
X6140000Y4070000D01*
Y3910000D01*
X6220000Y3990000D01*
G37*
G36*
G01Y3780000D02*
X6140000Y3860000D01*
Y3700000D01*
X6220000Y3780000D01*
G37*
G36*
G01X6885000Y2420000D02*
G03I-30000J0D01*
G37*
G36*
G01X8030000Y4250000D02*
X8110000D01*
X8070000Y4210000D01*
X8030000Y4250000D01*
G37*
G36*
G01X8170000D02*
X8250000D01*
X8210000Y4210000D01*
X8170000Y4250000D01*
G37*
G36*
G01X8255000Y2970000D02*
G03I-30000J0D01*
G37*
G36*
G01X8570000Y4250000D02*
X8650000D01*
X8610000Y4210000D01*
X8570000Y4250000D01*
G37*
G36*
G01X9165000Y3990000D02*
G03I-30000J0D01*
G37*
G36*
G01X10265000Y3770000D02*
G03I-30000J0D01*
G37*
G54D10*
G01X10000Y3720000D02*
Y4340000D01*
G01X210000Y3880000D02*
Y4180000D01*
X10000D01*
Y3880000D01*
X210000D01*
G01X410000Y4240000D02*
Y4340000D01*
X10000D01*
Y4420000D01*
X750000D01*
Y4260000D01*
X640000D01*
Y4050000D01*
X750000D01*
Y4010000D01*
X640000D01*
Y3800000D01*
X750000D01*
Y3640000D01*
X10000D01*
Y3720000D01*
X410000D01*
G01Y4240000D02*
X10000D01*
Y3820000D01*
X410000D01*
G01X870000Y3900000D02*
X970000D01*
G01X410000Y3720000D02*
Y3820000D01*
G01X870000Y4160000D02*
X970000D01*
G01X1280000Y3450000D02*
Y3270000D01*
X1380000D01*
Y3450000D01*
X1280000D01*
G01X920000Y3850000D02*
Y3950000D01*
G01X1250000Y3800000D02*
Y4280000D01*
X1030000D01*
Y3800000D01*
X1250000D01*
G01X1280000Y3990000D02*
Y3810000D01*
X1380000D01*
Y3990000D01*
X1280000D01*
G01X2010000Y3110000D02*
G02X1890000I-60000J77500D01*
G01Y3370000D02*
G02X2010000I60000J-77500D01*
G01X1890000Y3110000D02*
Y3370000D01*
G01X1880000Y4014030D02*
Y3434030D01*
X2400000D01*
Y4014030D01*
X1880000D01*
G01X1520000Y3270000D02*
Y3450000D01*
X1420000D01*
Y3270000D01*
X1520000D01*
G01X1850000Y3644030D02*
Y3804030D01*
G01X1750000D02*
Y3644030D01*
G01X1850000D02*
G02X1750000I-50000J50000D01*
G01Y3804030D02*
G02X1850000I50000J-50000D01*
G01X1641600Y3970000D02*
G02X1481600I-80000J147500D01*
G01Y4310000D02*
Y3970000D01*
G01X1641600D02*
Y4310000D01*
G01X1714000Y3749430D02*
G03Y3698630I0J-25400D01*
G01X1701300Y3774830D02*
X1714000D01*
Y3749430D01*
G01X1701300Y3774830D02*
X1409200D01*
Y3673230D01*
X1714000D01*
Y3698630D01*
G01X1906300Y4228900D02*
X1900000Y4230000D01*
X1870000D01*
Y4050000D01*
X1900000D01*
G01X2380000Y4230000D02*
X1900000D01*
Y4050000D01*
X1906300Y4051100D01*
G01D02*
X1900000Y4050000D01*
X2380000D01*
X2376200Y4051100D01*
G01X1481600Y4310000D02*
G02X1641600I80000J-147500D01*
G01X2220000Y3110000D02*
G02X2100000I-60000J77500D01*
G01Y3370000D02*
G02X2220000I60000J-77500D01*
G01X2100000Y3110000D02*
Y3370000D01*
G01X2220000D02*
Y3110000D01*
G01X2010000Y3370000D02*
Y3110000D01*
G01X2300000Y3340000D02*
Y3180000D01*
G01X2400000D02*
Y3340000D01*
G01X2300000D02*
G02X2400000I50000J-50000D01*
G01Y3180000D02*
G02X2300000I-50000J50000D01*
G01X2060000Y3734030D02*
G03X2140000I40000J0D01*
G01D02*
G03X2220000I40000J0D01*
G01D02*
G03X2300000I40000J0D01*
G01X1980000D02*
G03X2060000I40000J0D01*
G01X2096800Y4228900D02*
Y4051100D01*
G01X2376200D02*
X2380000Y4050000D01*
Y4230000D01*
G01X3530000Y2280000D02*
G02X3040000Y3570000I140980J791613D01*
G01X2593500Y3330000D02*
G03I-63500J0D01*
G01X3530000Y3870000D02*
X2960000D01*
Y3570000D01*
X3040000D01*
G01X4300000D02*
G02X3810000Y2280000I-630980J-498387D01*
G01Y3870000D02*
X4380000D01*
Y3570000D01*
X4300000D01*
G01X4920000Y2700000D02*
X5100000D01*
Y2800000D01*
X4920000D01*
Y2700000D01*
G01Y3480000D02*
X5100000D01*
Y3580000D01*
X4920000D01*
Y3480000D01*
G01X5384920Y3890000D02*
Y3950000D01*
X5824920D01*
Y4330000D01*
X4684920D01*
Y3950000D01*
X5124920D01*
Y3890000D01*
G01X5884920Y4390000D02*
X4624920D01*
Y3890000D01*
X5884920D01*
Y4390000D01*
G01X6440000Y2040000D02*
Y1780000D01*
X6330000Y1670000D01*
X5920000D01*
Y1690000D01*
G01Y1820000D02*
Y2040000D01*
G01Y2170000D02*
Y2190000D01*
X6440000D01*
Y2170000D01*
G01X5946300Y2408900D02*
X5940000Y2410000D01*
X5910000D01*
Y2230000D01*
X5940000D01*
G01X6420000Y2410000D02*
X5940000D01*
Y2230000D01*
X5946300Y2231100D01*
G01D02*
X5940000Y2230000D01*
X6420000D01*
X6416200Y2231100D01*
G01X6940000Y3120000D02*
Y3400000D01*
X5890000D01*
Y2690000D01*
X6940000D01*
Y2980000D01*
G01X5940000Y3900000D02*
X6420000D01*
Y4080000D01*
X6413700Y4078900D01*
G01X5943800D02*
X5940000Y4080000D01*
Y3900000D01*
G01Y3690000D02*
X6420000D01*
Y3870000D01*
X6413700Y3868900D01*
G01D02*
X6420000Y3870000D01*
X5940000D01*
X5943800Y3868900D01*
G01D02*
X5940000Y3870000D01*
Y3690000D01*
G01X6413700Y4078900D02*
X6420000Y4080000D01*
X5940000D01*
X5943800Y4078900D01*
G01X6550000Y2410000D02*
Y2230000D01*
X6650000D01*
Y2410000D01*
X6550000D01*
G01X6136800Y2408900D02*
Y2231100D01*
G01X6416200D02*
X6420000Y2230000D01*
Y2410000D01*
G01X6550000Y3850000D02*
Y3690000D01*
G01X6650000D02*
G02X6550000I-50000J50000D01*
G01Y3850000D02*
G02X6650000I50000J-50000D01*
G01X6413700Y3901100D02*
X6420000Y3900000D01*
X6450000D01*
Y4080000D01*
X6420000D01*
G01X6223200Y3901100D02*
Y4078900D01*
G01X6413700Y3691100D02*
X6420000Y3690000D01*
X6450000D01*
Y3870000D01*
X6420000D01*
G01X6223200Y3691100D02*
Y3868900D01*
G01X6780000Y2240000D02*
Y2400000D01*
G01X6680000D02*
Y2240000D01*
G01X6780000D02*
G02X6680000I-50000J50000D01*
G01Y2400000D02*
G02X6780000I50000J-50000D01*
G01X6940000Y3120000D02*
G03Y2980000I0J-70000D01*
G01X6650000Y3690000D02*
Y3850000D01*
G01X7140000Y3750000D02*
X7300000D01*
G01Y3850000D02*
X7140000D01*
G01Y3750000D02*
G02Y3850000I50000J50000D01*
G01X6680000Y3860000D02*
Y3680000D01*
X6780000D01*
Y3860000D01*
X6680000D01*
G01X6830000D02*
Y3680000D01*
X6930000D01*
Y3860000D01*
X6830000D01*
G01X7480000Y2580000D02*
Y2680000D01*
G01X7310000Y2550000D02*
X7650000D01*
Y2710000D01*
X7310000D01*
Y2550000D01*
G01X7480000Y2760000D02*
Y2860000D01*
G01X7310000Y2730000D02*
X7650000D01*
Y2890000D01*
X7310000D01*
Y2730000D01*
G01X7230000Y2980000D02*
Y2940000D01*
X7320000D01*
G01X8290000Y3840000D02*
X7610000D01*
Y3160000D01*
X8290000D01*
Y3840000D01*
G01X7230000Y3060000D02*
Y3100000D01*
X7320000D01*
G01X7300000Y3850000D02*
G02Y3750000I-50000J-50000D01*
G01X7780000Y2670000D02*
Y2830000D01*
G01X7680000D02*
Y2670000D01*
G01X7780000D02*
G02X7680000I-50000J50000D01*
G01Y2830000D02*
G02X7780000I50000J-50000D01*
G01X7820000D02*
Y2670000D01*
G01X7920000D02*
Y2830000D01*
G01X7820000D02*
G02X7920000I50000J-50000D01*
G01Y2670000D02*
G02X7820000I-50000J50000D01*
G01X8280000Y2850000D02*
Y2650000D01*
X7940000D01*
Y2890000D01*
X8280000D01*
Y2850000D01*
G01X8010000Y4090000D02*
Y4060000D01*
X8130000D01*
Y4090000D01*
G01X8010000Y4370000D02*
X8130000D01*
Y4090000D01*
X8010000D01*
Y4370000D01*
G01X8150000Y4090000D02*
Y4060000D01*
X8270000D01*
Y4090000D01*
G01X8150000Y4370000D02*
X8270000D01*
Y4090000D01*
X8150000D01*
Y4370000D01*
G01X7980000Y4180000D02*
Y4360000D01*
X7880000D01*
Y4180000D01*
X7980000D01*
G01X8550000Y2910000D02*
X8710000D01*
G01Y3010000D02*
G02Y2910000I-50000J-50000D01*
G01X8550000D02*
G02Y3010000I50000J50000D01*
G01X8710000Y3130000D02*
X8550000D01*
G01Y3030000D02*
X8710000D01*
G01Y3130000D02*
G02Y3030000I-50000J-50000D01*
G01X8550000D02*
G02Y3130000I50000J50000D01*
G01X8710000Y3010000D02*
X8550000D01*
G01X8540000Y3350000D02*
X8720000D01*
Y3450000D01*
X8540000D01*
Y3350000D01*
G01X8690000Y3280000D02*
Y3320000D01*
X8600000D01*
G01X8690000Y3200000D02*
Y3160000D01*
X8600000D01*
G01X8710000Y3980000D02*
X8550000D01*
G01Y3880000D02*
X8710000D01*
G01Y3980000D02*
G02Y3880000I-50000J-50000D01*
G01X8550000D02*
G02Y3980000I50000J50000D01*
G01Y4090000D02*
Y4060000D01*
X8670000D01*
Y4090000D01*
G01X8550000Y4370000D02*
X8670000D01*
Y4090000D01*
X8550000D01*
Y4370000D01*
G01X8400000Y4180000D02*
Y4360000D01*
X8300000D01*
Y4180000D01*
X8400000D01*
G01X8520000D02*
Y4360000D01*
X8420000D01*
Y4180000D01*
X8520000D01*
G01X9800000Y510000D02*
X8860000D01*
Y30000D01*
X9800000D01*
Y510000D01*
G01X8910000Y3280000D02*
Y3320000D01*
X8820000D01*
G01X8910000Y3200000D02*
Y3160000D01*
X8820000D01*
G01X9060000Y3610000D02*
Y3770000D01*
X10100000D01*
Y3370000D01*
X9060000D01*
Y3530000D01*
G01X9210000Y4180000D02*
Y4000000D01*
X9310000D01*
Y4180000D01*
X9210000D01*
G01X9060000Y3530000D02*
G03Y3610000I0J40000D01*
G01X9340000Y4180000D02*
Y4000000D01*
X9440000D01*
Y4180000D01*
X9340000D01*
G01X9850000Y3120000D02*
Y2960000D01*
G01X9950000D02*
Y3120000D01*
G01Y2960000D02*
G02X9850000I-50000J50000D01*
G01X10320000Y2950000D02*
Y3130000D01*
X10220000D01*
Y2950000D01*
X10320000D01*
G01X10200000Y3710000D02*
X10170000D01*
Y3430000D01*
X10200000D01*
G01X9850000Y3120000D02*
G02X9950000I50000J-50000D01*
G01X10340000D02*
Y2960000D01*
G01X10440000D02*
Y3120000D01*
G01Y2960000D02*
G02X10340000I-50000J50000D01*
G01X10420000Y3430000D02*
X10450000D01*
Y3710000D01*
X10420000D01*
G01X10340000Y3120000D02*
G02X10440000I50000J-50000D01*
G54D11*
G01X10210000Y2080000D02*
Y1990000D01*
X10270000D01*
G01X10210000Y2520000D02*
Y2260000D01*
G01X10270000Y2790000D02*
X10210000D01*
Y2700000D01*
G01X10490000Y2000000D02*
Y2220000D01*
X10600000D01*
Y2560000D01*
X10490000D01*
Y2780000D01*
G54D12*
G01X742000Y3513500D02*
X736000Y3506000D01*
X729000Y3501500D01*
X720000Y3500000D01*
X711000Y3503000D01*
X704000Y3509000D01*
X699000Y3519500D01*
X698000Y3531500D01*
X700000Y3543500D01*
X705000Y3551000D01*
X712000Y3557000D01*
X719000Y3558500D01*
X726000Y3557000D01*
X735000Y3551000D01*
X732000Y3590000D01*
X705000D01*
G01X663000Y3530000D02*
X637000D01*
G01X599000Y3575000D02*
X593000Y3584000D01*
X586000Y3588500D01*
X578000Y3590000D01*
X568000Y3587000D01*
X561000Y3579500D01*
X559000Y3570500D01*
X560000Y3561500D01*
X564000Y3554000D01*
X584000Y3539000D01*
X593000Y3528500D01*
X599000Y3513500D01*
X601000Y3500000D01*
X559000D01*
G01X498000D02*
Y3590000D01*
X535000Y3525500D01*
X485000D01*
G01X465000Y3590000D02*
X440000Y3500000D01*
X415000Y3590000D01*
G01X2622000Y3168000D02*
X2616000Y3157500D01*
X2608000Y3151500D01*
X2599000Y3150000D01*
X2591000Y3151500D01*
X2583000Y3159000D01*
X2578000Y3168000D01*
X2577000Y3177000D01*
X2579000Y3187500D01*
X2586000Y3195000D01*
X2593000Y3198000D01*
X2602000D01*
G01X2593000D02*
X2587000Y3202500D01*
X2582000Y3210000D01*
X2580000Y3219000D01*
X2582000Y3228000D01*
X2587000Y3235500D01*
X2596000Y3240000D01*
X2605000Y3238500D01*
X2614000Y3232500D01*
G01X2555000Y3240000D02*
X2530000Y3150000D01*
X2505000Y3240000D01*
G01X2482000Y3168000D02*
X2476000Y3157500D01*
X2468000Y3151500D01*
X2459000Y3150000D01*
X2451000Y3151500D01*
X2443000Y3159000D01*
X2438000Y3168000D01*
X2437000Y3177000D01*
X2439000Y3187500D01*
X2446000Y3195000D01*
X2453000Y3198000D01*
X2462000D01*
G01X2453000D02*
X2447000Y3202500D01*
X2442000Y3210000D01*
X2440000Y3219000D01*
X2442000Y3228000D01*
X2447000Y3235500D01*
X2456000Y3240000D01*
X2465000Y3238500D01*
X2474000Y3232500D01*
G01X9771000Y60000D02*
X9729000Y150000D01*
G01X9771000D02*
X9729000Y60000D01*
G01X9701000D02*
X9659000Y150000D01*
G01X9701000D02*
X9659000Y60000D01*
G01X9631000D02*
X9589000Y150000D01*
G01X9631000D02*
X9589000Y60000D01*
G01X9560000Y150000D02*
Y60000D01*
X9520000D01*
G01X9489000Y150000D02*
X9451000D01*
X9489000Y60000D01*
X9451000D01*
G01X9420000Y78000D02*
X9415000Y69000D01*
X9409000Y63000D01*
X9402000Y60000D01*
X9394000Y63000D01*
X9388000Y69000D01*
X9382000Y78000D01*
X9380000Y90000D01*
Y150000D01*
G01X9351000Y60000D02*
X9309000Y150000D01*
G01X9351000D02*
X9309000Y60000D01*
G01X9281000D02*
X9239000Y150000D01*
G01X9281000D02*
X9239000Y60000D01*
G01X9211000D02*
X9169000Y150000D01*
G01X9211000D02*
X9169000Y60000D01*
G01X9769000Y390000D02*
Y480000D01*
X9731000D01*
G01X9745000Y436500D02*
X9769000D01*
G01X9680000Y390000D02*
Y480000D01*
X9692000Y462000D01*
G01Y390000D02*
X9668000D01*
G01X9610000Y480000D02*
X9618000Y477000D01*
X9624000Y469500D01*
X9628000Y460500D01*
X9631000Y448500D01*
X9632000Y435000D01*
X9631000Y421500D01*
X9628000Y409500D01*
X9624000Y400500D01*
X9618000Y393000D01*
X9610000Y390000D01*
X9602000Y393000D01*
X9596000Y400500D01*
X9592000Y409500D01*
X9589000Y421500D01*
X9588000Y435000D01*
X9589000Y448500D01*
X9592000Y460500D01*
X9596000Y469500D01*
X9602000Y477000D01*
X9610000Y480000D01*
G01X9562000Y408000D02*
X9556000Y397500D01*
X9548000Y391500D01*
X9539000Y390000D01*
X9531000Y391500D01*
X9523000Y399000D01*
X9518000Y408000D01*
X9517000Y417000D01*
X9519000Y427500D01*
X9526000Y435000D01*
X9533000Y438000D01*
X9542000D01*
G01X9533000D02*
X9527000Y442500D01*
X9522000Y450000D01*
X9520000Y459000D01*
X9522000Y468000D01*
X9527000Y475500D01*
X9536000Y480000D01*
X9545000Y478500D01*
X9554000Y472500D01*
G01X9500000Y360000D02*
X9440000D01*
G01X9392000Y438000D02*
X9388000Y442500D01*
X9385000Y450000D01*
X9383000Y460500D01*
X9385000Y469500D01*
X9389000Y475500D01*
X9396000Y480000D01*
X9423000D01*
Y390000D01*
X9390000D01*
X9383000Y396000D01*
X9379000Y405000D01*
X9377000Y415500D01*
X9379000Y426000D01*
X9385000Y435000D01*
X9392000Y438000D01*
X9423000D01*
G01X9330000Y390000D02*
X9338000Y391500D01*
X9345000Y397500D01*
X9351000Y406500D01*
X9355000Y417000D01*
X9357000Y429000D01*
Y441000D01*
X9355000Y453000D01*
X9351000Y463500D01*
X9345000Y472500D01*
X9338000Y478500D01*
X9330000Y480000D01*
X9322000Y478500D01*
X9315000Y472500D01*
X9309000Y463500D01*
X9305000Y453000D01*
X9303000Y441000D01*
Y429000D01*
X9305000Y417000D01*
X9309000Y406500D01*
X9315000Y397500D01*
X9322000Y391500D01*
X9330000Y390000D01*
G01X9286000D02*
Y480000D01*
X9260000Y405000D01*
X9234000Y480000D01*
Y390000D01*
G01X9182000Y438000D02*
X9178000Y442500D01*
X9175000Y450000D01*
X9173000Y460500D01*
X9175000Y469500D01*
X9179000Y475500D01*
X9186000Y480000D01*
X9213000D01*
Y390000D01*
X9180000D01*
X9173000Y396000D01*
X9169000Y405000D01*
X9167000Y415500D01*
X9169000Y426000D01*
X9175000Y435000D01*
X9182000Y438000D01*
X9213000D01*
G01X9150000Y360000D02*
X9090000D01*
G01X9075000Y480000D02*
X9050000Y390000D01*
X9025000Y480000D01*
G01X8980000Y390000D02*
Y480000D01*
X8992000Y462000D01*
G01Y390000D02*
X8968000D01*
G01X8910000Y480000D02*
X8918000Y477000D01*
X8924000Y469500D01*
X8928000Y460500D01*
X8931000Y448500D01*
X8932000Y435000D01*
X8931000Y421500D01*
X8928000Y409500D01*
X8924000Y400500D01*
X8918000Y393000D01*
X8910000Y390000D01*
X8902000Y393000D01*
X8896000Y400500D01*
X8892000Y409500D01*
X8889000Y421500D01*
X8888000Y435000D01*
X8889000Y448500D01*
X8892000Y460500D01*
X8896000Y469500D01*
X8902000Y477000D01*
X8910000Y480000D01*
G01X9769000Y295000D02*
X9763000Y304000D01*
X9756000Y308500D01*
X9748000Y310000D01*
X9738000Y307000D01*
X9731000Y299500D01*
X9729000Y290500D01*
X9730000Y281500D01*
X9734000Y274000D01*
X9754000Y259000D01*
X9763000Y248500D01*
X9769000Y233500D01*
X9771000Y220000D01*
X9729000D01*
G01X9699000Y295000D02*
X9693000Y304000D01*
X9686000Y308500D01*
X9678000Y310000D01*
X9668000Y307000D01*
X9661000Y299500D01*
X9659000Y290500D01*
X9660000Y281500D01*
X9664000Y274000D01*
X9684000Y259000D01*
X9693000Y248500D01*
X9699000Y233500D01*
X9701000Y220000D01*
X9659000D01*
G01X9610000Y310000D02*
X9618000Y307000D01*
X9624000Y299500D01*
X9628000Y290500D01*
X9631000Y278500D01*
X9632000Y265000D01*
X9631000Y251500D01*
X9628000Y239500D01*
X9624000Y230500D01*
X9618000Y223000D01*
X9610000Y220000D01*
X9602000Y223000D01*
X9596000Y230500D01*
X9592000Y239500D01*
X9589000Y251500D01*
X9588000Y265000D01*
X9589000Y278500D01*
X9592000Y290500D01*
X9596000Y299500D01*
X9602000Y307000D01*
X9610000Y310000D01*
G01X9559000Y257500D02*
X9552000Y268000D01*
X9546000Y274000D01*
X9538000Y277000D01*
X9531000Y274000D01*
X9526000Y268000D01*
X9522000Y259000D01*
X9521000Y248500D01*
X9522000Y239500D01*
X9526000Y230500D01*
X9532000Y223000D01*
X9539000Y220000D01*
X9547000Y223000D01*
X9554000Y232000D01*
X9558000Y245500D01*
X9559000Y260500D01*
X9557000Y280000D01*
X9554000Y290500D01*
X9549000Y301000D01*
X9542000Y308500D01*
X9535000Y310000D01*
X9528000Y307000D01*
X9523000Y299500D01*
G01X9470000Y220000D02*
Y310000D01*
X9482000Y292000D01*
G01Y220000D02*
X9458000D01*
G01X9388000D02*
Y310000D01*
X9425000Y245500D01*
X9375000D01*
M02*
