G04 ================== begin FILE IDENTIFICATION RECORD ==================*
G04 Layout Name:  F103_BOOM_V10_220614.brd*
G04 Film Name:    SolderMask_Top*
G04 File Format:  Gerber RS274X*
G04 File Origin:  Cadence Allegro 17.2-S079*
G04 Origin Date:  Thu Jun 16 17:04:26 2022*
G04 *
G04 Layer:  PIN/SOLDERMASK_TOP*
G04 Layer:  PACKAGE GEOMETRY/SOLDERMASK_TOP*
G04 Layer:  BOARD GEOMETRY/SOLDERMASK_TOP*
G04 *
G04 Offset:    (0.0000 0.0000)*
G04 Mirror:    No*
G04 Mode:      Positive*
G04 Rotation:  0*
G04 FullContactRelief:  No*
G04 UndefLineWidth:     0.1524*
G04 ================== end FILE IDENTIFICATION RECORD ====================*
%FSLAX55Y55*MOMM*%
%IR0*IPPOS*OFA0.00000B0.00000*MIA0B0*SFA1.00000B1.00000*%
%ADD15C,1.1*%
%ADD14C,2.1*%
%ADD11C,1.4*%
%ADD10C,7.*%
%ADD16R,1.1X1.1*%
%ADD13C,1.75*%
%ADD12R,1.75X1.75*%
%LPD*%
G75*
G54D10*
X360000Y360000D03*
Y5130000D03*
X10170000Y360000D03*
Y5120000D03*
G54D11*
X702000Y1536000D03*
Y4584000D03*
X1210000Y1536000D03*
X956000D03*
Y4584000D03*
X1210000D03*
X1718000Y1536000D03*
X1464000D03*
Y4584000D03*
X1718000D03*
X3386000Y1536000D03*
X3132000D03*
Y4584000D03*
X3386000D03*
X3894000Y1536000D03*
X3640000D03*
Y4584000D03*
X3894000D03*
X4148000Y1536000D03*
Y4584000D03*
X5053000Y2590000D03*
X5307000D03*
X5467000Y3530000D03*
X5213000D03*
X6636000Y1536000D03*
X6382000D03*
Y4584000D03*
X6636000D03*
X7144000Y1536000D03*
X6890000D03*
Y4584000D03*
X7144000D03*
X7398000Y1536000D03*
Y4584000D03*
X9066000Y1536000D03*
X8812000D03*
Y4584000D03*
X9066000D03*
X9828000Y1536000D03*
X9574000D03*
X9320000D03*
Y4584000D03*
X9574000D03*
X9828000D03*
G54D12*
X750000Y3905000D03*
G54D13*
Y4155000D03*
X10380000Y2015000D03*
Y2765000D03*
G54D14*
X1795000Y420000D03*
Y920000D03*
X3045000Y420000D03*
Y920000D03*
X4629920Y420000D03*
Y920000D03*
X5879920Y420000D03*
Y920000D03*
X7485000Y420000D03*
Y920000D03*
X8735000Y420000D03*
Y920000D03*
G54D15*
X5000920Y4203500D03*
Y4076500D03*
X5127920Y4203500D03*
Y4076500D03*
X5254920Y4203500D03*
Y4076500D03*
X5381920Y4203500D03*
Y4076500D03*
X5508920Y4203500D03*
G54D16*
Y4076500D03*
M02*
