G04 ================== begin FILE IDENTIFICATION RECORD ==================*
G04 Layout Name:  F103_TUBE_CLOCK_V10A.brd*
G04 Film Name:    ADB*
G04 File Format:  Gerber RS274X*
G04 File Origin:  Cadence Allegro 17.2-S045*
G04 Origin Date:  Wed Apr 03 19:26:57 2019*
G04 *
G04 Layer:  REF DES/SILKSCREEN_BOTTOM*
G04 Layer:  PIN/BOTTOM*
G04 Layer:  PACKAGE GEOMETRY/SILKSCREEN_BOTTOM*
G04 Layer:  BOARD GEOMETRY/SILKSCREEN_BOTTOM*
G04 Layer:  BOARD GEOMETRY/OUTLINE*
G04 *
G04 Offset:    (0.0000 0.0000)*
G04 Mirror:    No*
G04 Mode:      Positive*
G04 Rotation:  0*
G04 FullContactRelief:  No*
G04 UndefLineWidth:     0.1524*
G04 ================== end FILE IDENTIFICATION RECORD ====================*
%FSLAX55Y55*MOMM*%
%IR0*IPPOS*OFA0.00000B0.00000*MIA0B0*SFA1.00000B1.00000*%
%ADD32R,1.2X.3*%
%ADD33R,.3X1.2*%
%ADD31R,2.X.5*%
%ADD11R,.6X1.1*%
%ADD21R,1.1X.6*%
%ADD27R,1.5X.6*%
%ADD34R,1.3X.9*%
%ADD16R,.8X1.4*%
%ADD26R,.6X1.8*%
%ADD28R,.5X.5*%
%ADD20C,.75*%
%ADD10R,.8X.8*%
%ADD17O,4.X2.*%
%ADD22R,1.2X1.*%
%ADD15O,2.X4.*%
%ADD12R,1.X1.2*%
%ADD18R,2.4X2.*%
%ADD35R,1.8X1.*%
%ADD36R,1.X1.8*%
%ADD29R,.4X.5*%
%ADD25R,2.3X4.4*%
%ADD14R,2.X5.7*%
%ADD19R,5.6X2.3*%
%ADD23C,2.2*%
%ADD13C,1.3*%
%ADD30R,.8X.25*%
%ADD24C,1.8*%
%ADD37R,1.9X1.9*%
%ADD38C,.1*%
%ADD39C,.2*%
%ADD40C,.254*%
%ADD41C,.1524*%
%ADD42C,.1778*%
G75*
%LPD*%
G75*
G36*
G01X533600Y485430D02*
G03I-25400J0D01*
G37*
G36*
G01X1100000Y1110000D02*
X1180000Y1030000D01*
Y1190000D01*
X1100000Y1110000D01*
G37*
G36*
G01X1610000Y534030D02*
X1580000Y504030D01*
Y564030D01*
X1610000Y534030D01*
G37*
G36*
G01X2316800Y483400D02*
G03I-25400J0D01*
G37*
G36*
G01X4955000Y1400000D02*
G03I-30000J0D01*
G37*
G36*
G01X5704920Y995000D02*
G03I-30000J0D01*
G37*
G36*
G01X6212360Y875000D02*
G03I-22360J0D01*
G37*
G36*
G01X6440000Y1755000D02*
G03I-30000J0D01*
G37*
G36*
G01X8780000Y670000D02*
X8730000Y720000D01*
X8830000D01*
X8780000Y670000D01*
G37*
G36*
G01Y3050000D02*
X8730000Y3100000D01*
X8830000D01*
X8780000Y3050000D01*
G37*
G36*
G01X9780000Y930000D02*
G03I-30000J0D01*
G37*
G54D10*
X150000Y223800D03*
Y376200D03*
X290000D03*
Y223800D03*
X150000Y790230D03*
Y637830D03*
X432800Y223800D03*
Y376200D03*
X680000Y637830D03*
Y790230D03*
X2000000Y503800D03*
Y656200D03*
X4756200Y180000D03*
X4603800D03*
X4670000Y2843800D03*
Y2996200D03*
X5331120Y1560000D03*
X5178720D03*
Y1870000D03*
X5331120D03*
Y1730000D03*
X5178720D03*
X5331120Y2010000D03*
X5178720D03*
X5331120Y2670000D03*
X5178720D03*
X5331120Y2530000D03*
X5178720D03*
X5957400Y590000D03*
X5805000D03*
X5957400Y1000000D03*
X5805000D03*
X5983800Y1580000D03*
X6136200D03*
Y2430000D03*
X5983800D03*
Y2290000D03*
X6136200D03*
Y2150000D03*
X5983800D03*
X6136200Y2570000D03*
X5983800D03*
X6466200Y860000D03*
X6313800D03*
X6466200Y690000D03*
X6313800D03*
X6456200Y1020000D03*
X6303800D03*
X6290000Y2417600D03*
Y2570000D03*
X6810000Y1336200D03*
Y1183800D03*
X6666800D03*
Y1336200D03*
X7710000Y646200D03*
Y493800D03*
X7360000Y1183800D03*
Y1336200D03*
X7220000Y2836200D03*
Y2683800D03*
X8000000Y646200D03*
Y493800D03*
X8200000Y646200D03*
Y493800D03*
X8103800Y840000D03*
X8480000Y646200D03*
Y493800D03*
X8256200Y840000D03*
X9135600D03*
X8833800D03*
X8986200D03*
X9288000D03*
G54D20*
X2000000Y190000D03*
X2860000D03*
G54D11*
X316600Y844030D03*
Y584030D03*
X411600Y844030D03*
X506600D03*
X411600Y584030D03*
X506600D03*
G54D30*
X5805000Y875000D03*
Y825000D03*
Y775000D03*
Y725000D03*
X6115000D03*
Y775000D03*
Y825000D03*
Y875000D03*
G54D12*
X208400Y1050000D03*
X411600D03*
G54D21*
X2390000Y675000D03*
Y580000D03*
Y485000D03*
X2650000D03*
Y675000D03*
G54D40*
G01X1140000Y734030D02*
G02Y834030I0J50000D01*
G01Y634030D02*
G02Y734030I0J50000D01*
G01Y534030D02*
G02Y634030I0J50000D01*
G01Y834030D02*
Y914030D01*
G01Y454030D02*
Y534030D01*
G54D13*
X702000Y186000D03*
Y3234000D03*
X1210000Y186000D03*
X956000D03*
Y3234000D03*
X1210000D03*
X1718000Y186000D03*
X1464000D03*
Y3234000D03*
X1718000D03*
X3386000Y186000D03*
X3132000D03*
Y3234000D03*
X3386000D03*
X3894000Y186000D03*
X3640000D03*
Y3234000D03*
X3894000D03*
X4148000Y186000D03*
Y3234000D03*
X5053000Y1240000D03*
X5307000D03*
X5467000Y2180000D03*
X5213000D03*
X6636000Y186000D03*
X6382000D03*
Y3234000D03*
X6636000D03*
X7144000Y186000D03*
X6890000D03*
Y3234000D03*
X7144000D03*
X7398000Y186000D03*
Y3234000D03*
X9066000Y186000D03*
X8812000D03*
Y3234000D03*
X9066000D03*
X9828000Y186000D03*
X9574000D03*
X9320000D03*
Y3234000D03*
X9574000D03*
X9828000D03*
G54D22*
X2170000Y478400D03*
Y681600D03*
X2860000Y478400D03*
Y681600D03*
G54D31*
X6060000Y1750000D03*
Y1870000D03*
Y1990000D03*
G54D41*
G01X20000Y890000D02*
X110000D01*
Y915000D01*
X105500Y923000D01*
X99500Y928000D01*
X87500Y930000D01*
X75500Y928000D01*
X68000Y922000D01*
X63500Y915000D01*
Y890000D01*
G01Y915000D02*
X20000Y930000D01*
G01Y980000D02*
X110000D01*
X92000Y968000D01*
G01X20000D02*
Y992000D01*
G01X30500Y1033000D02*
X23000Y1040000D01*
X20000Y1048000D01*
X23000Y1056000D01*
X32000Y1063000D01*
X45500Y1068000D01*
X59000Y1070000D01*
X75500D01*
X89000Y1068000D01*
X101000Y1063000D01*
X107000Y1057000D01*
X110000Y1050000D01*
X107000Y1042000D01*
X101000Y1036000D01*
X92000Y1032000D01*
X80000Y1030000D01*
X69500Y1032000D01*
X59000Y1037000D01*
X53000Y1043000D01*
X51500Y1050000D01*
X54500Y1058000D01*
X62000Y1064000D01*
X75500Y1070000D01*
G01X212000Y2180000D02*
Y2270000D01*
X192000D01*
X184000Y2265500D01*
X178000Y2259500D01*
X173000Y2250500D01*
X169000Y2240000D01*
X168000Y2225000D01*
X169000Y2210000D01*
X173000Y2199500D01*
X178000Y2190500D01*
X184000Y2184500D01*
X192000Y2180000D01*
X212000D01*
G01X98000Y2262500D02*
X104000Y2267000D01*
X111000Y2270000D01*
X119000D01*
X128000Y2265500D01*
X135000Y2258000D01*
X140000Y2249000D01*
X144000Y2234000D01*
X145000Y2220500D01*
X143000Y2207000D01*
X140000Y2198000D01*
X134000Y2189000D01*
X127000Y2183000D01*
X120000Y2180000D01*
X113000D01*
X106000Y2183000D01*
X100000Y2187500D01*
X95000Y2193500D01*
G01X50000Y2180000D02*
Y2270000D01*
X62000Y2252000D01*
G01Y2180000D02*
X38000D01*
G01X490000Y270000D02*
X580000D01*
Y295000D01*
X575500Y303000D01*
X569500Y308000D01*
X557500Y310000D01*
X545500Y308000D01*
X538000Y302000D01*
X533500Y295000D01*
Y270000D01*
G01Y295000D02*
X490000Y310000D01*
G01X565000Y341000D02*
X574000Y347000D01*
X578500Y354000D01*
X580000Y362000D01*
X577000Y372000D01*
X569500Y379000D01*
X560500Y381000D01*
X551500Y380000D01*
X544000Y376000D01*
X529000Y356000D01*
X518500Y347000D01*
X503500Y341000D01*
X490000Y339000D01*
Y381000D01*
G01X565000Y411000D02*
X574000Y417000D01*
X578500Y424000D01*
X580000Y432000D01*
X577000Y442000D01*
X569500Y449000D01*
X560500Y451000D01*
X551500Y450000D01*
X544000Y446000D01*
X529000Y426000D01*
X518500Y417000D01*
X503500Y411000D01*
X490000Y409000D01*
Y451000D01*
G01X690000Y270000D02*
X780000D01*
Y295000D01*
X775500Y303000D01*
X769500Y308000D01*
X757500Y310000D01*
X745500Y308000D01*
X738000Y302000D01*
X733500Y295000D01*
Y270000D01*
G01Y295000D02*
X690000Y310000D01*
G01X765000Y341000D02*
X774000Y347000D01*
X778500Y354000D01*
X780000Y362000D01*
X777000Y372000D01*
X769500Y379000D01*
X760500Y381000D01*
X751500Y380000D01*
X744000Y376000D01*
X729000Y356000D01*
X718500Y347000D01*
X703500Y341000D01*
X690000Y339000D01*
Y381000D01*
G01X780000Y430000D02*
X777000Y422000D01*
X769500Y416000D01*
X760500Y412000D01*
X748500Y409000D01*
X735000Y408000D01*
X721500Y409000D01*
X709500Y412000D01*
X700500Y416000D01*
X693000Y422000D01*
X690000Y430000D01*
X693000Y438000D01*
X700500Y444000D01*
X709500Y448000D01*
X721500Y451000D01*
X735000Y452000D01*
X748500Y451000D01*
X760500Y448000D01*
X769500Y444000D01*
X777000Y438000D01*
X780000Y430000D01*
G01X590000Y270000D02*
X680000D01*
Y295000D01*
X675500Y303000D01*
X669500Y308000D01*
X657500Y310000D01*
X645500Y308000D01*
X638000Y302000D01*
X633500Y295000D01*
Y270000D01*
G01Y295000D02*
X590000Y310000D01*
G01X665000Y341000D02*
X674000Y347000D01*
X678500Y354000D01*
X680000Y362000D01*
X677000Y372000D01*
X669500Y379000D01*
X660500Y381000D01*
X651500Y380000D01*
X644000Y376000D01*
X629000Y356000D01*
X618500Y347000D01*
X603500Y341000D01*
X590000Y339000D01*
Y381000D01*
G01Y430000D02*
X680000D01*
X662000Y418000D01*
G01X590000D02*
Y442000D01*
G01X712000Y1070000D02*
Y1005500D01*
X708000Y992000D01*
X700000Y983000D01*
X690000Y980000D01*
X680000Y983000D01*
X672000Y992000D01*
X668000Y1005500D01*
Y1070000D01*
G01X620000Y980000D02*
Y1070000D01*
X632000Y1052000D01*
G01Y980000D02*
X608000D01*
G01X550000Y1070000D02*
X558000Y1067000D01*
X564000Y1059500D01*
X568000Y1050500D01*
X571000Y1038500D01*
X572000Y1025000D01*
X571000Y1011500D01*
X568000Y999500D01*
X564000Y990500D01*
X558000Y983000D01*
X550000Y980000D01*
X542000Y983000D01*
X536000Y990500D01*
X532000Y999500D01*
X529000Y1011500D01*
X528000Y1025000D01*
X529000Y1038500D01*
X532000Y1050500D01*
X536000Y1059500D01*
X542000Y1067000D01*
X550000Y1070000D01*
G01X832500Y1042000D02*
X837000Y1036000D01*
X840000Y1029000D01*
Y1021000D01*
X835500Y1012000D01*
X828000Y1005000D01*
X819000Y1000000D01*
X804000Y996000D01*
X790500Y995000D01*
X777000Y997000D01*
X768000Y1000000D01*
X759000Y1006000D01*
X753000Y1013000D01*
X750000Y1020000D01*
Y1027000D01*
X753000Y1034000D01*
X757500Y1040000D01*
X763500Y1045000D01*
G01X750000Y1090000D02*
X840000D01*
X822000Y1078000D01*
G01X750000D02*
Y1102000D01*
G01X768000Y1138000D02*
X757500Y1144000D01*
X751500Y1152000D01*
X750000Y1161000D01*
X751500Y1169000D01*
X759000Y1177000D01*
X768000Y1182000D01*
X777000Y1183000D01*
X787500Y1181000D01*
X795000Y1174000D01*
X798000Y1167000D01*
Y1158000D01*
G01Y1167000D02*
X802500Y1173000D01*
X810000Y1178000D01*
X819000Y1180000D01*
X828000Y1178000D01*
X835500Y1173000D01*
X840000Y1164000D01*
X838500Y1155000D01*
X832500Y1146000D01*
G01X668000Y1182500D02*
X674000Y1187000D01*
X681000Y1190000D01*
X689000D01*
X698000Y1185500D01*
X705000Y1178000D01*
X710000Y1169000D01*
X714000Y1154000D01*
X715000Y1140500D01*
X713000Y1127000D01*
X710000Y1118000D01*
X704000Y1109000D01*
X697000Y1103000D01*
X690000Y1100000D01*
X683000D01*
X676000Y1103000D01*
X670000Y1107500D01*
X665000Y1113500D01*
G01X620000Y1100000D02*
Y1190000D01*
X632000Y1172000D01*
G01Y1100000D02*
X608000D01*
G01X569000Y1137500D02*
X562000Y1148000D01*
X556000Y1154000D01*
X548000Y1157000D01*
X541000Y1154000D01*
X536000Y1148000D01*
X532000Y1139000D01*
X531000Y1128500D01*
X532000Y1119500D01*
X536000Y1110500D01*
X542000Y1103000D01*
X549000Y1100000D01*
X557000Y1103000D01*
X564000Y1112000D01*
X568000Y1125500D01*
X569000Y1140500D01*
X567000Y1160000D01*
X564000Y1170500D01*
X559000Y1181000D01*
X552000Y1188500D01*
X545000Y1190000D01*
X538000Y1187000D01*
X533000Y1179500D01*
G01X2022500Y852000D02*
X2027000Y846000D01*
X2030000Y839000D01*
Y831000D01*
X2025500Y822000D01*
X2018000Y815000D01*
X2009000Y810000D01*
X1994000Y806000D01*
X1980500Y805000D01*
X1967000Y807000D01*
X1958000Y810000D01*
X1949000Y816000D01*
X1943000Y823000D01*
X1940000Y830000D01*
Y837000D01*
X1943000Y844000D01*
X1947500Y850000D01*
X1953500Y855000D01*
G01X1940000Y900000D02*
X2030000D01*
X2012000Y888000D01*
G01X1940000D02*
Y912000D01*
G01Y982000D02*
X2030000D01*
X1965500Y945000D01*
Y995000D01*
G01X1547000Y1150000D02*
Y1240000D01*
X1527000D01*
X1519000Y1235500D01*
X1513000Y1229500D01*
X1508000Y1220500D01*
X1504000Y1210000D01*
X1503000Y1195000D01*
X1504000Y1180000D01*
X1508000Y1169500D01*
X1513000Y1160500D01*
X1519000Y1154500D01*
X1527000Y1150000D01*
X1547000D01*
G01X1457000D02*
X1455000Y1169500D01*
X1452000Y1186000D01*
X1448000Y1201000D01*
X1443000Y1217500D01*
X1435000Y1240000D01*
X1475000D01*
G01X1545000Y1120000D02*
Y1030000D01*
X1505000D01*
G01X1455000D02*
Y1120000D01*
X1467000Y1102000D01*
G01Y1030000D02*
X1443000D01*
G01X2272000Y43500D02*
X2266000Y36000D01*
X2259000Y31500D01*
X2250000Y30000D01*
X2241000Y33000D01*
X2234000Y39000D01*
X2229000Y49500D01*
X2228000Y61500D01*
X2230000Y73500D01*
X2235000Y81000D01*
X2242000Y87000D01*
X2249000Y88500D01*
X2256000Y87000D01*
X2265000Y81000D01*
X2262000Y120000D01*
X2235000D01*
G01X2205000D02*
X2180000Y30000D01*
X2155000Y120000D01*
G01X2250000Y240000D02*
Y150000D01*
G01X2273000Y240000D02*
X2227000D01*
G01X2200000Y150000D02*
Y240000D01*
X2176000D01*
X2168000Y235500D01*
X2162000Y225000D01*
X2160000Y213000D01*
X2162000Y201000D01*
X2167000Y192000D01*
X2176000Y187500D01*
X2200000D01*
G01X2110000Y150000D02*
Y240000D01*
X2122000Y222000D01*
G01Y150000D02*
X2098000D01*
G01X2612000Y870000D02*
Y805500D01*
X2608000Y792000D01*
X2600000Y783000D01*
X2590000Y780000D01*
X2580000Y783000D01*
X2572000Y792000D01*
X2568000Y805500D01*
Y870000D01*
G01X2520000Y780000D02*
Y870000D01*
X2532000Y852000D01*
G01Y780000D02*
X2508000D01*
G01X2450000D02*
Y870000D01*
X2462000Y852000D01*
G01Y780000D02*
X2438000D01*
G01X2137500Y852000D02*
X2142000Y846000D01*
X2145000Y839000D01*
Y831000D01*
X2140500Y822000D01*
X2133000Y815000D01*
X2124000Y810000D01*
X2109000Y806000D01*
X2095500Y805000D01*
X2082000Y807000D01*
X2073000Y810000D01*
X2064000Y816000D01*
X2058000Y823000D01*
X2055000Y830000D01*
Y837000D01*
X2058000Y844000D01*
X2062500Y850000D01*
X2068500Y855000D01*
G01X2055000Y900000D02*
X2145000D01*
X2127000Y888000D01*
G01X2055000D02*
Y912000D01*
G01X2068500Y948000D02*
X2061000Y954000D01*
X2056500Y961000D01*
X2055000Y970000D01*
X2058000Y979000D01*
X2064000Y986000D01*
X2074500Y991000D01*
X2086500Y992000D01*
X2098500Y990000D01*
X2106000Y985000D01*
X2112000Y978000D01*
X2113500Y971000D01*
X2112000Y964000D01*
X2106000Y955000D01*
X2145000Y958000D01*
Y985000D01*
G01X2257500Y852000D02*
X2262000Y846000D01*
X2265000Y839000D01*
Y831000D01*
X2260500Y822000D01*
X2253000Y815000D01*
X2244000Y810000D01*
X2229000Y806000D01*
X2215500Y805000D01*
X2202000Y807000D01*
X2193000Y810000D01*
X2184000Y816000D01*
X2178000Y823000D01*
X2175000Y830000D01*
Y837000D01*
X2178000Y844000D01*
X2182500Y850000D01*
X2188500Y855000D01*
G01X2175000Y900000D02*
X2265000D01*
X2247000Y888000D01*
G01X2175000D02*
Y912000D01*
G01Y968000D02*
X2194500Y970000D01*
X2211000Y973000D01*
X2226000Y977000D01*
X2242500Y982000D01*
X2265000Y990000D01*
Y950000D01*
G01X2174000Y2200000D02*
Y2290000D01*
X2136000D01*
G01X2150000Y2246500D02*
X2174000D01*
G01X2085000Y2200000D02*
Y2290000D01*
X2097000Y2272000D01*
G01Y2200000D02*
X2073000D01*
G01X2530000Y2930000D02*
X2516000Y2840000D01*
X2500000Y2930000D01*
X2484000Y2840000D01*
X2470000Y2930000D01*
G01X2452000Y2840000D02*
Y2930000D01*
G01X2414000D02*
X2452000Y2874500D01*
G01X2408000Y2840000D02*
X2435000Y2900000D01*
G01X2382000Y2930000D02*
Y2865500D01*
X2378000Y2852000D01*
X2370000Y2843000D01*
X2360000Y2840000D01*
X2350000Y2843000D01*
X2342000Y2852000D01*
X2338000Y2865500D01*
Y2930000D01*
G01X2310000Y2840000D02*
Y2930000D01*
X2286000D01*
X2278000Y2925500D01*
X2272000Y2915000D01*
X2270000Y2903000D01*
X2272000Y2891000D01*
X2277000Y2882000D01*
X2286000Y2877500D01*
X2310000D01*
G01X2782000Y48000D02*
X2776000Y37500D01*
X2768000Y31500D01*
X2759000Y30000D01*
X2751000Y31500D01*
X2743000Y39000D01*
X2738000Y48000D01*
X2737000Y57000D01*
X2739000Y67500D01*
X2746000Y75000D01*
X2753000Y78000D01*
X2762000D01*
G01X2753000D02*
X2747000Y82500D01*
X2742000Y90000D01*
X2740000Y99000D01*
X2742000Y108000D01*
X2747000Y115500D01*
X2756000Y120000D01*
X2765000Y118500D01*
X2774000Y112500D01*
G01X2715000Y120000D02*
X2690000Y30000D01*
X2665000Y120000D01*
G01X2642000Y48000D02*
X2636000Y37500D01*
X2628000Y31500D01*
X2619000Y30000D01*
X2611000Y31500D01*
X2603000Y39000D01*
X2598000Y48000D01*
X2597000Y57000D01*
X2599000Y67500D01*
X2606000Y75000D01*
X2613000Y78000D01*
X2622000D01*
G01X2613000D02*
X2607000Y82500D01*
X2602000Y90000D01*
X2600000Y99000D01*
X2602000Y108000D01*
X2607000Y115500D01*
X2616000Y120000D01*
X2625000Y118500D01*
X2634000Y112500D01*
G01X2760000Y240000D02*
Y150000D01*
G01X2783000Y240000D02*
X2737000D01*
G01X2710000Y150000D02*
Y240000D01*
X2686000D01*
X2678000Y235500D01*
X2672000Y225000D01*
X2670000Y213000D01*
X2672000Y201000D01*
X2677000Y192000D01*
X2686000Y187500D01*
X2710000D01*
G01X2639000Y225000D02*
X2633000Y234000D01*
X2626000Y238500D01*
X2618000Y240000D01*
X2608000Y237000D01*
X2601000Y229500D01*
X2599000Y220500D01*
X2600000Y211500D01*
X2604000Y204000D01*
X2624000Y189000D01*
X2633000Y178500D01*
X2639000Y163500D01*
X2641000Y150000D01*
X2599000D01*
G01X2897500Y852000D02*
X2902000Y846000D01*
X2905000Y839000D01*
Y831000D01*
X2900500Y822000D01*
X2893000Y815000D01*
X2884000Y810000D01*
X2869000Y806000D01*
X2855500Y805000D01*
X2842000Y807000D01*
X2833000Y810000D01*
X2824000Y816000D01*
X2818000Y823000D01*
X2815000Y830000D01*
Y837000D01*
X2818000Y844000D01*
X2822500Y850000D01*
X2828500Y855000D01*
G01X2815000Y900000D02*
X2905000D01*
X2887000Y888000D01*
G01X2815000D02*
Y912000D01*
G01Y970000D02*
X2816500Y977000D01*
X2821000Y985000D01*
X2828500Y990000D01*
X2839000Y992000D01*
X2849500Y990000D01*
X2858500Y984000D01*
X2863000Y975000D01*
Y965000D01*
X2866000Y959000D01*
X2873500Y954000D01*
X2884000Y952000D01*
X2894500Y955000D01*
X2902000Y962000D01*
X2905000Y970000D01*
X2902000Y978000D01*
X2894500Y985000D01*
X2884000Y988000D01*
X2873500Y986000D01*
X2866000Y981000D01*
X2863000Y975000D01*
Y965000D01*
X2858500Y956000D01*
X2849500Y950000D01*
X2839000Y948000D01*
X2828500Y950000D01*
X2821000Y955000D01*
X2816500Y963000D01*
X2815000Y970000D01*
G01X3046000Y3292000D02*
X3038000Y3284500D01*
X3029000Y3280000D01*
X3021000D01*
X3013000Y3284500D01*
X3007000Y3292000D01*
X3004000Y3302500D01*
X3006000Y3313000D01*
X3011000Y3322000D01*
X3020000Y3328000D01*
X3032000Y3331000D01*
X3039000Y3337000D01*
X3042000Y3347500D01*
X3040000Y3358000D01*
X3035000Y3365500D01*
X3028000Y3370000D01*
X3021000D01*
X3014000Y3367000D01*
X3008000Y3359500D01*
G01X2985000Y3370000D02*
X2971000Y3280000D01*
X2955000Y3370000D01*
X2939000Y3280000D01*
X2925000Y3370000D01*
G01X2885000Y3280000D02*
Y3370000D01*
X2897000Y3352000D01*
G01Y3280000D02*
X2873000D01*
G01X4639000Y640000D02*
Y730000D01*
X4601000D01*
G01X4615000Y686500D02*
X4639000D01*
G01X4550000Y640000D02*
Y730000D01*
X4562000Y712000D01*
G01Y640000D02*
X4538000D01*
G01X4480000Y730000D02*
X4488000Y727000D01*
X4494000Y719500D01*
X4498000Y710500D01*
X4501000Y698500D01*
X4502000Y685000D01*
X4501000Y671500D01*
X4498000Y659500D01*
X4494000Y650500D01*
X4488000Y643000D01*
X4480000Y640000D01*
X4472000Y643000D01*
X4466000Y650500D01*
X4462000Y659500D01*
X4459000Y671500D01*
X4458000Y685000D01*
X4459000Y698500D01*
X4462000Y710500D01*
X4466000Y719500D01*
X4472000Y727000D01*
X4480000Y730000D01*
G01X4432000Y658000D02*
X4426000Y647500D01*
X4418000Y641500D01*
X4409000Y640000D01*
X4401000Y641500D01*
X4393000Y649000D01*
X4388000Y658000D01*
X4387000Y667000D01*
X4389000Y677500D01*
X4396000Y685000D01*
X4403000Y688000D01*
X4412000D01*
G01X4403000D02*
X4397000Y692500D01*
X4392000Y700000D01*
X4390000Y709000D01*
X4392000Y718000D01*
X4397000Y725500D01*
X4406000Y730000D01*
X4415000Y728500D01*
X4424000Y722500D01*
G01X4370000Y610000D02*
X4310000D01*
G01X4270000Y730000D02*
Y640000D01*
G01X4293000Y730000D02*
X4247000D01*
G01X4222000D02*
Y665500D01*
X4218000Y652000D01*
X4210000Y643000D01*
X4200000Y640000D01*
X4190000Y643000D01*
X4182000Y652000D01*
X4178000Y665500D01*
Y730000D01*
G01X4122000Y688000D02*
X4118000Y692500D01*
X4115000Y700000D01*
X4113000Y710500D01*
X4115000Y719500D01*
X4119000Y725500D01*
X4126000Y730000D01*
X4153000D01*
Y640000D01*
X4120000D01*
X4113000Y646000D01*
X4109000Y655000D01*
X4107000Y665500D01*
X4109000Y676000D01*
X4115000Y685000D01*
X4122000Y688000D01*
X4153000D01*
G01X4040000Y640000D02*
X4080000D01*
Y730000D01*
X4040000D01*
G01X4056000Y686500D02*
X4080000D01*
G01X4020000Y610000D02*
X3960000D01*
G01X3898000Y722500D02*
X3904000Y727000D01*
X3911000Y730000D01*
X3919000D01*
X3928000Y725500D01*
X3935000Y718000D01*
X3940000Y709000D01*
X3944000Y694000D01*
X3945000Y680500D01*
X3943000Y667000D01*
X3940000Y658000D01*
X3934000Y649000D01*
X3927000Y643000D01*
X3920000Y640000D01*
X3913000D01*
X3906000Y643000D01*
X3900000Y647500D01*
X3895000Y653500D01*
G01X3870000Y730000D02*
Y640000D01*
X3830000D01*
G01X3780000D02*
X3788000Y641500D01*
X3795000Y647500D01*
X3801000Y656500D01*
X3805000Y667000D01*
X3807000Y679000D01*
Y691000D01*
X3805000Y703000D01*
X3801000Y713500D01*
X3795000Y722500D01*
X3788000Y728500D01*
X3780000Y730000D01*
X3772000Y728500D01*
X3765000Y722500D01*
X3759000Y713500D01*
X3755000Y703000D01*
X3753000Y691000D01*
Y679000D01*
X3755000Y667000D01*
X3759000Y656500D01*
X3765000Y647500D01*
X3772000Y641500D01*
X3780000Y640000D01*
G01X3688000Y722500D02*
X3694000Y727000D01*
X3701000Y730000D01*
X3709000D01*
X3718000Y725500D01*
X3725000Y718000D01*
X3730000Y709000D01*
X3734000Y694000D01*
X3735000Y680500D01*
X3733000Y667000D01*
X3730000Y658000D01*
X3724000Y649000D01*
X3717000Y643000D01*
X3710000Y640000D01*
X3703000D01*
X3696000Y643000D01*
X3690000Y647500D01*
X3685000Y653500D01*
G01X3662000Y640000D02*
Y730000D01*
G01X3624000D02*
X3662000Y674500D01*
G01X3618000Y640000D02*
X3645000Y700000D01*
G01X3600000Y610000D02*
X3540000D01*
G01X3525000Y730000D02*
X3500000Y640000D01*
X3475000Y730000D01*
G01X3430000Y640000D02*
Y730000D01*
X3442000Y712000D01*
G01Y640000D02*
X3418000D01*
G01X3360000Y730000D02*
X3368000Y727000D01*
X3374000Y719500D01*
X3378000Y710500D01*
X3381000Y698500D01*
X3382000Y685000D01*
X3381000Y671500D01*
X3378000Y659500D01*
X3374000Y650500D01*
X3368000Y643000D01*
X3360000Y640000D01*
X3352000Y643000D01*
X3346000Y650500D01*
X3342000Y659500D01*
X3339000Y671500D01*
X3338000Y685000D01*
X3339000Y698500D01*
X3342000Y710500D01*
X3346000Y719500D01*
X3352000Y727000D01*
X3360000Y730000D01*
G01X3315000Y640000D02*
X3290000Y730000D01*
X3265000Y640000D01*
G01X3274000Y671500D02*
X3306000D01*
G01X3782000Y2708000D02*
X3778000Y2712500D01*
X3775000Y2720000D01*
X3773000Y2730500D01*
X3775000Y2739500D01*
X3779000Y2745500D01*
X3786000Y2750000D01*
X3813000D01*
Y2660000D01*
X3780000D01*
X3773000Y2666000D01*
X3769000Y2675000D01*
X3767000Y2685500D01*
X3769000Y2696000D01*
X3775000Y2705000D01*
X3782000Y2708000D01*
X3813000D01*
G01X3745000Y2660000D02*
X3720000Y2750000D01*
X3695000Y2660000D01*
G01X3704000Y2691500D02*
X3736000D01*
G01X3650000Y2750000D02*
Y2660000D01*
G01X3673000Y2750000D02*
X3627000D01*
G01X3580000D02*
Y2660000D01*
G01X3603000Y2750000D02*
X3557000D01*
G01X3510000Y2660000D02*
Y2750000D01*
X3522000Y2732000D01*
G01Y2660000D02*
X3498000D01*
G01X4639000Y545000D02*
X4633000Y554000D01*
X4626000Y558500D01*
X4618000Y560000D01*
X4608000Y557000D01*
X4601000Y549500D01*
X4599000Y540500D01*
X4600000Y531500D01*
X4604000Y524000D01*
X4624000Y509000D01*
X4633000Y498500D01*
X4639000Y483500D01*
X4641000Y470000D01*
X4599000D01*
G01X4550000Y560000D02*
X4558000Y557000D01*
X4564000Y549500D01*
X4568000Y540500D01*
X4571000Y528500D01*
X4572000Y515000D01*
X4571000Y501500D01*
X4568000Y489500D01*
X4564000Y480500D01*
X4558000Y473000D01*
X4550000Y470000D01*
X4542000Y473000D01*
X4536000Y480500D01*
X4532000Y489500D01*
X4529000Y501500D01*
X4528000Y515000D01*
X4529000Y528500D01*
X4532000Y540500D01*
X4536000Y549500D01*
X4542000Y557000D01*
X4550000Y560000D01*
G01X4480000Y470000D02*
Y560000D01*
X4492000Y542000D01*
G01Y470000D02*
X4468000D01*
G01X4427000Y480500D02*
X4420000Y473000D01*
X4412000Y470000D01*
X4404000Y473000D01*
X4397000Y482000D01*
X4392000Y495500D01*
X4390000Y509000D01*
Y525500D01*
X4392000Y539000D01*
X4397000Y551000D01*
X4403000Y557000D01*
X4410000Y560000D01*
X4418000Y557000D01*
X4424000Y551000D01*
X4428000Y542000D01*
X4430000Y530000D01*
X4428000Y519500D01*
X4423000Y509000D01*
X4417000Y503000D01*
X4410000Y501500D01*
X4402000Y504500D01*
X4396000Y512000D01*
X4390000Y525500D01*
G01X4370000Y440000D02*
X4310000D01*
G01X4270000Y560000D02*
X4278000Y557000D01*
X4284000Y549500D01*
X4288000Y540500D01*
X4291000Y528500D01*
X4292000Y515000D01*
X4291000Y501500D01*
X4288000Y489500D01*
X4284000Y480500D01*
X4278000Y473000D01*
X4270000Y470000D01*
X4262000Y473000D01*
X4256000Y480500D01*
X4252000Y489500D01*
X4249000Y501500D01*
X4248000Y515000D01*
X4249000Y528500D01*
X4252000Y540500D01*
X4256000Y549500D01*
X4262000Y557000D01*
X4270000Y560000D01*
G01X4188000Y470000D02*
Y560000D01*
X4225000Y495500D01*
X4175000D01*
G01X4160000Y440000D02*
X4100000D01*
G01X4060000Y560000D02*
X4068000Y557000D01*
X4074000Y549500D01*
X4078000Y540500D01*
X4081000Y528500D01*
X4082000Y515000D01*
X4081000Y501500D01*
X4078000Y489500D01*
X4074000Y480500D01*
X4068000Y473000D01*
X4060000Y470000D01*
X4052000Y473000D01*
X4046000Y480500D01*
X4042000Y489500D01*
X4039000Y501500D01*
X4038000Y515000D01*
X4039000Y528500D01*
X4042000Y540500D01*
X4046000Y549500D01*
X4052000Y557000D01*
X4060000Y560000D01*
G01X4012000Y488000D02*
X4006000Y477500D01*
X3998000Y471500D01*
X3989000Y470000D01*
X3981000Y471500D01*
X3973000Y479000D01*
X3968000Y488000D01*
X3967000Y497000D01*
X3969000Y507500D01*
X3976000Y515000D01*
X3983000Y518000D01*
X3992000D01*
G01X3983000D02*
X3977000Y522500D01*
X3972000Y530000D01*
X3970000Y539000D01*
X3972000Y548000D01*
X3977000Y555500D01*
X3986000Y560000D01*
X3995000Y558500D01*
X4004000Y552500D01*
G01X4453000Y212500D02*
X4459000Y217000D01*
X4466000Y220000D01*
X4474000D01*
X4483000Y215500D01*
X4490000Y208000D01*
X4495000Y199000D01*
X4499000Y184000D01*
X4500000Y170500D01*
X4498000Y157000D01*
X4495000Y148000D01*
X4489000Y139000D01*
X4482000Y133000D01*
X4475000Y130000D01*
X4468000D01*
X4461000Y133000D01*
X4455000Y137500D01*
X4450000Y143500D01*
G01X4427000Y148000D02*
X4421000Y137500D01*
X4413000Y131500D01*
X4404000Y130000D01*
X4396000Y131500D01*
X4388000Y139000D01*
X4383000Y148000D01*
X4382000Y157000D01*
X4384000Y167500D01*
X4391000Y175000D01*
X4398000Y178000D01*
X4407000D01*
G01X4398000D02*
X4392000Y182500D01*
X4387000Y190000D01*
X4385000Y199000D01*
X4387000Y208000D01*
X4392000Y215500D01*
X4401000Y220000D01*
X4410000Y218500D01*
X4419000Y212500D01*
G01X4940000Y1223000D02*
X4875500D01*
X4862000Y1227000D01*
X4853000Y1235000D01*
X4850000Y1245000D01*
X4853000Y1255000D01*
X4862000Y1263000D01*
X4875500Y1267000D01*
X4940000D01*
G01X4860500Y1298000D02*
X4853000Y1305000D01*
X4850000Y1313000D01*
X4853000Y1321000D01*
X4862000Y1328000D01*
X4875500Y1333000D01*
X4889000Y1335000D01*
X4905500D01*
X4919000Y1333000D01*
X4931000Y1328000D01*
X4937000Y1322000D01*
X4940000Y1315000D01*
X4937000Y1307000D01*
X4931000Y1301000D01*
X4922000Y1297000D01*
X4910000Y1295000D01*
X4899500Y1297000D01*
X4889000Y1302000D01*
X4883000Y1308000D01*
X4881500Y1315000D01*
X4884500Y1323000D01*
X4892000Y1329000D01*
X4905500Y1335000D01*
G01X4722500Y3152000D02*
X4727000Y3146000D01*
X4730000Y3139000D01*
Y3131000D01*
X4725500Y3122000D01*
X4718000Y3115000D01*
X4709000Y3110000D01*
X4694000Y3106000D01*
X4680500Y3105000D01*
X4667000Y3107000D01*
X4658000Y3110000D01*
X4649000Y3116000D01*
X4643000Y3123000D01*
X4640000Y3130000D01*
Y3137000D01*
X4643000Y3144000D01*
X4647500Y3150000D01*
X4653500Y3155000D01*
G01X4640000Y3200000D02*
X4730000D01*
X4712000Y3188000D01*
G01X4640000D02*
Y3212000D01*
G01Y3270000D02*
X4730000D01*
X4712000Y3258000D01*
G01X4640000D02*
Y3282000D01*
G01X5539920Y1515000D02*
Y1605000D01*
X5514920D01*
X5506920Y1600500D01*
X5501920Y1594500D01*
X5499920Y1582500D01*
X5501920Y1570500D01*
X5507920Y1563000D01*
X5514920Y1558500D01*
X5539920D01*
G01X5514920D02*
X5499920Y1515000D01*
G01X5471920Y1528500D02*
X5465920Y1521000D01*
X5458920Y1516500D01*
X5449920Y1515000D01*
X5440920Y1518000D01*
X5433920Y1524000D01*
X5428920Y1534500D01*
X5427920Y1546500D01*
X5429920Y1558500D01*
X5434920Y1566000D01*
X5441920Y1572000D01*
X5448920Y1573500D01*
X5455920Y1572000D01*
X5464920Y1566000D01*
X5461920Y1605000D01*
X5434920D01*
G01X5604920Y1825000D02*
Y1915000D01*
X5579920D01*
X5571920Y1910500D01*
X5566920Y1904500D01*
X5564920Y1892500D01*
X5566920Y1880500D01*
X5572920Y1873000D01*
X5579920Y1868500D01*
X5604920D01*
G01X5579920D02*
X5564920Y1825000D01*
G01X5514920D02*
Y1915000D01*
X5526920Y1897000D01*
G01Y1825000D02*
X5502920D01*
G01X5466920Y1838500D02*
X5460920Y1831000D01*
X5453920Y1826500D01*
X5444920Y1825000D01*
X5435920Y1828000D01*
X5428920Y1834000D01*
X5423920Y1844500D01*
X5422920Y1856500D01*
X5424920Y1868500D01*
X5429920Y1876000D01*
X5436920Y1882000D01*
X5443920Y1883500D01*
X5450920Y1882000D01*
X5459920Y1876000D01*
X5456920Y1915000D01*
X5429920D01*
G01X5568000Y1772500D02*
X5574000Y1777000D01*
X5581000Y1780000D01*
X5589000D01*
X5598000Y1775500D01*
X5605000Y1768000D01*
X5610000Y1759000D01*
X5614000Y1744000D01*
X5615000Y1730500D01*
X5613000Y1717000D01*
X5610000Y1708000D01*
X5604000Y1699000D01*
X5597000Y1693000D01*
X5590000Y1690000D01*
X5583000D01*
X5576000Y1693000D01*
X5570000Y1697500D01*
X5565000Y1703500D01*
G01X5520000Y1690000D02*
Y1780000D01*
X5532000Y1762000D01*
G01Y1690000D02*
X5508000D01*
G01X5450000Y1780000D02*
X5458000Y1777000D01*
X5464000Y1769500D01*
X5468000Y1760500D01*
X5471000Y1748500D01*
X5472000Y1735000D01*
X5471000Y1721500D01*
X5468000Y1709500D01*
X5464000Y1700500D01*
X5458000Y1693000D01*
X5450000Y1690000D01*
X5442000Y1693000D01*
X5436000Y1700500D01*
X5432000Y1709500D01*
X5429000Y1721500D01*
X5428000Y1735000D01*
X5429000Y1748500D01*
X5432000Y1760500D01*
X5436000Y1769500D01*
X5442000Y1777000D01*
X5450000Y1780000D01*
G01X5539920Y1965000D02*
Y2055000D01*
X5514920D01*
X5506920Y2050500D01*
X5501920Y2044500D01*
X5499920Y2032500D01*
X5501920Y2020500D01*
X5507920Y2013000D01*
X5514920Y2008500D01*
X5539920D01*
G01X5514920D02*
X5499920Y1965000D01*
G01X5468920Y2002500D02*
X5461920Y2013000D01*
X5455920Y2019000D01*
X5447920Y2022000D01*
X5440920Y2019000D01*
X5435920Y2013000D01*
X5431920Y2004000D01*
X5430920Y1993500D01*
X5431920Y1984500D01*
X5435920Y1975500D01*
X5441920Y1968000D01*
X5448920Y1965000D01*
X5456920Y1968000D01*
X5463920Y1977000D01*
X5467920Y1990500D01*
X5468920Y2005500D01*
X5466920Y2025000D01*
X5463920Y2035500D01*
X5458920Y2046000D01*
X5451920Y2053500D01*
X5444920Y2055000D01*
X5437920Y2052000D01*
X5432920Y2044500D01*
G01X5312000Y2830000D02*
Y2920000D01*
G01X5274000D02*
X5312000Y2864500D01*
G01X5268000Y2830000D02*
X5295000Y2890000D01*
G01X5220000Y2920000D02*
X5228000Y2917000D01*
X5234000Y2909500D01*
X5238000Y2900500D01*
X5241000Y2888500D01*
X5242000Y2875000D01*
X5241000Y2861500D01*
X5238000Y2849500D01*
X5234000Y2840500D01*
X5228000Y2833000D01*
X5220000Y2830000D01*
X5212000Y2833000D01*
X5206000Y2840500D01*
X5202000Y2849500D01*
X5199000Y2861500D01*
X5198000Y2875000D01*
X5199000Y2888500D01*
X5202000Y2900500D01*
X5206000Y2909500D01*
X5212000Y2917000D01*
X5220000Y2920000D01*
G01X5604920Y2625000D02*
Y2715000D01*
X5579920D01*
X5571920Y2710500D01*
X5566920Y2704500D01*
X5564920Y2692500D01*
X5566920Y2680500D01*
X5572920Y2673000D01*
X5579920Y2668500D01*
X5604920D01*
G01X5579920D02*
X5564920Y2625000D01*
G01X5514920D02*
Y2715000D01*
X5526920Y2697000D01*
G01Y2625000D02*
X5502920D01*
G01X5466920Y2643000D02*
X5460920Y2632500D01*
X5452920Y2626500D01*
X5443920Y2625000D01*
X5435920Y2626500D01*
X5427920Y2634000D01*
X5422920Y2643000D01*
X5421920Y2652000D01*
X5423920Y2662500D01*
X5430920Y2670000D01*
X5437920Y2673000D01*
X5446920D01*
G01X5437920D02*
X5431920Y2677500D01*
X5426920Y2685000D01*
X5424920Y2694000D01*
X5426920Y2703000D01*
X5431920Y2710500D01*
X5440920Y2715000D01*
X5449920Y2713500D01*
X5458920Y2707500D01*
G01X5604920Y2485000D02*
Y2575000D01*
X5579920D01*
X5571920Y2570500D01*
X5566920Y2564500D01*
X5564920Y2552500D01*
X5566920Y2540500D01*
X5572920Y2533000D01*
X5579920Y2528500D01*
X5604920D01*
G01X5579920D02*
X5564920Y2485000D01*
G01X5514920D02*
Y2575000D01*
X5526920Y2557000D01*
G01Y2485000D02*
X5502920D01*
G01X5432920D02*
Y2575000D01*
X5469920Y2510500D01*
X5419920D01*
G01X5777000Y140000D02*
Y75500D01*
X5773000Y62000D01*
X5765000Y53000D01*
X5755000Y50000D01*
X5745000Y53000D01*
X5737000Y62000D01*
X5733000Y75500D01*
Y140000D01*
G01X5687000Y50000D02*
X5685000Y69500D01*
X5682000Y86000D01*
X5678000Y101000D01*
X5673000Y117500D01*
X5665000Y140000D01*
X5705000D01*
G01X6187000Y670000D02*
Y605500D01*
X6183000Y592000D01*
X6175000Y583000D01*
X6165000Y580000D01*
X6155000Y583000D01*
X6147000Y592000D01*
X6143000Y605500D01*
Y670000D01*
G01X6114000Y617500D02*
X6107000Y628000D01*
X6101000Y634000D01*
X6093000Y637000D01*
X6086000Y634000D01*
X6081000Y628000D01*
X6077000Y619000D01*
X6076000Y608500D01*
X6077000Y599500D01*
X6081000Y590500D01*
X6087000Y583000D01*
X6094000Y580000D01*
X6102000Y583000D01*
X6109000Y592000D01*
X6113000Y605500D01*
X6114000Y620500D01*
X6112000Y640000D01*
X6109000Y650500D01*
X6104000Y661000D01*
X6097000Y668500D01*
X6090000Y670000D01*
X6083000Y667000D01*
X6078000Y659500D01*
G01X6015000Y400000D02*
Y490000D01*
X5990000D01*
X5982000Y485500D01*
X5977000Y479500D01*
X5975000Y467500D01*
X5977000Y455500D01*
X5983000Y448000D01*
X5990000Y443500D01*
X6015000D01*
G01X5990000D02*
X5975000Y400000D01*
G01X5947000Y418000D02*
X5941000Y407500D01*
X5933000Y401500D01*
X5924000Y400000D01*
X5916000Y401500D01*
X5908000Y409000D01*
X5903000Y418000D01*
X5902000Y427000D01*
X5904000Y437500D01*
X5911000Y445000D01*
X5918000Y448000D01*
X5927000D01*
G01X5918000D02*
X5912000Y452500D01*
X5907000Y460000D01*
X5905000Y469000D01*
X5907000Y478000D01*
X5912000Y485500D01*
X5921000Y490000D01*
X5930000Y488500D01*
X5939000Y482500D01*
G01X5745000Y1200000D02*
X5753000Y1201500D01*
X5760000Y1207500D01*
X5766000Y1216500D01*
X5770000Y1227000D01*
X5772000Y1239000D01*
Y1251000D01*
X5770000Y1263000D01*
X5766000Y1273500D01*
X5760000Y1282500D01*
X5753000Y1288500D01*
X5745000Y1290000D01*
X5737000Y1288500D01*
X5730000Y1282500D01*
X5724000Y1273500D01*
X5720000Y1263000D01*
X5718000Y1251000D01*
Y1239000D01*
X5720000Y1227000D01*
X5724000Y1216500D01*
X5730000Y1207500D01*
X5737000Y1201500D01*
X5745000Y1200000D01*
G01X5737000Y1224000D02*
X5725000Y1200000D01*
G01X5675000D02*
Y1290000D01*
X5687000Y1272000D01*
G01Y1200000D02*
X5663000D01*
G01X5973000Y1172500D02*
X5979000Y1177000D01*
X5986000Y1180000D01*
X5994000D01*
X6003000Y1175500D01*
X6010000Y1168000D01*
X6015000Y1159000D01*
X6019000Y1144000D01*
X6020000Y1130500D01*
X6018000Y1117000D01*
X6015000Y1108000D01*
X6009000Y1099000D01*
X6002000Y1093000D01*
X5995000Y1090000D01*
X5988000D01*
X5981000Y1093000D01*
X5975000Y1097500D01*
X5970000Y1103500D01*
G01X5944000Y1165000D02*
X5938000Y1174000D01*
X5931000Y1178500D01*
X5923000Y1180000D01*
X5913000Y1177000D01*
X5906000Y1169500D01*
X5904000Y1160500D01*
X5905000Y1151500D01*
X5909000Y1144000D01*
X5929000Y1129000D01*
X5938000Y1118500D01*
X5944000Y1103500D01*
X5946000Y1090000D01*
X5904000D01*
G01X5906000Y1940000D02*
X5864000Y2030000D01*
G01X5906000D02*
X5864000Y1940000D01*
G01X5815000D02*
Y2030000D01*
X5827000Y2012000D01*
G01Y1940000D02*
X5803000D01*
G01X5838000Y1622500D02*
X5844000Y1627000D01*
X5851000Y1630000D01*
X5859000D01*
X5868000Y1625500D01*
X5875000Y1618000D01*
X5880000Y1609000D01*
X5884000Y1594000D01*
X5885000Y1580500D01*
X5883000Y1567000D01*
X5880000Y1558000D01*
X5874000Y1549000D01*
X5867000Y1543000D01*
X5860000Y1540000D01*
X5853000D01*
X5846000Y1543000D01*
X5840000Y1547500D01*
X5835000Y1553500D01*
G01X5790000Y1540000D02*
Y1630000D01*
X5802000Y1612000D01*
G01Y1540000D02*
X5778000D01*
G01X5739000Y1615000D02*
X5733000Y1624000D01*
X5726000Y1628500D01*
X5718000Y1630000D01*
X5708000Y1627000D01*
X5701000Y1619500D01*
X5699000Y1610500D01*
X5700000Y1601500D01*
X5704000Y1594000D01*
X5724000Y1579000D01*
X5733000Y1568500D01*
X5739000Y1553500D01*
X5741000Y1540000D01*
X5699000D01*
G01X5715000Y1980000D02*
X5723000Y1981500D01*
X5730000Y1987500D01*
X5736000Y1996500D01*
X5740000Y2007000D01*
X5742000Y2019000D01*
Y2031000D01*
X5740000Y2043000D01*
X5736000Y2053500D01*
X5730000Y2062500D01*
X5723000Y2068500D01*
X5715000Y2070000D01*
X5707000Y2068500D01*
X5700000Y2062500D01*
X5694000Y2053500D01*
X5690000Y2043000D01*
X5688000Y2031000D01*
Y2019000D01*
X5690000Y2007000D01*
X5694000Y1996500D01*
X5700000Y1987500D01*
X5707000Y1981500D01*
X5715000Y1980000D01*
G01X5707000Y2004000D02*
X5695000Y1980000D01*
G01X5664000Y2055000D02*
X5658000Y2064000D01*
X5651000Y2068500D01*
X5643000Y2070000D01*
X5633000Y2067000D01*
X5626000Y2059500D01*
X5624000Y2050500D01*
X5625000Y2041500D01*
X5629000Y2034000D01*
X5649000Y2019000D01*
X5658000Y2008500D01*
X5664000Y1993500D01*
X5666000Y1980000D01*
X5624000D01*
G01X5875000Y2410000D02*
Y2500000D01*
X5850000D01*
X5842000Y2495500D01*
X5837000Y2489500D01*
X5835000Y2477500D01*
X5837000Y2465500D01*
X5843000Y2458000D01*
X5850000Y2453500D01*
X5875000D01*
G01X5850000D02*
X5835000Y2410000D01*
G01X5787000D02*
X5785000Y2429500D01*
X5782000Y2446000D01*
X5778000Y2461000D01*
X5773000Y2477500D01*
X5765000Y2500000D01*
X5805000D01*
G01X5870000Y2290000D02*
Y2380000D01*
X5845000D01*
X5837000Y2375500D01*
X5832000Y2369500D01*
X5830000Y2357500D01*
X5832000Y2345500D01*
X5838000Y2338000D01*
X5845000Y2333500D01*
X5870000D01*
G01X5845000D02*
X5830000Y2290000D01*
G01X5780000D02*
Y2380000D01*
X5792000Y2362000D01*
G01Y2290000D02*
X5768000D01*
G01X5710000D02*
Y2380000D01*
X5722000Y2362000D01*
G01Y2290000D02*
X5698000D01*
G01X5843000Y2192500D02*
X5849000Y2197000D01*
X5856000Y2200000D01*
X5864000D01*
X5873000Y2195500D01*
X5880000Y2188000D01*
X5885000Y2179000D01*
X5889000Y2164000D01*
X5890000Y2150500D01*
X5888000Y2137000D01*
X5885000Y2128000D01*
X5879000Y2119000D01*
X5872000Y2113000D01*
X5865000Y2110000D01*
X5858000D01*
X5851000Y2113000D01*
X5845000Y2117500D01*
X5840000Y2123500D01*
G01X5812000Y2120500D02*
X5805000Y2113000D01*
X5797000Y2110000D01*
X5789000Y2113000D01*
X5782000Y2122000D01*
X5777000Y2135500D01*
X5775000Y2149000D01*
Y2165500D01*
X5777000Y2179000D01*
X5782000Y2191000D01*
X5788000Y2197000D01*
X5795000Y2200000D01*
X5803000Y2197000D01*
X5809000Y2191000D01*
X5813000Y2182000D01*
X5815000Y2170000D01*
X5813000Y2159500D01*
X5808000Y2149000D01*
X5802000Y2143000D01*
X5795000Y2141500D01*
X5787000Y2144500D01*
X5781000Y2152000D01*
X5775000Y2165500D01*
G01X5875000Y2525000D02*
Y2615000D01*
X5850000D01*
X5842000Y2610500D01*
X5837000Y2604500D01*
X5835000Y2592500D01*
X5837000Y2580500D01*
X5843000Y2573000D01*
X5850000Y2568500D01*
X5875000D01*
G01X5850000D02*
X5835000Y2525000D01*
G01X5773000D02*
Y2615000D01*
X5810000Y2550500D01*
X5760000D01*
G01X5896000Y3292000D02*
X5888000Y3284500D01*
X5879000Y3280000D01*
X5871000D01*
X5863000Y3284500D01*
X5857000Y3292000D01*
X5854000Y3302500D01*
X5856000Y3313000D01*
X5861000Y3322000D01*
X5870000Y3328000D01*
X5882000Y3331000D01*
X5889000Y3337000D01*
X5892000Y3347500D01*
X5890000Y3358000D01*
X5885000Y3365500D01*
X5878000Y3370000D01*
X5871000D01*
X5864000Y3367000D01*
X5858000Y3359500D01*
G01X5835000Y3370000D02*
X5821000Y3280000D01*
X5805000Y3370000D01*
X5789000Y3280000D01*
X5775000Y3370000D01*
G01X5754000Y3355000D02*
X5748000Y3364000D01*
X5741000Y3368500D01*
X5733000Y3370000D01*
X5723000Y3367000D01*
X5716000Y3359500D01*
X5714000Y3350500D01*
X5715000Y3341500D01*
X5719000Y3334000D01*
X5739000Y3319000D01*
X5748000Y3308500D01*
X5754000Y3293500D01*
X5756000Y3280000D01*
X5714000D01*
G01X6525000Y280000D02*
Y370000D01*
X6500000D01*
X6492000Y365500D01*
X6487000Y359500D01*
X6485000Y347500D01*
X6487000Y335500D01*
X6493000Y328000D01*
X6500000Y323500D01*
X6525000D01*
G01X6500000D02*
X6485000Y280000D01*
G01X6435000D02*
Y370000D01*
X6447000Y352000D01*
G01Y280000D02*
X6423000D01*
G01X6525000Y400000D02*
Y490000D01*
X6500000D01*
X6492000Y485500D01*
X6487000Y479500D01*
X6485000Y467500D01*
X6487000Y455500D01*
X6493000Y448000D01*
X6500000Y443500D01*
X6525000D01*
G01X6500000D02*
X6485000Y400000D01*
G01X6454000Y475000D02*
X6448000Y484000D01*
X6441000Y488500D01*
X6433000Y490000D01*
X6423000Y487000D01*
X6416000Y479500D01*
X6414000Y470500D01*
X6415000Y461500D01*
X6419000Y454000D01*
X6439000Y439000D01*
X6448000Y428500D01*
X6454000Y413500D01*
X6456000Y400000D01*
X6414000D01*
G01X6483000Y597500D02*
X6489000Y602000D01*
X6496000Y605000D01*
X6504000D01*
X6513000Y600500D01*
X6520000Y593000D01*
X6525000Y584000D01*
X6529000Y569000D01*
X6530000Y555500D01*
X6528000Y542000D01*
X6525000Y533000D01*
X6519000Y524000D01*
X6512000Y518000D01*
X6505000Y515000D01*
X6498000D01*
X6491000Y518000D01*
X6485000Y522500D01*
X6480000Y528500D01*
G01X6435000Y515000D02*
Y605000D01*
X6447000Y587000D01*
G01Y515000D02*
X6423000D01*
G01X6704300Y1007000D02*
X6708800Y1001000D01*
X6711800Y994000D01*
Y986000D01*
X6707300Y977000D01*
X6699800Y970000D01*
X6690800Y965000D01*
X6675800Y961000D01*
X6662300Y960000D01*
X6648800Y962000D01*
X6639800Y965000D01*
X6630800Y971000D01*
X6624800Y978000D01*
X6621800Y985000D01*
Y992000D01*
X6624800Y999000D01*
X6629300Y1005000D01*
X6635300Y1010000D01*
G01Y1033000D02*
X6627800Y1039000D01*
X6623300Y1046000D01*
X6621800Y1055000D01*
X6624800Y1064000D01*
X6630800Y1071000D01*
X6641300Y1076000D01*
X6653300Y1077000D01*
X6665300Y1075000D01*
X6672800Y1070000D01*
X6678800Y1063000D01*
X6680300Y1056000D01*
X6678800Y1049000D01*
X6672800Y1040000D01*
X6711800Y1043000D01*
Y1070000D01*
G01X6332500Y2727000D02*
X6337000Y2721000D01*
X6340000Y2714000D01*
Y2706000D01*
X6335500Y2697000D01*
X6328000Y2690000D01*
X6319000Y2685000D01*
X6304000Y2681000D01*
X6290500Y2680000D01*
X6277000Y2682000D01*
X6268000Y2685000D01*
X6259000Y2691000D01*
X6253000Y2698000D01*
X6250000Y2705000D01*
Y2712000D01*
X6253000Y2719000D01*
X6257500Y2725000D01*
X6263500Y2730000D01*
G01X6250000Y2775000D02*
X6251500Y2782000D01*
X6256000Y2790000D01*
X6263500Y2795000D01*
X6274000Y2797000D01*
X6284500Y2795000D01*
X6293500Y2789000D01*
X6298000Y2780000D01*
Y2770000D01*
X6301000Y2764000D01*
X6308500Y2759000D01*
X6319000Y2757000D01*
X6329500Y2760000D01*
X6337000Y2767000D01*
X6340000Y2775000D01*
X6337000Y2783000D01*
X6329500Y2790000D01*
X6319000Y2793000D01*
X6308500Y2791000D01*
X6301000Y2786000D01*
X6298000Y2780000D01*
Y2770000D01*
X6293500Y2761000D01*
X6284500Y2755000D01*
X6274000Y2753000D01*
X6263500Y2755000D01*
X6256000Y2760000D01*
X6251500Y2768000D01*
X6250000Y2775000D01*
G01X7100000Y333000D02*
X7190000D01*
Y353000D01*
X7185500Y361000D01*
X7179500Y367000D01*
X7170500Y372000D01*
X7160000Y376000D01*
X7145000Y377000D01*
X7130000Y376000D01*
X7119500Y372000D01*
X7110500Y367000D01*
X7104500Y361000D01*
X7100000Y353000D01*
Y333000D01*
G01X7113500Y403000D02*
X7106000Y409000D01*
X7101500Y416000D01*
X7100000Y425000D01*
X7103000Y434000D01*
X7109000Y441000D01*
X7119500Y446000D01*
X7131500Y447000D01*
X7143500Y445000D01*
X7151000Y440000D01*
X7157000Y433000D01*
X7158500Y426000D01*
X7157000Y419000D01*
X7151000Y410000D01*
X7190000Y413000D01*
Y440000D01*
G01X7100000Y500000D02*
X7190000D01*
Y525000D01*
X7185500Y533000D01*
X7179500Y538000D01*
X7167500Y540000D01*
X7155500Y538000D01*
X7148000Y532000D01*
X7143500Y525000D01*
Y500000D01*
G01Y525000D02*
X7100000Y540000D01*
G01Y590000D02*
X7190000D01*
X7172000Y578000D01*
G01X7100000D02*
Y602000D01*
G01X7175000Y641000D02*
X7184000Y647000D01*
X7188500Y654000D01*
X7190000Y662000D01*
X7187000Y672000D01*
X7179500Y679000D01*
X7170500Y681000D01*
X7161500Y680000D01*
X7154000Y676000D01*
X7139000Y656000D01*
X7128500Y647000D01*
X7113500Y641000D01*
X7100000Y639000D01*
Y681000D01*
G01X6760000Y965000D02*
X6850000D01*
Y990000D01*
X6845500Y998000D01*
X6839500Y1003000D01*
X6827500Y1005000D01*
X6815500Y1003000D01*
X6808000Y997000D01*
X6803500Y990000D01*
Y965000D01*
G01Y990000D02*
X6760000Y1005000D01*
G01X6770500Y1038000D02*
X6763000Y1045000D01*
X6760000Y1053000D01*
X6763000Y1061000D01*
X6772000Y1068000D01*
X6785500Y1073000D01*
X6799000Y1075000D01*
X6815500D01*
X6829000Y1073000D01*
X6841000Y1068000D01*
X6847000Y1062000D01*
X6850000Y1055000D01*
X6847000Y1047000D01*
X6841000Y1041000D01*
X6832000Y1037000D01*
X6820000Y1035000D01*
X6809500Y1037000D01*
X6799000Y1042000D01*
X6793000Y1048000D01*
X6791500Y1055000D01*
X6794500Y1063000D01*
X6802000Y1069000D01*
X6815500Y1075000D01*
G01X7460000Y333000D02*
X7550000D01*
Y353000D01*
X7545500Y361000D01*
X7539500Y367000D01*
X7530500Y372000D01*
X7520000Y376000D01*
X7505000Y377000D01*
X7490000Y376000D01*
X7479500Y372000D01*
X7470500Y367000D01*
X7464500Y361000D01*
X7460000Y353000D01*
Y333000D01*
G01X7497500Y406000D02*
X7508000Y413000D01*
X7514000Y419000D01*
X7517000Y427000D01*
X7514000Y434000D01*
X7508000Y439000D01*
X7499000Y443000D01*
X7488500Y444000D01*
X7479500Y443000D01*
X7470500Y439000D01*
X7463000Y433000D01*
X7460000Y426000D01*
X7463000Y418000D01*
X7472000Y411000D01*
X7485500Y407000D01*
X7500500Y406000D01*
X7520000Y408000D01*
X7530500Y411000D01*
X7541000Y416000D01*
X7548500Y423000D01*
X7550000Y430000D01*
X7547000Y437000D01*
X7539500Y442000D01*
G01X7340000Y333000D02*
X7430000D01*
Y353000D01*
X7425500Y361000D01*
X7419500Y367000D01*
X7410500Y372000D01*
X7400000Y376000D01*
X7385000Y377000D01*
X7370000Y376000D01*
X7359500Y372000D01*
X7350500Y367000D01*
X7344500Y361000D01*
X7340000Y353000D01*
Y333000D01*
G01X7358000Y403000D02*
X7347500Y409000D01*
X7341500Y417000D01*
X7340000Y426000D01*
X7341500Y434000D01*
X7349000Y442000D01*
X7358000Y447000D01*
X7367000Y448000D01*
X7377500Y446000D01*
X7385000Y439000D01*
X7388000Y432000D01*
Y423000D01*
G01Y432000D02*
X7392500Y438000D01*
X7400000Y443000D01*
X7409000Y445000D01*
X7418000Y443000D01*
X7425500Y438000D01*
X7430000Y429000D01*
X7428500Y420000D01*
X7422500Y411000D01*
G01X7220000Y333000D02*
X7310000D01*
Y353000D01*
X7305500Y361000D01*
X7299500Y367000D01*
X7290500Y372000D01*
X7280000Y376000D01*
X7265000Y377000D01*
X7250000Y376000D01*
X7239500Y372000D01*
X7230500Y367000D01*
X7224500Y361000D01*
X7220000Y353000D01*
Y333000D01*
G01Y437000D02*
X7310000D01*
X7245500Y400000D01*
Y450000D01*
G01X7220000Y500000D02*
X7310000D01*
Y525000D01*
X7305500Y533000D01*
X7299500Y538000D01*
X7287500Y540000D01*
X7275500Y538000D01*
X7268000Y532000D01*
X7263500Y525000D01*
Y500000D01*
G01Y525000D02*
X7220000Y540000D01*
G01Y590000D02*
X7310000D01*
X7292000Y578000D01*
G01X7220000D02*
Y602000D01*
G01X7310000Y660000D02*
X7307000Y652000D01*
X7299500Y646000D01*
X7290500Y642000D01*
X7278500Y639000D01*
X7265000Y638000D01*
X7251500Y639000D01*
X7239500Y642000D01*
X7230500Y646000D01*
X7223000Y652000D01*
X7220000Y660000D01*
X7223000Y668000D01*
X7230500Y674000D01*
X7239500Y678000D01*
X7251500Y681000D01*
X7265000Y682000D01*
X7278500Y681000D01*
X7290500Y678000D01*
X7299500Y674000D01*
X7307000Y668000D01*
X7310000Y660000D01*
G01X7460000Y500000D02*
X7550000D01*
Y525000D01*
X7545500Y533000D01*
X7539500Y538000D01*
X7527500Y540000D01*
X7515500Y538000D01*
X7508000Y532000D01*
X7503500Y525000D01*
Y500000D01*
G01Y525000D02*
X7460000Y540000D01*
G01Y590000D02*
X7550000D01*
X7532000Y578000D01*
G01X7460000D02*
Y602000D01*
G01X7497500Y641000D02*
X7508000Y648000D01*
X7514000Y654000D01*
X7517000Y662000D01*
X7514000Y669000D01*
X7508000Y674000D01*
X7499000Y678000D01*
X7488500Y679000D01*
X7479500Y678000D01*
X7470500Y674000D01*
X7463000Y668000D01*
X7460000Y661000D01*
X7463000Y653000D01*
X7472000Y646000D01*
X7485500Y642000D01*
X7500500Y641000D01*
X7520000Y643000D01*
X7530500Y646000D01*
X7541000Y651000D01*
X7548500Y658000D01*
X7550000Y665000D01*
X7547000Y672000D01*
X7539500Y677000D01*
G01X7340000Y505000D02*
X7430000D01*
Y530000D01*
X7425500Y538000D01*
X7419500Y543000D01*
X7407500Y545000D01*
X7395500Y543000D01*
X7388000Y537000D01*
X7383500Y530000D01*
Y505000D01*
G01Y530000D02*
X7340000Y545000D01*
G01Y595000D02*
X7341500Y602000D01*
X7346000Y610000D01*
X7353500Y615000D01*
X7364000Y617000D01*
X7374500Y615000D01*
X7383500Y609000D01*
X7388000Y600000D01*
Y590000D01*
X7391000Y584000D01*
X7398500Y579000D01*
X7409000Y577000D01*
X7419500Y580000D01*
X7427000Y587000D01*
X7430000Y595000D01*
X7427000Y603000D01*
X7419500Y610000D01*
X7409000Y613000D01*
X7398500Y611000D01*
X7391000Y606000D01*
X7388000Y600000D01*
Y590000D01*
X7383500Y581000D01*
X7374500Y575000D01*
X7364000Y573000D01*
X7353500Y575000D01*
X7346000Y580000D01*
X7341500Y588000D01*
X7340000Y595000D01*
G01X7397500Y1007000D02*
X7402000Y1001000D01*
X7405000Y994000D01*
Y986000D01*
X7400500Y977000D01*
X7393000Y970000D01*
X7384000Y965000D01*
X7369000Y961000D01*
X7355500Y960000D01*
X7342000Y962000D01*
X7333000Y965000D01*
X7324000Y971000D01*
X7318000Y978000D01*
X7315000Y985000D01*
Y992000D01*
X7318000Y999000D01*
X7322500Y1005000D01*
X7328500Y1010000D01*
G01X7315000Y1067000D02*
X7405000D01*
X7340500Y1030000D01*
Y1080000D01*
G01X7642000Y2330000D02*
Y2265500D01*
X7638000Y2252000D01*
X7630000Y2243000D01*
X7620000Y2240000D01*
X7610000Y2243000D01*
X7602000Y2252000D01*
X7598000Y2265500D01*
Y2330000D01*
G01X7550000Y2240000D02*
Y2330000D01*
X7562000Y2312000D01*
G01Y2240000D02*
X7538000D01*
G01X7499000Y2315000D02*
X7493000Y2324000D01*
X7486000Y2328500D01*
X7478000Y2330000D01*
X7468000Y2327000D01*
X7461000Y2319500D01*
X7459000Y2310500D01*
X7460000Y2301500D01*
X7464000Y2294000D01*
X7484000Y2279000D01*
X7493000Y2268500D01*
X7499000Y2253500D01*
X7501000Y2240000D01*
X7459000D01*
G01X7392500Y2667000D02*
X7397000Y2661000D01*
X7400000Y2654000D01*
Y2646000D01*
X7395500Y2637000D01*
X7388000Y2630000D01*
X7379000Y2625000D01*
X7364000Y2621000D01*
X7350500Y2620000D01*
X7337000Y2622000D01*
X7328000Y2625000D01*
X7319000Y2631000D01*
X7313000Y2638000D01*
X7310000Y2645000D01*
Y2652000D01*
X7313000Y2659000D01*
X7317500Y2665000D01*
X7323500Y2670000D01*
G01X7310000Y2713000D02*
X7329500Y2715000D01*
X7346000Y2718000D01*
X7361000Y2722000D01*
X7377500Y2727000D01*
X7400000Y2735000D01*
Y2695000D01*
G01X8142000Y2820000D02*
Y2910000D01*
G01X8104000D02*
X8142000Y2854500D01*
G01X8098000Y2820000D02*
X8125000Y2880000D01*
G01X8050000Y2820000D02*
Y2910000D01*
X8062000Y2892000D01*
G01Y2820000D02*
X8038000D01*
G01X8844000Y335000D02*
X8824000D01*
Y308000D01*
X8830000Y299000D01*
X8837000Y293000D01*
X8847000Y290000D01*
X8857000Y293000D01*
X8864000Y299000D01*
X8870000Y308000D01*
X8874000Y318500D01*
X8876000Y330500D01*
Y341000D01*
X8874000Y350000D01*
X8870000Y360500D01*
X8864000Y369500D01*
X8858000Y375500D01*
X8850000Y380000D01*
X8843000D01*
X8835000Y377000D01*
X8829000Y371000D01*
G01X8803000Y290000D02*
Y380000D01*
X8757000Y290000D01*
Y380000D01*
G01X8732000Y290000D02*
Y380000D01*
X8712000D01*
X8704000Y375500D01*
X8698000Y369500D01*
X8693000Y360500D01*
X8689000Y350000D01*
X8688000Y335000D01*
X8689000Y320000D01*
X8693000Y309500D01*
X8698000Y300500D01*
X8704000Y294500D01*
X8712000Y290000D01*
X8732000D01*
G01X8740000Y800000D02*
Y890000D01*
X8715000D01*
X8707000Y885500D01*
X8702000Y879500D01*
X8700000Y867500D01*
X8702000Y855500D01*
X8708000Y848000D01*
X8715000Y843500D01*
X8740000D01*
G01X8715000D02*
X8700000Y800000D01*
G01X8650000D02*
Y890000D01*
X8662000Y872000D01*
G01Y800000D02*
X8638000D01*
G01X8582000D02*
X8580000Y819500D01*
X8577000Y836000D01*
X8573000Y851000D01*
X8568000Y867500D01*
X8560000Y890000D01*
X8600000D01*
G01X8423000Y882500D02*
X8429000Y887000D01*
X8436000Y890000D01*
X8444000D01*
X8453000Y885500D01*
X8460000Y878000D01*
X8465000Y869000D01*
X8469000Y854000D01*
X8470000Y840500D01*
X8468000Y827000D01*
X8465000Y818000D01*
X8459000Y809000D01*
X8452000Y803000D01*
X8445000Y800000D01*
X8438000D01*
X8431000Y803000D01*
X8425000Y807500D01*
X8420000Y813500D01*
G01X8394000Y837500D02*
X8387000Y848000D01*
X8381000Y854000D01*
X8373000Y857000D01*
X8366000Y854000D01*
X8361000Y848000D01*
X8357000Y839000D01*
X8356000Y828500D01*
X8357000Y819500D01*
X8361000Y810500D01*
X8367000Y803000D01*
X8374000Y800000D01*
X8382000Y803000D01*
X8389000Y812000D01*
X8393000Y825500D01*
X8394000Y840500D01*
X8392000Y860000D01*
X8389000Y870500D01*
X8384000Y881000D01*
X8377000Y888500D01*
X8370000Y890000D01*
X8363000Y887000D01*
X8358000Y879500D01*
G01X8844000Y2715000D02*
X8824000D01*
Y2688000D01*
X8830000Y2679000D01*
X8837000Y2673000D01*
X8847000Y2670000D01*
X8857000Y2673000D01*
X8864000Y2679000D01*
X8870000Y2688000D01*
X8874000Y2698500D01*
X8876000Y2710500D01*
Y2721000D01*
X8874000Y2730000D01*
X8870000Y2740500D01*
X8864000Y2749500D01*
X8858000Y2755500D01*
X8850000Y2760000D01*
X8843000D01*
X8835000Y2757000D01*
X8829000Y2751000D01*
G01X8803000Y2670000D02*
Y2760000D01*
X8757000Y2670000D01*
Y2760000D01*
G01X8732000Y2670000D02*
Y2760000D01*
X8712000D01*
X8704000Y2755500D01*
X8698000Y2749500D01*
X8693000Y2740500D01*
X8689000Y2730000D01*
X8688000Y2715000D01*
X8689000Y2700000D01*
X8693000Y2689500D01*
X8698000Y2680500D01*
X8704000Y2674500D01*
X8712000Y2670000D01*
X8732000D01*
G01X8731000Y3312000D02*
X8723000Y3304500D01*
X8714000Y3300000D01*
X8706000D01*
X8698000Y3304500D01*
X8692000Y3312000D01*
X8689000Y3322500D01*
X8691000Y3333000D01*
X8696000Y3342000D01*
X8705000Y3348000D01*
X8717000Y3351000D01*
X8724000Y3357000D01*
X8727000Y3367500D01*
X8725000Y3378000D01*
X8720000Y3385500D01*
X8713000Y3390000D01*
X8706000D01*
X8699000Y3387000D01*
X8693000Y3379500D01*
G01X8670000Y3390000D02*
X8656000Y3300000D01*
X8640000Y3390000D01*
X8624000Y3300000D01*
X8610000Y3390000D01*
G01X8592000Y3318000D02*
X8586000Y3307500D01*
X8578000Y3301500D01*
X8569000Y3300000D01*
X8561000Y3301500D01*
X8553000Y3309000D01*
X8548000Y3318000D01*
X8547000Y3327000D01*
X8549000Y3337500D01*
X8556000Y3345000D01*
X8563000Y3348000D01*
X8572000D01*
G01X8563000D02*
X8557000Y3352500D01*
X8552000Y3360000D01*
X8550000Y3369000D01*
X8552000Y3378000D01*
X8557000Y3385500D01*
X8566000Y3390000D01*
X8575000Y3388500D01*
X8584000Y3382500D01*
G01X9382000Y290000D02*
Y380000D01*
X9362000D01*
X9354000Y375500D01*
X9348000Y369500D01*
X9343000Y360500D01*
X9339000Y350000D01*
X9338000Y335000D01*
X9339000Y320000D01*
X9343000Y309500D01*
X9348000Y300500D01*
X9354000Y294500D01*
X9362000Y290000D01*
X9382000D01*
G01X9302000Y380000D02*
X9278000D01*
G01X9290000D02*
Y290000D01*
G01X9302000D02*
X9278000D01*
G01X9220000D02*
X9228000Y291500D01*
X9235000Y297500D01*
X9241000Y306500D01*
X9245000Y317000D01*
X9247000Y329000D01*
Y341000D01*
X9245000Y353000D01*
X9241000Y363500D01*
X9235000Y372500D01*
X9228000Y378500D01*
X9220000Y380000D01*
X9212000Y378500D01*
X9205000Y372500D01*
X9199000Y363500D01*
X9195000Y353000D01*
X9193000Y341000D01*
Y329000D01*
X9195000Y317000D01*
X9199000Y306500D01*
X9205000Y297500D01*
X9212000Y291500D01*
X9220000Y290000D01*
G01X9078000Y372500D02*
X9084000Y377000D01*
X9091000Y380000D01*
X9099000D01*
X9108000Y375500D01*
X9115000Y368000D01*
X9120000Y359000D01*
X9124000Y344000D01*
X9125000Y330500D01*
X9123000Y317000D01*
X9120000Y308000D01*
X9114000Y299000D01*
X9107000Y293000D01*
X9100000Y290000D01*
X9093000D01*
X9086000Y293000D01*
X9080000Y297500D01*
X9075000Y303500D01*
G01X9050000Y380000D02*
Y290000D01*
X9010000D01*
G01X8982000D02*
Y380000D01*
G01X8944000D02*
X8982000Y324500D01*
G01X8938000Y290000D02*
X8965000Y350000D01*
G01X9122000Y2688000D02*
X9116000Y2677500D01*
X9108000Y2671500D01*
X9099000Y2670000D01*
X9091000Y2671500D01*
X9083000Y2679000D01*
X9078000Y2688000D01*
X9077000Y2697000D01*
X9079000Y2707500D01*
X9086000Y2715000D01*
X9093000Y2718000D01*
X9102000D01*
G01X9093000D02*
X9087000Y2722500D01*
X9082000Y2730000D01*
X9080000Y2739000D01*
X9082000Y2748000D01*
X9087000Y2755500D01*
X9096000Y2760000D01*
X9105000Y2758500D01*
X9114000Y2752500D01*
G01X9055000Y2760000D02*
X9030000Y2670000D01*
X9005000Y2760000D01*
G01X8982000Y2688000D02*
X8976000Y2677500D01*
X8968000Y2671500D01*
X8959000Y2670000D01*
X8951000Y2671500D01*
X8943000Y2679000D01*
X8938000Y2688000D01*
X8937000Y2697000D01*
X8939000Y2707500D01*
X8946000Y2715000D01*
X8953000Y2718000D01*
X8962000D01*
G01X8953000D02*
X8947000Y2722500D01*
X8942000Y2730000D01*
X8940000Y2739000D01*
X8942000Y2748000D01*
X8947000Y2755500D01*
X8956000Y2760000D01*
X8965000Y2758500D01*
X8974000Y2752500D01*
G01X9320000Y2760000D02*
Y2670000D01*
G01X9343000Y2760000D02*
X9297000D01*
G01X9271000Y2670000D02*
X9229000Y2760000D01*
G01X9271000D02*
X9229000Y2670000D01*
G01X9642000Y308000D02*
X9636000Y297500D01*
X9628000Y291500D01*
X9619000Y290000D01*
X9611000Y291500D01*
X9603000Y299000D01*
X9598000Y308000D01*
X9597000Y317000D01*
X9599000Y327500D01*
X9606000Y335000D01*
X9613000Y338000D01*
X9622000D01*
G01X9613000D02*
X9607000Y342500D01*
X9602000Y350000D01*
X9600000Y359000D01*
X9602000Y368000D01*
X9607000Y375500D01*
X9616000Y380000D01*
X9625000Y378500D01*
X9634000Y372500D01*
G01X9575000Y380000D02*
X9550000Y290000D01*
X9525000Y380000D01*
G01X9502000Y308000D02*
X9496000Y297500D01*
X9488000Y291500D01*
X9479000Y290000D01*
X9471000Y291500D01*
X9463000Y299000D01*
X9458000Y308000D01*
X9457000Y317000D01*
X9459000Y327500D01*
X9466000Y335000D01*
X9473000Y338000D01*
X9482000D01*
G01X9473000D02*
X9467000Y342500D01*
X9462000Y350000D01*
X9460000Y359000D01*
X9462000Y368000D01*
X9467000Y375500D01*
X9476000Y380000D01*
X9485000Y378500D01*
X9494000Y372500D01*
G01X9685000Y728000D02*
X9680000Y719000D01*
X9674000Y713000D01*
X9667000Y710000D01*
X9659000Y713000D01*
X9653000Y719000D01*
X9647000Y728000D01*
X9645000Y740000D01*
Y800000D01*
G01X9595000Y710000D02*
Y800000D01*
X9607000Y782000D01*
G01Y710000D02*
X9583000D01*
G01X9560000Y800000D02*
Y890000D01*
X9535000D01*
X9527000Y885500D01*
X9522000Y879500D01*
X9520000Y867500D01*
X9522000Y855500D01*
X9528000Y848000D01*
X9535000Y843500D01*
X9560000D01*
G01X9535000D02*
X9520000Y800000D01*
G01X9470000D02*
Y890000D01*
X9482000Y872000D01*
G01Y800000D02*
X9458000D01*
G01X9400000D02*
X9393000Y801500D01*
X9385000Y806000D01*
X9380000Y813500D01*
X9378000Y824000D01*
X9380000Y834500D01*
X9386000Y843500D01*
X9395000Y848000D01*
X9405000D01*
X9411000Y851000D01*
X9416000Y858500D01*
X9418000Y869000D01*
X9415000Y879500D01*
X9408000Y887000D01*
X9400000Y890000D01*
X9392000Y887000D01*
X9385000Y879500D01*
X9382000Y869000D01*
X9384000Y858500D01*
X9389000Y851000D01*
X9395000Y848000D01*
X9405000D01*
X9414000Y843500D01*
X9420000Y834500D01*
X9422000Y824000D01*
X9420000Y813500D01*
X9415000Y806000D01*
X9407000Y801500D01*
X9400000Y800000D01*
G01X9600000Y2670000D02*
Y2760000D01*
X9575000D01*
X9567000Y2755500D01*
X9562000Y2749500D01*
X9560000Y2737500D01*
X9562000Y2725500D01*
X9568000Y2718000D01*
X9575000Y2713500D01*
X9600000D01*
G01X9575000D02*
X9560000Y2670000D01*
G01X9531000D02*
X9489000Y2760000D01*
G01X9531000D02*
X9489000Y2670000D01*
G01X9825000Y2818000D02*
X9820000Y2809000D01*
X9814000Y2803000D01*
X9807000Y2800000D01*
X9799000Y2803000D01*
X9793000Y2809000D01*
X9787000Y2818000D01*
X9785000Y2830000D01*
Y2890000D01*
G01X9754000Y2875000D02*
X9748000Y2884000D01*
X9741000Y2888500D01*
X9733000Y2890000D01*
X9723000Y2887000D01*
X9716000Y2879500D01*
X9714000Y2870500D01*
X9715000Y2861500D01*
X9719000Y2854000D01*
X9739000Y2839000D01*
X9748000Y2828500D01*
X9754000Y2813500D01*
X9756000Y2800000D01*
X9714000D01*
G01X10497000Y2490000D02*
Y2425500D01*
X10493000Y2412000D01*
X10485000Y2403000D01*
X10475000Y2400000D01*
X10465000Y2403000D01*
X10457000Y2412000D01*
X10453000Y2425500D01*
Y2490000D01*
G01X10405000Y2400000D02*
X10398000Y2401500D01*
X10390000Y2406000D01*
X10385000Y2413500D01*
X10383000Y2424000D01*
X10385000Y2434500D01*
X10391000Y2443500D01*
X10400000Y2448000D01*
X10410000D01*
X10416000Y2451000D01*
X10421000Y2458500D01*
X10423000Y2469000D01*
X10420000Y2479500D01*
X10413000Y2487000D01*
X10405000Y2490000D01*
X10397000Y2487000D01*
X10390000Y2479500D01*
X10387000Y2469000D01*
X10389000Y2458500D01*
X10394000Y2451000D01*
X10400000Y2448000D01*
X10410000D01*
X10419000Y2443500D01*
X10425000Y2434500D01*
X10427000Y2424000D01*
X10425000Y2413500D01*
X10420000Y2406000D01*
X10412000Y2401500D01*
X10405000Y2400000D01*
G54D23*
X2065000Y2910000D03*
X2765000D03*
X4915000D03*
X5615000D03*
X7745000D03*
X8445000D03*
G54D14*
X895000Y684030D03*
X1385000D03*
G54D32*
X6515000Y1905010D03*
Y1854990D03*
Y1805010D03*
Y1754990D03*
Y2305010D03*
Y2254990D03*
Y2205010D03*
Y2154990D03*
Y2105010D03*
Y2054990D03*
Y2005010D03*
Y1954990D03*
X7365000Y1754990D03*
Y1805010D03*
Y1854990D03*
Y1905010D03*
Y1954990D03*
Y2005010D03*
Y2054990D03*
Y2105010D03*
Y2154990D03*
Y2205010D03*
Y2254990D03*
Y2305010D03*
G54D42*
G01X7646500Y270480D02*
X7710000Y206980D01*
X7773500Y270480D01*
X7646500D01*
X7664280Y252700D01*
X7748100D01*
X7735400Y240000D01*
X7684600D01*
X7697300Y227300D01*
X7722700D01*
G01X8136500Y270480D02*
X8200000Y206980D01*
X8263500Y270480D01*
X8136500D01*
X8154280Y252700D01*
X8238100D01*
X8225400Y240000D01*
X8174600D01*
X8187300Y227300D01*
X8212700D01*
G01X7936500Y270480D02*
X8000000Y206980D01*
X8063500Y270480D01*
X7936500D01*
X7954280Y252700D01*
X8038100D01*
X8025400Y240000D01*
X7974600D01*
X7987300Y227300D01*
X8012700D01*
G01X8416500Y270480D02*
X8480000Y206980D01*
X8543500Y270480D01*
X8416500D01*
X8434280Y252700D01*
X8518100D01*
X8505400Y240000D01*
X8454600D01*
X8467300Y227300D01*
X8492700D01*
G54D24*
X2190000Y3160000D03*
X2640000D03*
X5040000D03*
X5490000D03*
X7870000D03*
X8320000D03*
X9288000Y540000D03*
X9034000D03*
X9288000Y2920000D03*
X9034000D03*
X9542000Y540000D03*
Y2920000D03*
G54D15*
X810000Y1640000D03*
X1410000D03*
G54D33*
X6664990Y1605000D03*
X6715010D03*
X6764990D03*
X6815010D03*
X6864990D03*
X6915010D03*
X6964990D03*
X7015010D03*
X7064990D03*
X7115010D03*
Y2455000D03*
X7064990D03*
X7015010D03*
X6964990D03*
X6915010D03*
X6864990D03*
X6815010D03*
X6764990D03*
X6715010D03*
X6664990D03*
X7164990Y1605000D03*
X7215010D03*
Y2455000D03*
X7164990D03*
G54D25*
X3100000Y1000000D03*
Y2600000D03*
G54D16*
X1315000Y1110000D03*
X965000D03*
G54D34*
X7710000Y340000D03*
Y140000D03*
X8200000Y340000D03*
Y140000D03*
X8000000Y340000D03*
Y140000D03*
X8480000Y340000D03*
Y140000D03*
G54D35*
X7775000Y1335000D03*
Y1185000D03*
Y1935000D03*
Y1785000D03*
Y1635000D03*
Y1485000D03*
Y2235000D03*
Y2085000D03*
G54D17*
X1130000Y2120000D03*
G54D26*
X4035500Y1530000D03*
Y2530000D03*
X4416500Y1530000D03*
X4543500D03*
X4162500D03*
X4289500D03*
X4416500Y2530000D03*
X4543500D03*
X4162500D03*
X4289500D03*
X4924500Y1530000D03*
X4797500D03*
X4670500D03*
X4924500Y2530000D03*
X4670500D03*
X4797500D03*
G54D36*
X7950000Y1060000D03*
X8100000D03*
Y2360000D03*
X7950000D03*
X8250000Y1060000D03*
X8400000D03*
X8550000D03*
X8700000D03*
Y2360000D03*
X8550000D03*
X8400000D03*
X8250000D03*
X8850000Y1060000D03*
X9000000D03*
X9150000D03*
Y2360000D03*
X9000000D03*
X8850000D03*
X9300000Y1060000D03*
X9450000D03*
X9600000D03*
X9750000D03*
Y2360000D03*
X9600000D03*
X9450000D03*
X9300000D03*
G54D18*
X1740000Y875430D03*
Y552530D03*
G54D27*
X4954920Y359500D03*
Y232500D03*
Y105500D03*
Y867500D03*
Y740500D03*
Y613500D03*
Y486500D03*
Y994500D03*
X5554920Y105500D03*
Y232500D03*
Y359500D03*
Y486500D03*
Y613500D03*
Y740500D03*
Y867500D03*
Y994500D03*
G54D37*
X8780000Y540000D03*
Y2920000D03*
G54D19*
X1890000Y1270000D03*
Y2010000D03*
G54D28*
X5540000Y1290000D03*
X5670000Y2230000D03*
G54D38*
G01X0Y0D02*
X10530000D01*
Y3420000D01*
X0D01*
Y0D01*
G01X3160000Y1440000D02*
G03I-60000J0D01*
G01Y2190000D02*
G03I-60000J0D01*
G54D29*
X5500000Y1190000D03*
X5580000D03*
X5630000Y2130000D03*
X5710000D03*
G54D39*
G01X210000Y160000D02*
X90000D01*
Y440000D01*
X210000D01*
Y160000D01*
G01X230000Y440000D02*
X350000D01*
Y160000D01*
X230000D01*
Y440000D01*
G01X551300Y764830D02*
X259200D01*
Y663230D01*
X564000D01*
Y688630D01*
G01X90000Y854030D02*
X210000D01*
Y574030D01*
X90000D01*
Y854030D01*
G01X900000Y2120000D02*
X10000D01*
Y1220000D01*
X1410000D01*
Y1410000D01*
G01X140000Y970000D02*
G02Y1130000I147500J80000D01*
G01Y970000D02*
X480000D01*
G01Y1130000D02*
X140000D01*
G01X760000Y2800000D02*
G03I-260000J0D01*
G01D02*
X240000D01*
G01X492800Y160000D02*
X372800D01*
Y440000D01*
X492800D01*
Y160000D01*
G01X564000Y739430D02*
G03Y688630I0J-25400D01*
G01X551300Y764830D02*
X564000D01*
Y739430D01*
G01X620000Y844030D02*
G02X740000I60000J-77500D01*
G01Y584030D02*
G02X620000I-60000J77500D01*
G01X740000Y844030D02*
Y584030D01*
G01X620000D02*
Y844030D01*
G01X840000Y374030D02*
X770000D01*
Y994030D01*
X1510000D01*
Y374030D01*
X840000D01*
G01X480000Y1130000D02*
G02Y970000I-147500J-80000D01*
G01X906300Y1198900D02*
X900000Y1200000D01*
X870000D01*
Y1020000D01*
X900000D01*
G01X500000Y2540000D02*
Y3060000D01*
G01X1096800Y1198900D02*
Y1021100D01*
G01X1380000Y1200000D02*
X900000D01*
Y1020000D01*
X906300Y1021100D01*
G01D02*
X900000Y1020000D01*
X1380000D01*
X1376200Y1021100D01*
G01D02*
X1380000Y1020000D01*
Y1200000D01*
G01X1410000Y1870000D02*
Y2120000D01*
X1360000D01*
G01X1740000Y394030D02*
Y334030D01*
G01X1900000Y404030D02*
X1580000D01*
Y994030D01*
X1900000D01*
Y404030D01*
G01Y434030D02*
X1580000D01*
G01X1780000Y364030D02*
X1700000D01*
G01X1590000Y2150000D02*
X2190000D01*
Y1130000D01*
X1590000D01*
Y2150000D01*
G01X1890000Y1540000D02*
Y1440000D01*
G01Y1740000D02*
Y1840000D01*
G01Y1740000D02*
G03Y1640000I0J-50000D01*
G01Y1540000D02*
G03Y1640000I0J50000D01*
G01X2063500Y190000D02*
G03I-63500J0D01*
G01X1940000Y710000D02*
G02X2060000I60000J-77500D01*
G01Y450000D02*
G02X1940000I-60000J77500D01*
G01X2060000Y710000D02*
Y450000D01*
G01X1940000D02*
Y710000D01*
G01X2090000Y750000D02*
G02X2250000I80000J-147500D01*
G01Y410000D02*
G02X2090000I-80000J147500D01*
G01Y750000D02*
Y410000D01*
G01X2250000D02*
Y750000D01*
G01X2960000Y1020000D02*
G02X2470000Y2310000I140980J791613D01*
G01X2960000Y2610000D02*
X2390000D01*
Y2310000D01*
X2470000D01*
G01X1930000Y2780000D02*
X2900000D01*
Y3130000D01*
X2840000D01*
Y3410000D01*
X1990000D01*
Y3130000D01*
X1930000D01*
Y2780000D01*
G01X2621800Y3414000D02*
Y3514000D01*
X2620200Y3515600D01*
X2215400D01*
Y3414000D01*
G01X2923500Y190000D02*
G03I-63500J0D01*
G01X2545400Y427600D02*
G03X2494600I-25400J0D01*
G01X2570800Y440300D02*
Y427600D01*
X2545400D01*
G01X2570800Y440300D02*
Y732400D01*
X2469200D01*
Y427600D01*
X2494600D01*
G01X2780000Y750000D02*
G02X2940000I80000J-147500D01*
G01Y410000D02*
G02X2780000I-80000J147500D01*
G01Y750000D02*
Y410000D01*
G01X2940000D02*
Y750000D01*
G01X4670000Y760000D02*
X3230000D01*
Y410000D01*
X4670000D01*
Y760000D01*
G01X3730000Y2310000D02*
G02X3240000Y1020000I-630980J-498387D01*
G01Y2610000D02*
X3810000D01*
Y2310000D01*
X3730000D01*
G01X5010000Y2100000D02*
Y2380000D01*
X3960000D01*
Y1670000D01*
X5010000D01*
Y1960000D01*
G01X4550000Y120000D02*
G02Y240000I77500J60000D01*
G01X5294920Y1070000D02*
X5454920D01*
Y30000D01*
X5054920D01*
Y1070000D01*
X5214920D01*
G01X4810000Y240000D02*
G02Y120000I-77500J-60000D01*
G01X4550000Y240000D02*
X4810000D01*
G01Y120000D02*
X4550000D01*
G01X5010000Y2100000D02*
G03Y1960000I0J-70000D01*
G01X4780000Y2780000D02*
X5750000D01*
Y3130000D01*
X5690000D01*
Y3410000D01*
X4840000D01*
Y3130000D01*
X4780000D01*
Y2780000D01*
G01X4730000Y2790000D02*
G02X4610000I-60000J77500D01*
G01X4730000Y3050000D02*
Y2790000D01*
G01X4610000D02*
Y3050000D01*
G01D02*
G02X4730000I60000J-77500D01*
G01X5214920Y1070000D02*
G03X5294920I40000J0D01*
G01X5500000Y1290000D02*
X5460000D01*
Y1200000D01*
G01X5580000Y1290000D02*
X5620000D01*
Y1200000D01*
G01X5394920Y1620000D02*
Y1500000D01*
X5114920D01*
Y1620000D01*
X5394920D01*
G01X5114920Y1810000D02*
Y1930000D01*
X5394920D01*
Y1810000D01*
X5114920D01*
G01X5124920Y1670000D02*
G02Y1790000I77500J60000D01*
G01X5384920D02*
G02Y1670000I-77500J-60000D01*
G01X5124920Y1790000D02*
X5384920D01*
G01Y1670000D02*
X5124920D01*
G01X5394920Y2070000D02*
Y1950000D01*
X5114920D01*
Y2070000D01*
X5394920D01*
G01Y2730000D02*
Y2610000D01*
X5114920D01*
Y2730000D01*
X5394920D01*
G01Y2590000D02*
Y2470000D01*
X5114920D01*
Y2590000D01*
X5394920D01*
G01X5471800Y3414000D02*
Y3514000D01*
X5470200Y3515600D01*
X5065400D01*
Y3414000D01*
G01X6000000Y910000D02*
G02X5920000I-40000J0D01*
G01X5870000D01*
Y690000D01*
X6050000D01*
Y910000D01*
X6000000D01*
G01X6021200Y650000D02*
Y530000D01*
X5741200D01*
Y650000D01*
X6021200D01*
G01X5751200Y940000D02*
G02Y1060000I77500J60000D01*
G01X6011200D02*
G02Y940000I-77500J-60000D01*
G01X5751200Y1060000D02*
X6011200D01*
G01Y940000D02*
X5751200D01*
G01X6140000Y1700000D02*
X5940000D01*
Y2040000D01*
X6180000D01*
Y1700000D01*
X6140000D01*
G01X5930000Y1520000D02*
G02Y1640000I77500J60000D01*
G01X6190000Y1520000D02*
X5930000D01*
G01Y1640000D02*
X6190000D01*
G01X5630000Y2230000D02*
X5590000D01*
Y2140000D01*
G01X5710000Y2230000D02*
X5750000D01*
Y2140000D01*
G01X6200000Y2490000D02*
Y2370000D01*
X5920000D01*
Y2490000D01*
X6200000D01*
G01X5920000Y2230000D02*
Y2350000D01*
X6200000D01*
Y2230000D01*
X5920000D01*
G01X5930000Y2090000D02*
G02Y2210000I77500J60000D01*
G01D02*
X6190000D01*
G01Y2090000D02*
X5930000D01*
G01X6200000Y2630000D02*
Y2510000D01*
X5920000D01*
Y2630000D01*
X6200000D01*
G01X6530000Y920000D02*
Y800000D01*
X6250000D01*
Y920000D01*
X6530000D01*
G01Y750000D02*
Y630000D01*
X6250000D01*
Y750000D01*
X6530000D01*
G01X6250000Y960000D02*
G02Y1080000I77500J60000D01*
G01X6510000D02*
G02Y960000I-77500J-60000D01*
G01X6250000Y1080000D02*
X6510000D01*
G01Y960000D02*
X6250000D01*
G01X6606800Y1390000D02*
G02X6726800I60000J-77500D01*
G01Y1130000D02*
G02X6606800I-60000J77500D01*
G01D02*
Y1390000D01*
G01X7280000Y1690000D02*
Y2370000D01*
X6600000D01*
Y1690000D01*
X7280000D01*
G01X6190000Y1640000D02*
G02Y1520000I-77500J-60000D01*
G01X6350000Y2363800D02*
G02X6230000I-60000J77500D01*
G01X6350000Y2623800D02*
Y2363800D01*
G01X6230000D02*
Y2623800D01*
G01X6190000Y2210000D02*
G02Y2090000I-77500J-60000D01*
G01X6230000Y2623800D02*
G02X6350000I60000J-77500D01*
G01X6750000Y1400000D02*
X6870000D01*
Y1120000D01*
X6750000D01*
Y1400000D01*
G01X6726800Y1390000D02*
Y1130000D01*
G01X7620000Y410000D02*
X7800000D01*
Y70000D01*
X7620000D01*
Y410000D01*
G01X7650000Y710000D02*
X7770000D01*
Y430000D01*
X7650000D01*
Y710000D01*
G01X7300000Y1390000D02*
G02X7420000I60000J-77500D01*
G01Y1130000D02*
G02X7300000I-60000J77500D01*
G01X7420000Y1390000D02*
Y1130000D01*
G01X7300000D02*
Y1390000D01*
G01X7610000Y2780000D02*
X8580000D01*
Y3130000D01*
X8520000D01*
Y3410000D01*
X7670000D01*
Y3130000D01*
X7610000D01*
Y2780000D01*
G01X7280000Y2630000D02*
G02X7160000I-60000J77500D01*
G01Y2890000D02*
G02X7280000I60000J-77500D01*
G01X7160000Y2630000D02*
Y2890000D01*
G01X7280000D02*
Y2630000D01*
G01X8110000Y410000D02*
X8290000D01*
Y70000D01*
X8110000D01*
Y410000D01*
G01X7910000D02*
X8090000D01*
Y70000D01*
X7910000D01*
Y410000D01*
G01X7940000Y710000D02*
X8060000D01*
Y430000D01*
X7940000D01*
Y710000D01*
G01X8140000D02*
X8260000D01*
Y430000D01*
X8140000D01*
Y710000D01*
G01X8050000Y780000D02*
G02Y900000I77500J60000D01*
G01X8310000Y780000D02*
X8050000D01*
G01X7880000Y1060000D02*
X7760000D01*
Y1110000D01*
G01X8050000Y900000D02*
X8310000D01*
G01X7760000Y2310000D02*
Y2370000D01*
X7880000D01*
G01X8301800Y3414000D02*
Y3514000D01*
X8300200Y3515600D01*
X7895400D01*
Y3414000D01*
G01X8390000Y410000D02*
X8570000D01*
Y70000D01*
X8390000D01*
Y410000D01*
G01X8647000D02*
Y670000D01*
X9677000D01*
Y410000D01*
X8647000D01*
G01X8420000Y710000D02*
X8540000D01*
Y430000D01*
X8420000D01*
Y710000D01*
G01X8310000Y900000D02*
G02Y780000I-77500J-60000D01*
G01X8647000Y2790000D02*
Y3050000D01*
X9677000D01*
Y2790000D01*
X8647000D01*
G01X9071800Y780000D02*
Y900000D01*
X9351800D01*
Y780000D01*
X9071800D01*
G01X8770000D02*
Y900000D01*
X9050000D01*
Y780000D01*
X8770000D01*
G01X10290000Y620000D02*
G03I-260000J0D01*
G01D02*
X9770000D01*
G01X10030000Y360000D02*
Y880000D01*
G01X10050000Y2160000D02*
X10350000D01*
Y1960000D01*
X10150000D01*
Y1760000D01*
X10350000D01*
Y1560000D01*
X10150000D01*
Y1360000D01*
X10350000D01*
Y1160000D01*
G01X9950000Y1060000D02*
Y2360000D01*
G01X9820000Y1060000D02*
X10520000D01*
Y2370000D01*
X9820000D01*
M02*
