G04 ================== begin FILE IDENTIFICATION RECORD ==================*
G04 Layout Name:  F103_TUBE_CLOCK_V10A.brd*
G04 Film Name:    BOTTOM*
G04 File Format:  Gerber RS274X*
G04 File Origin:  Cadence Allegro 17.2-S058*
G04 Origin Date:  Thu Apr 30 15:23:33 2020*
G04 *
G04 Layer:  ETCH/BOTTOM*
G04 Layer:  PIN/BOTTOM*
G04 Layer:  VIA CLASS/BOTTOM*
G04 *
G04 Offset:    (0.0000 0.0000)*
G04 Mirror:    No*
G04 Mode:      Positive*
G04 Rotation:  0*
G04 FullContactRelief:  No*
G04 UndefLineWidth:     0.1524*
G04 ================== end FILE IDENTIFICATION RECORD ====================*
%FSLAX55Y55*MOMM*%
%IR0*IPPOS*OFA0.00000B0.00000*MIA0B0*SFA1.00000B1.00000*%
%ADD36R,1.2X.3*%
%ADD37R,.3X1.2*%
%ADD33R,2.X.5*%
%ADD11R,.6X1.1*%
%ADD22R,1.1X.6*%
%ADD28R,1.5X.6*%
%ADD38R,1.3X.9*%
%ADD16R,.8X1.4*%
%ADD27R,.6X1.8*%
%ADD31R,.5X.5*%
%ADD23C,.75*%
%ADD19R,.8X.8*%
%ADD10C,.6096*%
%ADD18O,4.X2.*%
%ADD35R,1.2X1.*%
%ADD17O,2.X4.*%
%ADD13R,1.X1.2*%
%ADD21R,2.5X1.*%
%ADD39R,1.8X1.*%
%ADD40R,1.X1.8*%
%ADD15R,1.4X4.2*%
%ADD32R,.4X.5*%
%ADD26R,2.3X4.4*%
%ADD29R,.5X.6*%
%ADD20R,5.6X2.3*%
%ADD34R,1.6X2.7*%
%ADD12R,.6X.5*%
%ADD24C,2.2*%
%ADD14C,1.3*%
%ADD30R,.8X.25*%
%ADD25C,1.8*%
%ADD41R,1.8X1.8*%
%ADD42C,.2032*%
%ADD43C,.254*%
%ADD44C,.508*%
%ADD45C,.762*%
%ADD47R,.6X.8*%
%ADD46C,2.3164*%
G75*
%LPD*%
G75*
G36*
G01X20000Y4080000D02*
X993890D01*
G02X1008260Y4045310I1J-20321D01*
G01X988310Y4025370D01*
X982790Y4026680D01*
G03X956000Y4029820I-26786J-112680D01*
G03Y3798180I0J-115820D01*
G03X982790Y3801320I4J115820D01*
G01X988310Y3802630D01*
X1470470Y3320470D01*
G03X1510000Y3304100I39530J39543D01*
G01X2566850D01*
X2644100Y3226850D01*
Y2780000D01*
G03X2660470Y2740470I55913J0D01*
G01X2810470Y2590470D01*
G03X2850000Y2574100I39530J39543D01*
G01X3566850D01*
X3754100Y2386850D01*
Y1570000D01*
G03X3770470Y1530470I55913J0D01*
G01X3855900Y1445050D01*
G02X3841530Y1410360I-14369J-14369D01*
G01X3454460D01*
G03X3435750Y1407130I16J-55897D01*
G01X3429700Y1404990D01*
X3368950Y1465740D01*
X3131050D01*
X2986050Y1320740D01*
X2631670D01*
G02X2614240Y1351500I3J20320D01*
G03X2620740Y1375000I-39231J23500D01*
G01Y1435000D01*
G03X2575000Y1480740I-45740J0D01*
G01X2465000D01*
G03X2420430Y1445290I0J-45743D01*
G01X2419780Y1442450D01*
X2410530Y1433200D01*
X2399210Y1444530D01*
G03X2359680Y1460900I-39530J-39543D01*
G01X2352990D01*
X2349950Y1464510D01*
G03X2315000Y1480740I-34950J-29516D01*
G01X2205000D01*
G03X2159260Y1435000I0J-45740D01*
G01Y1375000D01*
G03X2205000Y1329260I45740J0D01*
G01X2324100D01*
Y1290740D01*
X2205000D01*
G03X2186830Y1286980I-8J-45742D01*
G01X2184900Y1286140D01*
X2124540D01*
X2121870Y1292210D01*
G03X2080000Y1319540I-41870J-18408D01*
G01X2000000D01*
G03X1992880Y1318980I15J-45739D01*
G01X1992100Y1318860D01*
X1981140D01*
Y1620530D01*
X2030000Y1669390D01*
X2640530D01*
G03X2690830Y1690230I-6J71137D01*
G01X2919470Y1918860D01*
X3360530D01*
X3525310Y1754080D01*
X3526060Y1752480D01*
G03X3595000Y1708780I68940J32529D01*
G03X3671220Y1785000I0J76220D01*
G03X3627520Y1853940I-76229J0D01*
G01X3625920Y1854690D01*
X3440300Y2040300D01*
G03X3390000Y2061140I-50306J-50297D01*
G01X3204150D01*
G02X3185090Y2088510I-3J20320D01*
G03X3190730Y2120000I-85090J31490D01*
G03X3009270I-90730J0D01*
G03X3014910Y2088510I90730J0D01*
G02X2995850Y2061140I-19057J-7050D01*
G01X2890000D01*
G03X2839700Y2040300I6J-71137D01*
G01X2611060Y1811670D01*
X2235990D01*
G02X2215690Y1832920I-1J20321D01*
G03X2215740Y1835000I-45689J2139D01*
G01Y2065000D01*
G03X2170000Y2110740I-45740J0D01*
G01X2060740D01*
Y2220000D01*
G03X2015000Y2265740I-45740J0D01*
G01X1765000D01*
G03X1719260Y2220000I0J-45740D01*
G01Y2110740D01*
X1610000D01*
G03X1564260Y2065000I0J-45740D01*
G01Y2033840D01*
X631600D01*
G03X572320Y2009280I7J-83837D01*
G01X398770Y1835740D01*
X361600D01*
G03X315860Y1790000I0J-45740D01*
G01Y1670000D01*
G03X325600Y1641790I45738J5D01*
G01X327760Y1639030D01*
Y1624770D01*
X286600D01*
G03X240860Y1579030I0J-45740D01*
G01Y1509900D01*
X225890Y1494930D01*
X213960D01*
X211040Y1497630D01*
G03X180000Y1509770I-31040J-33612D01*
G01X120000D01*
G03X74260Y1464030I0J-45740D01*
G01Y1414030D01*
G03X78860Y1394030I45742J-8D01*
G03X74260Y1374030I41142J-19992D01*
G01Y1324030D01*
G03X120000Y1278290I45740J0D01*
G01X180000D01*
G03X214590Y1294100I0J45744D01*
G01X230000D01*
X230590D01*
G02X240860Y1283940I111J-10158D01*
G01Y1209030D01*
G03X260700Y1171330I45739J0D01*
G01Y1096530D01*
X252260Y1095080D01*
G03X214260Y1050000I7740J-45080D01*
G01Y1024570D01*
G02X189650Y1004710I-20320J2D01*
G03X180000Y1005740I-9652J-44710D01*
G01X120000D01*
G03X74260Y960000I0J-45740D01*
G01Y910000D01*
G03X120000Y864260I45740J0D01*
G01X180000D01*
G03X211040Y876400I0J45752D01*
G01X213960Y879100D01*
X226040D01*
X228960Y876400D01*
G03X260000Y864260I31040J33612D01*
G01X320000D01*
G03X348670Y874360I0J45742D01*
G02X374130I12730J-15837D01*
G03X402800Y864260I28670J35642D01*
G01X462800D01*
G03X508360Y905960I0J45739D01*
G01X508690Y909630D01*
X603150Y1004100D01*
X1230520D01*
G02X1237700Y986760I-5J-10159D01*
G01X1230960Y980020D01*
X1225960Y980720D01*
G03X1210000Y981820I-15925J-114722D01*
G03X1325820Y866000I0J-115820D01*
G03X1319820Y902800I-115821J5D01*
G01X1317820Y908760D01*
X1333150Y924100D01*
X1357660D01*
Y911930D01*
X1356890Y910070D01*
G03X1348180Y866000I107111J-44065D01*
G03X1579820I115820J0D01*
G03X1575270Y898140I-115819J-4D01*
G02X1594790Y924100I19522J5640D01*
G01X1611660D01*
Y911930D01*
X1610890Y910070D01*
G03X1602180Y866000I107111J-44065D01*
G03X1833820I115820J0D01*
G03X1829270Y898140I-115819J-4D01*
G02X1848790Y924100I19522J5640D01*
G01X3001210D01*
G02X3020730Y898140I-2J-20320D01*
G03X3016180Y866000I111269J-32144D01*
G03X3247820I115820J0D01*
G03X3244680Y892790I-115820J4D01*
G01X3243370Y898310D01*
X3267120Y922070D01*
X3278820Y910360D01*
X3276710Y904330D01*
G03X3270180Y866000I109288J-38340D01*
G03X3501820I115820J0D01*
G03X3498680Y892790I-115820J4D01*
G01X3497370Y898310D01*
X3521120Y922070D01*
X3532820Y910360D01*
X3530710Y904340D01*
G03X3524180Y866000I109289J-38340D01*
G03X3755820I115820J0D01*
G03X3752680Y892790I-115820J4D01*
G01X3751370Y898310D01*
X3775120Y922070D01*
X3786820Y910360D01*
X3784710Y904340D01*
G03X3778180Y866000I109289J-38340D01*
G03X4009820I115820J0D01*
G03X4006680Y892790I-115820J4D01*
G01X4005370Y898310D01*
X4029120Y922070D01*
X4040820Y910360D01*
X4038710Y904340D01*
G03X4032180Y866000I109289J-38340D01*
G03X4148000Y750180I115820J0D01*
G03X4240670Y796530I0J115815D01*
G02X4254820Y798610I8125J-6100D01*
G03X4293510Y784060I45169J61394D01*
G01X4297200Y783740D01*
X4346260Y734690D01*
G02X4331890Y700000I-14369J-14369D01*
G01X20000D01*
Y4080000D01*
G37*
G36*
G01X451130Y1402070D02*
G03X454270Y1405490I-39572J39484D01*
G01X454540Y1405810D01*
X462020Y1413290D01*
X493200Y1382110D01*
G02X486020Y1364770I-7186J-7181D01*
G01X476600D01*
G03X430860Y1319030I0J-45740D01*
G01Y1209030D01*
G03X476600Y1163290I45740J0D01*
G01X536600D01*
G03X582340Y1209030I0J45740D01*
G01Y1283280D01*
X592190Y1293130D01*
X616280D01*
G03X650000Y1278290I33720J30890D01*
G01X710000D01*
G03X719650Y1279320I-2J45740D01*
G02X744260Y1259460I4290J-19862D01*
G01Y1115900D01*
X580000D01*
G03X540470Y1099530I0J-55913D01*
G01X523580Y1082640D01*
G02X494940Y1082550I-14365J14368D01*
G03X462800Y1095740I-32140J-32563D01*
G01X402800D01*
G03X395890Y1095210I33J-45737D01*
G02X372500Y1115300I-3069J20088D01*
G01Y1171330D01*
G03X392340Y1209030I-25899J37700D01*
G01Y1319030D01*
G03X390050Y1333310I-45738J-11D01*
G02X401530Y1358410I19304J6346D01*
G03X419530Y1370470I-21526J51591D01*
G01X451130Y1402070D01*
G37*
G36*
G01X756160Y1866160D02*
X933840D01*
X940000Y1860000D01*
Y1180000D01*
X790000D01*
Y1410000D01*
X770000Y1430000D01*
X510000D01*
X485360Y1454640D01*
X486440Y1459980D01*
G03X487340Y1469030I-44842J9029D01*
G01Y1579030D01*
G03X486150Y1589380I-45738J-15D01*
G01X484880Y1594880D01*
X756160Y1866160D01*
G37*
G36*
G01X985740D02*
X1564260D01*
Y1835000D01*
G03X1610000Y1789260I45740J0D01*
G01X1899600D01*
G02X1913960Y1754570I-4J-20319D01*
G01X1859700Y1700300D01*
G03X1838860Y1650000I50297J-50306D01*
G01Y1286140D01*
X1790000D01*
G03X1782950Y1285790I-2J-71140D01*
G01X1782450Y1285740D01*
X1748950D01*
X1708950Y1325740D01*
X1375740D01*
Y1655740D01*
X1134260D01*
Y1115900D01*
X985740D01*
Y1866160D01*
G37*
G36*
G01X1180000Y1610000D02*
X1330000D01*
Y1300000D01*
X1350000Y1280000D01*
X1690000D01*
X1730000Y1240000D01*
X1737690D01*
X1739810Y1238960D01*
G03X1760000Y1234260I20195J41039D01*
G01X1830000D01*
Y1180000D01*
X1180000D01*
Y1610000D01*
G37*
G36*
G01X1834200Y3914100D02*
X2038100D01*
G02X2057250Y3887000I-3J-20318D01*
G03X2049180Y3840000I132752J-46987D01*
G03X2190000Y3699180I140820J0D01*
G03X2226260Y3703930I-6J140819D01*
G01X2231920Y3705440D01*
X2271560Y3665790D01*
Y3520000D01*
G03X2288680Y3478680I58438J6D01*
G01X2293470Y3473880D01*
G02X2286290Y3456540I-7186J-7181D01*
G01X1912510D01*
X1773900Y3595150D01*
Y3812560D01*
G03X1833450Y3904750I-55901J101437D01*
G01X1834200Y3914100D01*
G37*
G36*
G01X2341900D02*
X2488100D01*
G02X2507250Y3887000I-3J-20318D01*
G03X2499180Y3840000I132752J-46987D01*
G03X2640000Y3699180I140820J0D01*
G03X2748810Y3750600I6J140823D01*
G02X2778870Y3752070I15697J-12898D01*
G01X2950470Y3580470D01*
G03X2960140Y3572750I39497J39557D01*
G02X2960270Y3538480I-10859J-17176D01*
G03X2939260Y3500000I24733J-38480D01*
G01Y3060000D01*
G03X2985000Y3014260I45740J0D01*
G01X3215000D01*
G03X3260740Y3060000I0J45740D01*
G01Y3371560D01*
X3820000D01*
G03X3870930Y3401350I0J58431D01*
G01X3871620Y3402560D01*
X4043150Y3574100D01*
X4059260D01*
Y3560000D01*
G03X4069340Y3531360I45727J0D01*
G02Y3518640I-7927J-6360D01*
G03X4059260Y3490000I35647J-28640D01*
G01Y3478440D01*
X4010000D01*
G03X3968680Y3461320I6J-58438D01*
G01X3908680Y3401320D01*
G03X3891560Y3360000I41318J-41326D01*
G01Y2644210D01*
X3860000Y2612650D01*
X3711320Y2761320D01*
G03X3670000Y2778440I-41326J-41318D01*
G01X3185190D01*
G02X3169600Y2811800I-5J20321D01*
G03X3190730Y2870000I-69587J58200D01*
G03X3009270I-90730J0D01*
G03X3030400Y2811800I90717J0D01*
G02X3014810Y2778440I-15585J-13039D01*
G01X2924210D01*
X2858440Y2844210D01*
Y3290000D01*
G03X2841320Y3331320I-58438J-6D01*
G01X2681320Y3491320D01*
G03X2640000Y3508440I-41326J-41318D01*
G01X2424210D01*
X2388440Y3544210D01*
Y3690000D01*
G03X2371320Y3731320I-58438J-6D01*
G01X2319150Y3783490D01*
X2321510Y3789650D01*
G03X2330820Y3840000I-131510J50353D01*
G03X2322750Y3887000I-140822J13D01*
G02X2341900Y3914100I19153J6782D01*
G37*
G36*
G01X3150000Y1420000D02*
X3350000D01*
X3380000Y1390000D01*
Y1359050D01*
X3070950Y1050000D01*
X2480000D01*
X2460000Y1070000D01*
Y1250000D01*
X2485000Y1275000D01*
X3005000D01*
X3150000Y1420000D01*
G37*
G36*
G01X4700510Y3039560D02*
X4630470Y2969530D01*
G03X4614100Y2930000I39543J-39530D01*
G01Y2345740D01*
X4513500D01*
G03X4467760Y2300000I0J-45740D01*
G01Y2120000D01*
G03X4513500Y2074260I45740J0D01*
G01X4954500D01*
G03X5000240Y2120000I0J45740D01*
G01Y2300000D01*
G03X4994800Y2321630I-45739J-4D01*
G02X5012710Y2351560I17905J9610D01*
G01X5149100D01*
G03X5159580Y2341920I35828J28433D01*
G02Y2308080I-11251J-16920D01*
G03X5139180Y2270000I25341J-38080D01*
G01Y2210000D01*
G03X5154020Y2176280I45730J0D01*
G01Y2100070D01*
X5085310Y2031370D01*
X5079790Y2032680D01*
G03X5053000Y2035820I-26786J-112680D01*
G03X5168820Y1920000I0J-115820D01*
G03X5165680Y1946790I-115820J4D01*
G01X5164370Y1952310D01*
X5188120Y1976070D01*
X5199820Y1964360D01*
X5197710Y1958340D01*
G03X5191180Y1920000I109289J-38340D01*
G03X5307000Y1804180I115820J0D01*
G03X5413340Y1874100I0J115825D01*
G01X6001280D01*
G03X6026080Y1860140I33723J30900D01*
G01X6034260Y1858510D01*
Y1805000D01*
G03X6080000Y1759260I45740J0D01*
G01X6120000D01*
G03X6165740Y1805000I0J45740D01*
G01Y1816690D01*
X6179530Y1830470D01*
G03X6195900Y1870000I-39543J39530D01*
G01Y1980000D01*
G03X6184800Y2013440I-55902J6D01*
G01X6179540Y2020480D01*
X6203150Y2044100D01*
X6370630D01*
X6377450Y2026410D01*
G03X6375470Y2024530I37490J-41466D01*
G01X6300470Y1949530D01*
G03X6284100Y1910000I39543J-39530D01*
G01Y1756140D01*
X6205000D01*
G03X6203730Y1756130I-75J-71141D01*
G03X6200000Y1756220I-3703J-76131D01*
G03X6123780Y1680000I0J-76220D01*
G03X6141710Y1630890I76221J0D01*
G01X6144100Y1628050D01*
Y1613240D01*
X6075000D01*
G03X6029260Y1567500I0J-45740D01*
G01Y1554620D01*
G03X6015470Y1544530I25727J-49630D01*
G01X6003990Y1533050D01*
X5995010Y1542030D01*
X5994270Y1544470D01*
G03X5976500Y1574100I-68066J-20678D01*
G01X5945300Y1605300D01*
G03X5919590Y1621750I-50302J-50301D01*
G02X5906500Y1643640I7032J19064D01*
G03X5906940Y1650000I-45302J6329D01*
G01Y1672450D01*
X5906990Y1672950D01*
G03X5907340Y1680000I-70790J7048D01*
G01Y1748780D01*
X5907940Y1750450D01*
G03X5912420Y1776200I-71741J25746D01*
G03X5759980I-76220J0D01*
G03X5764460Y1750450I76221J-4D01*
G01X5765060Y1748780D01*
Y1680000D01*
G03X5765410Y1672950I71140J-2D01*
G01X5765460Y1672450D01*
Y1650000D01*
G03X5767330Y1637050I45741J-5D01*
G02X5753120Y1611670I-19486J-5758D01*
G03X5731490Y1598630I11882J-44169D01*
G02X5719190Y1596620I-7444J6914D01*
G03X5692500Y1603400I-26684J-49121D01*
G01X5666320D01*
Y1616630D01*
X5668010Y1619180D01*
G03X5675660Y1644500I-38077J25320D01*
G01Y1704500D01*
G03X5629920Y1750240I-45740J0D01*
G01X5479920D01*
G03X5442220Y1730400I0J-45739D01*
G01X5354500D01*
G03X5314970Y1714030I0J-55913D01*
G01X5260470Y1659530D01*
G03X5244100Y1620000I39543J-39530D01*
G01Y1443150D01*
X5211310Y1410360D01*
X5075660D01*
Y1450500D01*
Y1450950D01*
G02X5094720Y1471430I20319J199D01*
G03Y1623570I-4716J76070D01*
G02X5075660Y1644050I1259J20281D01*
G01Y1704500D01*
G03X5029920Y1750240I-45740J0D01*
G01X4879920D01*
G03X4842220Y1730400I0J-45739D01*
G01X4654500D01*
G03X4614970Y1714030I0J-55913D01*
G01X4560470Y1659530D01*
G03X4544100Y1620000I39543J-39530D01*
G01Y1551810D01*
G03X4523780Y1500000I55890J-51810D01*
G03X4523820Y1497410I76222J-118D01*
G02X4503520Y1476400I-20307J-692D01*
G01X4486480D01*
G02X4466180Y1497410I7J20318D01*
G03X4466220Y1500000I-76182J2472D01*
G03X4390000Y1576220I-76220J0D01*
G03X4338190Y1555900I0J-76210D01*
G01X3973150D01*
X3906540Y1622510D01*
Y2426840D01*
G03X3899670Y2453690I-55904J0D01*
G02X3902860Y2466980I8908J4890D01*
G03X3935550Y2519950I-42860J63023D01*
G01X3936010Y2523360D01*
X3991320Y2578680D01*
G03X4008440Y2620000I-41318J41326D01*
G01Y3335790D01*
X4034210Y3361560D01*
X4059260D01*
Y3350000D01*
G03X4105000Y3304260I45740J0D01*
G01X4185000D01*
G03X4230740Y3350000I0J45740D01*
G01Y3490000D01*
G03X4220660Y3518640I-45727J0D01*
G02Y3531360I7927J6360D01*
G03X4230740Y3560000I-35647J28640D01*
G01Y3704100D01*
X4330000D01*
G03X4369530Y3720470I0J55913D01*
G01X4563150Y3914100D01*
X5286850D01*
X5294100Y3906850D01*
Y3520000D01*
G03X5310470Y3480470I55913J0D01*
G01X5378520Y3412420D01*
X5369570Y3403470D01*
X5367190Y3402730D01*
G03X5352600Y3396410I22836J-72719D01*
G03X5324920Y3405740I-27684J-36408D01*
G01X5184920D01*
G03X5159000Y3397690I-4J-45741D01*
G01X5156400Y3395900D01*
X4850000D01*
G03X4810470Y3379530I0J-55913D01*
G01X4776690Y3345740D01*
X4728440D01*
Y3494180D01*
G03X4745740Y3530000I-28433J35820D01*
G01Y3580000D01*
G03X4700000Y3625740I-45740J0D01*
G01X4666910D01*
X4661320Y3631320D01*
G03X4620000Y3648440I-41326J-41318D01*
G01X4580740D01*
Y3700000D01*
G03X4535000Y3745740I-45740J0D01*
G01X4455000D01*
G03X4409260Y3700000I0J-45740D01*
G01Y3560000D01*
G03X4419340Y3531360I45727J0D01*
G02Y3518640I-7927J-6360D01*
G03X4409260Y3490000I35647J-28640D01*
G01Y3350000D01*
G03X4455000Y3304260I45740J0D01*
G01X4535000D01*
G03X4580740Y3350000I0J45740D01*
G01Y3490000D01*
G03X4572840Y3515690I-45738J-5D01*
G01X4571090Y3518280D01*
Y3531560D01*
X4593470D01*
X4594800Y3522960D01*
G03X4611560Y3494180I45194J7049D01*
G01Y3335420D01*
G03X4594760Y3300000I28939J-35420D01*
G01Y3120000D01*
G03X4640500Y3074260I45740J0D01*
G01X4686150D01*
G02X4700510Y3039560I1J-20321D01*
G37*
G36*
G01X4248590Y978060D02*
X4595720D01*
G02X4615490Y953050I0J-20319D01*
G03X4614260Y942500I44512J-10536D01*
G01Y882500D01*
G03X4616580Y868110I45741J-7D01*
G02X4597290Y841400I-19288J-6391D01*
G01X4487650D01*
X4476030Y853030D01*
X4476180Y857430D01*
G03X4476220Y860000I-76182J2471D01*
G03X4400000Y936220I-76220J0D01*
G03X4350000Y917530I0J-76226D01*
G03X4300000Y936220I-50000J-57536D01*
G03X4259800Y924760I-5J-76221D01*
G02X4245860Y927950I-5360J8630D01*
G03X4233570Y944050I-97855J-61957D01*
G02X4248590Y978060I15016J13690D01*
G37*
G36*
G01X4763150Y2944100D02*
X5092720D01*
G02X5110680Y2914260I7J-20321D01*
G03X5097180Y2860000I102318J-54266D01*
G03X5140730Y2769490I115829J0D01*
G02X5145540Y2743270I-12679J-15877D01*
G03X5139180Y2720000I39390J-23270D01*
G01Y2660000D01*
G03X5184920Y2614260I45740J0D01*
G01X5324920D01*
G03X5334020Y2615170I21J45742D01*
G02X5358380Y2595260I4042J-19912D01*
G01Y2334740D01*
G02X5334020Y2314830I-20318J2D01*
G03X5324920Y2315740I-9079J-44832D01*
G01X5284250D01*
G02X5269070Y2349580I-7J20322D01*
G03X5280660Y2380000I-34147J30428D01*
G01Y2440000D01*
G03X5275490Y2461130I-45741J6D01*
G03X5286140Y2500000I-65573J38860D01*
G03X5133700I-76220J0D01*
G03X5134220Y2491130I76219J18D01*
G02X5114040Y2468440I-20182J-2370D01*
G01X4860000D01*
G03X4818680Y2451320I6J-58438D01*
G01X4758680Y2391320D01*
G03X4745530Y2371170I41315J-41329D01*
G01X4743010Y2364690D01*
X4725900D01*
Y2906850D01*
X4763150Y2944100D01*
G37*
G36*
G01X5377650Y1618600D02*
X5417210D01*
G02X5436500Y1591890I2J-20319D01*
G03X5434180Y1577500I43421J-14383D01*
G01Y1517500D01*
G03X5443300Y1490090I45750J0D01*
G02Y1477910I-8130J-6090D01*
G03X5434180Y1450500I36630J-27410D01*
G01Y1390500D01*
G03X5479920Y1344760I45740J0D01*
G01X5629920D01*
G03X5667270Y1364100I0J45736D01*
G01X5690000D01*
G03X5714580Y1369790I8J55902D01*
G02X5727400Y1366450I4468J-9122D01*
G03X5765000Y1346760I37600J26055D01*
G01X5780300D01*
Y1333720D01*
G03X5765460Y1300000I30890J-33720D01*
G01Y1240000D01*
G03X5811200Y1194260I45740J0D01*
G01X5858860D01*
Y1047420D01*
X5858260Y1045750D01*
G03X5853780Y1020000I71741J-25746D01*
G03X6006220I76220J0D01*
G03X6001740Y1045750I-76221J4D01*
G01X6001140Y1047420D01*
Y1245280D01*
G02X6018480Y1252460I10159J-5D01*
G01X6020470Y1250470D01*
G03X6060000Y1234100I39530J39543D01*
G01X6650690D01*
G03X6690220Y1250470I0J55913D01*
G01X6799410Y1359670D01*
G02X6834100Y1345300I14369J-14369D01*
G01Y967440D01*
G03X6774180Y866000I55905J-101440D01*
G03X6777320Y839210I115820J-4D01*
G01X6778630Y833690D01*
X6754880Y809930D01*
X6743180Y821640D01*
X6745290Y827660D01*
G03X6751820Y866000I-109289J38340D01*
G03X6520180I-115820J0D01*
G03X6525230Y832160I115822J-13D01*
G02X6505800Y805900I-19430J-5942D01*
G01X6497660D01*
G02X6488330Y820090I-3J10161D01*
G03X6497820Y866000I-106329J45915D01*
G03X6382000Y981820I-115820J0D01*
G03X6280560Y921900I0J-115825D01*
G01X5887150D01*
X5735900Y1073150D01*
Y1190000D01*
G03X5719530Y1229530I-55913J0D01*
G01X5682550Y1266510D01*
G03X5643020Y1282880I-39530J-39543D01*
G01X5356170D01*
X5299050Y1340000D01*
X5339530Y1380470D01*
G03X5355900Y1420000I-39543J39530D01*
G01Y1596850D01*
X5377650Y1618600D01*
G37*
G36*
G01X5370950Y2181560D02*
X5373680Y2179470D01*
G03X5420000Y2163780I46320J60528D01*
G03X5496190Y2238020I0J76216D01*
G02X5522770Y2256820I20314J-530D01*
G03X5540000Y2254100I17225J53181D01*
G01X5786850D01*
X5960470Y2080470D01*
G03X6000000Y2064100I39530J39543D01*
G01X6001280D01*
G03X6026080Y2050140I33723J30900D01*
G01X6034260Y2048510D01*
Y2001490D01*
X6026080Y1999860D01*
G03X6001280Y1985900I8923J-44860D01*
G01X5402240D01*
G03X5307000Y2035820I-95240J-65892D01*
G03X5286230Y2033940I13J-115819D01*
G02X5263220Y2060060I-3637J19991D01*
G03X5265820Y2076920I-53302J16850D01*
G01Y2164260D01*
X5324920D01*
G03X5358000Y2178420I-7J45737D01*
G01X5361010Y2181560D01*
X5370950D01*
G37*
G36*
G01X5805740Y2860140D02*
X6000810D01*
X6034260Y2826690D01*
Y2790000D01*
G03X6038880Y2769960I45742J-7D01*
G02X6020620Y2740740I-18265J-8901D01*
G01X5960000D01*
G03X5914260Y2695000I0J-45740D01*
G01Y2645000D01*
G03X5960000Y2599260I45740J0D01*
G01X6144100D01*
Y2513150D01*
X6131690Y2500740D01*
X5960000D01*
G03X5914260Y2455000I0J-45740D01*
G01Y2405000D01*
G03X5960000Y2359260I45740J0D01*
G01X6160000D01*
G03X6205740Y2405000I0J45740D01*
G01Y2416690D01*
X6239530Y2450470D01*
G03X6255900Y2490000I-39543J39530D01*
G01Y2576850D01*
X6258140Y2579090D01*
X6409080D01*
X6409270Y2569130D01*
G03X6410370Y2560000I45731J878D01*
G03X6409260Y2549990I44629J-10015D01*
G01Y2519990D01*
G03X6410360Y2510000I45742J-19D01*
G03X6409260Y2500010I44642J-9971D01*
G01Y2470010D01*
G03X6409360Y2466930I45742J-56D01*
G01X6409680Y2462320D01*
X6265790Y2318440D01*
X6249050D01*
X6246320Y2320530D01*
G03X6200000Y2336220I-46320J-60528D01*
G03X6159760Y2324730I0J-76209D01*
G03X6130000Y2335740I-29765J-34728D01*
G01X6080000D01*
G03X6034260Y2290000I0J-45740D01*
G01Y2230000D01*
G03X6036700Y2215250I45742J-10D01*
G02X6022860Y2189100I-19230J-6560D01*
G03X6019360Y2187980I12179J-44088D01*
G01X6013280Y2185770D01*
X5849530Y2349530D01*
G03X5810000Y2365900I-39530J-39543D01*
G01X5563150D01*
X5515900Y2413150D01*
Y2755010D01*
G03X5523950Y2759150I-48904J104988D01*
G02X5554260Y2741450I9990J-17695D01*
G01Y2638000D01*
G03X5600000Y2592260I45740J0D01*
G01X5760000D01*
G03X5805740Y2638000I0J45740D01*
G01Y2860140D01*
G37*
G36*
G01X5913150Y3404100D02*
X6044260D01*
Y3274150D01*
G02X6033350Y3264020I-10159J1D01*
G03X6030000Y3264140I-3311J-45621D01*
G01X5910000D01*
G03X5864260Y3218400I0J-45740D01*
G01Y3118400D01*
G03X5910000Y3072660I45740J0D01*
G01X5923980D01*
G02X5944290Y3051620I3J-20320D01*
G03X5944260Y3050000I45709J-1657D01*
G01Y2990000D01*
G03X5944720Y2983540I45739J11D01*
G01X5944820Y2982820D01*
Y2971940D01*
X5756040D01*
G03X5714770Y2953740I0J-55892D01*
G01X5600000D01*
G03X5571840Y2944040I4J-45738D01*
G02X5545540Y2945120I-12515J16010D01*
G03X5483500Y2974640I-78544J-85118D01*
G02X5466110Y2995860I2898J20111D01*
G03X5466220Y2999980I-76111J4094D01*
G01Y3010140D01*
X5496040D01*
G03X5535570Y3026510I0J55913D01*
G01X5913150Y3404100D01*
G37*
G36*
G01X5619250Y3784100D02*
X5916850D01*
X6000360Y3700590D01*
G02X5985990Y3665900I-14369J-14369D01*
G01X5850000D01*
G03X5810470Y3649530I0J-55913D01*
G01X5656850Y3495900D01*
X5453150D01*
X5405900Y3543150D01*
Y3692020D01*
G02X5434260Y3710680I20319J-1D01*
G03X5490000Y3699180I55737J129321D01*
G03X5619250Y3784100I0J140821D01*
G37*
G36*
G01X6169520Y1399100D02*
X6266850D01*
X6274260Y1391690D01*
Y1370000D01*
G03X6274330Y1367380I45742J-89D01*
G02X6254050Y1345900I-20285J-1162D01*
G01X6083150D01*
X6075900Y1353150D01*
Y1396760D01*
X6155000D01*
G03X6168100Y1398670I20J45743D01*
G01X6169520Y1399100D01*
G37*
G36*
G01X6696800Y1914260D02*
G03X6725600Y1924470I-5J45738D01*
G02X6751200I12800J-15786D01*
G03X6780000Y1914260I28805J35528D01*
G01X6840000D01*
G03X6847320Y1914850I-3J45740D01*
G01X6848130Y1914980D01*
X6859110D01*
Y1648160D01*
X6597490Y1386540D01*
X6505740D01*
Y1430000D01*
G03X6493600Y1461040I-45752J0D01*
G01X6490900Y1463960D01*
Y1476040D01*
X6493600Y1478960D01*
G03X6505740Y1510000I-33612J31040D01*
G01Y1570000D01*
G03X6476210Y1612770I-45738J0D01*
G03X6474530Y1614530I-41267J-37709D01*
G01X6415740Y1673310D01*
Y1710000D01*
G03X6395900Y1747700I-45739J0D01*
G01Y1886850D01*
X6438150Y1929100D01*
X6603080D01*
G03X6636800Y1914260I33720J30890D01*
G01X6696800D01*
G37*
G36*
G01X6486900Y2374250D02*
X6544230D01*
Y2363780D01*
X6544210Y2363460D01*
G03X6544100Y2360000I55789J-3505D01*
G01Y2183150D01*
X6516850Y2155900D01*
X6180000D01*
G03X6155590Y2150290I0J-55911D01*
G02X6127730Y2161320I-8877J18277D01*
G03X6124020Y2168860I-42721J-16338D01*
G02X6132200Y2184310I8667J5302D01*
G03X6159760Y2195270I-2209J45686D01*
G03X6200000Y2183780I40240J64719D01*
G03X6248930Y2201560I0J76217D01*
G01X6290000D01*
G03X6331320Y2218680I-6J58438D01*
G01X6486900Y2374250D01*
G37*
G36*
G01X6374170Y3404100D02*
X6846850D01*
X6959110Y3291840D01*
Y3250890D01*
G02X6949140Y3240730I-10161J-1D01*
G03X6940000Y3239640I819J-45734D01*
G03X6930010Y3240740I-9971J-44642D01*
G01X6849990D01*
G03X6840000Y3239640I-19J-45742D01*
G03X6830010Y3240740I-9971J-44642D01*
G01X6749990D01*
G03X6740000Y3239640I-19J-45742D01*
G03X6730010Y3240740I-9971J-44642D01*
G01X6649990D01*
G03X6604250Y3195000I0J-45740D01*
G01Y3075000D01*
G03X6608210Y3056380I45741J-3D01*
G01X6609090Y3054410D01*
Y3040910D01*
X6595590D01*
X6593620Y3041790D01*
G03X6575000Y3045750I-18617J-41781D01*
G01X6455000D01*
G03X6409260Y3000010I0J-45740D01*
G01Y2970010D01*
G03X6410370Y2960000I45739J5D01*
G03X6409260Y2949990I44629J-10015D01*
G01Y2919990D01*
G03X6410360Y2910000I45742J-19D01*
G03X6409270Y2900860I44644J-9959D01*
G01X6409080Y2890890D01*
X6368160D01*
X6259530Y2999530D01*
G03X6220000Y3015900I-39530J-39543D01*
G01X6188150D01*
X6175740Y3028310D01*
Y3050000D01*
G03X6175710Y3051620I-45739J-37D01*
G02X6196020Y3072660I20307J720D01*
G01X6210000D01*
G03X6255740Y3118400I0J45740D01*
G01Y3275090D01*
G02X6276550Y3295400I20319J-3D01*
G03X6278400Y3295380I1749J76201D01*
G03X6354620Y3371600I0J76220D01*
G03X6354010Y3381220I-76220J-4D01*
G02X6374170Y3404100I20158J2560D01*
G37*
G36*
G01X6620740Y2871150D02*
G02X6655430Y2885520I20321J1D01*
G01X6840470Y2700470D01*
G03X6880000Y2684100I39530J39543D01*
G01X7098190D01*
G03X7150000Y2663780I51810J55890D01*
G03X7226220Y2740000I0J76220D01*
G03X7214880Y2780000I-76217J0D01*
G03X7217980Y2785530I-64878J40003D01*
G02X7232880Y2789250I9062J-4596D01*
G03X7251550Y2780740I32125J45744D01*
G01X7259260Y2778820D01*
Y2770010D01*
G03X7260370Y2760000I45739J5D01*
G03X7259260Y2749990I44629J-10015D01*
G01Y2719990D01*
G03X7260360Y2710000I45742J-19D01*
G03X7259260Y2700010I44642J-9971D01*
G01Y2670010D01*
G03X7260370Y2660000I45739J5D01*
G03X7259260Y2649990I44629J-10015D01*
G01Y2619990D01*
G03X7260360Y2610000I45742J-19D01*
G03X7259260Y2600010I44642J-9971D01*
G01Y2584620D01*
G03X7245460Y2574520I25728J-49630D01*
G01X7225470Y2554530D01*
G03X7209100Y2515000I39543J-39530D01*
G01Y2400890D01*
G02X7199130Y2390730I-10160J-1D01*
G03X7190000Y2389630I878J-45731D01*
G03X7179990Y2390740I-10015J-44629D01*
G01X7100010D01*
G03X7090000Y2389630I5J-45739D01*
G03X7081470Y2390720I-10037J-44627D01*
G02X7075700Y2409000I325J10153D01*
G03X7106220Y2470000I-45700J61000D01*
G03X7030000Y2546220I-76220J0D01*
G03X6981070Y2528440I0J-76217D01*
G01X6620740D01*
Y2549990D01*
G03X6619630Y2560000I-45739J-5D01*
G03X6620740Y2570010I-44629J10015D01*
G01Y2600010D01*
G03X6619640Y2610000I-45742J19D01*
G03X6620740Y2619990I-44642J9971D01*
G01Y2649990D01*
G03X6619630Y2660000I-45739J-5D01*
G03X6620740Y2670010I-44629J10015D01*
G01Y2700010D01*
G03X6619640Y2710000I-45742J19D01*
G03X6620740Y2719990I-44642J9971D01*
G01Y2749990D01*
G03X6619630Y2760000I-45739J-5D01*
G03X6620740Y2770010I-44629J10015D01*
G01Y2800010D01*
G03X6619640Y2810000I-45742J19D01*
G03X6620740Y2819990I-44642J9971D01*
G01Y2849990D01*
G03X6619630Y2860000I-45739J-5D01*
G03X6620740Y2870010I-44629J10015D01*
G01Y2871150D01*
G37*
G36*
G01X7423440Y2373460D02*
X7432040Y2374790D01*
G03X7451410Y2382640I-7041J45198D01*
G02X7483460Y2366050I11732J-16589D01*
G01Y1700640D01*
G03X7499830Y1661110I55913J0D01*
G01X7782420Y1378530D01*
Y1365650D01*
G02X7766400Y1357350I-10160J1D01*
G03X7740000Y1365740I-26400J-37340D01*
G01X7680000D01*
G03X7653720Y1357440I-4J-45741D01*
G03X7610000Y1371220I-43713J-62442D01*
G03Y1218780I0J-76220D01*
G03X7613110Y1218840I85J76222D01*
G02X7634260Y1198540I831J-20302D01*
G01Y1180000D01*
G03X7654100Y1142300I45739J0D01*
G01Y1120890D01*
G02X7644130Y1110730I-10160J-1D01*
G03X7599260Y1065000I868J-45730D01*
G01Y975000D01*
G03X7645000Y929260I45740J0D01*
G01X7782420D01*
Y871680D01*
G03X7798790Y832150I55913J0D01*
G01X7831000Y799950D01*
G02X7816630Y765260I-14369J-14369D01*
G01X7507850D01*
G02X7491450Y797580I-2J20320D01*
G03X7513820Y866000I-93448J68420D01*
G03X7282180I-115820J0D01*
G03X7304550Y797580I115818J0D01*
G02X7288150Y765260I-16398J-12000D01*
G01X7253850D01*
G02X7237450Y797580I-2J20320D01*
G03X7259820Y866000I-93448J68420D01*
G03X7028180I-115820J0D01*
G03X7050550Y797580I115818J0D01*
G02X7034150Y765260I-16398J-12000D01*
G01X6999850D01*
G02X6983450Y797580I-2J20320D01*
G03X7005820Y866000I-93448J68420D01*
G03X6945900Y967440I-115825J0D01*
G01Y1378190D01*
G03X6966220Y1430000I-55890J51810D01*
G03X6947140Y1480440I-76212J0D01*
G02X6948000Y1508260I15231J13452D01*
G01X7004520Y1564770D01*
G03X7020890Y1604300I-39543J39530D01*
G01Y2179260D01*
X7079990D01*
G03X7090000Y2180370I-5J45739D01*
G03X7100010Y2179260I10015J44629D01*
G01X7159110D01*
Y1604990D01*
G03X7175480Y1565460I55913J0D01*
G01X7310470Y1430470D01*
G03X7350000Y1414100I39530J39543D01*
G01X7398190D01*
G03X7450000Y1393780I51810J55890D01*
G03X7526220Y1470000I0J76220D01*
G03X7516730Y1506830I-76212J0D01*
G03X7526220Y1543660I-66722J36830D01*
G03X7450000Y1619880I-76220J0D01*
G03X7400890Y1601950I0J-76221D01*
G01X7398050Y1599560D01*
X7370190D01*
X7320900Y1648850D01*
Y1914260D01*
X7390000D01*
G03X7435740Y1960000I0J45740D01*
G01Y2010000D01*
G03X7423440Y2041210I-45746J0D01*
G01Y2091070D01*
G03Y2188930I-58437J48930D01*
G01Y2373460D01*
G37*
G36*
G01X6779990Y2179260D02*
G03X6790000Y2180370I-5J45739D01*
G03X6799130Y2179270I10008J44631D01*
G02X6809090Y2169110I-200J-10158D01*
G01Y2063140D01*
X6801690Y2055740D01*
X6780000D01*
G03X6745960Y2040550I0J-45736D01*
G02X6730840I-7560J6789D01*
G03X6723430Y2047190I-34049J-30542D01*
G01Y2179260D01*
X6779990D01*
G37*
G36*
G01X7130010Y3029260D02*
G03X7158650Y3039340I0J45727D01*
G02X7171370I6360J-7927D01*
G03X7172830Y3038210I28720J35599D01*
G02X7179220Y3013370I-12069J-16347D01*
G03X7174100Y2990000I50776J-23370D01*
G01Y2916470D01*
G02X7152980Y2896160I-20320J-5D01*
G03X7150000Y2896220I-3024J-76159D01*
G03X7098190Y2875900I0J-76210D01*
G01X6883150D01*
X6764480Y2994570D01*
G02X6778850Y3029260I14369J14369D01*
G01X6830010D01*
G03X6840000Y3030360I19J45742D01*
G03X6849990Y3029260I9971J44642D01*
G01X6930010D01*
G03X6940000Y3030360I19J45742D01*
G03X6949990Y3029260I9971J44642D01*
G01X7030010D01*
G03X7040000Y3030360I19J45742D01*
G03X7049990Y3029260I9971J44642D01*
G01X7130010D01*
G37*
G36*
G01X7045440Y3554100D02*
X7246850D01*
X7354100Y3446850D01*
Y3193150D01*
X7310440Y3149490D01*
G02X7275750Y3163860I-14369J14369D01*
G01Y3195000D01*
G03X7273870Y3207990I-45742J11D01*
G01X7273450Y3209400D01*
Y3220950D01*
X7275540Y3223680D01*
G03Y3316320I-60528J46320D01*
G01X7273450Y3319050D01*
Y3330730D01*
G03X7295740Y3370000I-23447J39270D01*
G01Y3420000D01*
G03X7250000Y3465740I-45740J0D01*
G01X7190000D01*
G03X7148810Y3439880I0J-45734D01*
G02X7116140Y3434350I-18298J8835D01*
G01X7031070Y3519410D01*
G02X7045440Y3554100I14369J14369D01*
G37*
G36*
G01X7828710Y3909660D02*
X8166600D01*
G02X8185940Y3883120I-2J-20318D01*
G03X8179180Y3840000I134062J-43107D01*
G03X8234100Y3728410I140828J0D01*
G01Y3503150D01*
X8126850Y3395900D01*
X7630010D01*
G03X7590480Y3379530I0J-55913D01*
G01X7548670Y3337710D01*
G02X7513980Y3352080I-14369J14369D01*
G01Y3601920D01*
G03X7508860Y3625290I-55896J0D01*
G02X7527320Y3654100I18461J8490D01*
G01X7550000D01*
G03X7589530Y3670470I0J55913D01*
G01X7828710Y3909660D01*
G37*
G36*
G01X7910740Y2904260D02*
X8217670D01*
G02X8232890Y2870480I-1J-20319D01*
G03X8213780Y2820000I57118J-50480D01*
G03X8225120Y2780000I76217J0D01*
G03X8213780Y2740000I64877J-40000D01*
G03X8290000Y2663780I76220J0D01*
G03X8341810Y2684100I0J76210D01*
G01X9476850D01*
X9544100Y2616850D01*
Y1875740D01*
X8171140D01*
Y2112580D01*
X8171740Y2114250D01*
G03X8176220Y2140000I-71741J25746D01*
G03X8023780I-76220J0D01*
G03X8028260Y2114250I76221J-4D01*
G01X8028860Y2112580D01*
Y1870920D01*
X8024390Y1867900D01*
G03X8004260Y1830000I25613J-37900D01*
G01Y1650000D01*
G03X8024940Y1611730I45751J0D01*
G02X8031090Y1584050I-11131J-16996D01*
G03X8024260Y1560000I38911J-24045D01*
G01Y1510000D01*
G03X8070000Y1464260I45740J0D01*
G01X8130000D01*
G03X8175740Y1510000I0J45740D01*
G01Y1560000D01*
G03X8172630Y1576580I-45751J0D01*
G02X8191570Y1604260I18939J7361D01*
G01X9804100D01*
Y1223150D01*
X9636850Y1055900D01*
X9454000D01*
G03X9414470Y1039530I0J-55913D01*
G01X9352310Y977370D01*
X9346790Y978680D01*
G03X9320000Y981820I-26786J-112680D01*
G03X9204180Y866000I0J-115820D01*
G03X9207320Y839210I115820J-4D01*
G01X9208630Y833690D01*
X9184880Y809930D01*
X9173180Y821640D01*
X9175290Y827660D01*
G03X9181820Y866000I-109289J38340D01*
G03X8950180I-115820J0D01*
G03X8972550Y797580I115818J0D01*
G02X8956150Y765260I-16398J-12000D01*
G01X8921850D01*
G02X8905450Y797580I-2J20320D01*
G03X8927820Y866000I-93448J68420D01*
G03X8696180I-115820J0D01*
G03X8718550Y797580I115818J0D01*
G02X8702150Y765260I-16398J-12000D01*
G01X8310740D01*
Y865000D01*
G03X8290340Y903080I-45741J0D01*
G02Y936920I11251J16920D01*
G03X8310740Y975000I-25341J38080D01*
G01Y1065000D01*
G03X8265870Y1110730I-45738J0D01*
G02X8255900Y1120890I190J10159D01*
G01Y1142300D01*
G03X8275740Y1180000I-25899J37700D01*
G01Y1230000D01*
G03X8271140Y1250000I-45742J8D01*
G03X8275740Y1270000I-41142J19992D01*
G01Y1314100D01*
X8381850D01*
X8404260Y1291690D01*
Y1270000D01*
G03X8408860Y1250000I45742J-8D01*
G03X8404260Y1230000I41142J-19992D01*
G01Y1180000D01*
G03X8424100Y1142300I45739J0D01*
G01Y1120890D01*
G02X8414130Y1110730I-10160J-1D01*
G03X8369260Y1065000I868J-45730D01*
G01Y975000D01*
G03X8415000Y929260I45740J0D01*
G01X8545000D01*
G03X8590740Y975000I0J45740D01*
G01Y1065000D01*
G03X8545870Y1110730I-45738J0D01*
G02X8535900Y1120890I190J10159D01*
G01Y1142300D01*
G03X8555740Y1180000I-25899J37700D01*
G01Y1230000D01*
G03X8551140Y1250000I-45742J8D01*
G03X8555740Y1270000I-41142J19992D01*
G01Y1320000D01*
G03X8510000Y1365740I-45740J0D01*
G01X8488310D01*
X8444530Y1409530D01*
G03X8405000Y1425900I-39530J-39543D01*
G01X8023150D01*
X7714480Y1734570D01*
G02X7728850Y1769260I14369J14369D01*
G01X7865000D01*
G03X7910740Y1815000I0J45740D01*
G01Y1915000D01*
G03X7903300Y1940000I-45739J-5D01*
G03X7910740Y1965000I-38299J25005D01*
G01Y2065000D01*
G03X7903300Y2090000I-45739J-5D01*
G03X7910740Y2115000I-38299J25005D01*
G01Y2215000D01*
G03X7903300Y2240000I-45739J-5D01*
G03X7910740Y2265000I-38299J25005D01*
G01Y2365000D01*
G03X7903300Y2390000I-45739J-5D01*
G03X7910740Y2415000I-38299J25005D01*
G01Y2515000D01*
G03X7903300Y2540000I-45739J-5D01*
G03X7910740Y2565000I-38299J25005D01*
G01Y2665000D01*
G03X7903300Y2690000I-45739J-5D01*
G03X7910740Y2715000I-38299J25005D01*
G01Y2815000D01*
G03X7903300Y2840000I-45739J-5D01*
G03X7910740Y2865000I-38299J25005D01*
G01Y2904260D01*
G37*
G36*
G01X9185630Y3999300D02*
X9200370D01*
G02X9218220Y3969280I-3J-20319D01*
G03X9204180Y3914000I101782J-55273D01*
G03X9320000Y3798180I115820J0D01*
G03X9351170Y3802450I11J115822D01*
G01X9356890Y3804050D01*
X9440470Y3720470D01*
G03X9444250Y3717020I39536J39522D01*
G02X9444770Y3701860I-6496J-7812D01*
G03X9431010Y3686670I97208J-101884D01*
G02X9398990I-16010J12512D01*
G03X9177010I-110990J-86672D01*
G02X9144990I-16010J12512D01*
G03X9034000Y3740820I-110990J-86672D01*
G03X8893180Y3600000I0J-140820D01*
G03X9021510Y3459740I140815J0D01*
G02X9034070Y3425130I-1807J-20240D01*
G01X8956130Y3347180D01*
X8285290D01*
G02X8270920Y3381870I-1J20321D01*
G01X8329530Y3440470D01*
G03X8345900Y3480000I-39543J39530D01*
G01Y3701350D01*
X8353630Y3703260D01*
G03X8460820Y3840000I-33623J136740D01*
G03X8454060Y3883120I-140822J13D01*
G02X8473400Y3909660I19342J6222D01*
G01X8695910D01*
X8696950Y3900670D01*
G03X8812000Y3798180I115050J13330D01*
G03X8927820Y3914000I0J115820D01*
G03X8923390Y3945720I-115819J-6D01*
G01X8923000Y3947080D01*
Y3958660D01*
X8942290D01*
X8954630Y3946310D01*
X8953320Y3940790D01*
G03X8950180Y3914000I112680J-26786D01*
G03X9181820I115820J0D01*
G03X9167780Y3969280I-115822J7D01*
G02X9185630Y3999300I17853J9701D01*
G37*
G36*
G01X9679650Y3704100D02*
X9686850D01*
X9804100Y3586850D01*
Y3175740D01*
X9245840D01*
G02X9231660Y3210610I3J20319D01*
G03X9232170Y3211110I-38879J40167D01*
G01X9490020Y3468970D01*
X9496030Y3466890D01*
G03X9542000Y3459180I45957J133112D01*
G03X9682820Y3600000I0J140820D01*
G03X9662290Y3673220I-140834J0D01*
G02X9679650Y3704100I17359J10561D01*
G37*
G36*
G01X9915900Y1730000D02*
X10510000D01*
Y700000D01*
X9282110D01*
G02X9267740Y734690I-1J20321D01*
G01X9287690Y754630D01*
X9293210Y753320D01*
G03X9320000Y750180I26786J112680D01*
G03X9435820Y866000I0J115820D01*
G03X9432680Y892790I-115820J4D01*
G01X9431370Y898310D01*
X9455120Y922070D01*
X9466820Y910360D01*
X9464710Y904340D01*
G03X9458180Y866000I109289J-38340D01*
G03X9689820I115820J0D01*
G03X9675550Y921700I-115821J5D01*
G02X9684470Y949740I17815J9772D01*
G03X9699530Y960470I-24461J50266D01*
G01X9899530Y1160470D01*
G03X9915900Y1200000I-39543J39530D01*
G01Y1730000D01*
G37*
G36*
G01X9538110Y4080000D02*
X10510000D01*
Y3070000D01*
X9915900D01*
Y3610000D01*
G03X9899530Y3649530I-55913J0D01*
G01X9749530Y3799530D01*
G03X9710000Y3815900I-39530J-39543D01*
G01X9685730D01*
G02X9669060Y3847830I4J20319D01*
G03X9689820Y3914000I-95061J66166D01*
G03X9574000Y4029820I-115820J0D01*
G03X9548700Y4027020I13J-115819D01*
G01X9543250Y4025800D01*
X9523740Y4045310D01*
G02X9538110Y4080000I14369J14369D01*
G37*
%LPC*%
G75*
G36*
G01X1030000Y2950820D02*
X1230000D01*
G02Y2649180I0J-150820D01*
G01X1030000D01*
G02Y2950820I0J150820D01*
G37*
G36*
G01X1564260Y2662830D02*
Y2805000D01*
G02X1610000Y2850740I45740J0D01*
G01X2170000D01*
G02X2215740Y2805000I0J-45740D01*
G01Y2575000D01*
G02X2170000Y2529260I-45740J0D01*
G01X2060740D01*
Y2420000D01*
G02X2015000Y2374260I-45740J0D01*
G01X1765000D01*
G02X1719260Y2420000I0J45740D01*
G01Y2529260D01*
X1667830D01*
X1560820Y2422250D01*
Y2220000D01*
G02X1259180I-150820J0D01*
G01Y2420000D01*
G02X1410000Y2570820I150820J0D01*
G02X1456900Y2563340I-7J-150819D01*
G01X1462830Y2561400D01*
X1564260Y2662830D01*
G37*
G36*
G01X9144990Y1306670D02*
G03X9177010I16010J12512D01*
G02X9398990I110990J-86672D01*
G03X9431010I16010J12512D01*
G02X9542000Y1360820I110990J-86672D01*
G02Y1079180I0J-140820D01*
G02X9431010Y1133330I0J140822D01*
G03X9398990I-16010J-12512D01*
G02X9177010I-110990J86672D01*
G03X9144990I-16010J-12512D01*
G02X9034000Y1079180I-110990J86672D01*
G02Y1360820I0J140820D01*
G02X9144990Y1306670I0J-140822D01*
G37*
G54D47*
X630000Y1510000D03*
X730000D03*
G54D46*
X702000Y866000D03*
X956000D03*
X702000Y3914000D03*
X9828000Y866000D03*
Y3914000D03*
%LPD*%
G75*
G54D10*
X140000Y760000D03*
Y1180000D03*
X180000Y1610000D03*
X220000Y1560000D03*
X274650Y2299040D03*
Y2099040D03*
Y2899040D03*
Y2699040D03*
Y2499040D03*
X99040Y3915350D03*
X299040D03*
X500000Y760000D03*
X710000Y1140000D03*
X560000D03*
X410000D03*
X710000Y1240000D03*
X759040Y3065350D03*
X499040Y3915350D03*
X1054650Y1319040D03*
Y1719040D03*
Y1519040D03*
X959040Y3065350D03*
X1159040D03*
X1639040Y1515350D03*
X1439040D03*
X1739040D03*
X1539040D03*
Y1605350D03*
X1739040D03*
X1639040D03*
X1778790Y3074700D03*
X2326190Y1611210D03*
X2126190D03*
X2378790Y3074700D03*
X2178790D03*
X1978790D03*
X2591840Y1859250D03*
Y1659250D03*
X2850000Y1610000D03*
X2591840Y2259250D03*
Y2059250D03*
X2920000Y3990000D03*
X3160000Y1380000D03*
X3250000D03*
X3340000D03*
X3160000Y1290000D03*
X3250000D03*
X3408580Y2963830D03*
Y3163830D03*
X3932280Y1688600D03*
X3597060Y1651640D03*
Y1451640D03*
X3595000Y1785000D03*
X3942280Y2038600D03*
X3597060Y2181640D03*
Y1981640D03*
X3808580Y2963830D03*
X3608580D03*
X3860000Y2530000D03*
X3808580Y3163830D03*
X3608580D03*
X4490000Y860000D03*
X4300000D03*
X4400000D03*
X4220000Y1100000D03*
X4532280Y1688600D03*
X4332280D03*
X4132280D03*
X4490000Y1500000D03*
X4390000D03*
X4542280Y2038600D03*
X4342280D03*
X4142280D03*
X4477500Y2793830D03*
X4277500D03*
X4077500D03*
X4790000Y912500D03*
X4600000Y1500000D03*
X4900000Y2800000D03*
X5190000Y850000D03*
Y1200000D03*
X5192280Y1448600D03*
X5392280D03*
X5090000Y1547500D03*
X5420000Y2240000D03*
X5209920Y2500000D03*
X5390000Y3330000D03*
Y3000000D03*
Y3132080D03*
X5213830Y3542500D03*
Y3742500D03*
X6117500Y1013830D03*
X5930000Y1020000D03*
X6100000Y1680000D03*
X5836200Y1776200D03*
X5870000Y2080000D03*
X5830000Y2400000D03*
Y2550000D03*
Y2690000D03*
Y2850000D03*
Y3040000D03*
X6200000Y1380000D03*
X6317500Y1013830D03*
X6567500Y1163830D03*
X6600000Y1450000D03*
X6520000Y1860000D03*
X6200000Y1680000D03*
X6520000Y2220000D03*
X6290000Y2390000D03*
X6300000Y2010000D03*
X6200000Y2260000D03*
X6290000Y2530000D03*
X6510000Y3130000D03*
Y3320000D03*
X6290000Y3130000D03*
X6278400Y3371600D03*
X7080000Y1220000D03*
X6767500Y1163830D03*
X6740000Y1760000D03*
Y1620000D03*
X7080000Y1860000D03*
Y1610000D03*
Y1460000D03*
X6890000Y1430000D03*
X7150000Y2450000D03*
X6780000Y2140000D03*
X7080000Y2010000D03*
X7030000Y2470000D03*
X6720000Y2730000D03*
Y2580000D03*
X7150000Y2600000D03*
Y2950000D03*
Y2740000D03*
Y2820000D03*
X6800000Y3000000D03*
X7120000Y3530000D03*
X7230000Y1220000D03*
X7390000D03*
X7610000Y1295000D03*
X7450000Y1543660D03*
Y1470000D03*
Y2320000D03*
X7365000Y2140000D03*
X7215010Y3270000D03*
X8100000Y1295000D03*
X7820000Y1710000D03*
X8100000Y2140000D03*
X8350000Y1200000D03*
X8642510Y2356320D03*
X8442510D03*
X8242510D03*
X8642510Y2156320D03*
X8442510D03*
X8242510D03*
X8290000Y2740000D03*
Y2820000D03*
X9242510Y2356320D03*
X9042510D03*
X8842510D03*
X9242510Y2156320D03*
X9042510D03*
X8842510D03*
X9597500Y1543830D03*
X9397500D03*
X9707500Y3283830D03*
X9507500D03*
X10280160Y810150D03*
X10080160D03*
X9960160Y1670150D03*
X10160160D03*
X10060160D03*
X10260160D03*
X10223970Y3354960D03*
X10023970D03*
X10260160Y3110150D03*
X10060160D03*
X10160160D03*
X9960160D03*
X10223970Y3954960D03*
X10023970D03*
X10223970Y3754960D03*
X10023970D03*
X10223970Y3554960D03*
X10023970D03*
X10430150Y1319840D03*
Y1119840D03*
X10460160Y1670150D03*
X10360160D03*
X10423970Y3354960D03*
X10360160Y3110150D03*
X10460160D03*
X10423970Y3954960D03*
Y3754960D03*
Y3554960D03*
G54D20*
X1890000Y1950000D03*
Y2690000D03*
G54D11*
X316600Y1264030D03*
Y1524030D03*
X411600Y1264030D03*
X506600D03*
X411600Y1524030D03*
X506600D03*
G54D30*
X5805000Y1405000D03*
X6115000D03*
X5805000Y1555000D03*
Y1505000D03*
Y1455000D03*
X6115000D03*
Y1505000D03*
Y1555000D03*
G54D12*
X290000Y935000D03*
Y1025000D03*
X150000Y1349030D03*
Y1025000D03*
Y935000D03*
Y1439030D03*
X432800Y1025000D03*
Y935000D03*
X680000Y1349030D03*
Y1439030D03*
X1790000Y1305000D03*
Y1215000D03*
X4670000Y3645000D03*
Y3555000D03*
X6810000Y1895000D03*
X6666800D03*
X6810000Y1985000D03*
X6666800D03*
X7360000Y1895000D03*
Y1985000D03*
X7220000Y3395000D03*
Y3485000D03*
X8200000Y1205000D03*
Y1295000D03*
X7710000Y1205000D03*
Y1295000D03*
X8000000Y1205000D03*
Y1295000D03*
X8100000Y1535000D03*
Y1445000D03*
X8480000Y1205000D03*
Y1295000D03*
G54D21*
X1890000Y2170000D03*
Y2470000D03*
G54D40*
X7950000Y1740000D03*
X8100000D03*
Y3040000D03*
X7950000D03*
X8250000Y1740000D03*
X8400000D03*
X8550000D03*
X8700000D03*
Y3040000D03*
X8550000D03*
X8400000D03*
X8250000D03*
X8850000Y1740000D03*
X9000000D03*
X9150000D03*
Y3040000D03*
X9000000D03*
X8850000D03*
X9300000Y1740000D03*
X9450000D03*
X9600000D03*
X9750000D03*
Y3040000D03*
X9600000D03*
X9450000D03*
X9300000D03*
G54D13*
X208400Y1730000D03*
X411600D03*
G54D31*
X6060000Y1930000D03*
Y2120000D03*
G54D22*
X2260000Y1405000D03*
Y1310000D03*
Y1215000D03*
X2520000D03*
Y1405000D03*
G54D41*
X8780000Y1220000D03*
Y3600000D03*
G54D14*
X702000Y866000D03*
Y3914000D03*
X1210000Y866000D03*
X956000D03*
Y3914000D03*
X1210000D03*
X1718000Y866000D03*
X1464000D03*
Y3914000D03*
X1718000D03*
X3386000Y866000D03*
X3132000D03*
Y3914000D03*
X3386000D03*
X3894000Y866000D03*
X3640000D03*
Y3914000D03*
X3894000D03*
X4148000Y866000D03*
Y3914000D03*
X5053000Y1920000D03*
X5307000D03*
X5467000Y2860000D03*
X5213000D03*
X6636000Y866000D03*
X6382000D03*
Y3914000D03*
X6636000D03*
X7144000Y866000D03*
X6890000D03*
Y3914000D03*
X7144000D03*
X7398000Y866000D03*
Y3914000D03*
X9066000Y866000D03*
X8812000D03*
Y3914000D03*
X9066000D03*
X9828000Y866000D03*
X9574000D03*
X9320000D03*
Y3914000D03*
X9574000D03*
X9828000D03*
G54D32*
X6020000Y1830000D03*
X6100000D03*
X6020000Y2020000D03*
X6100000D03*
G54D23*
X2040000Y1090000D03*
X2720000D03*
G54D42*
G01X316600Y1264030D02*
Y1051600D01*
X290000Y1025000D01*
G01D02*
X432800D01*
G01X150000Y935000D02*
X290000D01*
G01X150000Y1349030D02*
X150970Y1350000D01*
X230000D01*
X290000Y1410000D01*
X380000D01*
X411600Y1441600D01*
Y1524030D01*
G01X150000Y1439030D02*
X249040D01*
X316600Y1506590D01*
Y1524030D01*
G01X680000Y1349030D02*
X569040D01*
X506600Y1286590D01*
Y1264030D01*
G01X1790000Y1215000D02*
Y1110000D01*
X1740000Y1060000D01*
X580000D01*
X455000Y935000D01*
X432800D01*
G01X5554920Y1674500D02*
X5354500D01*
X5300000Y1620000D01*
Y1420000D01*
X5234460Y1354460D01*
X3454460D01*
X3080000Y980000D01*
X1310000D01*
X1210000Y880000D01*
Y866000D01*
G01X4954920Y1420500D02*
X3959500D01*
X3810000Y1570000D01*
Y2410000D01*
X3590000Y2630000D01*
X2850000D01*
X2700000Y2780000D01*
Y3250000D01*
X2590000Y3360000D01*
X1510000D01*
X956000Y3914000D01*
G01X3386000D02*
X3233280Y3761280D01*
X3046840D01*
X2752920Y4055200D01*
X1097200D01*
X956000Y3914000D01*
G01X4390000Y1500000D02*
X3950000D01*
X3850640Y1599360D01*
Y2426840D01*
X3606840Y2670640D01*
X2870000D01*
X2740640Y2800000D01*
Y3266840D01*
X2606840Y3400640D01*
X1889360D01*
X1718000Y3572000D01*
Y3914000D01*
G01X3894000D02*
X3700640Y3720640D01*
X3030000D01*
X2736080Y4014560D01*
X1564560D01*
X1464000Y3914000D01*
G01X4148000D02*
X3904000Y3670000D01*
X3010000D01*
X2710000Y3970000D01*
X1770000D01*
X1718000Y3918000D01*
Y3914000D01*
G01X2260000Y1405000D02*
X2359680D01*
X2380000Y1384680D01*
Y1240000D01*
X2355000Y1215000D01*
X2260000D01*
G01X2640000Y3840000D02*
X2770000D01*
X2990000Y3620000D01*
X3930000D01*
X4070000Y3760000D01*
X4330000D01*
X4540000Y3970000D01*
X5310000D01*
X5350000Y3930000D01*
Y3520000D01*
X5430000Y3440000D01*
X5680000D01*
X5850000Y3610000D01*
X7270000D01*
X7410000Y3470000D01*
Y3170000D01*
X7230000Y2990000D01*
Y2870000D01*
X7265010Y2834990D01*
X7365000D01*
G01X2920000Y3990000D02*
X2970000Y4040000D01*
X3520000D01*
X3640000Y3920000D01*
Y3914000D01*
G01X4954920Y1293500D02*
X3559500D01*
X3132000Y866000D01*
G01X4954920Y1166500D02*
X3686500D01*
X3386000Y866000D01*
G01X3820000Y3430000D02*
X4020000Y3630000D01*
X4145000D01*
G01X3894000Y866000D02*
X4061960Y1033960D01*
X4949380D01*
X4954920Y1039500D01*
G01X3870000Y1096000D02*
X3640000Y866000D01*
G01X4220000Y1100000D02*
X3874000D01*
X3870000Y1096000D01*
G01X4220000Y1100000D02*
X4216000Y1096000D01*
X3870000D01*
G01X4300000Y860000D02*
X4440000Y720000D01*
X5440000D01*
X5505500Y785500D01*
X5554920D01*
G01X4400000Y860000D02*
Y850000D01*
X4464500Y785500D01*
X4954920D01*
G01X4220000Y1100000D02*
X5280000D01*
X5346500Y1166500D01*
X5554920D01*
G01X4050000Y3520000D02*
X4050480Y3520480D01*
G01D02*
X4249520D01*
G01D02*
X4250000Y3520000D01*
G01X7398000Y3914000D02*
X7292000Y4020000D01*
X4254000D01*
X4148000Y3914000D01*
G01X6382000Y866000D02*
X5864000D01*
X5680000Y1050000D01*
Y1190000D01*
X5643020Y1226980D01*
X5333020D01*
X5266500Y1293500D01*
X4954920D01*
G01X5190000Y1200000D02*
X4988420D01*
X4954920Y1166500D01*
G01X5190000Y850000D02*
X5000500Y1039500D01*
X4954920D01*
G01X5209920Y2240000D02*
Y2076920D01*
X5053000Y1920000D01*
G01X5090000Y1547500D02*
X4954920D01*
G01X4600000Y1500000D02*
Y1620000D01*
X4654500Y1674500D01*
X4954920D01*
G01X5209920Y3000000D02*
X4740000D01*
X4670000Y2930000D01*
Y2210500D01*
X4670500Y2210000D01*
G01X5209920Y3135000D02*
X4944820D01*
X4924500Y3155320D01*
Y3210000D01*
G01X5209920Y3330000D02*
X5199920Y3340000D01*
X4850000D01*
X4797500Y3287500D01*
Y3210000D01*
G01X5554920Y1039500D02*
X5600500D01*
X5890000Y750000D01*
X6774000D01*
X6890000Y866000D01*
G01X5554920Y912500D02*
X5607500D01*
X5810640Y709360D01*
X9163360D01*
X9320000Y866000D01*
G01X6060000Y1930000D02*
X5317000D01*
X5307000Y1920000D01*
G01X5554920Y1420500D02*
X5555420Y1420000D01*
X5690000D01*
X5725000Y1455000D01*
X5805000D01*
G01X5554920Y1547500D02*
X5692500D01*
X5735000Y1505000D01*
X5805000D01*
G01X5300000Y2330000D02*
X5140000D01*
G01D02*
X5130000Y2320000D01*
G01X5467000Y2860000D02*
X5460000Y2853000D01*
Y2390000D01*
X5540000Y2310000D01*
X5810000D01*
X6000000Y2120000D01*
X6060000D01*
G01X5213000Y2860000D02*
Y2693080D01*
X5209920Y2690000D01*
G01X5299920Y3330000D02*
X5390000D01*
G01X5299920Y3000000D02*
X5390000D01*
G01Y3132080D02*
X5387080Y3135000D01*
X5299920D01*
G01X5209920D02*
Y3143110D01*
X5273090Y3206280D01*
X5565590D01*
X5869290Y3509980D01*
X6890710D01*
X7064990Y3335700D01*
Y3135000D01*
G01X5209920Y3330000D02*
Y3321890D01*
X5281810Y3250000D01*
X5547480D01*
X5857480Y3560000D01*
X6911430D01*
X7115010Y3356420D01*
Y3135000D01*
G01X7015010D02*
Y3314990D01*
X6870000Y3460000D01*
X5890000D01*
X5496040Y3066040D01*
X5267850D01*
X5209920Y3008110D01*
Y3000000D01*
G01X7365000Y2934990D02*
X7438400D01*
X7458080Y2954670D01*
Y3601920D01*
X7400000Y3660000D01*
X6120000D01*
X5940000Y3840000D01*
X5490000D01*
G01X6964990Y2285000D02*
Y1604300D01*
X6650690Y1290000D01*
X6060000D01*
X6020000Y1330000D01*
Y1470000D01*
X6055000Y1505000D01*
X6115000D01*
G01X5895000Y1555000D02*
X5815000D01*
G01X5836200Y1270000D02*
Y1383800D01*
X5815000Y1405000D01*
X5805000D01*
G01X6100000Y1830000D02*
X6140000Y1870000D01*
Y1980000D01*
X6100000Y2020000D01*
G01X5805000Y1555000D02*
X5815000D01*
G01D02*
X5840000Y1580000D01*
Y1676200D01*
X5836200Y1680000D01*
G01X6020000Y2190000D02*
X6035320D01*
G01X6015000Y2260000D02*
Y2210320D01*
G01X6035320Y2190000D02*
X6170000D01*
X6180000Y2180000D01*
G01X6015000Y2210320D02*
X6035320Y2190000D01*
G01X6515000Y2634990D02*
X6234990D01*
X6200000Y2600000D01*
Y2490000D01*
X6140000Y2430000D01*
X6060000D01*
G01X6100000Y2020000D02*
X6180000Y2100000D01*
X6540000D01*
X6600000Y2160000D01*
Y2360000D01*
X6650000Y2410000D01*
X6790000D01*
X6815010Y2384990D01*
Y2285000D01*
G01X6015000Y3020000D02*
Y3011890D01*
X6116890Y2910000D01*
X6199310D01*
X6324300Y2785010D01*
X6515000D01*
G01X6105000Y2820000D02*
X6230000D01*
X6315010Y2734990D01*
X6515000D01*
G01X5680000Y2773000D02*
Y2840000D01*
X5756040Y2916040D01*
X6023960D01*
X6105000Y2835000D01*
Y2820000D01*
G01X6515000Y2685010D02*
X6075010D01*
X6060000Y2670000D01*
G01X6015000Y3020000D02*
Y3123400D01*
X5970000Y3168400D01*
G01X6105000Y3020000D02*
Y3123400D01*
X6150000Y3168400D01*
G01X6105000Y3020000D02*
X6165000Y2960000D01*
X6220000D01*
X6345010Y2834990D01*
X6515000D01*
G01X6115000Y1455000D02*
X6290000D01*
X6345000Y1400000D01*
G01X6915010Y2285000D02*
Y1625010D01*
X6620640Y1330640D01*
X6399360D01*
X6345000Y1385000D01*
Y1400000D01*
G01Y1680000D02*
Y1665000D01*
X6435000Y1575000D01*
Y1540000D01*
G01Y1400000D02*
Y1540000D01*
G01X6340000Y1685000D02*
Y1910000D01*
X6415000Y1985000D01*
X6666800D01*
G01X6115000Y1555000D02*
X6179680D01*
X6200000Y1575320D01*
Y1680000D01*
G01X6345000D02*
X6200000D01*
G01X6115000Y1505000D02*
X6310000D01*
X6345000Y1540000D01*
G01X7150000Y2740000D02*
X6880000D01*
X6634990Y2985010D01*
X6515000D01*
G01X6382000Y3914000D02*
X6586000Y3710000D01*
X7550000D01*
X7805560Y3965560D01*
X8764440D01*
X8812000Y3918000D01*
Y3914000D01*
G01X6890000Y1430000D02*
Y866000D01*
G01X6864990Y2285000D02*
Y2039990D01*
X6810000Y1985000D01*
G01X7150000Y2820000D02*
X6860000D01*
X6664990Y3015010D01*
Y3135000D01*
G01X7144000Y3914000D02*
X7266720Y3791280D01*
X7516320D01*
X7780240Y4055200D01*
X9434800D01*
X9574000Y3916000D01*
Y3914000D01*
G01X6636000D02*
X6799360Y3750640D01*
X7533160D01*
X7797080Y4014560D01*
X8965440D01*
X9066000Y3914000D01*
G01X7710000Y1295000D02*
X7610000D01*
G01X7450000Y1543660D02*
X7347040D01*
X7265000Y1625700D01*
Y2515000D01*
X7284990Y2534990D01*
X7365000D01*
G01X7450000Y1470000D02*
X7350000D01*
X7215010Y1604990D01*
Y2285000D01*
G01X7365000Y2585010D02*
X7519040D01*
X7539360Y2564690D01*
Y1700640D01*
X7838320Y1401680D01*
Y871680D01*
X7890000Y820000D01*
X8000000D01*
G01X8480000Y1295000D02*
X8405000Y1370000D01*
X8000000D01*
X7620640Y1749360D01*
Y3150640D01*
X7680000Y3210000D01*
X8140000D01*
X8250000Y3100000D01*
Y3040000D01*
G01X8200000Y820000D02*
X8100000Y920000D01*
X7930000D01*
X7878960Y971040D01*
Y1418520D01*
X7580000Y1717480D01*
Y2587480D01*
X7532490Y2634990D01*
X7365000D01*
G01Y2734990D02*
X7484990D01*
X7539360Y2789360D01*
Y3184320D01*
X7646320Y3291280D01*
X8979280D01*
X9288000Y3600000D01*
G01X7365000Y2685010D02*
X7505700D01*
X7580000Y2759310D01*
Y3167480D01*
X7663160Y3250640D01*
X9192640D01*
X9542000Y3600000D01*
G01X8320000Y3840000D02*
X8290000Y3810000D01*
Y3480000D01*
X8150000Y3340000D01*
X7630010D01*
X7498720Y3208710D01*
Y2904690D01*
X7479040Y2885010D01*
X7365000D01*
G01X8000000Y1295000D02*
X8100000D01*
G01D02*
X8200000D01*
G01X7710000Y1020000D02*
Y1205000D01*
G01X8000000Y1020000D02*
Y1205000D01*
G01X8100000Y1535000D02*
Y1740000D01*
G01X8480000Y1020000D02*
Y1205000D01*
G01X8200000Y1020000D02*
Y1205000D01*
G01X8290000Y2740000D02*
X9500000D01*
X9600000Y2640000D01*
Y1740000D01*
G01X8290000Y2820000D02*
X9640000D01*
X9750000Y2710000D01*
Y1740000D01*
G01X9320000Y3914000D02*
X9326000D01*
X9480000Y3760000D01*
X9710000D01*
X9860000Y3610000D01*
Y1200000D01*
X9660000Y1000000D01*
X9454000D01*
X9320000Y866000D01*
G54D24*
X2065000Y3590000D03*
X2765000D03*
X4915000D03*
X5615000D03*
X7745000D03*
X8445000D03*
G54D15*
X865000Y1394030D03*
X1255000D03*
G54D33*
X6060000Y2430000D03*
Y2550000D03*
Y2670000D03*
G54D43*
G01X3860000Y2530000D02*
X3670000Y2720000D01*
X2900000D01*
X2800000Y2820000D01*
Y3290000D01*
X2640000Y3450000D01*
X2400000D01*
X2330000Y3520000D01*
Y3690000D01*
X2190000Y3830000D01*
Y3840000D01*
G01X3100000Y3280000D02*
Y3390000D01*
X3140000Y3430000D01*
X3820000D01*
G01X4145000Y3420000D02*
X4010000D01*
X3950000Y3360000D01*
Y2620000D01*
X3860000Y2530000D01*
G01X4495000Y3420000D02*
Y3615400D01*
G01Y3630000D02*
Y3615400D01*
G01D02*
X4520400Y3590000D01*
X4620000D01*
X4655000Y3555000D01*
X4670000D01*
G01X4954920Y912500D02*
X4790000D01*
G01D02*
X4685000D01*
G01X4797500Y2210000D02*
X4800000Y2212500D01*
Y2350000D01*
X4860000Y2410000D01*
X5209920D01*
G01X4670000Y3555000D02*
Y3210500D01*
X4670500Y3210000D01*
G01X5209920Y2410000D02*
Y2500000D01*
G01X5420000Y2240000D02*
X5380000D01*
G01X5299920D02*
X5380000D01*
G01D02*
X5416820Y2276820D01*
Y2650000D01*
X5376820Y2690000D01*
X5299920D01*
G01X6200000Y2260000D02*
X6105000D01*
G01X6200000Y1380000D02*
X6175000Y1405000D01*
X6115000D01*
G01X6515000Y2434990D02*
X6464990D01*
X6290000Y2260000D01*
X6200000D01*
G01X7030000Y2470000D02*
X6621690D01*
X6586680Y2434990D01*
X6515000D01*
G01X6715010Y2285000D02*
Y2204990D01*
X6780000Y2140000D01*
G01X6664990Y2285000D02*
Y1986810D01*
X6666800Y1985000D01*
G01X7160000Y3020000D02*
X7164990Y3024990D01*
G01X7460000Y2375880D02*
X7473150Y2389030D01*
Y2456850D01*
X7444990Y2485010D01*
X7365000D01*
G01Y2434990D02*
Y2140000D01*
G01D02*
Y1990000D01*
X7360000Y1985000D01*
G01X7164990Y3024990D02*
Y3135000D01*
G01X7215010D02*
Y3270000D01*
G01D02*
Y3390010D01*
X7220000Y3395000D01*
G54D25*
X2190000Y3840000D03*
X2640000D03*
X5040000D03*
X5490000D03*
X7870000D03*
X8320000D03*
X9288000Y1220000D03*
X9034000D03*
X9288000Y3600000D03*
X9034000D03*
X9542000Y1220000D03*
Y3600000D03*
G54D34*
X5680000Y2127000D03*
Y2773000D03*
G54D16*
X885000Y1790000D03*
X1235000D03*
X4145000Y3420000D03*
X4495000D03*
X4145000Y3630000D03*
X4495000D03*
G54D44*
G01X2040000Y1233800D02*
X2021200Y1215000D01*
X1910000D01*
G01X3595000Y1785000D02*
X3390000Y1990000D01*
X2890000D01*
X2640530Y1740530D01*
X2000530D01*
X1910000Y1650000D01*
Y1215000D01*
G01D02*
X1790000D01*
G01X2260000D02*
X2058800D01*
X2040000Y1233800D01*
G01Y1090000D02*
Y1233800D01*
G01X5930000Y1020000D02*
Y1266200D01*
X5926200Y1270000D01*
G01D02*
Y1523800D01*
X5895000Y1555000D01*
G01X5836200Y1776200D02*
Y1680000D01*
G01X6200000D02*
X6205000Y1685000D01*
X6340000D01*
G01X6150000Y3371600D02*
X6278400D01*
G01X8100000Y1740000D02*
Y2140000D01*
G54D26*
X3100000Y1680000D03*
Y3280000D03*
G54D17*
X810000Y2320000D03*
X1410000D03*
G54D35*
X6150000Y3371600D03*
Y3168400D03*
X5970000Y3371600D03*
Y3168400D03*
G54D45*
G01X1890000Y1950000D02*
X631600D01*
X411600Y1730000D01*
G01Y1524030D02*
Y1730000D01*
G01X1890000Y2690000D02*
X1710000D01*
X1410000Y2390000D01*
Y2320000D01*
G01X1890000Y2170000D02*
Y1950000D01*
G01Y2470000D02*
Y2690000D01*
G54D18*
X1130000Y2800000D03*
G54D27*
X4035500Y2210000D03*
Y3210000D03*
X4416500Y2210000D03*
X4543500D03*
X4162500D03*
X4289500D03*
X4416500Y3210000D03*
X4543500D03*
X4162500D03*
X4289500D03*
X4924500Y2210000D03*
X4797500D03*
X4670500D03*
X4924500Y3210000D03*
X4670500D03*
X4797500D03*
G54D36*
X6515000Y2434990D03*
Y2934990D03*
Y2885010D03*
Y2834990D03*
Y2785010D03*
Y2734990D03*
Y2685010D03*
Y2634990D03*
Y2585010D03*
Y2534990D03*
Y2485010D03*
Y2985010D03*
X7365000Y2434990D03*
Y2485010D03*
Y2534990D03*
Y2585010D03*
Y2634990D03*
Y2685010D03*
Y2734990D03*
Y2785010D03*
Y2834990D03*
Y2885010D03*
Y2934990D03*
Y2985010D03*
G54D19*
X1470000Y1233800D03*
Y1386200D03*
X1630000Y1233800D03*
Y1386200D03*
X2040000Y1233800D03*
Y1386200D03*
X2720000Y1233800D03*
Y1386200D03*
G54D28*
X4954920Y785500D03*
Y1420500D03*
Y1293500D03*
Y1166500D03*
Y1039500D03*
Y912500D03*
Y1674500D03*
Y1547500D03*
X5554920Y785500D03*
Y912500D03*
Y1039500D03*
Y1166500D03*
Y1293500D03*
Y1420500D03*
Y1547500D03*
Y1674500D03*
G54D37*
X6664990Y2285000D03*
X6715010D03*
X6764990D03*
X6815010D03*
X6864990D03*
X6915010D03*
X6964990D03*
X7015010D03*
X7064990D03*
X7115010D03*
Y3135000D03*
X7064990D03*
X7015010D03*
X6964990D03*
X6915010D03*
X6864990D03*
X6815010D03*
X6764990D03*
X6715010D03*
X6664990D03*
X7164990Y2285000D03*
X7215010D03*
Y3135000D03*
X7164990D03*
G54D29*
X4595000Y912500D03*
X4685000D03*
X5209920Y2240000D03*
X5299920D03*
X5209920Y2410000D03*
X5299920D03*
X5209920Y2690000D03*
X5299920D03*
Y3000000D03*
X5209920D03*
Y3135000D03*
X5299920D03*
X5209920Y3330000D03*
X5299920D03*
X5836200Y1270000D03*
X5926200D03*
X5836200Y1680000D03*
X5926200D03*
X6105000Y2260000D03*
X6015000D03*
Y2820000D03*
X6105000D03*
Y3020000D03*
X6015000D03*
X6345000Y1400000D03*
X6435000D03*
X6345000Y1540000D03*
X6435000D03*
X6345000Y1680000D03*
X6435000D03*
G54D38*
X7710000Y820000D03*
Y1020000D03*
X8200000Y820000D03*
X8000000D03*
X8200000Y1020000D03*
X8000000D03*
X8480000Y820000D03*
Y1020000D03*
G54D39*
X7775000Y1865000D03*
Y2465000D03*
Y2315000D03*
Y2165000D03*
Y2015000D03*
Y2915000D03*
Y2765000D03*
Y2615000D03*
M02*
