G04 ================== begin FILE IDENTIFICATION RECORD ==================*
G04 Layout Name:  F103_TUBE_CLOCK_V10A.brd*
G04 Film Name:    BOTTOM*
G04 File Format:  Gerber RS274X*
G04 File Origin:  Cadence Allegro 17.2-S045*
G04 Origin Date:  Wed Apr 03 19:26:57 2019*
G04 *
G04 Layer:  BOARD GEOMETRY/OUTLINE*
G04 Layer:  ETCH/BOTTOM*
G04 Layer:  PIN/BOTTOM*
G04 Layer:  VIA CLASS/BOTTOM*
G04 *
G04 Offset:    (0.0000 0.0000)*
G04 Mirror:    No*
G04 Mode:      Positive*
G04 Rotation:  0*
G04 FullContactRelief:  No*
G04 UndefLineWidth:     0.1524*
G04 ================== end FILE IDENTIFICATION RECORD ====================*
%FSLAX55Y55*MOMM*%
%IR0*IPPOS*OFA0.00000B0.00000*MIA0B0*SFA1.00000B1.00000*%
%ADD33R,1.2X.3*%
%ADD34R,.3X1.2*%
%ADD32R,2.X.5*%
%ADD12R,.6X1.1*%
%ADD22R,1.1X.6*%
%ADD28R,1.5X.6*%
%ADD35R,1.3X.9*%
%ADD17R,.8X1.4*%
%ADD27R,.6X1.8*%
%ADD29R,.5X.5*%
%ADD21C,.75*%
%ADD10R,.8X.8*%
%ADD11C,.6096*%
%ADD18O,4.X2.*%
%ADD23R,1.2X1.*%
%ADD16O,2.X4.*%
%ADD13R,1.X1.2*%
%ADD19R,2.4X2.*%
%ADD36R,1.8X1.*%
%ADD37R,1.X1.8*%
%ADD30R,.4X.5*%
%ADD26R,2.3X4.4*%
%ADD15R,2.X5.7*%
%ADD20R,5.6X2.3*%
%ADD24C,2.2*%
%ADD14C,1.3*%
%ADD31R,.8X.25*%
%ADD25C,1.8*%
%ADD38R,1.9X1.9*%
%ADD39C,.1*%
%ADD40C,.2032*%
%ADD41C,.254*%
%ADD42C,.508*%
%ADD43C,.762*%
%ADD46R,.6X.8*%
%ADD45C,1.4146*%
%ADD44C,2.3164*%
G75*
%LPD*%
G75*
G36*
G01X992760Y3349820D02*
X955670D01*
X955440D01*
G03X840180Y3234000I561J-115820D01*
G03X956000Y3118180I115820J0D01*
G01X992760D01*
X1486850Y2624100D01*
X2566850D01*
X2644100Y2546850D01*
Y2076850D01*
X2826850Y1894100D01*
X3566850D01*
X3754100Y1706850D01*
Y866850D01*
X3856150Y764790D01*
G02X3841530Y730360I-14621J-14111D01*
G01X3424330D01*
X3368950Y785740D01*
X3131050D01*
X2921050Y575740D01*
X2581050D01*
G02X2575900Y577150I13J10158D01*
G01Y595140D01*
X2593850Y599260D01*
X2705000D01*
G03X2750740Y645000I0J45740D01*
G01Y705000D01*
G03X2705000Y750740I-45740J0D01*
G01X2595000D01*
G03X2553490Y724210I0J-45739D01*
G02X2520940Y718120I-18441J8533D01*
G01X2508150Y730900D01*
X2485010D01*
X2474860Y739650D01*
G03X2445000Y750740I-29860J-34654D01*
G01X2335000D01*
G03X2289260Y705000I0J-45740D01*
G01Y645000D01*
G03X2335000Y599260I45740J0D01*
G01X2445000D01*
G03X2452320Y599850I-3J45740D01*
G01X2453120Y599980D01*
X2464100D01*
Y560020D01*
X2453120D01*
X2452320Y560150D01*
G03X2445000Y560740I-7323J-45150D01*
G01X2334990D01*
G03X2316840Y556980I11J-45740D01*
G01X2314900Y556140D01*
X2268550D01*
X2228950Y595740D01*
X1908950D01*
X1905740Y598950D01*
Y668950D01*
X1900080Y674600D01*
X1899420Y675720D01*
G03X1883190Y691950I-39420J-23190D01*
G01X1882070Y692610D01*
X1868950Y705740D01*
X1548950D01*
X1535740Y718950D01*
Y1015740D01*
X1234260D01*
Y375900D01*
X1055740D01*
Y1186160D01*
X1564260D01*
Y1155000D01*
G03X1610000Y1109260I45740J0D01*
G01X2170000D01*
G03X2215740Y1155000I0J45740D01*
G01Y1385000D01*
G03X2170000Y1430740I-45740J0D01*
G01X1610000D01*
G03X1564260Y1385000I0J-45740D01*
G01Y1353840D01*
X596870D01*
X404260Y1161230D01*
X376900Y1163760D01*
X324750Y1215900D01*
X116850D01*
X44100Y1143150D01*
Y816850D01*
X56890Y804060D01*
X64260Y747270D01*
Y597830D01*
G03X110000Y552090I45740J0D01*
G01X190010D01*
G03X211150Y557270I-4J45742D01*
G02X240860Y539250I9391J-18018D01*
G01Y529030D01*
G03X251950Y499170I45744J0D01*
G01X258200Y491920D01*
X216590Y447450D01*
G03X204260Y416200I33414J-31241D01*
G01Y319560D01*
G02X193720Y309410I-10159J1D01*
G01X193360Y309420D01*
X193200Y309430D01*
G03X190040Y309540I-3170J-45631D01*
G01X110000D01*
G03X64260Y263800I0J-45740D01*
G01Y183800D01*
G03X110000Y138060I45740J0D01*
G01X190000D01*
G03X220000Y149270I0J45748D01*
G03X250000Y138060I30000J34538D01*
G01X330000D01*
G03X361400Y150540I0J45742D01*
G03X392800Y138060I31400J33262D01*
G01X472800D01*
G03X518100Y177470I0J45740D01*
G01X526480Y237420D01*
X553150Y264100D01*
X578730D01*
G02X597130Y235160I0J-20319D01*
G03X586180Y186000I104877J-49160D01*
G03X817820I115820J0D01*
G03X806870Y235160I-115827J0D01*
G02X825270Y264100I18400J8621D01*
G01X832730D01*
G02X851130Y235160I0J-20319D01*
G03X840180Y186000I104877J-49160D01*
G03X1071820I115820J0D01*
G03X1060870Y235160I-115827J0D01*
G02X1079270Y264100I18400J8621D01*
G01X1086730D01*
G02X1105320Y235580I-1J-20319D01*
G03X1094170Y186000I104679J-49585D01*
G03X1094460Y177920I115826J112D01*
G01X1094560Y176660D01*
G03X1210000Y70180I115440J9337D01*
G01X1246760D01*
X1253210Y63740D01*
X1262510Y54430D01*
G02X1247890Y20000I-14621J-14111D01*
G01X20000D01*
Y3400000D01*
X993890D01*
G02X1008510Y3365570I-1J-20319D01*
G01X999210Y3356260D01*
X992760Y3349820D01*
G37*
G36*
G01X367970Y382270D02*
X330000Y416200D01*
X287460Y376200D01*
X330000Y336200D01*
X367970Y370130D01*
G03Y382270I-8140J6070D01*
G37*
G36*
G01X227970Y229870D02*
X190000Y263800D01*
X147460Y223800D01*
X190000Y183800D01*
X227970Y217730D01*
G03Y229870I-8140J6070D01*
G37*
G36*
G01X212030Y217730D02*
X250000Y183800D01*
X292540Y223800D01*
X250000Y263800D01*
X212030Y229870D01*
G03Y217730I8140J-6070D01*
G37*
G36*
G01X318720Y727500D02*
X355910Y743290D01*
X452020D01*
X493200Y702110D01*
G02X486010Y684770I-7188J-7180D01*
G01X476600D01*
G03X430860Y639030I0J-45740D01*
G01Y529030D01*
G03X476600Y483290I45740J0D01*
G01X536600D01*
G03X567840Y495620I0J45741D01*
G01X567860Y495640D01*
X603120Y528130D01*
X649350D01*
X673310Y552090D01*
X720050D01*
G03X722730Y552170I-24J45741D01*
G02X744260Y531890I1211J-20283D01*
G01Y391050D01*
X746860Y388460D01*
X741680Y375900D01*
X518540D01*
Y416200D01*
G03X472800Y461940I-45740J0D01*
G01X392800D01*
G03X384550Y461190I0J-45750D01*
G01X383940Y461080D01*
X373180Y460440D01*
X372500Y471820D01*
Y489020D01*
X381250Y499170D01*
G03X392340Y529030I-34654J29860D01*
G01Y639030D01*
G03X346600Y684770I-45740J0D01*
G01X325050D01*
G02X310430Y719200I1J20319D01*
G01X318720Y727500D01*
G37*
G36*
G01X322200Y500720D02*
X346600Y529030D01*
X316600Y586570D01*
X286600Y529030D01*
X311000Y500720D01*
G03X322200I5600J8480D01*
G37*
G36*
G01X310030Y480380D02*
X250000Y416200D01*
X289320Y373750D01*
X330000Y416200D01*
X326490Y474980D01*
G03X310030Y480380I-9887J-2349D01*
G37*
G36*
G01X289000Y764570D02*
X346600Y789030D01*
X320620Y853360D01*
X286600Y899030D01*
X276440Y774440D01*
G03X289000Y764570I10158J0D01*
G37*
G36*
G01X99620Y830190D02*
X110000Y750230D01*
X151800Y788440D01*
X190000Y830230D01*
X109780Y840380D01*
G03X99620Y830190I0J-10160D01*
G37*
G36*
G01X163150Y1104100D02*
X278450D01*
X299500Y1083040D01*
X316500Y982380D01*
G03X325600Y961790I45098J7626D01*
G01X327760Y959030D01*
Y944770D01*
X286600D01*
G03X241010Y902750I0J-45742D01*
G01X239220Y880820D01*
G02X212300Y870240I-18679J7990D01*
G01X210200Y871270D01*
G03X195400Y875650I-20194J-41042D01*
G01X195360Y875660D01*
X155900Y880650D01*
Y1096850D01*
X163150Y1104100D01*
G37*
G36*
G01X341480Y1109160D02*
X361600Y990000D01*
X413400Y1048200D01*
X461600Y1110000D01*
X351600Y1120160D01*
G03X341480Y1109160I0J-10155D01*
G37*
G36*
G01X354830Y370130D02*
X392800Y336200D01*
X435340Y376200D01*
X392800Y416200D01*
X354830Y382270D01*
G03Y370130I8140J-6070D01*
G37*
G36*
G01X473800Y273960D02*
X392800Y263800D01*
X430980Y222030D01*
X472800Y183800D01*
X483960Y263670D01*
G03X473800Y273960I-10160J129D01*
G37*
G36*
G01X589310Y590450D02*
X536600Y639030D01*
X504060Y584030D01*
X536600Y529030D01*
X589310Y577610D01*
G03Y590450I-7880J6420D01*
G37*
G36*
G01X756160Y1186160D02*
X1010000D01*
Y400000D01*
X800000D01*
X790000Y410000D01*
Y730000D01*
X770000Y750000D01*
X510000D01*
X485360Y774640D01*
X486440Y779980D01*
G03X487340Y789030I-44842J9029D01*
G01Y899030D01*
G03X486150Y909380I-45738J-15D01*
G01X484880Y914880D01*
X756160Y1186160D01*
G37*
G36*
G01X1275000Y131160D02*
Y186000D01*
X1208200Y187800D01*
X1210000Y121000D01*
X1264840D01*
G03X1275000Y131160I0J10160D01*
G37*
G36*
G01X1280000Y970000D02*
X1490000D01*
Y700000D01*
X1530000Y660000D01*
X1850000D01*
X1860000Y650000D01*
Y580000D01*
X1890000Y550000D01*
X2210000D01*
X2230000Y530000D01*
Y420000D01*
X2210000Y400000D01*
X1280000D01*
Y970000D01*
G37*
G36*
G01X1021000Y3179160D02*
Y3234000D01*
X954200Y3235800D01*
X956000Y3169000D01*
X1010840D01*
G03X1021000Y3179160I0J10160D01*
G37*
G36*
G01X1010840Y3299000D02*
X956000D01*
X954200Y3232200D01*
X1021000Y3234000D01*
Y3288840D01*
G03X1010840Y3299000I-10160J0D01*
G37*
G36*
G01X2258240Y2999110D02*
X2271560Y2985790D01*
Y2815790D01*
X2273100Y2814260D01*
X2276440Y2810920D01*
G02X2261760Y2776540I-14677J-14057D01*
G01X1912510D01*
X1773900Y2915150D01*
Y3126110D01*
X1799250Y3151460D01*
X1799280Y3151480D01*
G03X1833450Y3224750I-81284J82510D01*
G01X1834200Y3234100D01*
X2038100D01*
G02X2057250Y3207000I-3J-20318D01*
G03X2049180Y3160030I132752J-46987D01*
G01Y3160000D01*
G03X2184890Y3019270I140823J0D01*
G01X2185360Y3019260D01*
X2245940Y3011410D01*
X2258240Y2999110D01*
G37*
G36*
G01X1518840Y3299000D02*
X1464000D01*
X1462200Y3232200D01*
X1529000Y3234000D01*
Y3288840D01*
G03X1518840Y3299000I-10160J0D01*
G37*
G36*
G01X1725180Y3149260D02*
X1763960Y3188040D01*
X1718000Y3236540D01*
X1672040Y3188040D01*
X1710820Y3149260D01*
G03X1725180I7180J7180D01*
G37*
G36*
G01X1953050Y312820D02*
X1992820Y273050D01*
X2002540Y309840D01*
Y330160D01*
X1992820Y366950D01*
X1953050Y327180D01*
G03Y312820I7180J-7180D01*
G37*
G36*
G01X2473310Y490600D02*
X2445000Y515000D01*
X2387460Y485000D01*
X2445000Y455000D01*
X2473310Y479400D01*
G03Y490600I-8480J5600D01*
G37*
G36*
G01X2305300Y481160D02*
X2335000Y455000D01*
X2396350Y485000D01*
X2335000Y515000D01*
X2305300Y488840D01*
G03Y481160I25110J-3840D01*
G37*
G36*
G01X2473310Y680600D02*
X2445000Y705000D01*
X2387460Y675000D01*
X2445000Y645000D01*
X2473310Y669400D01*
G03Y680600I-8480J5600D01*
G37*
G36*
G01X2424210Y2828440D02*
X2388440Y2864210D01*
Y3034210D01*
X2365160Y3057480D01*
X2330820Y3091830D01*
Y3160040D01*
G03X2322750Y3207000I-140822J-27D01*
G02X2341900Y3234100I19153J6782D01*
G01X2488100D01*
G02X2507250Y3207000I-3J-20318D01*
G03X2499180Y3160030I132752J-46987D01*
G01Y3160000D01*
G03X2640000Y3019180I140820J0D01*
G01X2640010D01*
G03X2740690Y3061550I-8J140822D01*
G01X2740730Y3061590D01*
X2754550Y3075410D01*
G02X2778870Y3072070I9957J-17709D01*
G01X2966850Y2884100D01*
X2980480D01*
Y2866180D01*
X2972990Y2864140D01*
G03X2939260Y2820000I12016J-44140D01*
G01Y2380000D01*
G03X2985000Y2334260I45740J0D01*
G01X3215000D01*
G03X3260740Y2380000I0J45740D01*
G01Y2770130D01*
X3263270Y2772660D01*
X4598860D01*
Y2641020D01*
X4598110Y2637190D01*
Y2637180D01*
G03X4594760Y2620010I42390J-17182D01*
G01Y2440000D01*
G03X4640500Y2394260I45740J0D01*
G01X4954500D01*
G03X4999100Y2429840I0J45743D01*
G01X4999750Y2432700D01*
X5041100Y2474100D01*
X5087870D01*
X5107840Y2456250D01*
G02X5108150Y2427210I-14055J-14672D01*
G01X5034100Y2353150D01*
Y1935570D01*
X5092980Y1876690D01*
Y1863310D01*
X5085570Y1855900D01*
X4736850D01*
X4614600Y1733650D01*
Y1665740D01*
X4513500D01*
G03X4467760Y1620000I0J-45740D01*
G01Y1440000D01*
G03X4513500Y1394260I45740J0D01*
G01X4954510D01*
G03X4969930Y1396940I-7J45741D01*
G02X4997100Y1377810I6851J-19130D01*
G01Y1347890D01*
X4972060Y1322850D01*
X4972020Y1322810D01*
G03X4937170Y1240000I80977J-82817D01*
G03X4937470Y1231740I115827J71D01*
G01X4937560Y1230660D01*
G03X5051770Y1124190I115441J9341D01*
G01X5052510Y1124180D01*
X5053000D01*
G03X5109810Y1139070I0J115819D01*
G01X5116540Y1142860D01*
X5270170Y989220D01*
X5244100Y963150D01*
Y763150D01*
X5211310Y730360D01*
X5075660D01*
Y770500D01*
G03X5067370Y796770I-45752J5D01*
G01X5066520Y797980D01*
X5064510Y804000D01*
X5066520Y810020D01*
X5067370Y811230D01*
G03X5075660Y837500I-37462J26265D01*
G01Y897500D01*
G03X5067370Y923770I-45752J5D01*
G01X5066520Y924980D01*
X5064510Y931000D01*
X5066520Y937020D01*
X5067370Y938230D01*
G03X5075660Y964500I-37462J26265D01*
G01Y1024500D01*
G03X5029920Y1070240I-45740J0D01*
G01X4879920D01*
G03X4850060Y1059150I0J-45744D01*
G01X4839910Y1050400D01*
X4631350D01*
X4544100Y963150D01*
Y871810D01*
G03X4523780Y820000I55890J-51810D01*
G03X4523820Y817410I76222J-118D01*
G02X4503520Y796400I-20307J-692D01*
G01X4486480D01*
G02X4466180Y817410I7J20318D01*
G03X4466220Y820000I-76182J2472D01*
G03X4390000Y896220I-76220J0D01*
G03X4338190Y875900I0J-76210D01*
G01X3973150D01*
X3906540Y942510D01*
Y1769990D01*
X3896420Y1780120D01*
X3904170Y1787870D01*
X3904810Y1788340D01*
G03X3936230Y1850000I-44806J61667D01*
G03X3935810Y1857980I-76229J-11D01*
G01X3935690Y1858960D01*
G03X3870050Y1925550I-75689J-8963D01*
G01X3866640Y1926010D01*
X3694210Y2098440D01*
X2924210D01*
X2858440Y2164210D01*
Y2634210D01*
X2664210Y2828440D01*
X2424210D01*
G37*
G36*
G01X2280000Y3072700D02*
Y3160000D01*
X2187900Y3162380D01*
X2188370Y3070110D01*
X2265670Y3060100D01*
G03X2280000Y3072700I1626J12600D01*
G37*
G36*
G01X2940000Y530000D02*
X3150000Y740000D01*
X3350000D01*
X3380000Y710000D01*
Y679050D01*
X3120950Y420000D01*
X2610000D01*
X2590000Y440000D01*
Y520000D01*
X2600000Y530000D01*
X2940000D01*
G37*
G36*
G01X2872690Y371800D02*
X2920000Y428400D01*
X2860000Y484750D01*
X2800000Y428400D01*
X2847310Y371800D01*
G03X2872690I12690J22010D01*
G37*
G36*
G01X2760090Y3167180D02*
X2703640Y3223630D01*
X2637460Y3160000D01*
X2703640Y3096370D01*
X2760090Y3152820D01*
G03Y3167180I-7180J7180D01*
G37*
G36*
G01X3186840Y251000D02*
X3132000D01*
X3130200Y184200D01*
X3197000Y186000D01*
Y240840D01*
G03X3186840Y251000I-10160J0D01*
G37*
G36*
G01X3440840D02*
X3386000D01*
X3384200Y184200D01*
X3451000Y186000D01*
Y240840D01*
G03X3440840Y251000I-10160J0D01*
G37*
G36*
G01X3331160Y3169000D02*
X3386000D01*
X3387800Y3235800D01*
X3321000Y3234000D01*
Y3179160D01*
G03X3331160Y3169000I10160J0D01*
G37*
G36*
G01X3000320Y3300480D02*
X2980000D01*
X2978200Y3268200D01*
X3010480Y3270000D01*
Y3290320D01*
G03X3000320Y3300480I-10160J0D01*
G37*
G36*
G01X3948840Y251000D02*
X3894000D01*
X3892200Y184200D01*
X3959000Y186000D01*
Y240840D01*
G03X3948840Y251000I-10160J0D01*
G37*
G36*
G01X3694840D02*
X3640000D01*
X3638200Y184200D01*
X3705000Y186000D01*
Y240840D01*
G03X3694840Y251000I-10160J0D01*
G37*
G36*
G01X3829520Y1867780D02*
Y1850000D01*
X3862250Y1847750D01*
X3860000Y1880480D01*
X3842220D01*
G03X3829520Y1867780I0J-12700D01*
G37*
G36*
G01X3839160Y3169000D02*
X3894000D01*
X3895800Y3235800D01*
X3829000Y3234000D01*
Y3179160D01*
G03X3839160Y3169000I10160J0D01*
G37*
G36*
G01X3575000Y3294840D02*
Y3234000D01*
X3641700Y3232110D01*
X3641100Y3298930D01*
X3586270Y3304940D01*
G03X3575000Y3294840I-1109J-10100D01*
G37*
G36*
G01X4496160Y208860D02*
X4652260D01*
X4657720Y186550D01*
G02X4637980Y161400I-19737J-4830D01*
G01X4487650D01*
X4482380Y166680D01*
X4476220Y172840D01*
Y179810D01*
G03Y180000I-76222J95D01*
G03X4475900Y186950I-76219J-27D01*
G02X4496160Y208860I20259J1589D01*
G37*
G36*
G01X4525350Y171300D02*
X4563800Y140000D01*
X4610150Y180000D01*
X4563800Y220000D01*
X4525350Y188700D01*
G03Y171300I23860J-8700D01*
G37*
G36*
G01X4330480Y159680D02*
Y180000D01*
X4298200Y181800D01*
X4300000Y149520D01*
X4320320D01*
G03X4330480Y159680I0J10160D01*
G37*
G36*
G01X4430480Y149680D02*
Y180000D01*
X4398590Y182110D01*
X4395520Y150570D01*
X4415830Y140560D01*
G03X4430480Y149680I4486J9120D01*
G37*
G36*
G01X4182270Y407150D02*
X4200640Y396790D01*
X4222520Y420310D01*
X4198450Y441550D01*
X4180080Y423180D01*
G03X4182270Y407150I7182J-7183D01*
G37*
G36*
G01X4184080Y412820D02*
X4198450Y398450D01*
X4222540Y420000D01*
X4198450Y441550D01*
X4184080Y427180D01*
G03Y412820I7180J-7180D01*
G37*
G36*
G01X4255920Y427180D02*
X4241550Y441550D01*
X4217460Y420000D01*
X4241550Y398450D01*
X4255920Y412820D01*
G03Y427180I-7180J7180D01*
G37*
G36*
G01X4354080Y812820D02*
X4368450Y798450D01*
X4392540Y820000D01*
X4368450Y841550D01*
X4354080Y827180D01*
G03Y812820I7180J-7180D01*
G37*
G36*
G01X5107770Y2743680D02*
X5087870Y2725900D01*
X4797170D01*
X4775570Y2704310D01*
G02X4741140Y2718930I-14111J14621D01*
G01Y2769600D01*
X4745470Y2774920D01*
G03X4755740Y2803800I-35471J28880D01*
G01Y2883800D01*
G03X4710000Y2929540I-45740J0D01*
G01X4630000D01*
G03X4601120Y2919270I0J-45741D01*
G01X4595800Y2914940D01*
X4293050D01*
G02X4278680Y2949630I-1J20321D01*
G01X4563150Y3234100D01*
X5176850D01*
X5294100Y3116850D01*
Y2856850D01*
X5304720Y2846230D01*
G02X5290350Y2811540I-14369J-14369D01*
G01X5241210D01*
X5185410Y2755740D01*
X5138720D01*
G03X5107810Y2743720I0J-45753D01*
G01X5107770Y2743680D01*
G37*
G36*
G01X4202840Y3299000D02*
X4148000D01*
X4146200Y3232200D01*
X4213000Y3234000D01*
Y3288840D01*
G03X4202840Y3299000I-10160J0D01*
G37*
G36*
G01X4093160Y3169000D02*
X4148000D01*
X4149800Y3235800D01*
X4083000Y3234000D01*
Y3179160D01*
G03X4093160Y3169000I10160J0D01*
G37*
G36*
G01X5077200Y346320D02*
X5029920Y389500D01*
X4952420Y359930D01*
X5029920Y329500D01*
X5071870Y330180D01*
G03X5077200Y346320I-2622J9816D01*
G37*
G36*
G01X4847500Y346650D02*
X4879920Y329500D01*
X4957460Y359640D01*
X4879920Y389500D01*
X4846280Y359860D01*
G03X4847500Y346650I8271J-5897D01*
G37*
G36*
G01X4850220Y228660D02*
X4879920Y202500D01*
X4961270Y232500D01*
X4879920Y262500D01*
X4850220Y236340D01*
G03Y228660I25110J-3840D01*
G37*
G36*
G01X4690800Y243800D02*
X4716200Y140000D01*
X4759570Y174620D01*
X4796200Y220000D01*
X4723440Y268150D01*
G03X4690800Y243800I-7237J-24350D01*
G37*
G36*
G01X4851610Y99900D02*
X4879920Y75500D01*
X4957460Y105500D01*
X4879920Y135500D01*
X4851610Y111100D01*
G03Y99900I8480J-5600D01*
G37*
G36*
G01Y734900D02*
X4879920Y710500D01*
X4957460Y740500D01*
X4879920Y770500D01*
X4851610Y746100D01*
G03Y734900I8480J-5600D01*
G37*
G36*
G01X4846130Y852160D02*
X4879920Y837500D01*
X4957450Y867690D01*
X4879920Y897500D01*
X4844380Y865980D01*
G03X4846130Y852160I8211J-5981D01*
G37*
G36*
G01X4835920Y867180D02*
X4821550Y881550D01*
X4797460Y860000D01*
X4821550Y838450D01*
X4835920Y852820D01*
G03Y867180I-7180J7180D01*
G37*
G36*
G01X5058230Y619100D02*
X5029920Y643500D01*
X4952380Y613500D01*
X5029920Y583500D01*
X5058230Y607900D01*
G03Y619100I-8480J5600D01*
G37*
G36*
G01X4851610Y607900D02*
X4879920Y583500D01*
X4957460Y613500D01*
X4879920Y643500D01*
X4851610Y619100D01*
G03Y607900I8480J-5600D01*
G37*
G36*
G01X4986730Y530020D02*
X4918790Y508260D01*
X4953120Y484700D01*
X4998580Y471290D01*
X4998370Y522070D01*
G03X4986730Y530020I-9948J-2070D01*
G37*
G36*
G01X4851610Y480900D02*
X4879920Y456500D01*
X4957460Y486500D01*
X4879920Y516500D01*
X4851610Y492100D01*
G03Y480900I8480J-5600D01*
G37*
G36*
G01X4592820Y855920D02*
X4578450Y841550D01*
X4600000Y817460D01*
X4621550Y841550D01*
X4607180Y855920D01*
G03X4592820I-7180J-7180D01*
G37*
G36*
G01X5045820Y1324740D02*
X5007040Y1285960D01*
X5053000Y1237460D01*
X5098960Y1285960D01*
X5060180Y1324740D01*
G03X5045820I-7180J-7180D01*
G37*
G36*
G01X4851610Y988900D02*
X4879920Y964500D01*
X4957460Y994500D01*
X4879920Y1024500D01*
X4851610Y1000100D01*
G03Y988900I8480J-5600D01*
G37*
G36*
G01X4794590Y1651910D02*
X4767500Y1620000D01*
X4797340Y1523650D01*
X4827500Y1620000D01*
X4806340Y1651690D01*
G03X4794590Y1651910I-6338J-24599D01*
G37*
G36*
G01X4664900Y1648310D02*
X4640500Y1620000D01*
X4670500Y1527460D01*
X4700500Y1620000D01*
X4676100Y1648310D01*
G03X4664900I-5600J-8480D01*
G37*
G36*
G01X5025870Y2536420D02*
X4954500Y2607880D01*
X4921960Y2530000D01*
X4954500Y2452120D01*
X5025870Y2523580D01*
G03Y2536420I-7870J6420D01*
G37*
G36*
G01X4665680Y2650120D02*
X4640500Y2620000D01*
X4670530Y2523650D01*
X4700500Y2620000D01*
X4674180Y2650140D01*
G03X4665680Y2650120I-4191J-25051D01*
G37*
G36*
G01X4678700Y2765350D02*
X4710000Y2803800D01*
X4670000Y2850150D01*
X4630000Y2803800D01*
X4661300Y2765350D01*
G03X4678700I8700J23860D01*
G37*
G36*
G01X4591550Y2835100D02*
X4630000Y2803800D01*
X4676350Y2843800D01*
X4630000Y2883800D01*
X4591550Y2852500D01*
G03Y2835100I23860J-8700D01*
G37*
G36*
G01X4794250Y2650700D02*
X4767500Y2620000D01*
X4797440Y2527460D01*
X4827500Y2620000D01*
X4806400Y2650220D01*
G03X4794250Y2650700I-6396J-7891D01*
G37*
G36*
G01X5475500Y65340D02*
X5629920Y75500D01*
X5564420Y109090D01*
X5479920Y135500D01*
X5465370Y76250D01*
G03X5475500Y65340I10130J-752D01*
G37*
G36*
G01X5154080Y332820D02*
X5168450Y318450D01*
X5192540Y340000D01*
X5168450Y361550D01*
X5154080Y347180D01*
G03Y332820I7180J-7180D01*
G37*
G36*
G01X5640660Y329600D02*
X5629920Y389500D01*
X5545480Y363250D01*
X5479920Y329500D01*
X5630500Y319340D01*
G03X5640660Y329600I0J10160D01*
G37*
G36*
G01X5647580Y203770D02*
X5629920Y262500D01*
X5545370Y235970D01*
X5479920Y202500D01*
X5637500Y192340D01*
G03X5647580Y203770I0J10160D01*
G37*
G36*
G01X5299050Y660000D02*
X5355900Y716850D01*
Y916850D01*
X5377650Y938600D01*
X5417210D01*
G02X5436500Y911890I2J-20319D01*
G03X5434180Y897510I43421J-14383D01*
G01Y837500D01*
G03X5442470Y811230I45752J-5D01*
G01X5443320Y810020D01*
X5445330Y804000D01*
X5443320Y797980D01*
X5442470Y796770D01*
G03X5434180Y770500I37462J-26265D01*
G01Y710500D01*
G03X5479920Y664760I45740J0D01*
G01X5629920D01*
G03X5659070Y675250I0J45747D01*
G01X5669770Y684100D01*
X5713150D01*
X5721200Y692140D01*
X5728810Y684520D01*
X5729190Y684040D01*
G03X5729270Y683940I35756J28523D01*
G02Y658560I-15868J-12690D01*
G03X5719260Y630000I35738J-28560D01*
G01Y618850D01*
G02X5686380Y602880I-20319J2D01*
G01X5356170D01*
X5299050Y660000D01*
G37*
G36*
G01X5154080Y512820D02*
X5168450Y498450D01*
X5192540Y520000D01*
X5168450Y541550D01*
X5154080Y527180D01*
G03Y512820I7180J-7180D01*
G37*
G36*
G01X5451610Y480900D02*
X5479920Y456500D01*
X5557460Y486500D01*
X5479920Y516500D01*
X5451610Y492100D01*
G03Y480900I8480J-5600D01*
G37*
G36*
G01X5658700Y745640D02*
X5629920Y770500D01*
X5552380Y740510D01*
X5629920Y710500D01*
X5658620Y734230D01*
G03X5658700Y745640I-8369J5764D01*
G37*
G36*
G01X5658230Y873100D02*
X5629920Y897500D01*
X5552380Y867500D01*
X5629920Y837500D01*
X5658230Y861900D01*
G03Y873100I-8480J5600D01*
G37*
G36*
G01X5530160Y1161900D02*
X5520000Y1215000D01*
X5498530Y1192070D01*
X5480000Y1165000D01*
X5519210Y1151770D01*
G03X5530160Y1161900I789J10130D01*
G37*
G36*
G01X5491430Y1284820D02*
X5515000Y1265000D01*
X5542540Y1290000D01*
X5515000Y1315000D01*
X5491430Y1295180D01*
G03Y1284820I8740J-5180D01*
G37*
G36*
G01X5357000Y1300160D02*
X5311840Y1300150D01*
X5305200Y1238200D01*
X5367150Y1244840D01*
X5367160Y1290000D01*
G03X5357000Y1300160I-10160J0D01*
G37*
G36*
G01X5451610Y988900D02*
X5479920Y964500D01*
X5557460Y994500D01*
X5479920Y1024500D01*
X5451610Y1000100D01*
G03Y988900I8480J-5600D01*
G37*
G36*
G01X5504190Y1816400D02*
G02X5538860Y1802020I14350J-14386D01*
G01Y1649470D01*
X5520530Y1631140D01*
X5405320D01*
X5400000Y1635470D01*
G03X5371120Y1645740I-28880J-35471D01*
G01X5291120D01*
X5280290D01*
G02X5261350Y1673420I-1J20319D01*
G03X5262350Y1676250I-42615J16650D01*
G01Y1676270D01*
X5282230Y1738460D01*
X5328030Y1784260D01*
X5371120D01*
G03X5400000Y1794530I0J45741D01*
G01X5405320Y1798860D01*
X5420810D01*
X5424240Y1798260D01*
X5424250D01*
G03X5450000Y1793780I25746J71741D01*
G03X5452130Y1793810I-8J76220D01*
G03X5504190Y1816400I-2129J76190D01*
G37*
G36*
G01X5409570Y1878700D02*
X5371120Y1910000D01*
X5324770Y1870000D01*
X5371120Y1830000D01*
X5409570Y1861300D01*
G03Y1878700I-23860J8700D01*
G37*
G36*
G01X5231120Y1782700D02*
X5138720Y1770000D01*
X5176200Y1728070D01*
X5218720Y1690000D01*
X5243670Y1768050D01*
G03X5231120Y1782700I-12550J1949D01*
G37*
G36*
G01X5100270Y1721300D02*
X5138720Y1690000D01*
X5185070Y1730000D01*
X5138720Y1770000D01*
X5100270Y1738700D01*
G03Y1721300I23860J-8700D01*
G37*
G36*
G01X5409570Y1568700D02*
X5371120Y1600000D01*
X5324770Y1560000D01*
X5371120Y1520000D01*
X5409570Y1551300D01*
G03Y1568700I-23860J8700D01*
G37*
G36*
G01X5545850Y2095160D02*
G02X5580000Y2080280I13832J-14884D01*
G01Y2080000D01*
X5651700D01*
G03X5654100Y2076660I38306J24993D01*
G01Y1985560D01*
G02X5619410Y1971200I-20319J4D01*
G01X5534070Y2056540D01*
G02X5536280Y2087190I14369J14369D01*
G03X5545850Y2095160I-69227J92855D01*
G37*
G36*
G01X5517000Y2240160D02*
X5471840Y2240150D01*
X5465200Y2178200D01*
X5527150Y2184840D01*
X5527160Y2230000D01*
G03X5517000Y2240160I-10160J0D01*
G37*
G36*
G01X5220180Y2095260D02*
X5258960Y2134040D01*
X5213000Y2182540D01*
X5167040Y2134040D01*
X5205820Y2095260D01*
G03X5220180I7180J7180D01*
G37*
G36*
G01X5206400Y2121220D02*
X5138720Y2050000D01*
X5177920Y2007590D01*
X5218720Y1970000D01*
X5223150Y2113900D01*
G03X5206400Y2121220I-10150J-402D01*
G37*
G36*
G01X5409570Y2018700D02*
X5371120Y2050000D01*
X5324770Y2010000D01*
X5371120Y1970000D01*
X5409570Y2001300D01*
G03Y2018700I-23860J8700D01*
G37*
G36*
G01X5633240Y3104100D02*
X5916850D01*
X6000610Y3020330D01*
G02X5985990Y2985900I-14621J-14111D01*
G01X5906850D01*
X5686850Y2765900D01*
X5543150D01*
X5405900Y2903150D01*
Y3012020D01*
G02X5433790Y3030880I20321J2D01*
G01X5435170Y3030290D01*
G03X5489950Y3019180I54823J129711D01*
G01X5490000D01*
G03X5590540Y3061400I0J140820D01*
G01X5590570Y3061430D01*
X5633240Y3104100D01*
G37*
G36*
G01X5405880Y2521020D02*
X5418460Y2508460D01*
X5443180Y2530000D01*
X5418460Y2551540D01*
X5405880Y2538980D01*
G03Y2521020I8980J-8980D01*
G37*
G36*
G01X5338280Y2592220D02*
X5371120Y2630000D01*
X5331120Y2673180D01*
X5291120Y2630000D01*
X5323960Y2592220D01*
G03X5338280I7160J10490D01*
G37*
G36*
G01X5408900Y2537160D02*
X5371120Y2570000D01*
X5327940Y2530000D01*
X5371120Y2490000D01*
X5408900Y2522840D01*
G03Y2537160I-10490J7160D01*
G37*
G36*
G01X5323960Y2607780D02*
X5291120Y2570000D01*
X5331120Y2526820D01*
X5371120Y2570000D01*
X5338280Y2607780D01*
G03X5323960I-7160J-10490D01*
G37*
G36*
G01X5230160Y2490160D02*
X5218720Y2570000D01*
X5176900Y2531770D01*
X5138720Y2490000D01*
X5220000Y2479840D01*
G03X5230160Y2490160I0J10161D01*
G37*
G36*
G01X5100750Y2523930D02*
X5138720Y2490000D01*
X5181260Y2530000D01*
X5138720Y2570000D01*
X5100750Y2536070D01*
G03Y2523930I8140J-6070D01*
G37*
G36*
G01Y2663930D02*
X5138720Y2630000D01*
X5181260Y2670000D01*
X5138720Y2710000D01*
X5100750Y2676070D01*
G03Y2663930I8140J-6070D01*
G37*
G36*
G01X5610090Y3167180D02*
X5553640Y3223630D01*
X5487460Y3160000D01*
X5553640Y3096370D01*
X5610090Y3152820D01*
G03Y3167180I-7180J7180D01*
G37*
G36*
G01X6085900Y693150D02*
Y716760D01*
X6155040D01*
G03X6168120Y718670I-1J45746D01*
G01X6169540Y719100D01*
X6205650D01*
X6228060Y696690D01*
Y649980D01*
G03X6229940Y637010I45742J9D01*
G02X6210460Y610920I-19482J-5771D01*
G01X6168130D01*
X6085900Y693150D01*
G37*
G36*
G01X5806200Y1099410D02*
G02X5820560Y1134100I14364J14371D01*
G01X6123150D01*
X6569820Y1580760D01*
G02X6604250Y1566140I14111J-14621D01*
G01Y1544990D01*
G03X6606130Y1532020I45741J9D01*
G01X6606550Y1530600D01*
Y1509050D01*
X6604460Y1506320D01*
G03X6588770Y1460000I60528J-46320D01*
G03X6597870Y1423880I76221J-3D01*
G01X6598450Y1422800D01*
X6599730Y1417900D01*
X6597600Y1413170D01*
X6590990Y1404660D01*
X6590960Y1404620D01*
G03X6581060Y1376210I35841J-28419D01*
G01Y1351070D01*
X6498860Y1268870D01*
Y969470D01*
X6478100Y948710D01*
X6406020Y1020790D01*
X6386960Y1075140D01*
G03X6379080Y1089110I-43161J-15138D01*
G01X6365070Y1106090D01*
X6365620Y1110450D01*
G03X6366220Y1120000I-75620J9545D01*
G03X6290000Y1196220I-76220J0D01*
G03X6213780Y1120800I0J-76224D01*
G01Y1120480D01*
Y1120000D01*
G03X6218260Y1094250I76221J-4D01*
G01X6218860Y1092580D01*
Y1069450D01*
X6218710Y1067680D01*
G03X6218060Y1060050I45090J-7684D01*
G01Y1016910D01*
X6134590Y933440D01*
X6114990D01*
G03X6110550Y933270I14J-58440D01*
G01X6110150Y933240D01*
X6075000D01*
G03X6029260Y887500I0J-45740D01*
G01Y878310D01*
X6015000Y864050D01*
X5948150Y930900D01*
X5910470D01*
G02X5890290Y953590I2J20321D01*
G03X5890740Y960000I-45291J6400D01*
G01Y1040000D01*
G03X5845000Y1085740I-45740J0D01*
G01X5819870D01*
X5806200Y1099410D01*
G37*
G36*
G01X6062680Y823140D02*
X6075000Y812500D01*
X6117540Y825000D01*
X6075000Y837500D01*
X6062680Y826860D01*
G03Y823140I9990J-1860D01*
G37*
G36*
G01X5966100Y511550D02*
X5997400Y550000D01*
X5957400Y596350D01*
X5917400Y550000D01*
X5948700Y511550D01*
G03X5966100I8700J23860D01*
G37*
G36*
G01X5953850Y670510D02*
X5917400Y630000D01*
X5957310Y587460D01*
X5997400Y630000D01*
X5966660Y670110D01*
G03X5953850Y670510I-6651J-7680D01*
G37*
G36*
G01X5857320Y876860D02*
X5845000Y887500D01*
X5802460Y875000D01*
X5845000Y862500D01*
X5857320Y873140D01*
G03Y876860I-9990J1860D01*
G37*
G36*
G01X5811070Y674530D02*
X5845000Y712500D01*
X5805000Y727540D01*
X5765000Y712500D01*
X5798930Y674530D01*
G03X5811070I6070J8140D01*
G37*
G36*
G01X5798930Y667970D02*
X5765000Y630000D01*
X5805000Y587460D01*
X5845000Y630000D01*
X5811070Y667970D01*
G03X5798930I-6070J-8140D01*
G37*
G36*
G01X5752680Y773140D02*
X5765000Y762500D01*
X5807540Y775000D01*
X5765000Y787500D01*
X5752680Y776860D01*
G03Y773140I9990J-1860D01*
G37*
G36*
G01Y823140D02*
X5765000Y812500D01*
X5807540Y825000D01*
X5765000Y837500D01*
X5752680Y826860D01*
G03Y823140I9990J-1860D01*
G37*
G36*
G01X6300130Y1469190D02*
X6076850Y1245900D01*
X5765900D01*
Y2076480D01*
X5767690Y2079080D01*
G03X5775740Y2105000I-37691J25916D01*
G01Y2155000D01*
G03X5746640Y2197600I-45731J0D01*
G01X5740740Y2199990D01*
Y2223140D01*
X5753330D01*
X5755500Y2222040D01*
G03X5790000Y2213780I34509J67958D01*
G01X5790010D01*
G03X5815750Y2218260I-6J76221D01*
G01X5817420Y2218860D01*
X5909600D01*
X5914920Y2214530D01*
G03X5943800Y2204260I28880J35471D01*
G01X6023800D01*
X6050610D01*
Y2193730D01*
X6050580Y2193360D01*
G03X6050460Y2190040I45622J-3311D01*
G01Y2109990D01*
G03X6054650Y2090860I45743J-5D01*
G01X6054890Y2090340D01*
X6055080Y2089960D01*
G02X6038300Y2060790I-18265J-8904D01*
G01X5959970Y2060740D01*
G03X5914260Y2015000I30J-45740D01*
G01Y1965000D01*
G03X5960000Y1919260I45740J0D01*
G01X6144100D01*
Y1829920D01*
X5957740Y1820680D01*
G03X5914260Y1775000I2256J-45680D01*
G01Y1725000D01*
G03X5960000Y1679260I45740J0D01*
G01X6042840D01*
G02X6059270Y1646990I-3J-20319D01*
G03X6050460Y1620000I36938J-26990D01*
G01Y1540000D01*
G03X6096200Y1494260I45740J0D01*
G01X6176200D01*
G03X6206210Y1505480I0J45744D01*
G01X6224710Y1521560D01*
X6240950D01*
X6243680Y1519470D01*
G03X6286640Y1503850I46327J60527D01*
G01X6288170Y1503790D01*
X6288430Y1503690D01*
G02X6300130Y1469190I-2671J-20140D01*
G37*
G36*
G01X5702820Y1225920D02*
X5674080Y1197180D01*
X5699840Y1187460D01*
X5720160D01*
X5745920Y1197180D01*
X5717180Y1225920D01*
G03X5702820I-7180J-7180D01*
G37*
G36*
G01X5623570Y1195180D02*
X5600000Y1215000D01*
X5577460Y1190000D01*
X5600000Y1165000D01*
X5623570Y1184820D01*
G03Y1195180I-8740J5180D01*
G37*
G36*
G01X5798930Y925470D02*
X5765000Y887500D01*
X5805000Y872460D01*
X5845000Y887500D01*
X5811070Y925470D01*
G03X5798930I-6070J-8140D01*
G37*
G36*
G01X5811070Y922030D02*
X5845000Y960000D01*
X5805000Y1002540D01*
X5765000Y960000D01*
X5798930Y922030D01*
G03X5811070I6070J8140D01*
G37*
G36*
G01X6165000Y1785160D02*
X5960000Y1775000D01*
X6050120Y1747650D01*
X6160000Y1725000D01*
X6175110Y1773990D01*
G03X6165000Y1785160I-10110J1010D01*
G37*
G36*
G01X5899460Y2498860D02*
X5909600D01*
X5914920Y2494530D01*
G03X5943800Y2484260I28880J35471D01*
G01X6023800D01*
X6050610D01*
Y2473730D01*
X6050580Y2473360D01*
G03X6050460Y2470040I45622J-3311D01*
G01Y2389960D01*
G03X6050580Y2386640I45742J-9D01*
G01X6050610Y2386270D01*
Y2375740D01*
X6024150D01*
X5943800D01*
G03X5914920Y2365470I0J-45741D01*
G01X5909600Y2361140D01*
X5861140D01*
Y2460540D01*
X5899460Y2498860D01*
G37*
G36*
G01X5634350Y2085780D02*
X5650000Y2105000D01*
X5630000Y2133180D01*
X5610000Y2105000D01*
X5625650Y2085780D01*
G03X5634350I4350J11930D01*
G37*
G36*
G01X5905350Y2281300D02*
X5943800Y2250000D01*
X5990150Y2290000D01*
X5943800Y2330000D01*
X5905350Y2298700D01*
G03Y2281300I23860J-8700D01*
G37*
G36*
G01X6142270Y2212030D02*
X6176200Y2250000D01*
X6136200Y2292540D01*
X6096200Y2250000D01*
X6130130Y2212030D01*
G03X6142270I6070J8140D01*
G37*
G36*
G01X6130130Y2227970D02*
X6096200Y2190000D01*
X6136200Y2147460D01*
X6176200Y2190000D01*
X6142270Y2227970D01*
G03X6130130I-6070J-8140D01*
G37*
G36*
G01X6190280Y2015160D02*
X5960000Y2015000D01*
X6049910Y1988830D01*
X6160000Y1965000D01*
X6197980Y1998940D01*
G03X6190280Y2015160I-8143J6072D01*
G37*
G36*
G01X5621430Y2224820D02*
X5645000Y2205000D01*
X5672540Y2230000D01*
X5645000Y2255000D01*
X5621430Y2235180D01*
G03Y2224820I8740J-5180D01*
G37*
G36*
G01X5714480Y2086050D02*
X5730000Y2105000D01*
X5710000Y2132540D01*
X5690000Y2105000D01*
X5705520Y2086050D01*
G03X5714480I4480J9120D01*
G37*
G36*
G01X5905350Y2561300D02*
X5943800Y2530000D01*
X5990150Y2570000D01*
X5943800Y2610000D01*
X5905350Y2578700D01*
G03Y2561300I23860J-8700D01*
G37*
G36*
G01X6297260Y178820D02*
X6336040Y140040D01*
X6384540Y186000D01*
X6336040Y231960D01*
X6297260Y193180D01*
G03Y178820I7180J-7180D01*
G37*
G36*
G01X6581470Y850860D02*
X6641140Y910530D01*
Y1209930D01*
X6681670Y1250460D01*
X6706800D01*
G03X6738400Y1263130I0J45741D01*
G03X6770000Y1250460I31600J33071D01*
G01X6859110D01*
Y968160D01*
X6586370Y695430D01*
G02X6551940Y710050I-14111J14621D01*
G01Y730000D01*
G03X6541670Y758880I-45741J0D01*
G01X6537340Y764200D01*
Y785800D01*
X6541520Y790940D01*
X6541540Y790960D01*
G03X6544460Y794940I-35365J29007D01*
G01X6544480Y794960D01*
X6581470Y850860D01*
G37*
G36*
G01X6457500Y768450D02*
X6426200Y730000D01*
X6466200Y683650D01*
X6506200Y730000D01*
X6474900Y768450D01*
G03X6457500I-8700J-23860D01*
G37*
G36*
G01X6530000Y925400D02*
X6426200Y900000D01*
X6460820Y856630D01*
X6506200Y820000D01*
X6554350Y892760D01*
G03X6530000Y925400I-24350J7237D01*
G37*
G36*
G01X6474900Y781550D02*
X6506200Y820000D01*
X6466200Y866350D01*
X6426200Y820000D01*
X6457500Y781550D01*
G03X6474900I8700J23860D01*
G37*
G36*
G01X6167320Y776860D02*
X6155000Y787500D01*
X6112460Y775000D01*
X6155000Y762500D01*
X6167320Y773140D01*
G03Y776860I-9990J1860D01*
G37*
G36*
G01X6209950Y814850D02*
X6353800Y820000D01*
X6316210Y860810D01*
X6273800Y900000D01*
X6202550Y831570D01*
G03X6209950Y814850I7750J-6567D01*
G37*
G36*
G01X6167320Y826860D02*
X6155000Y837500D01*
X6112460Y825000D01*
X6155000Y812500D01*
X6167320Y823140D01*
G03Y826860I-9990J1860D01*
G37*
G36*
G01X6371590Y980760D02*
X6343800Y1060000D01*
X6299180Y1024360D01*
X6263800Y980000D01*
X6346200Y954600D01*
G03X6371590Y980760I0J25401D01*
G37*
G36*
G01X6271330Y1105620D02*
X6263800Y1060000D01*
X6305060Y1013780D01*
X6343800Y1060000D01*
X6301850Y1110850D01*
G03X6271330Y1105620I-11859J-22462D01*
G37*
G36*
G01X6803150Y1785900D02*
X6620740D01*
Y1820050D01*
G03X6619640Y1830000I-45742J-21D01*
G03X6620740Y1839950I-44642J9971D01*
G01Y1869990D01*
G03X6619630Y1880000I-45739J-5D01*
G03X6620740Y1890010I-44629J10015D01*
G01Y1920050D01*
G03X6619640Y1930000I-45742J-21D01*
G03X6620740Y1939950I-44642J9971D01*
G01Y1969990D01*
G03X6619630Y1980000I-45739J-5D01*
G03X6620740Y1990010I-44629J10015D01*
G01Y2020050D01*
G03X6619640Y2030000I-45742J-21D01*
G03X6620740Y2039950I-44642J9971D01*
G01Y2069990D01*
G03X6619630Y2080000I-45739J-5D01*
G03X6620740Y2090010I-44629J10015D01*
G01Y2120050D01*
G03X6619640Y2130000I-45742J-21D01*
G03X6620740Y2139950I-44642J9971D01*
G01Y2169990D01*
G03X6619630Y2180000I-45739J-5D01*
G03X6620740Y2190010I-44629J10015D01*
G01Y2191150D01*
G02X6655170Y2205770I20319J-1D01*
G01X6856850Y2004100D01*
X7098190D01*
G03X7150000Y1983780I51810J55890D01*
G03X7226220Y2060000I0J76220D01*
G01Y2060030D01*
G03X7217550Y2095320I-76223J-16D01*
G01X7214100Y2101930D01*
X7226560Y2114390D01*
X7241860Y2099090D01*
X7259080D01*
X7259270Y2089130D01*
G03X7260370Y2080000I45731J878D01*
G03X7259260Y2069990I44629J-10015D01*
G01Y2039950D01*
G03X7260360Y2030000I45742J21D01*
G03X7259260Y2020050I44642J-9971D01*
G01Y1990010D01*
G03X7260370Y1980000I45739J5D01*
G03X7259260Y1969990I44629J-10015D01*
G01Y1939950D01*
G03X7260360Y1930000I45742J21D01*
G03X7259260Y1920050I44642J-9971D01*
G01Y1908310D01*
X7209100Y1858150D01*
Y1720890D01*
G02X7199130Y1710730I-10160J-2D01*
G03X7190000Y1709630I878J-45731D01*
G03X7179990Y1710740I-10015J-44629D01*
G01X7100010D01*
G03X7090000Y1709630I5J-45739D01*
G03X7079990Y1710740I-10015J-44629D01*
G01X7000010D01*
G03X6990000Y1709630I5J-45739D01*
G03X6979990Y1710740I-10015J-44629D01*
G01X6900010D01*
G03X6890000Y1709630I5J-45739D01*
G03X6882110Y1710690I-10012J-44630D01*
G01X6878180Y1710870D01*
X6870910Y1718140D01*
X6803150Y1785900D01*
G37*
G36*
G01X6307780Y1610480D02*
X6290000D01*
X6287750Y1577750D01*
X6320480Y1580000D01*
Y1597780D01*
G03X6307780Y1610480I-12700J0D01*
G37*
G36*
G01X6255880Y1571020D02*
X6268460Y1558460D01*
X6293180Y1580000D01*
X6268460Y1601540D01*
X6255880Y1588980D01*
G03Y1571020I8980J-8980D01*
G37*
G36*
G01X6213980Y1587160D02*
X6176200Y1620000D01*
X6133020Y1580000D01*
X6176200Y1540000D01*
X6213980Y1572840D01*
G03Y1587160I-10490J7160D01*
G37*
G36*
G01X6450000Y1727300D02*
X6575000Y1739990D01*
X6527380Y1757840D01*
X6455000Y1769990D01*
X6437470Y1742090D01*
G03X6450000Y1727300I12530J-2087D01*
G37*
G36*
G01X6213980Y2437160D02*
X6176200Y2470000D01*
X6133020Y2430000D01*
X6176200Y2390000D01*
X6213980Y2422840D01*
G03Y2437160I-10490J7160D01*
G37*
G36*
G01X6200190Y2422330D02*
X6250000Y2377600D01*
X6293140Y2417110D01*
X6250000Y2457600D01*
X6203060Y2440430D01*
G03X6200190Y2422330I7250J-10427D01*
G37*
G36*
G01X6297160Y2339820D02*
X6330000Y2377600D01*
X6290000Y2420780D01*
X6250000Y2377600D01*
X6282840Y2339820D01*
G03X6297160I7160J10490D01*
G37*
G36*
G01X6440160Y2103090D02*
X6455000Y2090010D01*
X6518180Y2105010D01*
X6455000Y2120010D01*
X6440160Y2106930D01*
G03Y2103090I12550J-1920D01*
G37*
G36*
G01Y2153070D02*
X6455000Y2139990D01*
X6518180Y2154990D01*
X6455000Y2169990D01*
X6440160Y2156910D01*
G03Y2153070I12550J-1920D01*
G37*
G36*
G01X6214170Y2156070D02*
X6176200Y2190000D01*
X6133660Y2150000D01*
X6176200Y2110000D01*
X6214170Y2143930D01*
G03Y2156070I-8140J6070D01*
G37*
G36*
G01X6440500Y2051880D02*
X6455000Y2039990D01*
X6517540Y2054990D01*
X6455000Y2069990D01*
X6440500Y2058100D01*
G03Y2051880I9670J-3110D01*
G37*
G36*
G01Y1951880D02*
X6455000Y1939990D01*
X6517540Y1954990D01*
X6455000Y1969990D01*
X6440500Y1958100D01*
G03Y1951880I9670J-3110D01*
G37*
G36*
G01Y2001900D02*
X6455000Y1990010D01*
X6517540Y2005010D01*
X6455000Y2020010D01*
X6440500Y2008120D01*
G03Y2001900I9670J-3110D01*
G37*
G36*
G01X6589500Y2308120D02*
X6575000Y2320010D01*
X6512460Y2305010D01*
X6575000Y2290010D01*
X6589500Y2301900D01*
G03Y2308120I-9670J3110D01*
G37*
G36*
G01X6213980Y2577160D02*
X6176200Y2610000D01*
X6133020Y2570000D01*
X6176200Y2530000D01*
X6213980Y2562840D01*
G03Y2577160I-10490J7160D01*
G37*
G36*
G01X6212220Y2562840D02*
X6250000Y2530000D01*
X6293180Y2570000D01*
X6250000Y2610000D01*
X6212220Y2577160D01*
G03Y2562840I10490J-7160D01*
G37*
G36*
G01X6447000Y3179160D02*
Y3234000D01*
X6380200Y3235800D01*
X6382000Y3169000D01*
X6436840D01*
G03X6447000Y3179160I0J10160D01*
G37*
G36*
G01X7159110Y901840D02*
X7326850Y734100D01*
X7398190D01*
G03X7450000Y713780I51810J55890D01*
G03X7526220Y790000I0J76220D01*
G03X7516730Y826830I-76212J0D01*
G03X7526220Y863660I-66722J36830D01*
G03X7450000Y939880I-76220J0D01*
G03X7400890Y921950I0J-76221D01*
G01X7398050Y919560D01*
X7370190D01*
X7320900Y968850D01*
Y1250460D01*
X7400000D01*
G03X7445740Y1296200I0J45740D01*
G01Y1376200D01*
G03X7438630Y1400690I-45732J0D01*
G01X7428260Y1417050D01*
X7431270Y1422350D01*
G03X7441220Y1460000I-66257J37650D01*
G03X7423440Y1508930I-76217J0D01*
G01Y1670340D01*
X7454480Y1704430D01*
G02X7483460Y1686050I8662J-18379D01*
G01Y997490D01*
X7714570Y766370D01*
G02X7699950Y731940I-14621J-14111D01*
G01X7670000D01*
G03X7641120Y721670I0J-45741D01*
G01X7638100Y719210D01*
G03X7616200Y722420I-21887J-73012D01*
G03X7539980Y646200I0J-76220D01*
G03X7608490Y570370I76221J0D01*
G02X7625830Y545760I-2486J-20166D01*
G01X7625560Y544620D01*
G03X7624260Y533810I44440J-10827D01*
G01Y453800D01*
G03X7626460Y439800I45738J14D01*
G01X7628280Y434120D01*
X7611570Y416220D01*
G03X7599260Y385000I33434J-31220D01*
G01Y295000D01*
G03X7645000Y249260I45740J0D01*
G01X7774100D01*
Y176850D01*
X7831250Y119690D01*
G02X7816630Y85260I-14621J-14111D01*
G01X7507850D01*
G02X7491450Y117580I-2J20320D01*
G03X7513820Y186000I-93448J68420D01*
G03X7282180I-115820J0D01*
G03X7304550Y117580I115818J0D01*
G02X7288150Y85260I-16398J-12000D01*
G01X7253850D01*
G02X7237450Y117580I-2J20320D01*
G03X7259820Y186000I-93448J68420D01*
G03X7028180I-115820J0D01*
G03X7050550Y117580I115818J0D01*
G02X7034150Y85260I-16398J-12000D01*
G01X6999850D01*
G02X6983390Y117500I-3J20320D01*
G03X7005820Y186000I-93383J68500D01*
G03X6971220Y268570I-115823J0D01*
G01X6971190Y268600D01*
X6945900Y293890D01*
Y698190D01*
G03X6966220Y750000I-55890J51810D01*
G03X6946970Y800640I-76233J0D01*
G02X6947750Y828000I15403J13252D01*
G01X7020890Y901150D01*
Y1499260D01*
X7079990D01*
G03X7090000Y1500370I-5J45739D01*
G03X7100010Y1499260I10015J44629D01*
G01X7159110D01*
Y901840D01*
G37*
G36*
G01X6835160Y121000D02*
X6890000D01*
X6891800Y187800D01*
X6825000Y186000D01*
Y131160D01*
G03X6835160Y121000I10160J0D01*
G37*
G36*
G01X6882820Y270740D02*
X6844040Y231960D01*
X6890000Y183460D01*
X6935960Y231960D01*
X6897180Y270740D01*
G03X6882820I-7180J-7180D01*
G37*
G36*
G01X6897180Y714080D02*
X6911550Y728450D01*
X6890000Y752540D01*
X6868450Y728450D01*
X6882820Y714080D01*
G03X6897180I7180J7180D01*
G37*
G36*
G01X6657290Y1415400D02*
X6626800Y1376200D01*
X6666880Y1333030D01*
X6706800Y1376200D01*
X6672250Y1415720D01*
G03X6657290Y1415400I-7261J-10420D01*
G37*
G36*
G01X6779990Y1499260D02*
G03X6790000Y1500370I-5J45739D01*
G03X6799130Y1499270I10008J44631D01*
G02X6809090Y1489110I-200J-10158D01*
G01Y1421940D01*
X6770000D01*
G03X6762560Y1421330I5J-45740D01*
G02X6739760Y1445200I-2827J20124D01*
G03X6741210Y1460000I-74770J14797D01*
G01Y1460190D01*
G03X6739820Y1474500I-76221J-181D01*
G01X6739760Y1474780D01*
X6739730Y1474950D01*
G02X6759650Y1499260I19924J3990D01*
G01X6779990D01*
G37*
G36*
G01X6716930Y1530160D02*
X6730010Y1545000D01*
X6715010Y1608180D01*
X6700010Y1545000D01*
X6713090Y1530160D01*
G03X6716930I1920J12550D01*
G37*
G36*
G01X6656010Y1494120D02*
X6643450Y1481540D01*
X6664990Y1456820D01*
X6686530Y1481540D01*
X6673970Y1494120D01*
G03X6656010I-8980J-8980D01*
G37*
G36*
G01X6673970Y1425880D02*
X6686530Y1438460D01*
X6664990Y1463180D01*
X6643450Y1438460D01*
X6656010Y1425880D01*
G03X6673970I8980J8980D01*
G37*
G36*
G01X6666910Y1530160D02*
X6679990Y1545000D01*
X6664990Y1608180D01*
X6649990Y1545000D01*
X6663070Y1530160D01*
G03X6666910I1920J12550D01*
G37*
G36*
G01X6868100Y1530500D02*
X6879990Y1545000D01*
X6864990Y1607540D01*
X6849990Y1545000D01*
X6861880Y1530500D01*
G03X6868100I3110J9670D01*
G37*
G36*
G01X6918120D02*
X6930010Y1545000D01*
X6915010Y1607540D01*
X6900010Y1545000D01*
X6911900Y1530500D01*
G03X6918120I3110J9670D01*
G37*
G36*
G01X6968100D02*
X6979990Y1545000D01*
X6964990Y1607540D01*
X6949990Y1545000D01*
X6961880Y1530500D01*
G03X6968100I3110J9670D01*
G37*
G36*
G01X6811900Y1679500D02*
X6800010Y1665000D01*
X6815010Y1602460D01*
X6830010Y1665000D01*
X6818120Y1679500D01*
G03X6811900I-3110J-9670D01*
G37*
G36*
G01X7158650Y2359340D02*
G02X7171370I6360J-7927D01*
G03X7177710Y2355060I28673J35638D01*
G01X7178940Y2354380D01*
X7187130Y2346190D01*
X7174100Y2333150D01*
Y2236460D01*
G02X7153220Y2216150I-20321J3D01*
G03X7150000Y2216220I-3266J-76149D01*
G03X7098190Y2195900I0J-76210D01*
G01X6883150D01*
X6764230Y2314830D01*
G02X6778850Y2349260I14621J14111D01*
G01X6830050D01*
G03X6840000Y2350360I-21J45742D01*
G03X6849950Y2349260I9971J44642D01*
G01X6930050D01*
G03X6940000Y2350360I-21J45742D01*
G03X6949950Y2349260I9971J44642D01*
G01X7030050D01*
G03X7040000Y2350360I-21J45742D01*
G03X7049950Y2349260I9971J44642D01*
G01X7130010D01*
G03X7158650Y2359340I0J45727D01*
G37*
G36*
G01X7114080Y2052820D02*
X7128450Y2038450D01*
X7152540Y2060000D01*
X7128450Y2081550D01*
X7114080Y2067180D01*
G03Y2052820I7180J-7180D01*
G37*
G36*
G01X6668100Y2380500D02*
X6679990Y2395000D01*
X6664990Y2457540D01*
X6649990Y2395000D01*
X6661880Y2380500D01*
G03X6668100I3110J9670D01*
G37*
G36*
G01X7114080Y2132820D02*
X7128450Y2118450D01*
X7152540Y2140000D01*
X7128450Y2161550D01*
X7114080Y2147180D01*
G03Y2132820I7180J-7180D01*
G37*
G36*
G01X7095560Y2874100D02*
X7246850D01*
X7320970Y2799970D01*
G02X7309680Y2765520I-14369J-14366D01*
G03X7300010Y2763550I10348J-75514D01*
G03X7294250Y2761740I19951J-73561D01*
G01X7290810Y2761140D01*
X7287860D01*
X7280000Y2764930D01*
X7279990Y2764940D01*
G03X7260000Y2769540I-19990J-41135D01*
G01X7179990D01*
G03X7163040Y2766280I9J-45741D01*
G01X7156820Y2763790D01*
X7102730Y2817880D01*
X7081200Y2839410D01*
G02X7095560Y2874100I14364J14371D01*
G37*
G36*
G01X7141550Y2675100D02*
X7180000Y2643800D01*
X7226350Y2683800D01*
X7180000Y2723800D01*
X7141550Y2692500D01*
G03Y2675100I23860J-8700D01*
G37*
G36*
G01X7061880Y2529500D02*
X7049990Y2515000D01*
X7064990Y2452460D01*
X7079990Y2515000D01*
X7068100Y2529500D01*
G03X7061880I-3110J-9670D01*
G37*
G36*
G01X7111900D02*
X7100010Y2515000D01*
X7115010Y2452460D01*
X7130010Y2515000D01*
X7118120Y2529500D01*
G03X7111900I-3110J-9670D01*
G37*
G36*
G01X7011900D02*
X7000010Y2515000D01*
X7015010Y2452460D01*
X7030010Y2515000D01*
X7018120Y2529500D01*
G03X7011900I-3110J-9670D01*
G37*
G36*
G01X7209000Y3179160D02*
Y3234000D01*
X7142200Y3235800D01*
X7144000Y3169000D01*
X7198840D01*
G03X7209000Y3179160I0J10160D01*
G37*
G36*
G01X6701000D02*
Y3234000D01*
X6634200Y3235800D01*
X6636000Y3169000D01*
X6690840D01*
G03X6701000Y3179160I0J10160D01*
G37*
G36*
G01X7631550Y637500D02*
X7670000Y606200D01*
X7716350Y646200D01*
X7670000Y686200D01*
X7631550Y654900D01*
G03Y637500I23860J-8700D01*
G37*
G36*
G01X7414080Y856480D02*
X7428450Y842110D01*
X7452540Y863660D01*
X7428450Y885210D01*
X7414080Y870840D01*
G03Y856480I7180J-7180D01*
G37*
G36*
G01Y782820D02*
X7428450Y768450D01*
X7452540Y790000D01*
X7428450Y811550D01*
X7414080Y797180D01*
G03Y782820I7180J-7180D01*
G37*
G36*
G01X7703450Y447600D02*
X7645000Y385000D01*
X7710000Y337460D01*
X7775000Y385000D01*
X7716550Y447600D01*
G03X7703450I-6550J-7770D01*
G37*
G36*
G01X7357600Y1418810D02*
X7320000Y1376200D01*
X7359780Y1333030D01*
X7400000Y1376200D01*
X7373610Y1417820D01*
G03X7357600Y1418810I-8613J-9331D01*
G37*
G36*
G01X7439840Y1806930D02*
X7425000Y1820010D01*
X7361820Y1805010D01*
X7425000Y1790010D01*
X7439840Y1803090D01*
G03Y1806930I-12550J1920D01*
G37*
G36*
G01X7356020Y1494120D02*
X7343460Y1481540D01*
X7365000Y1456820D01*
X7386540Y1481540D01*
X7373980Y1494120D01*
G03X7356020I-8980J-8980D01*
G37*
G36*
G01X7373980Y1425880D02*
X7386540Y1438460D01*
X7365000Y1463180D01*
X7343460Y1438460D01*
X7356020Y1425880D01*
G03X7373980I8980J8980D01*
G37*
G36*
G01X7372860Y1682730D02*
X7425000Y1739990D01*
X7365000Y1758160D01*
X7305000Y1739990D01*
X7357140Y1682730D01*
G03X7372860I7860J9970D01*
G37*
G36*
G01X7290500Y1851880D02*
X7305000Y1839990D01*
X7367540Y1854990D01*
X7305000Y1869990D01*
X7290500Y1858100D01*
G03Y1851880I9670J-3110D01*
G37*
G36*
G01X7218120Y1530500D02*
X7230010Y1545000D01*
X7215010Y1607540D01*
X7200010Y1545000D01*
X7211900Y1530500D01*
G03X7218120I3110J9670D01*
G37*
G36*
G01X7439500Y1908120D02*
X7425000Y1920010D01*
X7362460Y1905010D01*
X7425000Y1890010D01*
X7439500Y1901900D01*
G03Y1908120I-9670J3110D01*
G37*
G36*
G01X7166910Y2380160D02*
X7179990Y2395000D01*
X7164990Y2458180D01*
X7149990Y2395000D01*
X7163070Y2380160D01*
G03X7166910I1920J12550D01*
G37*
G36*
G01X7439500Y2058100D02*
X7425000Y2069990D01*
X7362460Y2054990D01*
X7425000Y2039990D01*
X7439500Y2051880D01*
G03Y2058100I-9670J3110D01*
G37*
G36*
G01Y2008120D02*
X7425000Y2020010D01*
X7362460Y2005010D01*
X7425000Y1990010D01*
X7439500Y2001900D01*
G03Y2008120I-9670J3110D01*
G37*
G36*
G01Y2258100D02*
X7425000Y2269990D01*
X7362460Y2254990D01*
X7425000Y2239990D01*
X7439500Y2251880D01*
G03Y2258100I-9670J3110D01*
G37*
G36*
G01Y2208120D02*
X7425000Y2220010D01*
X7362460Y2205010D01*
X7425000Y2190010D01*
X7439500Y2201900D01*
G03Y2208120I-9670J3110D01*
G37*
G36*
G01X7290500Y2151880D02*
X7305000Y2139990D01*
X7367540Y2154990D01*
X7305000Y2169990D01*
X7290500Y2158100D01*
G03Y2151880I9670J-3110D01*
G37*
G36*
G01X7439500Y1958100D02*
X7425000Y1969990D01*
X7362460Y1954990D01*
X7425000Y1939990D01*
X7439500Y1951880D01*
G03Y1958100I-9670J3110D01*
G37*
G36*
G01X8234100Y2743150D02*
X8186850Y2695900D01*
X7621900D01*
X7548410Y2622420D01*
G02X7513980Y2637040I-14111J14621D01*
G01Y2945070D01*
X7502300Y2956760D01*
G02X7509490Y2974100I7188J7180D01*
G01X7573150D01*
X7828710Y3229660D01*
X8166600D01*
G02X8185820Y3202770I-5J-20317D01*
G03X8179170Y3160000I134181J-42765D01*
G03X8207940Y3074710I140828J7D01*
G01X8209040Y3073260D01*
X8231680Y2999250D01*
G03X8233370Y2994450I58316J17835D01*
G01X8234100Y2992640D01*
Y2743150D01*
G37*
G36*
G01X7213090Y2529840D02*
X7200010Y2515000D01*
X7215010Y2451820D01*
X7230010Y2515000D01*
X7216930Y2529840D01*
G03X7213090I-1920J-12550D01*
G37*
G36*
G01X7302420Y2703310D02*
X7260000Y2723800D01*
X7213680Y2683160D01*
X7260000Y2643800D01*
X7303950Y2679580D01*
G03X7302420Y2703310I-23161J10421D01*
G37*
G36*
G01X7222410Y2601200D02*
X7260000Y2643800D01*
X7220220Y2686970D01*
X7180000Y2643800D01*
X7206400Y2602180D01*
G03X7222410Y2601200I8607J9340D01*
G37*
G36*
G01X7333000Y3288840D02*
Y3234000D01*
X7399800Y3232200D01*
X7398000Y3299000D01*
X7343160D01*
G03X7333000Y3288840I0J-10160D01*
G37*
G36*
G01X7892140Y133780D02*
X7935000Y95000D01*
X8002540Y140000D01*
X7935000Y185000D01*
X7892140Y146220D01*
G03Y133780I8030J-6220D01*
G37*
G36*
G01X7993450Y447600D02*
X7935000Y385000D01*
X8000000Y337460D01*
X8065000Y385000D01*
X8006550Y447600D01*
G03X7993450I-6550J-7770D01*
G37*
G36*
G01X8124840Y205000D02*
X8135000Y95000D01*
X8201800Y138200D01*
X8265000Y185000D01*
X8136540Y215040D01*
G03X8124840Y205000I-1542J-10040D01*
G37*
G36*
G01X9544100Y1211340D02*
X9529840Y1195740D01*
X8171670D01*
X8171140Y1196380D01*
Y1240810D01*
X8171740Y1244240D01*
Y1244250D01*
G03X8176220Y1270000I-71741J25746D01*
G01Y1270800D01*
G03X8023780I-76220J-804D01*
G01Y1270480D01*
Y1270000D01*
G03X8028260Y1244250I76221J-4D01*
G01X8028860Y1242580D01*
Y1196380D01*
X8014780Y1179180D01*
X8014760Y1179160D01*
G03X8004260Y1150000I35241J-29160D01*
G01Y970000D01*
G03X8014760Y940840I45741J0D01*
G01X8014780Y940820D01*
X8028860Y923620D01*
Y910650D01*
X8024610Y903590D01*
G03X8018060Y880000I39191J-23586D01*
G01Y815900D01*
X7953150D01*
X7714230Y1054830D01*
G02X7728850Y1089260I14621J14111D01*
G01X7865000D01*
G03X7910740Y1135000I0J45740D01*
G01Y1235000D01*
G03X7903300Y1260000I-45739J-5D01*
G03X7910740Y1285000I-38299J25005D01*
G01Y1385000D01*
G03X7903300Y1410000I-45739J-5D01*
G03X7910740Y1435000I-38299J25005D01*
G01Y1535000D01*
G03X7903300Y1560000I-45739J-5D01*
G03X7910740Y1585000I-38299J25005D01*
G01Y1685000D01*
G03X7903300Y1710000I-45739J-5D01*
G03X7910740Y1735000I-38299J25005D01*
G01Y1835000D01*
G03X7903300Y1860000I-45739J-5D01*
G03X7910740Y1885000I-38299J25005D01*
G01Y1985000D01*
G03X7903300Y2010000I-45739J-5D01*
G03X7910740Y2035000I-38299J25005D01*
G01Y2135000D01*
G03X7903300Y2160000I-45739J-5D01*
G03X7910740Y2185000I-38299J25005D01*
G01Y2224260D01*
X8217670D01*
G02X8232890Y2190480I-1J-20319D01*
G03X8213780Y2140000I57118J-50480D01*
G03X8225120Y2100000I76217J0D01*
G03X8213780Y2060000I64877J-40000D01*
G03X8290000Y1983780I76220J0D01*
G03X8341810Y2004100I0J76210D01*
G01X9476850D01*
X9544100Y1936850D01*
Y1211340D01*
G37*
G36*
G01X8077780Y653360D02*
X8040000Y686200D01*
X7996820Y646200D01*
X8040000Y606200D01*
X8077780Y639040D01*
G03Y653360I-10490J7160D01*
G37*
G36*
G01X8122220Y639040D02*
X8160000Y606200D01*
X8203180Y646200D01*
X8160000Y686200D01*
X8122220Y653360D01*
G03Y639040I10490J-7160D01*
G37*
G36*
G01X8088500Y921040D02*
X8063800Y880000D01*
X8104210Y833660D01*
X8143800Y880000D01*
X8109830Y921810D01*
G03X8088500Y921040I-9833J-23420D01*
G37*
G36*
G01X7716070Y415830D02*
X7750000Y453800D01*
X7710000Y496340D01*
X7670000Y453800D01*
X7703930Y415830D01*
G03X7716070I6070J8140D01*
G37*
G36*
G01X8006070D02*
X8040000Y453800D01*
X8000000Y496340D01*
X7960000Y453800D01*
X7993930Y415830D01*
G03X8006070I6070J8140D01*
G37*
G36*
G01X8206070D02*
X8240000Y453800D01*
X8200000Y496340D01*
X8160000Y453800D01*
X8193930Y415830D01*
G03X8206070I6070J8140D01*
G37*
G36*
G01X8193450Y447600D02*
X8135000Y385000D01*
X8200000Y337460D01*
X8265000Y385000D01*
X8206550Y447600D01*
G03X8193450I-6550J-7770D01*
G37*
G36*
G01X9431010Y453330D02*
G03X9542000Y399180I110990J86672D01*
G03X9591740Y408260I-8J140819D01*
G01X9597880Y410570D01*
X9609700Y398750D01*
X9586850Y375900D01*
X9430850D01*
X9395210Y340260D01*
X9356760Y301820D01*
X9320000D01*
G03X9204180Y186000I0J-115820D01*
G01Y149240D01*
X9195660Y140710D01*
X9184880Y129930D01*
X9173180Y141640D01*
X9175290Y147670D01*
G03X9181820Y186000I-109287J38340D01*
G03X8950180I-115820J0D01*
G03X8972550Y117580I115818J0D01*
G02X8956150Y85260I-16398J-12000D01*
G01X8921850D01*
G02X8905450Y117580I-2J20320D01*
G03X8927820Y186000I-93448J68420D01*
G03X8696180I-115820J0D01*
G03X8718550Y117580I115818J0D01*
G02X8702150Y85260I-16398J-12000D01*
G01X8310740D01*
Y185000D01*
Y294540D01*
Y385000D01*
G03X8298430Y416220I-45744J0D01*
G01X8281720Y434120D01*
X8283540Y439800D01*
G03X8285740Y453800I-43538J14014D01*
G01Y533800D01*
Y549660D01*
G02X8306090Y569980I20320J0D01*
G01X8306200D01*
G03X8374940Y613270I0J76221D01*
G01X8377700Y619040D01*
X8394260D01*
Y606200D01*
G03X8405150Y576580I45727J0D01*
G02Y563420I-7743J-6580D01*
G03X8394260Y533800I34837J-29620D01*
G01Y453800D01*
G03X8396460Y439800I45738J14D01*
G01X8398280Y434120D01*
X8381570Y416220D01*
G03X8369260Y385000I33434J-31220D01*
G01Y295000D01*
G03X8415000Y249260I45740J0D01*
G01X8545000D01*
G03X8590740Y295000I0J45740D01*
G01Y385000D01*
G03X8578430Y416220I-45744J0D01*
G01X8561720Y434120D01*
X8563540Y439800D01*
G03X8565740Y453800I-43538J14014D01*
G01Y533800D01*
G03X8554850Y563420I-45727J0D01*
G02Y576580I7743J6580D01*
G03X8565740Y606200I-34837J29620D01*
G01Y686200D01*
G03X8520000Y731940I-45740J0D01*
G01X8473310D01*
X8389350Y815900D01*
X8189540D01*
Y880000D01*
G03X8186430Y896580I-45751J0D01*
G02X8205370Y924260I18939J7361D01*
G01X8884630D01*
G02X8903570Y896580I1J-20319D01*
G03X8900460Y880000I42641J-16580D01*
G01Y800000D01*
G03X8946200Y754260I45740J0D01*
G01X8978100D01*
Y683240D01*
X8935430Y640570D01*
X8935400Y640540D01*
G03X8893180Y540000I98600J-100540D01*
G03X9034000Y399180I140820J0D01*
G03X9144990Y453330I0J140822D01*
G02X9177010I16010J-12512D01*
G03X9398990I110990J86672D01*
G02X9431010I16010J-12512D01*
G37*
G36*
G01X8088790Y1197380D02*
X8050000Y1150000D01*
X8100000Y1053650D01*
X8150000Y1150000D01*
X8111210Y1197380D01*
G03X8088790I-11210J-22790D01*
G37*
G36*
G01X8111210Y922620D02*
X8150000Y970000D01*
X8100000Y1066350D01*
X8050000Y970000D01*
X8088790Y922620D01*
G03X8111210I11210J22790D01*
G37*
G36*
G01X8473450Y447600D02*
X8415000Y385000D01*
X8480000Y337460D01*
X8545000Y385000D01*
X8486550Y447600D01*
G03X8473450I-6550J-7770D01*
G37*
G36*
G01X8278450Y654900D02*
X8240000Y686200D01*
X8193650Y646200D01*
X8240000Y606200D01*
X8278450Y637500D01*
G03Y654900I-23860J8700D01*
G37*
G36*
G01X8486070Y415830D02*
X8520000Y453800D01*
X8480000Y496340D01*
X8440000Y453800D01*
X8473930Y415830D01*
G03X8486070I6070J8140D01*
G37*
G36*
G01X8325920Y2067180D02*
X8311550Y2081550D01*
X8287460Y2060000D01*
X8311550Y2038450D01*
X8325920Y2052820D01*
G03Y2067180I-7180J7180D01*
G37*
G36*
G01Y2147180D02*
X8311550Y2161550D01*
X8287460Y2140000D01*
X8311550Y2118450D01*
X8325920Y2132820D01*
G03Y2147180I-7180J7180D01*
G37*
G36*
G01X8329390Y2680330D02*
X8345900Y2696850D01*
Y2986760D01*
X8418610Y3059470D01*
G03X8460820Y3160000I-98609J100530D01*
G01Y3160030D01*
G03X8454060Y3203120I-140822J-17D01*
G02X8473400Y3229660I19342J6222D01*
G01X8695910D01*
X8696950Y3220670D01*
G03X8812000Y3118180I115050J13330D01*
G03X8927820Y3234000I0J115820D01*
G03X8923390Y3265720I-115819J-6D01*
G01X8923000Y3267080D01*
Y3278660D01*
X8942290D01*
X8950180Y3270770D01*
Y3234310D01*
Y3234000D01*
Y3233440D01*
G03X9066000Y3118180I115820J561D01*
G03X9181810Y3232810I0J115816D01*
G01X9181820Y3233430D01*
Y3234000D01*
G03X9168350Y3288220I-115822J9D01*
G01X9167980Y3288900D01*
X9167780Y3289280D01*
G02X9185630Y3319300I17853J9701D01*
G01X9200370D01*
G02X9218540Y3289900I-5J-20318D01*
G01X9217650Y3288220D01*
G03X9204180Y3234000I102352J-54211D01*
G01Y3233430D01*
X9204190Y3232810D01*
G03X9319350Y3118180I115813J1187D01*
G01X9320000D01*
X9362760D01*
X9437630Y3043310D01*
G02X9438240Y3015200I-14363J-14373D01*
G03X9431010Y3006670I103723J-95244D01*
G02X9398990I-16010J12512D01*
G03X9177010I-110990J-86672D01*
G02X9144990I-16010J12512D01*
G03X9034000Y3060820I-110990J-86672D01*
G03Y2779180I0J-140820D01*
G03X9144990Y2833330I0J140822D01*
G02X9177010I16010J-12512D01*
G03X9288000Y2779180I110990J86672D01*
G01X9321870D01*
G02X9333460Y2760830I-8729J-18348D01*
G01Y2652510D01*
X9326850Y2645900D01*
X8344010D01*
G02X8329390Y2680330I1J20319D01*
G37*
G36*
G01X8297180Y3009910D02*
X8383630Y3096360D01*
X8320520Y3162490D01*
X8253830Y3100570D01*
X8280280Y3014120D01*
G03X8297180Y3009910I9715J2972D01*
G37*
G36*
G01X9173170Y908070D02*
X9095600Y880000D01*
X9133750Y837420D01*
X9175600Y800000D01*
X9188300Y895600D01*
G03X9173170Y908070I-12704J0D01*
G37*
G36*
G01X9280820Y660090D02*
X9224370Y603640D01*
X9288000Y537460D01*
X9351630Y603640D01*
X9295180Y660090D01*
G03X9280820I-7180J-7180D01*
G37*
G36*
G01X9026820D02*
X8970370Y603640D01*
X9034000Y537460D01*
X9097630Y603640D01*
X9041180Y660090D01*
G03X9026820I-7180J-7180D01*
G37*
G36*
G01X9001000Y3288840D02*
Y3234000D01*
X9067800Y3232200D01*
X9066000Y3299000D01*
X9011160D01*
G03X9001000Y3288840I0J-10160D01*
G37*
G36*
G01X8754280Y3285560D02*
X8754290Y3241280D01*
X8813720Y3232130D01*
X8806450Y3292670D01*
X8765180Y3295690D01*
G03X8754280Y3285560I-743J-10130D01*
G37*
G36*
G01X9755900Y746850D02*
X9915900Y906850D01*
Y1050000D01*
X10510000D01*
Y20000D01*
X9282110D01*
G02X9267490Y54430I1J20319D01*
G01X9276790Y63740D01*
X9283240Y70180D01*
X9320000D01*
G03X9435820Y186000I0J115820D01*
G01Y222760D01*
X9444340Y231290D01*
X9455120Y242070D01*
X9466820Y230360D01*
X9464710Y224330D01*
G03X9458180Y186000I109287J-38340D01*
G03X9689820I115820J0D01*
G01Y186010D01*
G03X9659960Y263630I-115823J-3D01*
G02X9660670Y291610I15078J13616D01*
G01X9712680Y343630D01*
X9755900Y386850D01*
Y746850D01*
G37*
G36*
G01X9265160Y121000D02*
X9320000D01*
X9321800Y187800D01*
X9255000Y186000D01*
Y131160D01*
G03X9265160Y121000I10160J0D01*
G37*
G36*
G01X9374840Y251000D02*
X9320000D01*
X9318200Y184200D01*
X9385000Y186000D01*
Y240840D01*
G03X9374840Y251000I-10160J0D01*
G37*
G36*
G01X9530700Y659970D02*
X9478040Y603300D01*
X9542060Y536830D01*
X9605630Y603630D01*
X9548980Y660300D01*
G03X9530700Y659970I-8981J-8980D01*
G37*
G36*
G01X9294070Y762030D02*
X9328000Y800000D01*
X9288000Y842540D01*
X9248000Y800000D01*
X9281930Y762030D01*
G03X9294070I6070J8140D01*
G37*
G36*
G01X9593670Y1197780D02*
X9550000Y1150000D01*
X9600000Y1057460D01*
X9650000Y1150000D01*
X9606330Y1197780D01*
G03X9593670I-6330J-7950D01*
G37*
G36*
G01X9743670D02*
X9700000Y1150000D01*
X9750000Y1057460D01*
X9800000Y1150000D01*
X9756330Y1197780D01*
G03X9743670I-6330J-7950D01*
G37*
G36*
G01X9378000Y2840160D02*
Y2920000D01*
X9286200Y2921800D01*
X9288000Y2830000D01*
X9367840D01*
G03X9378000Y2840160I0J10160D01*
G37*
G36*
G01X9462160Y2830000D02*
X9542000D01*
X9543800Y2921800D01*
X9452000Y2920000D01*
Y2840160D01*
G03X9462160Y2830000I10160J0D01*
G37*
G36*
G01X9538110Y3400000D02*
X10510000D01*
Y2390000D01*
X9915900D01*
Y2953150D01*
X9733150Y3135900D01*
X9685730D01*
G02X9668570Y3167090I5J20318D01*
G01X9669890Y3169040D01*
G03X9689820Y3234000I-95901J64960D01*
G01Y3234910D01*
X9689810Y3235460D01*
G03X9574980Y3349820I-115812J-1457D01*
G01X9574840D01*
X9537880Y3351170D01*
X9523490Y3365570D01*
G02X9538110Y3400000I14621J14111D01*
G37*
G36*
G01X9509000Y3290840D02*
Y3234000D01*
X9575760Y3232170D01*
X9574370Y3298980D01*
X9519530Y3300990D01*
G03X9509000Y3290840I-373J-10150D01*
G37*
G36*
G01X9390940Y3180270D02*
X9384930Y3235100D01*
X9318110Y3235700D01*
X9320000Y3169000D01*
X9380840D01*
G03X9390940Y3180270I0J10161D01*
G37*
%LPC*%
G75*
G36*
G01X1564260Y1982830D02*
Y2125000D01*
G02X1610000Y2170740I45740J0D01*
G01X2170000D01*
G02X2215740Y2125000I0J-45740D01*
G01Y1895000D01*
G02X2170000Y1849260I-45740J0D01*
G01X1667830D01*
X1560820Y1742250D01*
Y1540000D01*
G02X1259180I-150820J0D01*
G01Y1740000D01*
G02X1410000Y1890820I150820J0D01*
G02X1456900Y1883340I-7J-150819D01*
G01X1462830Y1881400D01*
X1564260Y1982830D01*
G37*
G36*
G01X1230000Y1969180D02*
X1030000D01*
G02Y2270820I0J150820D01*
G01X1230000D01*
G02Y1969180I0J-150820D01*
G37*
G54D46*
X630000Y830000D03*
X730000D03*
G54D45*
X3100000Y1440000D03*
Y2190000D03*
G54D44*
X702000Y3234000D03*
X9828000Y186000D03*
Y3234000D03*
%LPD*%
G75*
G36*
G01X2008700Y425350D02*
X2040000Y463800D01*
X2000000Y510150D01*
X1960000Y463800D01*
X1991300Y425350D01*
G03X2008700I8700J23860D01*
G37*
G36*
G01X2734700Y488840D02*
X2705000Y515000D01*
X2643650Y485000D01*
X2705000Y455000D01*
X2734700Y481160D01*
G03Y488840I-25110J3840D01*
G37*
G36*
G01X2746560Y472740D02*
X2800000Y428400D01*
X2866330Y477940D01*
X2800000Y528400D01*
X2748180Y499820D01*
G03X2746560Y472740I20629J-14823D01*
G37*
G36*
G01X5409570Y1738700D02*
X5371120Y1770000D01*
X5324770Y1730000D01*
X5371120Y1690000D01*
X5409570Y1721300D01*
G03Y1738700I-23860J8700D01*
G37*
G36*
G01X5914120Y2438980D02*
X5901540Y2451540D01*
X5876820Y2430000D01*
X5901540Y2408460D01*
X5914120Y2421020D01*
G03Y2438980I-8980J8980D01*
G37*
G36*
G01X5906020Y2422840D02*
X5943800Y2390000D01*
X5986980Y2430000D01*
X5943800Y2470000D01*
X5906020Y2437160D01*
G03Y2422840I10490J-7160D01*
G37*
G36*
G01X6749520Y1477780D02*
Y1460000D01*
X6782250Y1457750D01*
X6780000Y1490480D01*
X6762220D01*
G03X6749520Y1477780I0J-12700D01*
G37*
G54D10*
X150000Y223800D03*
Y376200D03*
X290000D03*
Y223800D03*
X150000Y790230D03*
Y637830D03*
X432800Y223800D03*
Y376200D03*
X680000Y637830D03*
Y790230D03*
X2000000Y503800D03*
Y656200D03*
X4756200Y180000D03*
X4603800D03*
X4670000Y2843800D03*
Y2996200D03*
X5331120Y1560000D03*
X5178720D03*
Y1870000D03*
X5331120D03*
Y1730000D03*
X5178720D03*
X5331120Y2010000D03*
X5178720D03*
X5331120Y2670000D03*
X5178720D03*
X5331120Y2530000D03*
X5178720D03*
X5957400Y590000D03*
X5805000D03*
X5957400Y1000000D03*
X5805000D03*
X5983800Y1580000D03*
X6136200D03*
Y2430000D03*
X5983800D03*
Y2290000D03*
X6136200D03*
Y2150000D03*
X5983800D03*
X6136200Y2570000D03*
X5983800D03*
X6466200Y860000D03*
X6313800D03*
X6466200Y690000D03*
X6313800D03*
X6456200Y1020000D03*
X6303800D03*
X6290000Y2417600D03*
Y2570000D03*
X6810000Y1336200D03*
Y1183800D03*
X6666800D03*
Y1336200D03*
X7710000Y646200D03*
Y493800D03*
X7360000Y1183800D03*
Y1336200D03*
X7220000Y2836200D03*
Y2683800D03*
X8000000Y646200D03*
Y493800D03*
X8200000Y646200D03*
Y493800D03*
X8103800Y840000D03*
X8480000Y646200D03*
Y493800D03*
X8256200Y840000D03*
X9135600D03*
X8833800D03*
X8986200D03*
X9288000D03*
G54D20*
X1890000Y1270000D03*
Y2010000D03*
G54D11*
X140000Y80000D03*
X220000Y880000D03*
X360000Y710000D03*
X140000Y500000D03*
X274650Y1419040D03*
X180000Y930000D03*
X274650Y1819040D03*
Y1619040D03*
Y2219040D03*
Y2019040D03*
X99040Y3235350D03*
X299040D03*
X500000Y80000D03*
X440000Y710000D03*
X680000Y500000D03*
Y410000D03*
X570000D03*
X759040Y2385350D03*
X499040Y3235350D03*
X959040Y2385350D03*
X1159040D03*
X1910000Y440000D03*
X1778790Y2394700D03*
X2326190Y931210D03*
X2126190D03*
X2378790Y2394700D03*
X2178790D03*
X1978790D03*
X2591840Y1379250D03*
Y1179250D03*
Y979250D03*
X2850000Y930000D03*
X2591840Y1579250D03*
X2980000Y3270000D03*
X3160000Y700000D03*
X3250000D03*
X3340000D03*
X3160000Y610000D03*
X3250000D03*
X3408580Y2283830D03*
Y2483830D03*
X3597060Y901640D03*
Y1301640D03*
Y1101640D03*
Y1501640D03*
X3860000Y1850000D03*
X3808580Y2283830D03*
X3608580D03*
X3808580Y2483830D03*
X3608580D03*
X4490000Y180000D03*
X4300000D03*
X4230000Y280000D03*
X4400000Y180000D03*
X4490000Y820000D03*
X4220000Y420000D03*
X4390000Y820000D03*
X4492280Y1308600D03*
X4292280D03*
X4092280D03*
X4492280Y1108600D03*
X4292280D03*
X4092280D03*
X4477500Y2113830D03*
X4277500D03*
X4077500D03*
X4680000Y280000D03*
X4800000Y860000D03*
X4600000Y820000D03*
X4692280Y1308600D03*
Y1108600D03*
X4677500Y2113830D03*
X5190000Y340000D03*
X5192280Y768600D03*
X5392280D03*
X5190000Y520000D03*
X5450000Y1730000D03*
Y1870000D03*
X5440000Y2530000D03*
X5960000Y430000D03*
X6100000Y1000000D03*
Y1400000D03*
X5870000D03*
X5830000Y1720000D03*
Y1870000D03*
Y2010000D03*
Y2170000D03*
X5630000Y2000000D03*
X5880000Y2430000D03*
X5790000Y2290000D03*
X5950000Y2840000D03*
X6200000Y700000D03*
X6600000Y770000D03*
X6470000Y1170000D03*
X6290000Y1120000D03*
X6470000Y1430000D03*
X6290000Y1580000D03*
X7080000Y780000D03*
Y540000D03*
X6890000Y750000D03*
X6740000Y1080000D03*
Y940000D03*
X7080000Y1330000D03*
Y1180000D03*
Y930000D03*
X6720000Y1860000D03*
X7150000Y1920000D03*
Y1770000D03*
X6780000Y1460000D03*
X6664990D03*
X6720000Y2010000D03*
X7150000Y2270000D03*
X6800000Y2320000D03*
X7150000Y2060000D03*
Y2140000D03*
X7120000Y2850000D03*
X7230000Y540000D03*
X7390000D03*
X7616200Y646200D03*
X7450000Y863660D03*
Y790000D03*
Y1640000D03*
X7365000Y1460000D03*
X7320000Y2690000D03*
X7820000Y1030000D03*
X8100000Y1270000D03*
X8350000Y520000D03*
X8306200Y646200D03*
X8642510Y1676320D03*
X8442510D03*
X8242510D03*
X8642510Y1476320D03*
X8442510D03*
X8242510D03*
X8290000Y2060000D03*
Y2140000D03*
X9242510Y1676320D03*
X9042510D03*
X8842510D03*
X9242510Y1476320D03*
X9042510D03*
X8842510D03*
X10280160Y130150D03*
X10080160D03*
X9960160Y990150D03*
X10160160D03*
X10060160D03*
X10260160D03*
Y2430150D03*
X10060160D03*
X10160160D03*
X9960160D03*
X10223970Y2874960D03*
X10023970D03*
X10223970Y2674960D03*
X10023970D03*
X10223970Y3274960D03*
X10023970D03*
X10223970Y3074960D03*
X10023970D03*
X10430150Y639840D03*
Y439840D03*
X10460160Y990150D03*
X10360160D03*
Y2430150D03*
X10460160D03*
X10423970Y2874960D03*
Y2674960D03*
Y3274960D03*
Y3074960D03*
G54D30*
X5500000Y1190000D03*
X5580000D03*
X5630000Y2130000D03*
X5710000D03*
G54D21*
X2000000Y190000D03*
X2860000D03*
G54D12*
X316600Y844030D03*
Y584030D03*
X411600Y844030D03*
X506600D03*
X411600Y584030D03*
X506600D03*
G54D40*
G01X150000Y223800D02*
X290000D01*
G01X316600Y584030D02*
Y402800D01*
X290000Y376200D01*
G01D02*
X432800D01*
G01X316600Y844030D02*
Y804430D01*
X150000Y637830D01*
G01X411600Y1050000D02*
X301600Y1160000D01*
X140000D01*
X100000Y1120000D01*
Y840000D01*
X149770Y790230D01*
X150000D01*
G01X2000000Y320000D02*
X530000D01*
X433800Y223800D01*
X432800D01*
G01X506600Y584030D02*
X626200D01*
X680000Y637830D01*
G01X5554920Y994500D02*
X5354500D01*
X5300000Y940000D01*
Y740000D01*
X5234460Y674460D01*
X3454460D01*
X2850000Y70000D01*
X1326000D01*
X1210000Y186000D01*
G01X4954920Y740500D02*
X3959500D01*
X3810000Y890000D01*
Y1730000D01*
X3590000Y1950000D01*
X2850000D01*
X2700000Y2100000D01*
Y2570000D01*
X2590000Y2680000D01*
X1510000D01*
X956000Y3234000D01*
G01X3386000D02*
X3233280Y3081280D01*
X3046840D01*
X2752920Y3375200D01*
X1097200D01*
X956000Y3234000D01*
G01X4390000Y820000D02*
X3950000D01*
X3850640Y919360D01*
Y1746840D01*
X3606840Y1990640D01*
X2870000D01*
X2740640Y2120000D01*
Y2586840D01*
X2606840Y2720640D01*
X1889360D01*
X1718000Y2892000D01*
Y3234000D01*
G01X3894000D02*
X3700640Y3040640D01*
X3030000D01*
X2736080Y3334560D01*
X1564560D01*
X1464000Y3234000D01*
G01X4148000D02*
X3904000Y2990000D01*
X3010000D01*
X2710000Y3290000D01*
X1770000D01*
X1718000Y3238000D01*
Y3234000D01*
G01X2390000Y485000D02*
X2485000D01*
X2520000Y520000D01*
Y640000D01*
X2485000Y675000D01*
X2390000D01*
G01X2640000Y3160000D02*
X2770000D01*
X2990000Y2940000D01*
X4190000D01*
X4540000Y3290000D01*
X5200000D01*
X5350000Y3140000D01*
Y2880000D01*
X5520000Y2710000D01*
X5710000D01*
X5930000Y2930000D01*
X7270000D01*
X7410000Y2790000D01*
Y2490000D01*
X7230000Y2310000D01*
Y2190000D01*
X7265010Y2154990D01*
X7365000D01*
G01X4954920Y613500D02*
X3559500D01*
X3132000Y186000D01*
G01X4954920Y486500D02*
X3686500D01*
X3386000Y186000D01*
G01X2980000Y3270000D02*
X3070000Y3360000D01*
X3520000D01*
X3640000Y3240000D01*
Y3234000D01*
G01X3894000Y186000D02*
X4061960Y353960D01*
X4949380D01*
X4954920Y359500D01*
G01X3640000Y186000D02*
X3870000Y416000D01*
G01D02*
X3874000Y420000D01*
X4220000D01*
G01D02*
X4216000Y416000D01*
X3870000D01*
G01X4300000Y180000D02*
X4440000Y40000D01*
X5440000D01*
X5505500Y105500D01*
X5554920D01*
G01X4400000Y180000D02*
Y170000D01*
X4464500Y105500D01*
X4954920D01*
G01X4220000Y420000D02*
X5280000D01*
X5346500Y486500D01*
X5554920D01*
G01X7398000Y3234000D02*
X7292000Y3340000D01*
X4254000D01*
X4148000Y3234000D01*
G01X5190000Y340000D02*
X5020000D01*
X5000500Y359500D01*
X4954920D01*
G01X4800000Y860000D02*
X4947420D01*
X4954920Y867500D01*
G01X6382000Y186000D02*
X6024000D01*
X5663020Y546980D01*
X5333020D01*
X5266500Y613500D01*
X4954920D01*
G01X5190000Y520000D02*
X4988420D01*
X4954920Y486500D01*
G01X4600000Y820000D02*
Y940000D01*
X4654500Y994500D01*
X4954920D01*
G01X5178720Y1560000D02*
X5053000Y1434280D01*
Y1240000D01*
G01X4670500Y1530000D02*
Y1710500D01*
X4760000Y1800000D01*
X5108720D01*
X5178720Y1870000D01*
G01Y2530000D02*
X4924500D01*
G01X5178720Y2670000D02*
X4820320D01*
X4800000Y2649680D01*
Y2532500D01*
X4797500Y2530000D01*
G01X5554920Y232500D02*
X5607500D01*
X5810640Y29360D01*
X9163360D01*
X9320000Y186000D01*
G01X5554920Y359500D02*
X5600500D01*
X5890000Y70000D01*
X6774000D01*
X6890000Y186000D01*
G01X5554920Y740500D02*
X5555420Y740000D01*
X5690000D01*
X5725000Y775000D01*
X5805000D01*
G01X5554920Y867500D02*
X5692500D01*
X5735000Y825000D01*
X5805000D01*
G01X5810000Y1130000D02*
X5551890D01*
X5500000Y1181890D01*
Y1190000D01*
G01X5540000Y1290000D02*
X5357000D01*
X5307000Y1240000D01*
G01X5580000Y1190000D02*
X5710000D01*
G01X5178720Y1870000D02*
X5090000Y1958720D01*
Y2330000D01*
X5160000Y2400000D01*
X5610000D01*
X5870000Y2660000D01*
X6900000D01*
X7015010Y2544990D01*
Y2455000D01*
G01X5670000Y2230000D02*
X5517000D01*
X5467000Y2180000D01*
G01X5213000D02*
Y2044280D01*
X5178720Y2010000D01*
G01X7064990Y2455000D02*
Y2565020D01*
X6920030Y2709980D01*
X5849980D01*
X5590000Y2450000D01*
X5260000D01*
X5180000Y2530000D01*
X5178720D01*
G01X7115010Y2455000D02*
Y2584980D01*
X6944350Y2755640D01*
X5825640D01*
X5720000Y2650000D01*
X5505640D01*
X5400000Y2755640D01*
X5264360D01*
X5178720Y2670000D01*
G01X7365000Y2254990D02*
X7438400D01*
X7458080Y2274670D01*
Y2921920D01*
X7400000Y2980000D01*
X6120000D01*
X5940000Y3160000D01*
X5490000D01*
G01X6964990Y1605000D02*
Y924300D01*
X6595710Y555020D01*
X6144980D01*
X6030000Y670000D01*
Y800000D01*
X6055000Y825000D01*
X6115000D01*
G01X5805000Y875000D02*
Y1000000D01*
G01X5957400Y590000D02*
X5960000Y592600D01*
Y840000D01*
X5925000Y875000D01*
X5805000D01*
G01Y725000D02*
Y590000D01*
G01X5820000Y1120000D02*
X5810000Y1130000D01*
G01X5710000Y1190000D02*
X6100000D01*
X6640000Y1730000D01*
X6780000D01*
X6815010Y1694990D01*
Y1605000D01*
G01X5710000Y2130000D02*
Y1190000D01*
G01X6515000Y1954990D02*
X6234990D01*
X6200000Y1920000D01*
Y1810000D01*
X6140000Y1750000D01*
X6060000D01*
G01X6515000Y2005010D02*
X6075010D01*
X6060000Y1990000D01*
G01X6115000Y775000D02*
X6228800D01*
X6313800Y690000D01*
G01X6915010Y1605000D02*
Y945010D01*
X6575000Y605000D01*
X6398800D01*
X6313800Y690000D01*
G01X6115000Y825000D02*
X6278800D01*
X6313800Y860000D01*
G01X6136200Y2290000D02*
Y2150000D01*
G01D02*
X6220000D01*
X6315010Y2054990D01*
X6515000D01*
G01X7150000Y2060000D02*
X6880000D01*
X6634990Y2305010D01*
X6515000D01*
G01X6382000Y3234000D02*
X6586000Y3030000D01*
X7550000D01*
X7805560Y3285560D01*
X8764440D01*
X8812000Y3238000D01*
Y3234000D01*
G01X6890000Y750000D02*
Y186000D01*
G01X6864990Y1605000D02*
Y1391190D01*
X6810000Y1336200D01*
G01X7150000Y2140000D02*
X6860000D01*
X6664990Y2335010D01*
Y2455000D01*
G01X7144000Y3234000D02*
X7266720Y3111280D01*
X7516320D01*
X7780240Y3375200D01*
X9434800D01*
X9574000Y3236000D01*
Y3234000D01*
G01X6636000D02*
X6799360Y3070640D01*
X7533160D01*
X7797080Y3334560D01*
X8965440D01*
X9066000Y3234000D01*
G01X7450000Y863660D02*
X7347040D01*
X7265000Y945700D01*
Y1835000D01*
X7284990Y1854990D01*
X7365000D01*
G01X7450000Y790000D02*
X7350000D01*
X7215010Y924990D01*
Y1605000D01*
G01X8000000Y140000D02*
X7890000D01*
X7830000Y200000D01*
Y730000D01*
X7539360Y1020640D01*
Y1884690D01*
X7519040Y1905010D01*
X7365000D01*
G01X8250000Y2360000D02*
Y2399990D01*
X8150610Y2499380D01*
X7679380D01*
X7630000Y2450000D01*
Y1060000D01*
X7930000Y760000D01*
X8366200D01*
X8480000Y646200D01*
G01X7365000Y1954990D02*
X7532490D01*
X7580000Y1907480D01*
Y1037480D01*
X7870640Y746840D01*
Y299360D01*
X7930000Y240000D01*
X8100000D01*
X8200000Y140000D01*
G01X9288000Y2920000D02*
X9389360Y2818640D01*
Y2629360D01*
X9350000Y2590000D01*
X7652530D01*
X7539360Y2476830D01*
Y2074670D01*
X7519680Y2054990D01*
X7365000D01*
G01Y2005010D02*
X7555700D01*
X7580000Y2029310D01*
Y2459990D01*
X7660030Y2540020D01*
X9370710D01*
X9430000Y2599310D01*
Y2808000D01*
X9542000Y2920000D01*
G01X8320000Y3160000D02*
X8290000Y3130000D01*
Y2720000D01*
X8210000Y2640000D01*
X7645050D01*
X7498720Y2493670D01*
Y2224690D01*
X7479040Y2205010D01*
X7365000D01*
G01X7710000Y340000D02*
Y493800D01*
G01X8000000Y340000D02*
Y493800D01*
G01X8480000Y340000D02*
Y493800D01*
G01X8200000D02*
Y340000D01*
G01X8290000Y2060000D02*
X9500000D01*
X9600000Y1960000D01*
Y1060000D01*
G01X8290000Y2140000D02*
X9640000D01*
X9750000Y2030000D01*
Y1060000D01*
G01X9034000Y540000D02*
Y792200D01*
X8986200Y840000D01*
G01X9320000Y186000D02*
X9454000Y320000D01*
X9610000D01*
X9700000Y410000D01*
Y770000D01*
X9860000Y930000D01*
Y2930000D01*
X9710000Y3080000D01*
X9480000D01*
X9326000Y3234000D01*
X9320000D01*
G01X9288000Y540000D02*
Y840000D01*
G54D31*
X5805000Y875000D03*
Y825000D03*
Y775000D03*
Y725000D03*
X6115000D03*
Y775000D03*
Y825000D03*
Y875000D03*
G54D13*
X208400Y1050000D03*
X411600D03*
G54D22*
X2390000Y675000D03*
Y580000D03*
Y485000D03*
X2650000D03*
Y675000D03*
G54D41*
G01X3860000Y1850000D02*
X3670000Y2040000D01*
X2900000D01*
X2800000Y2140000D01*
Y2610000D01*
X2640000Y2770000D01*
X2400000D01*
X2330000Y2840000D01*
Y3010000D01*
X2190000Y3150000D01*
Y3160000D01*
G01X5178720Y1730000D02*
X5191120D01*
X5331120Y1870000D01*
G01Y2670000D02*
Y2530000D01*
G01D02*
X5440000D01*
G01X5983800Y2430000D02*
X5880000D01*
G01X5630000Y2130000D02*
Y2070000D01*
G01X6200000Y700000D02*
X6175000Y725000D01*
X6115000D01*
G01Y875000D02*
X6158800D01*
X6303800Y1020000D01*
G01X6136200Y1580000D02*
X6290000D01*
G01D02*
X6464990Y1754990D01*
X6515000D01*
G01X6290000Y2417600D02*
Y2200000D01*
X6384990Y2105010D01*
X6515000D01*
G01X6136200Y2430000D02*
X6277600D01*
X6290000Y2417600D01*
G01Y2570000D02*
X6380000Y2480000D01*
Y2200000D01*
X6425010Y2154990D01*
X6515000D01*
G01X6136200Y2570000D02*
X6290000D01*
G01X6664990Y1460000D02*
Y1338010D01*
X6666800Y1336200D01*
G01X6715010Y1605000D02*
Y1524990D01*
X6780000Y1460000D01*
G01X6664990Y1605000D02*
Y1460000D01*
G01X7160000Y2340000D02*
X7164990Y2344990D01*
G01X7365000Y1460000D02*
Y1341200D01*
X7360000Y1336200D01*
G01X7460000Y1695880D02*
X7473150Y1709030D01*
Y1776850D01*
X7444990Y1805010D01*
X7365000D01*
G01Y1754990D02*
Y1460000D01*
G01X7164990Y2344990D02*
Y2455000D01*
G01X7215010D02*
Y2678810D01*
X7220000Y2683800D01*
G01X8000000Y646200D02*
X8200000D01*
G01X9542000Y540000D02*
X9540000Y542000D01*
Y830000D01*
X9440000Y930000D01*
X9210000D01*
X9135600Y855600D01*
Y840000D01*
G54D14*
X702000Y186000D03*
Y3234000D03*
X1210000Y186000D03*
X956000D03*
Y3234000D03*
X1210000D03*
X1718000Y186000D03*
X1464000D03*
Y3234000D03*
X1718000D03*
X3386000Y186000D03*
X3132000D03*
Y3234000D03*
X3386000D03*
X3894000Y186000D03*
X3640000D03*
Y3234000D03*
X3894000D03*
X4148000Y186000D03*
Y3234000D03*
X5053000Y1240000D03*
X5307000D03*
X5467000Y2180000D03*
X5213000D03*
X6636000Y186000D03*
X6382000D03*
Y3234000D03*
X6636000D03*
X7144000Y186000D03*
X6890000D03*
Y3234000D03*
X7144000D03*
X7398000Y186000D03*
Y3234000D03*
X9066000Y186000D03*
X8812000D03*
Y3234000D03*
X9066000D03*
X9828000Y186000D03*
X9574000D03*
X9320000D03*
Y3234000D03*
X9574000D03*
X9828000D03*
G54D23*
X2170000Y478400D03*
Y681600D03*
X2860000Y478400D03*
Y681600D03*
G54D32*
X6060000Y1750000D03*
Y1870000D03*
Y1990000D03*
G54D42*
G01X2000000Y320000D02*
Y503800D01*
G01Y190000D02*
Y320000D01*
G01X2176600Y485000D02*
X2170000Y478400D01*
G01X2390000Y485000D02*
X2176600D01*
G01X2860000Y478400D02*
Y190000D01*
G01X2650000Y485000D02*
X2853400D01*
X2860000Y478400D01*
G01X4670000Y2843800D02*
X3233800D01*
X3100000Y2710000D01*
Y2600000D01*
G01X4603800Y180000D02*
X4490000D01*
G01X4230000Y280000D02*
X4680000D01*
G01X4954920Y232500D02*
X4808700D01*
X4756200Y180000D01*
G01X4680000Y280000D02*
X4756200Y203800D01*
Y180000D01*
G01X4797500Y1530000D02*
X4800000Y1532500D01*
Y1670000D01*
X4860000Y1730000D01*
X5178720D01*
G01X4670000Y2843800D02*
Y2530500D01*
X4670500Y2530000D01*
G01X5805000Y1000000D02*
X5734780Y1070220D01*
X5289780D01*
X5190000Y1170000D01*
Y1418880D01*
X5331120Y1560000D01*
G01Y1730000D02*
X5450000D01*
G01X5331120Y1870000D02*
X5450000D01*
G01X5331120Y2010000D02*
X5480000D01*
X5610000Y1880000D01*
Y1620000D01*
X5550000Y1560000D01*
X5331120D01*
G01X5957400Y590000D02*
Y432600D01*
X5960000Y430000D01*
G01X5790000Y2290000D02*
X5983800D01*
G01X5790000D02*
Y2490010D01*
X5869990Y2570000D01*
X5983800D01*
G01X5950000Y2840000D02*
X6980000D01*
X7136200Y2683800D01*
X7220000D01*
G01X6466200Y860000D02*
Y690000D01*
G01X6666800Y1336200D02*
X6570000Y1239400D01*
Y940000D01*
X6490000Y860000D01*
X6466200D01*
G01X6303800Y1020000D02*
X6306200D01*
X6466200Y860000D01*
G01X6303800Y1020000D02*
X6290000Y1033800D01*
Y1120000D01*
G01X7616200Y646200D02*
X7710000D01*
G01X7320000Y2690000D02*
X7226200D01*
X7220000Y2683800D01*
G01X8100000Y1060000D02*
Y843800D01*
X8103800Y840000D01*
G01X8200000Y646200D02*
X8306200D01*
G01X8100000Y1060000D02*
Y1270000D01*
G54D24*
X2065000Y2910000D03*
X2765000D03*
X4915000D03*
X5615000D03*
X7745000D03*
X8445000D03*
G54D15*
X895000Y684030D03*
X1385000D03*
G54D33*
X6515000Y1905010D03*
Y1854990D03*
Y1805010D03*
Y1754990D03*
Y2305010D03*
Y2254990D03*
Y2205010D03*
Y2154990D03*
Y2105010D03*
Y2054990D03*
Y2005010D03*
Y1954990D03*
X7365000Y1754990D03*
Y1805010D03*
Y1854990D03*
Y1905010D03*
Y1954990D03*
Y2005010D03*
Y2054990D03*
Y2105010D03*
Y2154990D03*
Y2205010D03*
Y2254990D03*
Y2305010D03*
G54D43*
G01X411600Y844030D02*
Y1050000D01*
G01X1890000Y1270000D02*
X631600D01*
X411600Y1050000D01*
G01X1890000Y2010000D02*
X1710000D01*
X1410000Y1710000D01*
Y1640000D01*
G54D25*
X2190000Y3160000D03*
X2640000D03*
X5040000D03*
X5490000D03*
X7870000D03*
X8320000D03*
X9288000Y540000D03*
X9034000D03*
X9288000Y2920000D03*
X9034000D03*
X9542000Y540000D03*
Y2920000D03*
G54D16*
X810000Y1640000D03*
X1410000D03*
G54D34*
X6664990Y1605000D03*
X6715010D03*
X6764990D03*
X6815010D03*
X6864990D03*
X6915010D03*
X6964990D03*
X7015010D03*
X7064990D03*
X7115010D03*
Y2455000D03*
X7064990D03*
X7015010D03*
X6964990D03*
X6915010D03*
X6864990D03*
X6815010D03*
X6764990D03*
X6715010D03*
X6664990D03*
X7164990Y1605000D03*
X7215010D03*
Y2455000D03*
X7164990D03*
G54D26*
X3100000Y1000000D03*
Y2600000D03*
G54D17*
X1315000Y1110000D03*
X965000D03*
G54D35*
X7710000Y340000D03*
Y140000D03*
X8200000Y340000D03*
Y140000D03*
X8000000Y340000D03*
Y140000D03*
X8480000Y340000D03*
Y140000D03*
G54D36*
X7775000Y1335000D03*
Y1185000D03*
Y1935000D03*
Y1785000D03*
Y1635000D03*
Y1485000D03*
Y2235000D03*
Y2085000D03*
G54D18*
X1130000Y2120000D03*
G54D27*
X4035500Y1530000D03*
Y2530000D03*
X4416500Y1530000D03*
X4543500D03*
X4162500D03*
X4289500D03*
X4416500Y2530000D03*
X4543500D03*
X4162500D03*
X4289500D03*
X4924500Y1530000D03*
X4797500D03*
X4670500D03*
X4924500Y2530000D03*
X4670500D03*
X4797500D03*
G54D37*
X7950000Y1060000D03*
X8100000D03*
Y2360000D03*
X7950000D03*
X8250000Y1060000D03*
X8400000D03*
X8550000D03*
X8700000D03*
Y2360000D03*
X8550000D03*
X8400000D03*
X8250000D03*
X8850000Y1060000D03*
X9000000D03*
X9150000D03*
Y2360000D03*
X9000000D03*
X8850000D03*
X9300000Y1060000D03*
X9450000D03*
X9600000D03*
X9750000D03*
Y2360000D03*
X9600000D03*
X9450000D03*
X9300000D03*
G54D19*
X1740000Y875430D03*
Y552530D03*
G54D28*
X4954920Y359500D03*
Y232500D03*
Y105500D03*
Y867500D03*
Y740500D03*
Y613500D03*
Y486500D03*
Y994500D03*
X5554920Y105500D03*
Y232500D03*
Y359500D03*
Y486500D03*
Y613500D03*
Y740500D03*
Y867500D03*
Y994500D03*
G54D38*
X8780000Y540000D03*
Y2920000D03*
G54D29*
X5540000Y1290000D03*
X5670000Y2230000D03*
G54D39*
G01X0Y0D02*
X10530000D01*
Y3420000D01*
X0D01*
Y0D01*
G01X3160000Y1440000D02*
G03I-60000J0D01*
G01Y2190000D02*
G03I-60000J0D01*
M02*
