G04 ================== begin FILE IDENTIFICATION RECORD ==================*
G04 Layout Name:  F103_TUBE_CLOCK_V10A.brd*
G04 Film Name:    Drill_Legend*
G04 File Format:  Gerber RS274X*
G04 File Origin:  Cadence Allegro 17.2-S045*
G04 Origin Date:  Wed Apr 03 19:26:57 2019*
G04 *
G04 Layer:  BOARD GEOMETRY/OUTLINE*
G04 Layer:  MANUFACTURING/NCDRILL_FIGURE*
G04 Layer:  BOARD GEOMETRY/DIMENSION*
G04 Layer:  MANUFACTURING/NCDRILL_LEGEND*
G04 Layer:  MANUFACTURING/NCLEGEND-1-2*
G04 *
G04 Offset:    (0.0000 0.0000)*
G04 Mirror:    No*
G04 Mode:      Positive*
G04 Rotation:  0*
G04 FullContactRelief:  No*
G04 UndefLineWidth:     0.1524*
G04 ================== end FILE IDENTIFICATION RECORD ====================*
%FSLAX55Y55*MOMM*%
%IR0*IPPOS*OFA0.00000B0.00000*MIA0B0*SFA1.00000B1.00000*%
%AMMACRO14*
1,1,.1524,.31066,-.75*
20,1,.1524,.31066,-.75,-.31066,-.75,0.0*
1,1,.1524,-.31066,-.75*
20,1,.1524,-.31066,-.75,-.75,-.31066,0.0*
1,1,.1524,-.75,-.31066*
20,1,.1524,-.75,-.31066,-.75,.31066,0.0*
1,1,.1524,-.75,.31066*
20,1,.1524,-.75,.31066,-.31066,.75,0.0*
1,1,.1524,-.31066,.75*
20,1,.1524,-.31066,.75,.31066,.75,0.0*
1,1,.1524,.31066,.75*
20,1,.1524,.31066,.75,.75,.31066,0.0*
1,1,.1524,.75,.31066*
20,1,.1524,.75,.31066,.75,-.31066,0.0*
1,1,.1524,.75,-.31066*
20,1,.1524,.75,-.31066,.31066,-.75,0.0*
1,1,.1524,.31066,-.75*
%
%ADD14MACRO14*%
%AMMACRO11*
1,1,.1524,.4,.4*
20,1,.1524,.4,.4,.4,-.4,0.0*
1,1,.1524,.4,-.4*
20,1,.1524,.4,-.4,-.4,-.4,0.0*
1,1,.1524,-.4,-.4*
20,1,.1524,-.4,-.4,-.4,.4,0.0*
1,1,.1524,-.4,.4*
20,1,.1524,-.4,.4,.4,.4,0.0*
1,1,.1524,.4,.4*
%
%ADD11MACRO11*%
%AMMACRO10*
1,1,.1524,.1524,0.0*
20,1,.1524,.1524,0.0,-.1524,0.0,0.0*
1,1,.1524,-.1524,0.0*
1,1,.1524,0.0,.1524*
20,1,.1524,0.0,.1524,0.0,-.1524,0.0*
1,1,.1524,0.0,-.1524*
%
%ADD10MACRO10*%
%AMMACRO16*
1,1,.1524,0.0,.55*
20,1,.1524,0.0,.55,-.476314,.275,0.0*
1,1,.1524,-.476314,.275*
20,1,.1524,-.476314,.275,-.476314,-.275,0.0*
1,1,.1524,-.476314,-.275*
20,1,.1524,-.476314,-.275,0.0,-.55,0.0*
1,1,.1524,0.0,-.55*
20,1,.1524,0.0,-.55,.476314,-.275,0.0*
1,1,.1524,.476314,-.275*
20,1,.1524,.476314,-.275,.476314,.275,0.0*
1,1,.1524,.476314,.275*
20,1,.1524,.476314,.275,0.0,.55,0.0*
1,1,.1524,0.0,.55*
%
%ADD16MACRO16*%
%AMMACRO12*
1,1,.1524,-.5,-1.*
20,1,.1524,-.5,-1.,-.5,1.,0.0*
1,1,.1524,-.5,1.*
20,1,.1524,-.5,1.,-.492404,1.086824,0.0*
1,1,.1524,-.492404,1.086824*
20,1,.1524,-.492404,1.086824,-.469846,1.17101,0.0*
1,1,.1524,-.469846,1.17101*
20,1,.1524,-.469846,1.17101,-.433013,1.25,0.0*
1,1,.1524,-.433013,1.25*
20,1,.1524,-.433013,1.25,-.383022,1.321394,0.0*
1,1,.1524,-.383022,1.321394*
20,1,.1524,-.383022,1.321394,-.321394,1.383022,0.0*
1,1,.1524,-.321394,1.383022*
20,1,.1524,-.321394,1.383022,-.25,1.433013,0.0*
1,1,.1524,-.25,1.433013*
20,1,.1524,-.25,1.433013,-.17101,1.469846,0.0*
1,1,.1524,-.17101,1.469846*
20,1,.1524,-.17101,1.469846,-.086824,1.492404,0.0*
1,1,.1524,-.086824,1.492404*
20,1,.1524,-.086824,1.492404,0.0,1.5,0.0*
1,1,.1524,0.0,1.5*
20,1,.1524,0.0,1.5,.086824,1.492404,0.0*
1,1,.1524,.086824,1.492404*
20,1,.1524,.086824,1.492404,.17101,1.469846,0.0*
1,1,.1524,.17101,1.469846*
20,1,.1524,.17101,1.469846,.25,1.433013,0.0*
1,1,.1524,.25,1.433013*
20,1,.1524,.25,1.433013,.321394,1.383022,0.0*
1,1,.1524,.321394,1.383022*
20,1,.1524,.321394,1.383022,.383022,1.321394,0.0*
1,1,.1524,.383022,1.321394*
20,1,.1524,.383022,1.321394,.433013,1.25,0.0*
1,1,.1524,.433013,1.25*
20,1,.1524,.433013,1.25,.469846,1.17101,0.0*
1,1,.1524,.469846,1.17101*
20,1,.1524,.469846,1.17101,.492404,1.086824,0.0*
1,1,.1524,.492404,1.086824*
20,1,.1524,.492404,1.086824,.5,1.,0.0*
1,1,.1524,.5,1.*
20,1,.1524,.5,1.,.5,-1.,0.0*
1,1,.1524,.5,-1.*
20,1,.1524,.5,-1.,.492404,-1.086824,0.0*
1,1,.1524,.492404,-1.086824*
20,1,.1524,.492404,-1.086824,.469846,-1.17101,0.0*
1,1,.1524,.469846,-1.17101*
20,1,.1524,.469846,-1.17101,.433013,-1.25,0.0*
1,1,.1524,.433013,-1.25*
20,1,.1524,.433013,-1.25,.383022,-1.321394,0.0*
1,1,.1524,.383022,-1.321394*
20,1,.1524,.383022,-1.321394,.321394,-1.383022,0.0*
1,1,.1524,.321394,-1.383022*
20,1,.1524,.321394,-1.383022,.25,-1.433013,0.0*
1,1,.1524,.25,-1.433013*
20,1,.1524,.25,-1.433013,.17101,-1.469846,0.0*
1,1,.1524,.17101,-1.469846*
20,1,.1524,.17101,-1.469846,.086824,-1.492404,0.0*
1,1,.1524,.086824,-1.492404*
20,1,.1524,.086824,-1.492404,0.0,-1.5,0.0*
1,1,.1524,0.0,-1.5*
20,1,.1524,0.0,-1.5,-.086824,-1.492404,0.0*
1,1,.1524,-.086824,-1.492404*
20,1,.1524,-.086824,-1.492404,-.17101,-1.469846,0.0*
1,1,.1524,-.17101,-1.469846*
20,1,.1524,-.17101,-1.469846,-.25,-1.433013,0.0*
1,1,.1524,-.25,-1.433013*
20,1,.1524,-.25,-1.433013,-.321394,-1.383022,0.0*
1,1,.1524,-.321394,-1.383022*
20,1,.1524,-.321394,-1.383022,-.383022,-1.321394,0.0*
1,1,.1524,-.383022,-1.321394*
20,1,.1524,-.383022,-1.321394,-.433013,-1.25,0.0*
1,1,.1524,-.433013,-1.25*
20,1,.1524,-.433013,-1.25,-.469846,-1.17101,0.0*
1,1,.1524,-.469846,-1.17101*
20,1,.1524,-.469846,-1.17101,-.492404,-1.086824,0.0*
1,1,.1524,-.492404,-1.086824*
20,1,.1524,-.492404,-1.086824,-.5,-1.,0.0*
1,1,.1524,-.5,-1.*
1,1,.1524,-.25,-.25*
20,1,.1524,-.25,-.25,-.3167,-.2417,0.0*
1,1,.1524,-.3167,-.2417*
20,1,.1524,-.3167,-.2417,-.375,-.2083,0.0*
1,1,.1524,-.375,-.2083*
20,1,.1524,-.375,-.2083,-.425,-.1583,0.0*
1,1,.1524,-.425,-.1583*
20,1,.1524,-.425,-.1583,-.4583,-.1,0.0*
1,1,.1524,-.4583,-.1*
20,1,.1524,-.4583,-.1,-.475,-.0333,0.0*
1,1,.1524,-.475,-.0333*
20,1,.1524,-.475,-.0333,-.475,.0333,0.0*
1,1,.1524,-.475,.0333*
20,1,.1524,-.475,.0333,-.4583,.1,0.0*
1,1,.1524,-.4583,.1*
20,1,.1524,-.4583,.1,-.425,.1583,0.0*
1,1,.1524,-.425,.1583*
20,1,.1524,-.425,.1583,-.375,.2083,0.0*
1,1,.1524,-.375,.2083*
20,1,.1524,-.375,.2083,-.3167,.2417,0.0*
1,1,.1524,-.3167,.2417*
20,1,.1524,-.3167,.2417,-.25,.25,0.0*
1,1,.1524,-.25,.25*
20,1,.1524,-.25,.25,-.1833,.2417,0.0*
1,1,.1524,-.1833,.2417*
20,1,.1524,-.1833,.2417,-.125,.2083,0.0*
1,1,.1524,-.125,.2083*
20,1,.1524,-.125,.2083,-.075,.1583,0.0*
1,1,.1524,-.075,.1583*
20,1,.1524,-.075,.1583,-.0417,.1,0.0*
1,1,.1524,-.0417,.1*
20,1,.1524,-.0417,.1,-.025,.0333,0.0*
1,1,.1524,-.025,.0333*
20,1,.1524,-.025,.0333,-.025,-.0333,0.0*
1,1,.1524,-.025,-.0333*
20,1,.1524,-.025,-.0333,-.0417,-.1,0.0*
1,1,.1524,-.0417,-.1*
20,1,.1524,-.0417,-.1,-.075,-.1583,0.0*
1,1,.1524,-.075,-.1583*
20,1,.1524,-.075,-.1583,-.125,-.2083,0.0*
1,1,.1524,-.125,-.2083*
20,1,.1524,-.125,-.2083,-.1833,-.2417,0.0*
1,1,.1524,-.1833,-.2417*
20,1,.1524,-.1833,-.2417,-.25,-.25,0.0*
1,1,.1524,-.25,-.25*
1,1,.1524,.0418,-.25*
20,1,.1524,.0418,-.25,.2501,.25,0.0*
1,1,.1524,.2501,.25*
20,1,.1524,.2501,.25,.4584,-.25,0.0*
1,1,.1524,.4584,-.25*
1,1,.1524,.3834,-.075*
20,1,.1524,.3834,-.075,.1168,-.075,0.0*
1,1,.1524,.1168,-.075*
%
%ADD12MACRO12*%
%AMMACRO13*
1,1,.1524,-1.,.5*
20,1,.1524,-1.,.5,1.,.5,0.0*
1,1,.1524,1.,.5*
20,1,.1524,1.,.5,1.086824,.492404,0.0*
1,1,.1524,1.086824,.492404*
20,1,.1524,1.086824,.492404,1.17101,.469846,0.0*
1,1,.1524,1.17101,.469846*
20,1,.1524,1.17101,.469846,1.25,.433013,0.0*
1,1,.1524,1.25,.433013*
20,1,.1524,1.25,.433013,1.321394,.383022,0.0*
1,1,.1524,1.321394,.383022*
20,1,.1524,1.321394,.383022,1.383022,.321394,0.0*
1,1,.1524,1.383022,.321394*
20,1,.1524,1.383022,.321394,1.433013,.25,0.0*
1,1,.1524,1.433013,.25*
20,1,.1524,1.433013,.25,1.469846,.17101,0.0*
1,1,.1524,1.469846,.17101*
20,1,.1524,1.469846,.17101,1.492404,.086824,0.0*
1,1,.1524,1.492404,.086824*
20,1,.1524,1.492404,.086824,1.5,0.0,0.0*
1,1,.1524,1.5,0.0*
20,1,.1524,1.5,0.0,1.492404,-.086824,0.0*
1,1,.1524,1.492404,-.086824*
20,1,.1524,1.492404,-.086824,1.469846,-.17101,0.0*
1,1,.1524,1.469846,-.17101*
20,1,.1524,1.469846,-.17101,1.433013,-.25,0.0*
1,1,.1524,1.433013,-.25*
20,1,.1524,1.433013,-.25,1.383022,-.321394,0.0*
1,1,.1524,1.383022,-.321394*
20,1,.1524,1.383022,-.321394,1.321394,-.383022,0.0*
1,1,.1524,1.321394,-.383022*
20,1,.1524,1.321394,-.383022,1.25,-.433013,0.0*
1,1,.1524,1.25,-.433013*
20,1,.1524,1.25,-.433013,1.17101,-.469846,0.0*
1,1,.1524,1.17101,-.469846*
20,1,.1524,1.17101,-.469846,1.086824,-.492404,0.0*
1,1,.1524,1.086824,-.492404*
20,1,.1524,1.086824,-.492404,1.,-.5,0.0*
1,1,.1524,1.,-.5*
20,1,.1524,1.,-.5,-1.,-.5,0.0*
1,1,.1524,-1.,-.5*
20,1,.1524,-1.,-.5,-1.086824,-.492404,0.0*
1,1,.1524,-1.086824,-.492404*
20,1,.1524,-1.086824,-.492404,-1.17101,-.469846,0.0*
1,1,.1524,-1.17101,-.469846*
20,1,.1524,-1.17101,-.469846,-1.25,-.433013,0.0*
1,1,.1524,-1.25,-.433013*
20,1,.1524,-1.25,-.433013,-1.321394,-.383022,0.0*
1,1,.1524,-1.321394,-.383022*
20,1,.1524,-1.321394,-.383022,-1.383022,-.321394,0.0*
1,1,.1524,-1.383022,-.321394*
20,1,.1524,-1.383022,-.321394,-1.433013,-.25,0.0*
1,1,.1524,-1.433013,-.25*
20,1,.1524,-1.433013,-.25,-1.469846,-.17101,0.0*
1,1,.1524,-1.469846,-.17101*
20,1,.1524,-1.469846,-.17101,-1.492404,-.086824,0.0*
1,1,.1524,-1.492404,-.086824*
20,1,.1524,-1.492404,-.086824,-1.5,0.0,0.0*
1,1,.1524,-1.5,0.0*
20,1,.1524,-1.5,0.0,-1.492404,.086824,0.0*
1,1,.1524,-1.492404,.086824*
20,1,.1524,-1.492404,.086824,-1.469846,.17101,0.0*
1,1,.1524,-1.469846,.17101*
20,1,.1524,-1.469846,.17101,-1.433013,.25,0.0*
1,1,.1524,-1.433013,.25*
20,1,.1524,-1.433013,.25,-1.383022,.321394,0.0*
1,1,.1524,-1.383022,.321394*
20,1,.1524,-1.383022,.321394,-1.321394,.383022,0.0*
1,1,.1524,-1.321394,.383022*
20,1,.1524,-1.321394,.383022,-1.25,.433013,0.0*
1,1,.1524,-1.25,.433013*
20,1,.1524,-1.25,.433013,-1.17101,.469846,0.0*
1,1,.1524,-1.17101,.469846*
20,1,.1524,-1.17101,.469846,-1.086824,.492404,0.0*
1,1,.1524,-1.086824,.492404*
20,1,.1524,-1.086824,.492404,-1.,.5,0.0*
1,1,.1524,-1.,.5*
1,1,.1524,-.25,-.25*
20,1,.1524,-.25,-.25,-.3167,-.2417,0.0*
1,1,.1524,-.3167,-.2417*
20,1,.1524,-.3167,-.2417,-.375,-.2083,0.0*
1,1,.1524,-.375,-.2083*
20,1,.1524,-.375,-.2083,-.425,-.1583,0.0*
1,1,.1524,-.425,-.1583*
20,1,.1524,-.425,-.1583,-.4583,-.1,0.0*
1,1,.1524,-.4583,-.1*
20,1,.1524,-.4583,-.1,-.475,-.0333,0.0*
1,1,.1524,-.475,-.0333*
20,1,.1524,-.475,-.0333,-.475,.0333,0.0*
1,1,.1524,-.475,.0333*
20,1,.1524,-.475,.0333,-.4583,.1,0.0*
1,1,.1524,-.4583,.1*
20,1,.1524,-.4583,.1,-.425,.1583,0.0*
1,1,.1524,-.425,.1583*
20,1,.1524,-.425,.1583,-.375,.2083,0.0*
1,1,.1524,-.375,.2083*
20,1,.1524,-.375,.2083,-.3167,.2417,0.0*
1,1,.1524,-.3167,.2417*
20,1,.1524,-.3167,.2417,-.25,.25,0.0*
1,1,.1524,-.25,.25*
20,1,.1524,-.25,.25,-.1833,.2417,0.0*
1,1,.1524,-.1833,.2417*
20,1,.1524,-.1833,.2417,-.125,.2083,0.0*
1,1,.1524,-.125,.2083*
20,1,.1524,-.125,.2083,-.075,.1583,0.0*
1,1,.1524,-.075,.1583*
20,1,.1524,-.075,.1583,-.0417,.1,0.0*
1,1,.1524,-.0417,.1*
20,1,.1524,-.0417,.1,-.025,.0333,0.0*
1,1,.1524,-.025,.0333*
20,1,.1524,-.025,.0333,-.025,-.0333,0.0*
1,1,.1524,-.025,-.0333*
20,1,.1524,-.025,-.0333,-.0417,-.1,0.0*
1,1,.1524,-.0417,-.1*
20,1,.1524,-.0417,-.1,-.075,-.1583,0.0*
1,1,.1524,-.075,-.1583*
20,1,.1524,-.075,-.1583,-.125,-.2083,0.0*
1,1,.1524,-.125,-.2083*
20,1,.1524,-.125,-.2083,-.1833,-.2417,0.0*
1,1,.1524,-.1833,-.2417*
20,1,.1524,-.1833,-.2417,-.25,-.25,0.0*
1,1,.1524,-.25,-.25*
1,1,.1524,.0418,-.25*
20,1,.1524,.0418,-.25,.2501,.25,0.0*
1,1,.1524,.2501,.25*
20,1,.1524,.2501,.25,.4584,-.25,0.0*
1,1,.1524,.4584,-.25*
1,1,.1524,.3834,-.075*
20,1,.1524,.3834,-.075,.1168,-.075,0.0*
1,1,.1524,.1168,-.075*
%
%ADD13MACRO13*%
%AMMACRO15*
1,1,.1524,.45,0.0*
20,1,.1524,.45,0.0,.225,.389711,0.0*
1,1,.1524,.225,.389711*
20,1,.1524,.225,.389711,-.225,.389711,0.0*
1,1,.1524,-.225,.389711*
20,1,.1524,-.225,.389711,-.45,0.0,0.0*
1,1,.1524,-.45,0.0*
20,1,.1524,-.45,0.0,-.225,-.389711,0.0*
1,1,.1524,-.225,-.389711*
20,1,.1524,-.225,-.389711,.225,-.389711,0.0*
1,1,.1524,.225,-.389711*
20,1,.1524,.225,-.389711,.45,0.0,0.0*
1,1,.1524,.45,0.0*
%
%ADD15MACRO15*%
%ADD17C,.1*%
%ADD18C,.1524*%
G75*
%LPD*%
G75*
G54D10*
X140000Y80000D03*
X220000Y880000D03*
X360000Y710000D03*
X140000Y500000D03*
X274650Y1419040D03*
X180000Y930000D03*
X274650Y1819040D03*
Y1619040D03*
Y2219040D03*
Y2019040D03*
X99040Y3235350D03*
X299040D03*
X500000Y80000D03*
X440000Y710000D03*
X680000Y500000D03*
Y410000D03*
X570000D03*
X759040Y2385350D03*
X499040Y3235350D03*
X959040Y2385350D03*
X1159040D03*
X1910000Y440000D03*
X1778790Y2394700D03*
X2326190Y931210D03*
X2126190D03*
X2378790Y2394700D03*
X2178790D03*
X1978790D03*
X2591840Y1379250D03*
Y1179250D03*
Y979250D03*
X2850000Y930000D03*
X2591840Y1579250D03*
X2980000Y3270000D03*
X3160000Y700000D03*
X3250000D03*
X3340000D03*
X3160000Y610000D03*
X3250000D03*
X3408580Y2283830D03*
Y2483830D03*
X3597060Y901640D03*
Y1301640D03*
Y1101640D03*
Y1501640D03*
X3860000Y1850000D03*
X3808580Y2283830D03*
X3608580D03*
X3808580Y2483830D03*
X3608580D03*
X4490000Y180000D03*
X4300000D03*
X4230000Y280000D03*
X4400000Y180000D03*
X4490000Y820000D03*
X4220000Y420000D03*
X4390000Y820000D03*
X4492280Y1308600D03*
X4292280D03*
X4092280D03*
X4492280Y1108600D03*
X4292280D03*
X4092280D03*
X4477500Y2113830D03*
X4277500D03*
X4077500D03*
X4680000Y280000D03*
X4800000Y860000D03*
X4600000Y820000D03*
X4692280Y1308600D03*
Y1108600D03*
X4677500Y2113830D03*
X5190000Y340000D03*
X5192280Y768600D03*
X5392280D03*
X5190000Y520000D03*
X5450000Y1730000D03*
Y1870000D03*
X5440000Y2530000D03*
X5960000Y430000D03*
X6100000Y1000000D03*
Y1400000D03*
X5870000D03*
X5830000Y1720000D03*
Y1870000D03*
Y2010000D03*
Y2170000D03*
X5630000Y2000000D03*
X5880000Y2430000D03*
X5790000Y2290000D03*
X5950000Y2840000D03*
X6200000Y700000D03*
X6600000Y770000D03*
X6470000Y1170000D03*
X6290000Y1120000D03*
X6470000Y1430000D03*
X6290000Y1580000D03*
X7080000Y780000D03*
Y540000D03*
X6890000Y750000D03*
X6740000Y1080000D03*
Y940000D03*
X7080000Y1330000D03*
Y1180000D03*
Y930000D03*
X6720000Y1860000D03*
X7150000Y1920000D03*
Y1770000D03*
X6780000Y1460000D03*
X6664990D03*
X6720000Y2010000D03*
X7150000Y2270000D03*
X6800000Y2320000D03*
X7150000Y2060000D03*
Y2140000D03*
X7120000Y2850000D03*
X7230000Y540000D03*
X7390000D03*
X7616200Y646200D03*
X7450000Y863660D03*
Y790000D03*
Y1640000D03*
X7365000Y1460000D03*
X7320000Y2690000D03*
X7820000Y1030000D03*
X8100000Y1270000D03*
X8350000Y520000D03*
X8306200Y646200D03*
X8642510Y1676320D03*
X8442510D03*
X8242510D03*
X8642510Y1476320D03*
X8442510D03*
X8242510D03*
X8290000Y2060000D03*
Y2140000D03*
X9242510Y1676320D03*
X9042510D03*
X8842510D03*
X9242510Y1476320D03*
X9042510D03*
X8842510D03*
X10280160Y130150D03*
X10080160D03*
X9960160Y990150D03*
X10160160D03*
X10060160D03*
X10260160D03*
Y2430150D03*
X10060160D03*
X10160160D03*
X9960160D03*
X10223970Y2874960D03*
X10023970D03*
X10223970Y2674960D03*
X10023970D03*
X10223970Y3274960D03*
X10023970D03*
X10223970Y3074960D03*
X10023970D03*
X10430150Y639840D03*
Y439840D03*
X10460160Y990150D03*
X10360160D03*
Y2430150D03*
X10460160D03*
X10423970Y2874960D03*
Y2674960D03*
Y3274960D03*
Y3074960D03*
X13271730Y3752500D03*
G54D11*
X702000Y186000D03*
Y3234000D03*
X1210000Y186000D03*
X956000D03*
Y3234000D03*
X1210000D03*
X1718000Y186000D03*
X1464000D03*
Y3234000D03*
X1718000D03*
X3386000Y186000D03*
X3132000D03*
Y3234000D03*
X3386000D03*
X3894000Y186000D03*
X3640000D03*
Y3234000D03*
X3894000D03*
X4148000Y186000D03*
Y3234000D03*
X5053000Y1240000D03*
X5307000D03*
X5467000Y2180000D03*
X5213000D03*
X6636000Y186000D03*
X6382000D03*
Y3234000D03*
X6636000D03*
X7144000Y186000D03*
X6890000D03*
Y3234000D03*
X7144000D03*
X7398000Y186000D03*
Y3234000D03*
X9066000Y186000D03*
X8812000D03*
Y3234000D03*
X9066000D03*
X9828000Y186000D03*
X9574000D03*
X9320000D03*
Y3234000D03*
X9574000D03*
X9828000D03*
X13271730Y3117500D03*
G54D12*
X810000Y1640000D03*
X1410000D03*
X13271730Y-57500D03*
G54D13*
X1130000Y2120000D03*
X13271730Y577500D03*
G54D14*
X2065000Y2910000D03*
X2765000D03*
X4915000D03*
X5615000D03*
X7745000D03*
X8445000D03*
X13271730Y1212500D03*
G54D15*
X2190000Y3160000D03*
X2640000D03*
X5040000D03*
X5490000D03*
X7870000D03*
X8320000D03*
X13271730Y2482500D03*
G54D16*
X8780000Y540000D03*
Y2920000D03*
X9288000Y540000D03*
X9034000D03*
X9288000Y2920000D03*
X9034000D03*
X9542000Y540000D03*
Y2920000D03*
X13271730Y1847500D03*
G54D17*
G01X0Y0D02*
X10530000D01*
Y3420000D01*
X0D01*
Y0D01*
G01X3160000Y1440000D02*
G03I-60000J0D01*
G01Y2190000D02*
G03I-60000J0D01*
G54D18*
G01X-1947900Y1712850D02*
X-1933680Y1690620D01*
X-1914720Y1677920D01*
X-1893380Y1674750D01*
X-1874410Y1677920D01*
X-1855450Y1693800D01*
X-1843600Y1712850D01*
X-1841230Y1731900D01*
X-1845970Y1754120D01*
X-1862560Y1770000D01*
X-1879160Y1776350D01*
X-1900490D01*
G01X-1879160D02*
X-1864930Y1785870D01*
X-1853080Y1801750D01*
X-1848340Y1820800D01*
X-1853080Y1839850D01*
X-1864930Y1855720D01*
X-1886270Y1865250D01*
X-1907600Y1862080D01*
X-1928940Y1849370D01*
G01X-1676800Y1674750D02*
Y1865250D01*
X-1764520Y1728730D01*
X-1645980D01*
G01X-1514750Y1668400D02*
X-1519490Y1671580D01*
Y1677920D01*
X-1514750Y1681100D01*
X-1510010Y1677920D01*
Y1671580D01*
X-1514750Y1668400D01*
G01X-1369290Y1833500D02*
X-1355070Y1852550D01*
X-1338470Y1862080D01*
X-1319510Y1865250D01*
X-1295800Y1858900D01*
X-1279210Y1843020D01*
X-1274470Y1823980D01*
X-1276840Y1804920D01*
X-1286320Y1789050D01*
X-1333730Y1757300D01*
X-1355070Y1735070D01*
X-1369290Y1703320D01*
X-1374030Y1674750D01*
X-1274470D01*
G01X-900290Y1373500D02*
X-886070Y1392550D01*
X-869470Y1402080D01*
X-850510Y1405250D01*
X-826800Y1398900D01*
X-810210Y1383020D01*
X-805470Y1363980D01*
X-807840Y1344920D01*
X-817320Y1329050D01*
X-864730Y1297300D01*
X-886070Y1275070D01*
X-900290Y1243320D01*
X-905030Y1214750D01*
X-805470D01*
G01X-664750D02*
X-648160Y1217920D01*
X-629190Y1227450D01*
X-617340Y1243320D01*
X-612600Y1265550D01*
X-617340Y1287770D01*
X-631560Y1306820D01*
X-652900Y1316350D01*
X-676600D01*
X-690830Y1322700D01*
X-702680Y1338570D01*
X-707420Y1360800D01*
X-700310Y1383020D01*
X-683720Y1398900D01*
X-664750Y1405250D01*
X-645790Y1398900D01*
X-629190Y1383020D01*
X-622080Y1360800D01*
X-626820Y1338570D01*
X-638670Y1322700D01*
X-652900Y1316350D01*
X-676600D01*
X-697940Y1306820D01*
X-712160Y1287770D01*
X-716900Y1265550D01*
X-712160Y1243320D01*
X-700310Y1227450D01*
X-681340Y1217920D01*
X-664750Y1214750D01*
G01X-545540Y274120D02*
X-528950Y296350D01*
X-514720Y309050D01*
X-495760Y315400D01*
X-479160Y309050D01*
X-467310Y296350D01*
X-457830Y277300D01*
X-455460Y255070D01*
X-457830Y236020D01*
X-467310Y216970D01*
X-481540Y201100D01*
X-498130Y194750D01*
X-517090Y201100D01*
X-533690Y220140D01*
X-543170Y248730D01*
X-545540Y280470D01*
X-540800Y321750D01*
X-533690Y343980D01*
X-521840Y366200D01*
X-505240Y382080D01*
X-488650Y385250D01*
X-472050Y378900D01*
X-460200Y363020D01*
G01X-310000Y188400D02*
X-314740Y191580D01*
Y197920D01*
X-310000Y201100D01*
X-305260Y197920D01*
Y191580D01*
X-310000Y188400D01*
G01X-164540Y353500D02*
X-150320Y372550D01*
X-133720Y382080D01*
X-114760Y385250D01*
X-91050Y378900D01*
X-74460Y363020D01*
X-69720Y343980D01*
X-72090Y324920D01*
X-81570Y309050D01*
X-128980Y277300D01*
X-150320Y255070D01*
X-164540Y223320D01*
X-169280Y194750D01*
X-69720D01*
G01X187850Y-346680D02*
X202070Y-362550D01*
X218660Y-372080D01*
X240000Y-375250D01*
X261340Y-368900D01*
X277930Y-356200D01*
X289780Y-333980D01*
X292150Y-308580D01*
X287410Y-283180D01*
X275560Y-267300D01*
X258960Y-254600D01*
X242370Y-251430D01*
X225780Y-254600D01*
X204440Y-267300D01*
X211550Y-184750D01*
X275560D01*
G01X4079000Y-775250D02*
Y-584750D01*
X4050550Y-622850D01*
G01Y-775250D02*
X4107440D01*
G01X4269500Y-584750D02*
X4250530Y-591100D01*
X4236310Y-606980D01*
X4226830Y-626020D01*
X4219720Y-651430D01*
X4217350Y-680000D01*
X4219720Y-708580D01*
X4226830Y-733980D01*
X4236310Y-753030D01*
X4250530Y-768900D01*
X4269500Y-775250D01*
X4288460Y-768900D01*
X4302690Y-753030D01*
X4312170Y-733980D01*
X4319280Y-708580D01*
X4321650Y-680000D01*
X4319280Y-651430D01*
X4312170Y-626020D01*
X4302690Y-606980D01*
X4288460Y-591100D01*
X4269500Y-584750D01*
G01X4460000D02*
X4441030Y-591100D01*
X4426810Y-606980D01*
X4417330Y-626020D01*
X4410220Y-651430D01*
X4407850Y-680000D01*
X4410220Y-708580D01*
X4417330Y-733980D01*
X4426810Y-753030D01*
X4441030Y-768900D01*
X4460000Y-775250D01*
X4478960Y-768900D01*
X4493190Y-753030D01*
X4502670Y-733980D01*
X4509780Y-708580D01*
X4512150Y-680000D01*
X4509780Y-651430D01*
X4502670Y-626020D01*
X4493190Y-606980D01*
X4478960Y-591100D01*
X4460000Y-584750D01*
G01X4650500Y-781600D02*
X4645760Y-778420D01*
Y-772080D01*
X4650500Y-768900D01*
X4655240Y-772080D01*
Y-778420D01*
X4650500Y-781600D01*
G01X4788850Y-737150D02*
X4803070Y-759380D01*
X4822030Y-772080D01*
X4843370Y-775250D01*
X4862340Y-772080D01*
X4881300Y-756200D01*
X4893150Y-737150D01*
X4895520Y-718100D01*
X4890780Y-695880D01*
X4874190Y-680000D01*
X4857590Y-673650D01*
X4836260D01*
G01X4857590D02*
X4871820Y-664130D01*
X4883670Y-648250D01*
X4888410Y-629200D01*
X4883670Y-610150D01*
X4871820Y-594280D01*
X4850480Y-584750D01*
X4829150Y-587920D01*
X4807810Y-600630D01*
G01X4819000Y-1205250D02*
Y-1014750D01*
X4790550Y-1052850D01*
G01Y-1205250D02*
X4847440D01*
G01X5009500Y-1014750D02*
X4990530Y-1021100D01*
X4976310Y-1036980D01*
X4966830Y-1056020D01*
X4959720Y-1081430D01*
X4957350Y-1110000D01*
X4959720Y-1138580D01*
X4966830Y-1163980D01*
X4976310Y-1183030D01*
X4990530Y-1198900D01*
X5009500Y-1205250D01*
X5028460Y-1198900D01*
X5042690Y-1183030D01*
X5052170Y-1163980D01*
X5059280Y-1138580D01*
X5061650Y-1110000D01*
X5059280Y-1081430D01*
X5052170Y-1056020D01*
X5042690Y-1036980D01*
X5028460Y-1021100D01*
X5009500Y-1014750D01*
G01X5147850Y-1176680D02*
X5162070Y-1192550D01*
X5178660Y-1202080D01*
X5200000Y-1205250D01*
X5221340Y-1198900D01*
X5237930Y-1186200D01*
X5249780Y-1163980D01*
X5252150Y-1138580D01*
X5247410Y-1113180D01*
X5235560Y-1097300D01*
X5218960Y-1084600D01*
X5202370Y-1081430D01*
X5185780Y-1084600D01*
X5164440Y-1097300D01*
X5171550Y-1014750D01*
X5235560D01*
G01X5390500Y-1211600D02*
X5385760Y-1208420D01*
Y-1202080D01*
X5390500Y-1198900D01*
X5395240Y-1202080D01*
Y-1208420D01*
X5390500Y-1211600D01*
G01X5528850Y-1167150D02*
X5543070Y-1189380D01*
X5562030Y-1202080D01*
X5583370Y-1205250D01*
X5602340Y-1202080D01*
X5621300Y-1186200D01*
X5633150Y-1167150D01*
X5635520Y-1148100D01*
X5630780Y-1125880D01*
X5614190Y-1110000D01*
X5597590Y-1103650D01*
X5576260D01*
G01X5597590D02*
X5611820Y-1094130D01*
X5623670Y-1078250D01*
X5628410Y-1059200D01*
X5623670Y-1040150D01*
X5611820Y-1024280D01*
X5590480Y-1014750D01*
X5569150Y-1017920D01*
X5547810Y-1030630D01*
G01X-250000Y0D02*
X-1860000D01*
G01X-250000Y3420000D02*
X-1860000D01*
G01X-1610000Y1524260D02*
Y0D01*
G01X-1672500Y400000D02*
X-1610000Y0D01*
X-1547500Y400000D01*
X-1672500D01*
G01X-1610000Y2015740D02*
Y3420000D01*
G01X-1547500Y3020000D02*
X-1610000Y3420000D01*
X-1672500Y3020000D01*
X-1547500D01*
G01X-250000Y0D02*
X-1010000D01*
G01X-760000Y1064260D02*
Y0D01*
G01X-822500Y400000D02*
X-760000Y0D01*
X-697500Y400000D01*
X-822500D01*
G01X-760000Y1555740D02*
Y2800000D01*
G01X-697500Y2400000D02*
X-760000Y2800000D01*
X-822500Y2400000D01*
X-697500D01*
G01X250000Y2800000D02*
X-1010000D01*
G01X-247500Y-400000D02*
X-310000Y0D01*
X-372500Y-400000D01*
X-247500D01*
G01X-400000Y-342500D02*
X0Y-280000D01*
X-400000Y-217500D01*
Y-342500D01*
G01X-250000Y0D02*
X-560000D01*
G01X-310000Y44260D02*
Y0D01*
G01X9780000Y620000D02*
X-560000D01*
G01X-310000Y535740D02*
Y620000D01*
G01X-372500Y1020000D02*
X-310000Y620000D01*
X-247500Y1020000D01*
X-372500D01*
G01X0Y-250000D02*
Y-1360000D01*
G01Y-250000D02*
Y-930000D01*
G01X400000Y-617500D02*
X0Y-680000D01*
X400000Y-742500D01*
Y-617500D01*
G01X4597390Y-1110000D02*
X0D01*
G01X400000Y-1047500D02*
X0Y-1110000D01*
X400000Y-1172500D01*
Y-1047500D01*
G01X3857390Y-680000D02*
X0D01*
G01Y-250000D02*
Y-530000D01*
G01X18390Y-280000D02*
X0D01*
G01X500000Y2550000D02*
Y-530000D01*
G01X461610Y-280000D02*
X500000D01*
G01X900000Y-217500D02*
X500000Y-280000D01*
X900000Y-342500D01*
Y-217500D01*
G01X5062610Y-680000D02*
X10030000D01*
G01X5802610Y-1110000D02*
X10530000D01*
G01X9630000Y-742500D02*
X10030000Y-680000D01*
X9630000Y-617500D01*
Y-742500D01*
G01X10030000Y370000D02*
Y-930000D01*
G01X10130000Y-1172500D02*
X10530000Y-1110000D01*
X10130000Y-1047500D01*
Y-1172500D01*
G01X10530000Y-250000D02*
Y-1360000D01*
G01X12130000Y-375000D02*
Y5990000D01*
X27956740D01*
Y-375000D01*
X12130000D01*
G01Y260000D02*
X27956740D01*
G01X12130000Y895000D02*
X27956740D01*
G01X12130000Y1530000D02*
X27956740D01*
G01X12130000Y2165000D02*
X27956740D01*
G01X12130000Y2800000D02*
X27956740D01*
G01X12130000Y3435000D02*
X27956740D01*
G01X12409520Y4228750D02*
Y4546250D01*
X12559140D01*
G01X12504010Y4392800D02*
X12409520D01*
G01X12752050Y4546250D02*
X12846530D01*
G01X12799290D02*
Y4228750D01*
G01X12752050D02*
X12846530D01*
G01X13137870Y4387500D02*
X13216620D01*
Y4292250D01*
X13192990Y4260490D01*
X13165430Y4239330D01*
X13126060Y4228750D01*
X13086690Y4239330D01*
X13059130Y4260490D01*
X13035510Y4292250D01*
X13019760Y4329290D01*
X13011880Y4371620D01*
Y4408670D01*
X13019760Y4440410D01*
X13035510Y4477460D01*
X13059130Y4509210D01*
X13082750Y4530370D01*
X13114250Y4546250D01*
X13141810D01*
X13173300Y4535670D01*
X13196930Y4514500D01*
G01X13342600Y4546250D02*
Y4318710D01*
X13358340Y4271070D01*
X13389840Y4239330D01*
X13429210Y4228750D01*
X13468580Y4239330D01*
X13500080Y4271070D01*
X13515820Y4318710D01*
Y4546250D01*
G01X13665430Y4228750D02*
Y4546250D01*
X13763850D01*
X13795350Y4530370D01*
X13815040Y4509210D01*
X13822910Y4466870D01*
X13815040Y4424540D01*
X13791410Y4398090D01*
X13763850Y4382200D01*
X13665430D01*
G01X13763850D02*
X13822910Y4228750D01*
G01X14137870D02*
X13980390D01*
Y4546250D01*
X14137870D01*
G01X14074880Y4392800D02*
X13980390D01*
G01X12130000Y4070000D02*
X27956740D01*
G01X12130000Y4705000D02*
X27956740D01*
G01X12130000Y5340000D02*
X27956740D01*
G01X14413460Y4705000D02*
Y-375000D01*
G01X15007940Y4228750D02*
Y4546250D01*
X15157560D01*
G01X15102430Y4392800D02*
X15007940D01*
G01X15350470Y4546250D02*
X15444950D01*
G01X15397710D02*
Y4228750D01*
G01X15350470D02*
X15444950D01*
G01X15622120D02*
Y4546250D01*
X15803220Y4228750D01*
Y4546250D01*
G01X15980390D02*
X16074870D01*
G01X16027630D02*
Y4228750D01*
G01X15980390D02*
X16074870D01*
G01X16259910Y4271070D02*
X16291410Y4244620D01*
X16326840Y4228750D01*
X16358340D01*
X16389830Y4244620D01*
X16413460Y4271070D01*
X16425270Y4308130D01*
X16417400Y4345160D01*
X16397710Y4376910D01*
X16362270Y4398090D01*
X16315030Y4408670D01*
X16287470Y4429830D01*
X16275660Y4466870D01*
X16283540Y4503920D01*
X16303220Y4530370D01*
X16330780Y4546250D01*
X16358340D01*
X16385900Y4535670D01*
X16409520Y4509210D01*
G01X16574870Y4228750D02*
Y4546250D01*
G01X16740230D02*
Y4228750D01*
G01Y4387500D02*
X16574870D01*
G01X17051250Y4228750D02*
X16893770D01*
Y4546250D01*
X17051250D01*
G01X16988260Y4392800D02*
X16893770D01*
G01X17200860Y4228750D02*
Y4546250D01*
X17279590D01*
X17311090Y4530370D01*
X17334710Y4509210D01*
X17354400Y4477460D01*
X17370150Y4440410D01*
X17374080Y4387500D01*
X17370150Y4334580D01*
X17354400Y4297540D01*
X17334710Y4265780D01*
X17311090Y4244620D01*
X17279590Y4228750D01*
X17200860D01*
G01X17484320Y4122920D02*
X17720540D01*
G01X17834710Y4271070D02*
X17866210Y4244620D01*
X17901640Y4228750D01*
X17933140D01*
X17964630Y4244620D01*
X17988260Y4271070D01*
X18000070Y4308130D01*
X17992200Y4345160D01*
X17972510Y4376910D01*
X17937070Y4398090D01*
X17889830Y4408670D01*
X17862270Y4429830D01*
X17850460Y4466870D01*
X17858340Y4503920D01*
X17878020Y4530370D01*
X17905580Y4546250D01*
X17933140D01*
X17960700Y4535670D01*
X17984320Y4509210D01*
G01X18185110Y4546250D02*
X18279590D01*
G01X18232350D02*
Y4228750D01*
G01X18185110D02*
X18279590D01*
G01X18472500Y4546250D02*
X18622120D01*
X18472500Y4228750D01*
X18622120D01*
G01X18941010D02*
X18783530D01*
Y4546250D01*
X18941010D01*
G01X18878020Y4392800D02*
X18783530D01*
G01X15941020Y-152750D02*
X15964630Y-189800D01*
X15996130Y-210960D01*
X16031570Y-216250D01*
X16063070Y-210960D01*
X16094560Y-184510D01*
X16114240Y-152750D01*
X16118180Y-121000D01*
X16110310Y-83970D01*
X16082750Y-57500D01*
X16055190Y-46910D01*
X16019750D01*
G01X16055190D02*
X16078810Y-31040D01*
X16098500Y-4590D01*
X16106370Y27160D01*
X16098500Y58920D01*
X16078810Y85370D01*
X16043380Y101250D01*
X16007950Y95960D01*
X15972510Y74790D01*
G01X16342590Y-226830D02*
X16334710Y-221540D01*
Y-210960D01*
X16342590Y-205670D01*
X16350470Y-210960D01*
Y-221540D01*
X16342590Y-226830D01*
G01X16657550Y101250D02*
X16626050Y90670D01*
X16602430Y64210D01*
X16586680Y32460D01*
X16574870Y-9880D01*
X16570940Y-57500D01*
X16574870Y-105130D01*
X16586680Y-147460D01*
X16602430Y-179220D01*
X16626050Y-205670D01*
X16657550Y-216250D01*
X16689040Y-205670D01*
X16712670Y-179220D01*
X16728420Y-147460D01*
X16740230Y-105130D01*
X16744160Y-57500D01*
X16740230Y-9880D01*
X16728420Y32460D01*
X16712670Y64210D01*
X16689040Y90670D01*
X16657550Y101250D01*
G01X16913460Y-4590D02*
X17031560Y-216250D01*
G01Y-4590D02*
X16913460Y-216250D01*
G01X17287470D02*
Y101250D01*
X17240230Y37750D01*
G01Y-216250D02*
X17334710D01*
G01X17602430Y-226830D02*
X17594550Y-221540D01*
Y-210960D01*
X17602430Y-205670D01*
X17610310Y-210960D01*
Y-221540D01*
X17602430Y-226830D01*
G01X17917390Y101250D02*
X17885890Y90670D01*
X17862270Y64210D01*
X17846520Y32460D01*
X17834710Y-9880D01*
X17830780Y-57500D01*
X17834710Y-105130D01*
X17846520Y-147460D01*
X17862270Y-179220D01*
X17885890Y-205670D01*
X17917390Y-216250D01*
X17948880Y-205670D01*
X17972510Y-179220D01*
X17988260Y-147460D01*
X18000070Y-105130D01*
X18004000Y-57500D01*
X18000070Y-9880D01*
X17988260Y32460D01*
X17972510Y64210D01*
X17948880Y90670D01*
X17917390Y101250D01*
G01X15941020Y482250D02*
X15964630Y445200D01*
X15996130Y424040D01*
X16031570Y418750D01*
X16063070Y424040D01*
X16094560Y450490D01*
X16114240Y482250D01*
X16118180Y514000D01*
X16110310Y551030D01*
X16082750Y577500D01*
X16055190Y588090D01*
X16019750D01*
G01X16055190D02*
X16078810Y603960D01*
X16098500Y630410D01*
X16106370Y662160D01*
X16098500Y693920D01*
X16078810Y720370D01*
X16043380Y736250D01*
X16007950Y730960D01*
X15972510Y709790D01*
G01X16342590Y408170D02*
X16334710Y413460D01*
Y424040D01*
X16342590Y429330D01*
X16350470Y424040D01*
Y413460D01*
X16342590Y408170D01*
G01X16657550Y736250D02*
X16626050Y725670D01*
X16602430Y699210D01*
X16586680Y667460D01*
X16574870Y625120D01*
X16570940Y577500D01*
X16574870Y529870D01*
X16586680Y487540D01*
X16602430Y455780D01*
X16626050Y429330D01*
X16657550Y418750D01*
X16689040Y429330D01*
X16712670Y455780D01*
X16728420Y487540D01*
X16740230Y529870D01*
X16744160Y577500D01*
X16740230Y625120D01*
X16728420Y667460D01*
X16712670Y699210D01*
X16689040Y725670D01*
X16657550Y736250D01*
G01X16913460Y630410D02*
X17031560Y418750D01*
G01Y630410D02*
X16913460Y418750D01*
G01X17287470D02*
Y736250D01*
X17240230Y672750D01*
G01Y418750D02*
X17334710D01*
G01X17602430Y408170D02*
X17594550Y413460D01*
Y424040D01*
X17602430Y429330D01*
X17610310Y424040D01*
Y413460D01*
X17602430Y408170D01*
G01X17917390Y736250D02*
X17885890Y725670D01*
X17862270Y699210D01*
X17846520Y667460D01*
X17834710Y625120D01*
X17830780Y577500D01*
X17834710Y529870D01*
X17846520Y487540D01*
X17862270Y455780D01*
X17885890Y429330D01*
X17917390Y418750D01*
X17948880Y429330D01*
X17972510Y455780D01*
X17988260Y487540D01*
X18000070Y529870D01*
X18004000Y577500D01*
X18000070Y625120D01*
X17988260Y667460D01*
X17972510Y699210D01*
X17948880Y725670D01*
X17917390Y736250D01*
G01X15692980Y4863750D02*
X15791410Y5181250D01*
X15889840Y4863750D01*
G01X15854400Y4974870D02*
X15728410D01*
G01X16027630Y5181250D02*
Y4863750D01*
X16185110D01*
G01X16342590Y5181250D02*
Y4863750D01*
X16500070D01*
G01X16964640Y5181250D02*
Y4953710D01*
X16980380Y4906070D01*
X17011880Y4874330D01*
X17051250Y4863750D01*
X17090620Y4874330D01*
X17122120Y4906070D01*
X17137860Y4953710D01*
Y5181250D01*
G01X17275660Y4863750D02*
Y5181250D01*
X17456760Y4863750D01*
Y5181250D01*
G01X17633930D02*
X17728410D01*
G01X17681170D02*
Y4863750D01*
G01X17633930D02*
X17728410D01*
G01X17996130Y5181250D02*
Y4863750D01*
G01X17905580Y5181250D02*
X18086680D01*
G01X18228410Y4906070D02*
X18259910Y4879620D01*
X18295340Y4863750D01*
X18326840D01*
X18358330Y4879620D01*
X18381960Y4906070D01*
X18393770Y4943130D01*
X18385900Y4980160D01*
X18366210Y5011910D01*
X18330770Y5033090D01*
X18283530Y5043670D01*
X18255970Y5064830D01*
X18244160Y5101870D01*
X18252040Y5138920D01*
X18271720Y5165370D01*
X18299280Y5181250D01*
X18326840D01*
X18354400Y5170670D01*
X18378020Y5144210D01*
G01X18842580Y4863750D02*
X18941010Y5181250D01*
X19039440Y4863750D01*
G01X19004000Y4974870D02*
X18878010D01*
G01X19177230Y4863750D02*
Y5181250D01*
X19275650D01*
X19307150Y5165370D01*
X19326840Y5144210D01*
X19334710Y5101870D01*
X19326840Y5059540D01*
X19303210Y5033090D01*
X19275650Y5017200D01*
X19177230D01*
G01X19275650D02*
X19334710Y4863750D01*
G01X19649670D02*
X19492190D01*
Y5181250D01*
X19649670D01*
G01X19586680Y5027800D02*
X19492190D01*
G01X20153610Y5181250D02*
X20248090D01*
G01X20200850D02*
Y4863750D01*
G01X20153610D02*
X20248090D01*
G01X20425260D02*
Y5181250D01*
X20606360Y4863750D01*
Y5181250D01*
G01X21043360Y4863750D02*
Y5181250D01*
X21145730Y4916670D01*
X21248100Y5181250D01*
Y4863750D01*
G01X21413450Y5181250D02*
X21507930D01*
G01X21460690D02*
Y4863750D01*
G01X21413450D02*
X21507930D01*
G01X21696910Y5181250D02*
Y4863750D01*
X21854390D01*
G01X22011870Y5181250D02*
Y4863750D01*
X22169350D01*
G01X22358330Y5181250D02*
X22452810D01*
G01X22405570D02*
Y4863750D01*
G01X22358330D02*
X22452810D01*
G01X22618160D02*
Y5181250D01*
X22720530Y4916670D01*
X22822900Y5181250D01*
Y4863750D01*
G01X23114230D02*
X22956750D01*
Y5181250D01*
X23114230D01*
G01X23051240Y5027800D02*
X22956750D01*
G01X23350450Y5181250D02*
Y4863750D01*
G01X23259900Y5181250D02*
X23441000D01*
G01X23744150Y4863750D02*
X23586670D01*
Y5181250D01*
X23744150D01*
G01X23681160Y5027800D02*
X23586670D01*
G01X23901630Y4863750D02*
Y5181250D01*
X24000050D01*
X24031550Y5165370D01*
X24051240Y5144210D01*
X24059110Y5101870D01*
X24051240Y5059540D01*
X24027610Y5033090D01*
X24000050Y5017200D01*
X23901630D01*
G01X24000050D02*
X24059110Y4863750D01*
G01X24212650Y4906070D02*
X24244150Y4879620D01*
X24279580Y4863750D01*
X24311080D01*
X24342570Y4879620D01*
X24366200Y4906070D01*
X24378010Y4943130D01*
X24370140Y4980160D01*
X24350450Y5011910D01*
X24315010Y5033090D01*
X24267770Y5043670D01*
X24240210Y5064830D01*
X24228400Y5101870D01*
X24236280Y5138920D01*
X24255960Y5165370D01*
X24283520Y5181250D01*
X24311080D01*
X24338640Y5170670D01*
X24362260Y5144210D01*
G01X16019760Y5513750D02*
Y5831250D01*
X16098490D01*
X16129990Y5815370D01*
X16153610Y5794210D01*
X16173300Y5762460D01*
X16189050Y5725410D01*
X16192980Y5672500D01*
X16189050Y5619580D01*
X16173300Y5582540D01*
X16153610Y5550780D01*
X16129990Y5529620D01*
X16098490Y5513750D01*
X16019760D01*
G01X16342590D02*
Y5831250D01*
X16441010D01*
X16472510Y5815370D01*
X16492200Y5794210D01*
X16500070Y5751870D01*
X16492200Y5709540D01*
X16468570Y5683090D01*
X16441010Y5667200D01*
X16342590D01*
G01X16441010D02*
X16500070Y5513750D01*
G01X16689050Y5831250D02*
X16783530D01*
G01X16736290D02*
Y5513750D01*
G01X16689050D02*
X16783530D01*
G01X16972510Y5831250D02*
Y5513750D01*
X17129990D01*
G01X17287470Y5831250D02*
Y5513750D01*
X17444950D01*
G01X18082740Y5804790D02*
X18059120Y5820670D01*
X18031570Y5831250D01*
X18000070D01*
X17964630Y5815370D01*
X17937080Y5788920D01*
X17917390Y5757160D01*
X17901640Y5704250D01*
X17897700Y5656620D01*
X17905580Y5609000D01*
X17917390Y5577250D01*
X17941010Y5545490D01*
X17968570Y5524330D01*
X17996130Y5513750D01*
X18023690D01*
X18051250Y5524330D01*
X18074870Y5540200D01*
X18094560Y5561360D01*
G01X18228410Y5513750D02*
Y5831250D01*
G01X18393770D02*
Y5513750D01*
G01Y5672500D02*
X18228410D01*
G01X18527620Y5513750D02*
X18626050Y5831250D01*
X18724480Y5513750D01*
G01X18689040Y5624870D02*
X18563050D01*
G01X18862270Y5513750D02*
Y5831250D01*
X18960690D01*
X18992190Y5815370D01*
X19011880Y5794210D01*
X19019750Y5751870D01*
X19011880Y5709540D01*
X18988250Y5683090D01*
X18960690Y5667200D01*
X18862270D01*
G01X18960690D02*
X19019750Y5513750D01*
G01X19255970Y5831250D02*
Y5513750D01*
G01X19165420Y5831250D02*
X19346520D01*
G01X19570930Y5503170D02*
X19563050Y5508460D01*
Y5519040D01*
X19570930Y5524330D01*
X19578810Y5519040D01*
Y5508460D01*
X19570930Y5503170D01*
G01Y5646030D02*
X19563050Y5651330D01*
Y5661910D01*
X19570930Y5667200D01*
X19578810Y5661910D01*
Y5651330D01*
X19570930Y5646030D01*
G01X20200850Y5831250D02*
Y5513750D01*
G01X20110300Y5831250D02*
X20291400D01*
G01X20515810Y5513750D02*
X20484310Y5519040D01*
X20456760Y5540200D01*
X20433130Y5571960D01*
X20417380Y5609000D01*
X20409510Y5651330D01*
Y5693670D01*
X20417380Y5736000D01*
X20433130Y5773040D01*
X20456760Y5804790D01*
X20484310Y5825960D01*
X20515810Y5831250D01*
X20547300Y5825960D01*
X20574860Y5804790D01*
X20598490Y5773040D01*
X20614240Y5736000D01*
X20622110Y5693670D01*
Y5651330D01*
X20614240Y5609000D01*
X20598490Y5571960D01*
X20574860Y5540200D01*
X20547300Y5519040D01*
X20515810Y5513750D01*
G01X20752030D02*
Y5831250D01*
X20846520D01*
X20878010Y5815370D01*
X20901640Y5778330D01*
X20909510Y5736000D01*
X20901640Y5693670D01*
X20881950Y5661910D01*
X20846520Y5646030D01*
X20752030D01*
G01X21460690Y5831250D02*
Y5513750D01*
G01X21405570Y5725410D02*
X21515810D01*
G01X21775650Y5513750D02*
X21752030Y5519040D01*
X21728410Y5540200D01*
X21712650Y5577250D01*
X21704780Y5619580D01*
X21712650Y5661910D01*
X21728410Y5698960D01*
X21752030Y5720120D01*
X21775650Y5725410D01*
X21799270Y5720120D01*
X21822890Y5698960D01*
X21838640Y5661910D01*
X21842580Y5619580D01*
X21838640Y5577250D01*
X21822890Y5540200D01*
X21799270Y5519040D01*
X21775650Y5513750D01*
G01X22437060Y5683090D02*
X22452810Y5698960D01*
X22464620Y5725410D01*
X22472500Y5762460D01*
X22464620Y5794210D01*
X22448880Y5815370D01*
X22421320Y5831250D01*
X22315020D01*
Y5513750D01*
X22444940D01*
X22472500Y5534910D01*
X22488250Y5566670D01*
X22496120Y5603710D01*
X22488250Y5640740D01*
X22464620Y5672500D01*
X22437060Y5683090D01*
X22315020D01*
G01X22720530Y5513750D02*
X22689030Y5519040D01*
X22661480Y5540200D01*
X22637850Y5571960D01*
X22622100Y5609000D01*
X22614230Y5651330D01*
Y5693670D01*
X22622100Y5736000D01*
X22637850Y5773040D01*
X22661480Y5804790D01*
X22689030Y5825960D01*
X22720530Y5831250D01*
X22752020Y5825960D01*
X22779580Y5804790D01*
X22803210Y5773040D01*
X22818960Y5736000D01*
X22826830Y5693670D01*
Y5651330D01*
X22818960Y5609000D01*
X22803210Y5571960D01*
X22779580Y5540200D01*
X22752020Y5519040D01*
X22720530Y5513750D01*
G01X23035490Y5831250D02*
Y5513750D01*
G01X22944940Y5831250D02*
X23126040D01*
G01X23350450D02*
Y5513750D01*
G01X23259900Y5831250D02*
X23441000D01*
G01X23665410Y5513750D02*
X23633910Y5519040D01*
X23606360Y5540200D01*
X23582730Y5571960D01*
X23566980Y5609000D01*
X23559110Y5651330D01*
Y5693670D01*
X23566980Y5736000D01*
X23582730Y5773040D01*
X23606360Y5804790D01*
X23633910Y5825960D01*
X23665410Y5831250D01*
X23696900Y5825960D01*
X23724460Y5804790D01*
X23748090Y5773040D01*
X23763840Y5736000D01*
X23771710Y5693670D01*
Y5651330D01*
X23763840Y5609000D01*
X23748090Y5571960D01*
X23724460Y5540200D01*
X23696900Y5519040D01*
X23665410Y5513750D01*
G01X23878000D02*
Y5831250D01*
X23980370Y5566670D01*
X24082740Y5831250D01*
Y5513750D01*
G01X16657550Y1053750D02*
Y1371250D01*
X16610310Y1307750D01*
G01Y1053750D02*
X16704790D01*
G01X16972510Y1043170D02*
X16964630Y1048460D01*
Y1059040D01*
X16972510Y1064330D01*
X16980390Y1059040D01*
Y1048460D01*
X16972510Y1043170D01*
G01X17200860Y1101360D02*
X17224470Y1074910D01*
X17252030Y1059040D01*
X17287470Y1053750D01*
X17322910Y1064330D01*
X17350460Y1085490D01*
X17370150Y1122540D01*
X17374080Y1164870D01*
X17366210Y1207200D01*
X17346520Y1233670D01*
X17318960Y1254830D01*
X17291410Y1260120D01*
X17263850Y1254830D01*
X17228420Y1233670D01*
X17240230Y1371250D01*
X17346520D01*
G01X16657550Y1688750D02*
Y2006250D01*
X16610310Y1942750D01*
G01Y1688750D02*
X16704790D01*
G01X16972510Y1678170D02*
X16964630Y1683460D01*
Y1694040D01*
X16972510Y1699330D01*
X16980390Y1694040D01*
Y1683460D01*
X16972510Y1678170D01*
G01X17287470Y1688750D02*
Y2006250D01*
X17240230Y1942750D01*
G01Y1688750D02*
X17334710D01*
G01X16657550Y2641250D02*
X16626050Y2630670D01*
X16602430Y2604210D01*
X16586680Y2572460D01*
X16574870Y2530120D01*
X16570940Y2482500D01*
X16574870Y2434870D01*
X16586680Y2392540D01*
X16602430Y2360780D01*
X16626050Y2334330D01*
X16657550Y2323750D01*
X16689040Y2334330D01*
X16712670Y2360780D01*
X16728420Y2392540D01*
X16740230Y2434870D01*
X16744160Y2482500D01*
X16740230Y2530120D01*
X16728420Y2572460D01*
X16712670Y2604210D01*
X16689040Y2630670D01*
X16657550Y2641250D01*
G01X16972510Y2313170D02*
X16964630Y2318460D01*
Y2329040D01*
X16972510Y2334330D01*
X16980390Y2329040D01*
Y2318460D01*
X16972510Y2313170D01*
G01X17220540Y2360780D02*
X17248100Y2334330D01*
X17279590Y2323750D01*
X17311090Y2334330D01*
X17338650Y2366070D01*
X17358340Y2413710D01*
X17366210Y2461330D01*
Y2519540D01*
X17358340Y2567160D01*
X17338650Y2609500D01*
X17315030Y2630670D01*
X17287470Y2641250D01*
X17255970Y2630670D01*
X17232350Y2609500D01*
X17216600Y2577750D01*
X17208730Y2535410D01*
X17216600Y2498380D01*
X17236290Y2461330D01*
X17259910Y2440160D01*
X17287470Y2434870D01*
X17318960Y2445450D01*
X17342590Y2471910D01*
X17366210Y2519540D01*
G01X16657550Y3276250D02*
X16626050Y3265670D01*
X16602430Y3239210D01*
X16586680Y3207460D01*
X16574870Y3165120D01*
X16570940Y3117500D01*
X16574870Y3069870D01*
X16586680Y3027540D01*
X16602430Y2995780D01*
X16626050Y2969330D01*
X16657550Y2958750D01*
X16689040Y2969330D01*
X16712670Y2995780D01*
X16728420Y3027540D01*
X16740230Y3069870D01*
X16744160Y3117500D01*
X16740230Y3165120D01*
X16728420Y3207460D01*
X16712670Y3239210D01*
X16689040Y3265670D01*
X16657550Y3276250D01*
G01X16972510Y2948170D02*
X16964630Y2953460D01*
Y2964040D01*
X16972510Y2969330D01*
X16980390Y2964040D01*
Y2953460D01*
X16972510Y2948170D01*
G01X17287470Y2958750D02*
X17315030Y2964040D01*
X17346520Y2979910D01*
X17366210Y3006360D01*
X17374080Y3043420D01*
X17366210Y3080450D01*
X17342590Y3112200D01*
X17307150Y3128090D01*
X17267790D01*
X17244160Y3138670D01*
X17224470Y3165120D01*
X17216600Y3202160D01*
X17228420Y3239210D01*
X17255970Y3265670D01*
X17287470Y3276250D01*
X17318960Y3265670D01*
X17346520Y3239210D01*
X17358340Y3202160D01*
X17350460Y3165120D01*
X17330780Y3138670D01*
X17307150Y3128090D01*
X17267790D01*
X17232350Y3112200D01*
X17208730Y3080450D01*
X17200860Y3043420D01*
X17208730Y3006360D01*
X17228420Y2979910D01*
X17259910Y2964040D01*
X17287470Y2958750D01*
G01X16185110Y3911250D02*
X16153610Y3900670D01*
X16129990Y3874210D01*
X16114240Y3842460D01*
X16102430Y3800120D01*
X16098500Y3752500D01*
X16102430Y3704870D01*
X16114240Y3662540D01*
X16129990Y3630780D01*
X16153610Y3604330D01*
X16185110Y3593750D01*
X16216600Y3604330D01*
X16240230Y3630780D01*
X16255980Y3662540D01*
X16267790Y3704870D01*
X16271720Y3752500D01*
X16267790Y3800120D01*
X16255980Y3842460D01*
X16240230Y3874210D01*
X16216600Y3900670D01*
X16185110Y3911250D01*
G01X16500070Y3583170D02*
X16492190Y3588460D01*
Y3599040D01*
X16500070Y3604330D01*
X16507950Y3599040D01*
Y3588460D01*
X16500070Y3583170D01*
G01X16728420Y3657250D02*
X16752030Y3620200D01*
X16783530Y3599040D01*
X16818970Y3593750D01*
X16850470Y3599040D01*
X16881960Y3625490D01*
X16901640Y3657250D01*
X16905580Y3689000D01*
X16897710Y3726030D01*
X16870150Y3752500D01*
X16842590Y3763090D01*
X16807150D01*
G01X16842590D02*
X16866210Y3778960D01*
X16885900Y3805410D01*
X16893770Y3837160D01*
X16885900Y3868920D01*
X16866210Y3895370D01*
X16830780Y3911250D01*
X16795350Y3905960D01*
X16759910Y3884790D01*
G01X17129990Y3911250D02*
X17098490Y3900670D01*
X17074870Y3874210D01*
X17059120Y3842460D01*
X17047310Y3800120D01*
X17043380Y3752500D01*
X17047310Y3704870D01*
X17059120Y3662540D01*
X17074870Y3630780D01*
X17098490Y3604330D01*
X17129990Y3593750D01*
X17161480Y3604330D01*
X17185110Y3630780D01*
X17200860Y3662540D01*
X17212670Y3704870D01*
X17216600Y3752500D01*
X17212670Y3800120D01*
X17200860Y3842460D01*
X17185110Y3874210D01*
X17161480Y3900670D01*
X17129990Y3911250D01*
G01X17492190Y3593750D02*
Y3911250D01*
X17346520Y3683710D01*
X17543380D01*
G01X17759910Y3593750D02*
X17787470Y3599040D01*
X17818960Y3614910D01*
X17838650Y3641360D01*
X17846520Y3678420D01*
X17838650Y3715450D01*
X17815030Y3747200D01*
X17779590Y3763090D01*
X17740230D01*
X17716600Y3773670D01*
X17696910Y3800120D01*
X17689040Y3837160D01*
X17700860Y3874210D01*
X17728410Y3900670D01*
X17759910Y3911250D01*
X17791400Y3900670D01*
X17818960Y3874210D01*
X17830780Y3837160D01*
X17822900Y3800120D01*
X17803220Y3773670D01*
X17779590Y3763090D01*
X17740230D01*
X17704790Y3747200D01*
X17681170Y3715450D01*
X17673300Y3678420D01*
X17681170Y3641360D01*
X17700860Y3614910D01*
X17732350Y3599040D01*
X17759910Y3593750D01*
G01X19531560Y4705000D02*
Y-375000D01*
G01X19964630Y4228750D02*
Y4546250D01*
X20063050D01*
X20094550Y4530370D01*
X20114240Y4509210D01*
X20122110Y4466870D01*
X20114240Y4424540D01*
X20090610Y4398090D01*
X20063050Y4382200D01*
X19964630D01*
G01X20063050D02*
X20122110Y4228750D01*
G01X20358330D02*
X20326830Y4234040D01*
X20299280Y4255200D01*
X20275650Y4286960D01*
X20259900Y4324000D01*
X20252030Y4366330D01*
Y4408670D01*
X20259900Y4451000D01*
X20275650Y4488040D01*
X20299280Y4519790D01*
X20326830Y4540960D01*
X20358330Y4546250D01*
X20389820Y4540960D01*
X20417380Y4519790D01*
X20441010Y4488040D01*
X20456760Y4451000D01*
X20464630Y4408670D01*
Y4366330D01*
X20456760Y4324000D01*
X20441010Y4286960D01*
X20417380Y4255200D01*
X20389820Y4234040D01*
X20358330Y4228750D01*
G01X20673290Y4546250D02*
Y4228750D01*
G01X20582740Y4546250D02*
X20763840D01*
G01X20889820Y4228750D02*
X20988250Y4546250D01*
X21086680Y4228750D01*
G01X21051240Y4339870D02*
X20925250D01*
G01X21303210Y4546250D02*
Y4228750D01*
G01X21212660Y4546250D02*
X21393760D01*
G01X21570930D02*
X21665410D01*
G01X21618170D02*
Y4228750D01*
G01X21570930D02*
X21665410D01*
G01X21933130D02*
X21901630Y4234040D01*
X21874080Y4255200D01*
X21850450Y4286960D01*
X21834700Y4324000D01*
X21826830Y4366330D01*
Y4408670D01*
X21834700Y4451000D01*
X21850450Y4488040D01*
X21874080Y4519790D01*
X21901630Y4540960D01*
X21933130Y4546250D01*
X21964620Y4540960D01*
X21992180Y4519790D01*
X22015810Y4488040D01*
X22031560Y4451000D01*
X22039430Y4408670D01*
Y4366330D01*
X22031560Y4324000D01*
X22015810Y4286960D01*
X21992180Y4255200D01*
X21964620Y4234040D01*
X21933130Y4228750D01*
G01X22157540D02*
Y4546250D01*
X22338640Y4228750D01*
Y4546250D01*
G01X20291400Y-179220D02*
X20318960Y-205670D01*
X20350450Y-216250D01*
X20381950Y-205670D01*
X20409510Y-173930D01*
X20429200Y-126290D01*
X20437070Y-78670D01*
Y-20460D01*
X20429200Y27160D01*
X20409510Y69500D01*
X20385890Y90670D01*
X20358330Y101250D01*
X20326830Y90670D01*
X20303210Y69500D01*
X20287460Y37750D01*
X20279590Y-4590D01*
X20287460Y-41620D01*
X20307150Y-78670D01*
X20330770Y-99840D01*
X20358330Y-105130D01*
X20389820Y-94550D01*
X20413450Y-68090D01*
X20437070Y-20460D01*
G01X20673290Y101250D02*
X20641790Y90670D01*
X20618170Y64210D01*
X20602420Y32460D01*
X20590610Y-9880D01*
X20586680Y-57500D01*
X20590610Y-105130D01*
X20602420Y-147460D01*
X20618170Y-179220D01*
X20641790Y-205670D01*
X20673290Y-216250D01*
X20704780Y-205670D01*
X20728410Y-179220D01*
X20744160Y-147460D01*
X20755970Y-105130D01*
X20759900Y-57500D01*
X20755970Y-9880D01*
X20744160Y32460D01*
X20728410Y64210D01*
X20704780Y90670D01*
X20673290Y101250D01*
G01X20988250Y-226830D02*
X20980370Y-221540D01*
Y-210960D01*
X20988250Y-205670D01*
X20996130Y-210960D01*
Y-221540D01*
X20988250Y-226830D01*
G01X21303210Y101250D02*
X21271710Y90670D01*
X21248090Y64210D01*
X21232340Y32460D01*
X21220530Y-9880D01*
X21216600Y-57500D01*
X21220530Y-105130D01*
X21232340Y-147460D01*
X21248090Y-179220D01*
X21271710Y-205670D01*
X21303210Y-216250D01*
X21334700Y-205670D01*
X21358330Y-179220D01*
X21374080Y-147460D01*
X21385890Y-105130D01*
X21389820Y-57500D01*
X21385890Y-9880D01*
X21374080Y32460D01*
X21358330Y64210D01*
X21334700Y90670D01*
X21303210Y101250D01*
G01X21618170D02*
X21586670Y90670D01*
X21563050Y64210D01*
X21547300Y32460D01*
X21535490Y-9880D01*
X21531560Y-57500D01*
X21535490Y-105130D01*
X21547300Y-147460D01*
X21563050Y-179220D01*
X21586670Y-205670D01*
X21618170Y-216250D01*
X21649660Y-205670D01*
X21673290Y-179220D01*
X21689040Y-147460D01*
X21700850Y-105130D01*
X21704780Y-57500D01*
X21700850Y-9880D01*
X21689040Y32460D01*
X21673290Y64210D01*
X21649660Y90670D01*
X21618170Y101250D01*
G01X21933130D02*
X21901630Y90670D01*
X21878010Y64210D01*
X21862260Y32460D01*
X21850450Y-9880D01*
X21846520Y-57500D01*
X21850450Y-105130D01*
X21862260Y-147460D01*
X21878010Y-179220D01*
X21901630Y-205670D01*
X21933130Y-216250D01*
X21964620Y-205670D01*
X21988250Y-179220D01*
X22004000Y-147460D01*
X22015810Y-105130D01*
X22019740Y-57500D01*
X22015810Y-9880D01*
X22004000Y32460D01*
X21988250Y64210D01*
X21964620Y90670D01*
X21933130Y101250D01*
G01X20515810Y736250D02*
X20484310Y725670D01*
X20460690Y699210D01*
X20444940Y667460D01*
X20433130Y625120D01*
X20429200Y577500D01*
X20433130Y529870D01*
X20444940Y487540D01*
X20460690Y455780D01*
X20484310Y429330D01*
X20515810Y418750D01*
X20547300Y429330D01*
X20570930Y455780D01*
X20586680Y487540D01*
X20598490Y529870D01*
X20602420Y577500D01*
X20598490Y625120D01*
X20586680Y667460D01*
X20570930Y699210D01*
X20547300Y725670D01*
X20515810Y736250D01*
G01X20830770Y408170D02*
X20822890Y413460D01*
Y424040D01*
X20830770Y429330D01*
X20838650Y424040D01*
Y413460D01*
X20830770Y408170D01*
G01X21145730Y736250D02*
X21114230Y725670D01*
X21090610Y699210D01*
X21074860Y667460D01*
X21063050Y625120D01*
X21059120Y577500D01*
X21063050Y529870D01*
X21074860Y487540D01*
X21090610Y455780D01*
X21114230Y429330D01*
X21145730Y418750D01*
X21177220Y429330D01*
X21200850Y455780D01*
X21216600Y487540D01*
X21228410Y529870D01*
X21232340Y577500D01*
X21228410Y625120D01*
X21216600Y667460D01*
X21200850Y699210D01*
X21177220Y725670D01*
X21145730Y736250D01*
G01X21460690D02*
X21429190Y725670D01*
X21405570Y699210D01*
X21389820Y667460D01*
X21378010Y625120D01*
X21374080Y577500D01*
X21378010Y529870D01*
X21389820Y487540D01*
X21405570Y455780D01*
X21429190Y429330D01*
X21460690Y418750D01*
X21492180Y429330D01*
X21515810Y455780D01*
X21531560Y487540D01*
X21543370Y529870D01*
X21547300Y577500D01*
X21543370Y625120D01*
X21531560Y667460D01*
X21515810Y699210D01*
X21492180Y725670D01*
X21460690Y736250D01*
G01X21775650D02*
X21744150Y725670D01*
X21720530Y699210D01*
X21704780Y667460D01*
X21692970Y625120D01*
X21689040Y577500D01*
X21692970Y529870D01*
X21704780Y487540D01*
X21720530Y455780D01*
X21744150Y429330D01*
X21775650Y418750D01*
X21807140Y429330D01*
X21830770Y455780D01*
X21846520Y487540D01*
X21858330Y529870D01*
X21862260Y577500D01*
X21858330Y625120D01*
X21846520Y667460D01*
X21830770Y699210D01*
X21807140Y725670D01*
X21775650Y736250D01*
G01X21094550Y1159580D02*
X21196910D01*
G01X21094550Y1794580D02*
X21196910D01*
G01X21094550Y2429580D02*
X21196910D01*
G01X21094550Y3064580D02*
X21196910D01*
G01X21094550Y3699580D02*
X21196910D01*
G01X22088070Y-533750D02*
Y-851250D01*
G01X21997520Y-533750D02*
X22178620D01*
G01X22403030Y-851250D02*
X22371530Y-845960D01*
X22343980Y-824800D01*
X22320350Y-793040D01*
X22304600Y-756000D01*
X22296730Y-713670D01*
Y-671330D01*
X22304600Y-629000D01*
X22320350Y-591960D01*
X22343980Y-560210D01*
X22371530Y-539040D01*
X22403030Y-533750D01*
X22434520Y-539040D01*
X22462080Y-560210D01*
X22485710Y-591960D01*
X22501460Y-629000D01*
X22509330Y-671330D01*
Y-713670D01*
X22501460Y-756000D01*
X22485710Y-793040D01*
X22462080Y-824800D01*
X22434520Y-845960D01*
X22403030Y-851250D01*
G01X22717990Y-533750D02*
Y-851250D01*
G01X22627440Y-533750D02*
X22808540D01*
G01X22934520Y-851250D02*
X23032950Y-533750D01*
X23131380Y-851250D01*
G01X23095940Y-740130D02*
X22969950D01*
G01X23269170Y-533750D02*
Y-851250D01*
X23426650D01*
G01X23895150D02*
Y-533750D01*
G01X24060510D02*
Y-851250D01*
G01Y-692500D02*
X23895150D01*
G01X24292790Y-851250D02*
X24261290Y-845960D01*
X24233740Y-824800D01*
X24210110Y-793040D01*
X24194360Y-756000D01*
X24186490Y-713670D01*
Y-671330D01*
X24194360Y-629000D01*
X24210110Y-591960D01*
X24233740Y-560210D01*
X24261290Y-539040D01*
X24292790Y-533750D01*
X24324280Y-539040D01*
X24351840Y-560210D01*
X24375470Y-591960D01*
X24391220Y-629000D01*
X24399090Y-671330D01*
Y-713670D01*
X24391220Y-756000D01*
X24375470Y-793040D01*
X24351840Y-824800D01*
X24324280Y-845960D01*
X24292790Y-851250D01*
G01X24529010Y-533750D02*
Y-851250D01*
X24686490D01*
G01X25001450D02*
X24843970D01*
Y-533750D01*
X25001450D01*
G01X24938460Y-687200D02*
X24843970D01*
G01X25154990Y-808930D02*
X25186490Y-835380D01*
X25221920Y-851250D01*
X25253420D01*
X25284910Y-835380D01*
X25308540Y-808930D01*
X25320350Y-771870D01*
X25312480Y-734840D01*
X25292790Y-703090D01*
X25257350Y-681910D01*
X25210110Y-671330D01*
X25182550Y-650170D01*
X25170740Y-613130D01*
X25178620Y-576080D01*
X25198300Y-549630D01*
X25225860Y-533750D01*
X25253420D01*
X25280980Y-544330D01*
X25304600Y-570790D01*
G01X25552630Y-861830D02*
X25544750Y-856540D01*
Y-845960D01*
X25552630Y-840670D01*
X25560510Y-845960D01*
Y-856540D01*
X25552630Y-861830D01*
G01Y-718970D02*
X25544750Y-713670D01*
Y-703090D01*
X25552630Y-697800D01*
X25560510Y-703090D01*
Y-713670D01*
X25552630Y-718970D01*
G01X22759900Y4705000D02*
Y-375000D01*
G01X23507930Y-216250D02*
Y101250D01*
X23602420D01*
X23633910Y85370D01*
X23657540Y48330D01*
X23665410Y6000D01*
X23657540Y-36330D01*
X23637850Y-68090D01*
X23602420Y-83970D01*
X23507930D01*
G01X23822890Y101250D02*
Y-216250D01*
X23980370D01*
G01X24118160D02*
X24216590Y101250D01*
X24315020Y-216250D01*
G01X24279580Y-105130D02*
X24153590D01*
G01X24531550Y101250D02*
Y-216250D01*
G01X24441000Y101250D02*
X24622100D01*
G01X24925250Y-216250D02*
X24767770D01*
Y101250D01*
X24925250D01*
G01X24862260Y-52200D02*
X24767770D01*
G01X25074860Y-216250D02*
Y101250D01*
X25153590D01*
X25185090Y85370D01*
X25208710Y64210D01*
X25228400Y32460D01*
X25244150Y-4590D01*
X25248080Y-57500D01*
X25244150Y-110420D01*
X25228400Y-147460D01*
X25208710Y-179220D01*
X25185090Y-200380D01*
X25153590Y-216250D01*
X25074860D01*
G01X23507930Y418750D02*
Y736250D01*
X23602420D01*
X23633910Y720370D01*
X23657540Y683330D01*
X23665410Y641000D01*
X23657540Y598670D01*
X23637850Y566910D01*
X23602420Y551030D01*
X23507930D01*
G01X23822890Y736250D02*
Y418750D01*
X23980370D01*
G01X24118160D02*
X24216590Y736250D01*
X24315020Y418750D01*
G01X24279580Y529870D02*
X24153590D01*
G01X24531550Y736250D02*
Y418750D01*
G01X24441000Y736250D02*
X24622100D01*
G01X24925250Y418750D02*
X24767770D01*
Y736250D01*
X24925250D01*
G01X24862260Y582800D02*
X24767770D01*
G01X25074860Y418750D02*
Y736250D01*
X25153590D01*
X25185090Y720370D01*
X25208710Y699210D01*
X25228400Y667460D01*
X25244150Y630410D01*
X25248080Y577500D01*
X25244150Y524580D01*
X25228400Y487540D01*
X25208710Y455780D01*
X25185090Y434620D01*
X25153590Y418750D01*
X25074860D01*
G01X23507930Y1053750D02*
Y1371250D01*
X23602420D01*
X23633910Y1355370D01*
X23657540Y1318330D01*
X23665410Y1276000D01*
X23657540Y1233670D01*
X23637850Y1201910D01*
X23602420Y1186030D01*
X23507930D01*
G01X23822890Y1371250D02*
Y1053750D01*
X23980370D01*
G01X24118160D02*
X24216590Y1371250D01*
X24315020Y1053750D01*
G01X24279580Y1164870D02*
X24153590D01*
G01X24531550Y1371250D02*
Y1053750D01*
G01X24441000Y1371250D02*
X24622100D01*
G01X24925250Y1053750D02*
X24767770D01*
Y1371250D01*
X24925250D01*
G01X24862260Y1217800D02*
X24767770D01*
G01X25074860Y1053750D02*
Y1371250D01*
X25153590D01*
X25185090Y1355370D01*
X25208710Y1334210D01*
X25228400Y1302460D01*
X25244150Y1265410D01*
X25248080Y1212500D01*
X25244150Y1159580D01*
X25228400Y1122540D01*
X25208710Y1090780D01*
X25185090Y1069620D01*
X25153590Y1053750D01*
X25074860D01*
G01X23507930Y1688750D02*
Y2006250D01*
X23602420D01*
X23633910Y1990370D01*
X23657540Y1953330D01*
X23665410Y1911000D01*
X23657540Y1868670D01*
X23637850Y1836910D01*
X23602420Y1821030D01*
X23507930D01*
G01X23822890Y2006250D02*
Y1688750D01*
X23980370D01*
G01X24118160D02*
X24216590Y2006250D01*
X24315020Y1688750D01*
G01X24279580Y1799870D02*
X24153590D01*
G01X24531550Y2006250D02*
Y1688750D01*
G01X24441000Y2006250D02*
X24622100D01*
G01X24925250Y1688750D02*
X24767770D01*
Y2006250D01*
X24925250D01*
G01X24862260Y1852800D02*
X24767770D01*
G01X25074860Y1688750D02*
Y2006250D01*
X25153590D01*
X25185090Y1990370D01*
X25208710Y1969210D01*
X25228400Y1937460D01*
X25244150Y1900410D01*
X25248080Y1847500D01*
X25244150Y1794580D01*
X25228400Y1757540D01*
X25208710Y1725780D01*
X25185090Y1704620D01*
X25153590Y1688750D01*
X25074860D01*
G01X23507930Y2323750D02*
Y2641250D01*
X23602420D01*
X23633910Y2625370D01*
X23657540Y2588330D01*
X23665410Y2546000D01*
X23657540Y2503670D01*
X23637850Y2471910D01*
X23602420Y2456030D01*
X23507930D01*
G01X23822890Y2641250D02*
Y2323750D01*
X23980370D01*
G01X24118160D02*
X24216590Y2641250D01*
X24315020Y2323750D01*
G01X24279580Y2434870D02*
X24153590D01*
G01X24531550Y2641250D02*
Y2323750D01*
G01X24441000Y2641250D02*
X24622100D01*
G01X24925250Y2323750D02*
X24767770D01*
Y2641250D01*
X24925250D01*
G01X24862260Y2487800D02*
X24767770D01*
G01X25074860Y2323750D02*
Y2641250D01*
X25153590D01*
X25185090Y2625370D01*
X25208710Y2604210D01*
X25228400Y2572460D01*
X25244150Y2535410D01*
X25248080Y2482500D01*
X25244150Y2429580D01*
X25228400Y2392540D01*
X25208710Y2360780D01*
X25185090Y2339620D01*
X25153590Y2323750D01*
X25074860D01*
G01X23507930Y2958750D02*
Y3276250D01*
X23602420D01*
X23633910Y3260370D01*
X23657540Y3223330D01*
X23665410Y3181000D01*
X23657540Y3138670D01*
X23637850Y3106910D01*
X23602420Y3091030D01*
X23507930D01*
G01X23822890Y3276250D02*
Y2958750D01*
X23980370D01*
G01X24118160D02*
X24216590Y3276250D01*
X24315020Y2958750D01*
G01X24279580Y3069870D02*
X24153590D01*
G01X24531550Y3276250D02*
Y2958750D01*
G01X24441000Y3276250D02*
X24622100D01*
G01X24925250Y2958750D02*
X24767770D01*
Y3276250D01*
X24925250D01*
G01X24862260Y3122800D02*
X24767770D01*
G01X25074860Y2958750D02*
Y3276250D01*
X25153590D01*
X25185090Y3260370D01*
X25208710Y3239210D01*
X25228400Y3207460D01*
X25244150Y3170410D01*
X25248080Y3117500D01*
X25244150Y3064580D01*
X25228400Y3027540D01*
X25208710Y2995780D01*
X25185090Y2974620D01*
X25153590Y2958750D01*
X25074860D01*
G01X23507930Y3593750D02*
Y3911250D01*
X23602420D01*
X23633910Y3895370D01*
X23657540Y3858330D01*
X23665410Y3816000D01*
X23657540Y3773670D01*
X23637850Y3741910D01*
X23602420Y3726030D01*
X23507930D01*
G01X23822890Y3911250D02*
Y3593750D01*
X23980370D01*
G01X24118160D02*
X24216590Y3911250D01*
X24315020Y3593750D01*
G01X24279580Y3704870D02*
X24153590D01*
G01X24531550Y3911250D02*
Y3593750D01*
G01X24441000Y3911250D02*
X24622100D01*
G01X24925250Y3593750D02*
X24767770D01*
Y3911250D01*
X24925250D01*
G01X24862260Y3757800D02*
X24767770D01*
G01X25074860Y3593750D02*
Y3911250D01*
X25153590D01*
X25185090Y3895370D01*
X25208710Y3874210D01*
X25228400Y3842460D01*
X25244150Y3805410D01*
X25248080Y3752500D01*
X25244150Y3699580D01*
X25228400Y3662540D01*
X25208710Y3630780D01*
X25185090Y3609620D01*
X25153590Y3593750D01*
X25074860D01*
G01X23507930Y4228750D02*
Y4546250D01*
X23602420D01*
X23633910Y4530370D01*
X23657540Y4493330D01*
X23665410Y4451000D01*
X23657540Y4408670D01*
X23637850Y4376910D01*
X23602420Y4361030D01*
X23507930D01*
G01X23822890Y4546250D02*
Y4228750D01*
X23980370D01*
G01X24118160D02*
X24216590Y4546250D01*
X24315020Y4228750D01*
G01X24279580Y4339870D02*
X24153590D01*
G01X24531550Y4546250D02*
Y4228750D01*
G01X24441000Y4546250D02*
X24622100D01*
G01X24925250Y4228750D02*
X24767770D01*
Y4546250D01*
X24925250D01*
G01X24862260Y4392800D02*
X24767770D01*
G01X25074860Y4228750D02*
Y4546250D01*
X25153590D01*
X25185090Y4530370D01*
X25208710Y4509210D01*
X25228400Y4477460D01*
X25244150Y4440410D01*
X25248080Y4387500D01*
X25244150Y4334580D01*
X25228400Y4297540D01*
X25208710Y4265780D01*
X25185090Y4244620D01*
X25153590Y4228750D01*
X25074860D01*
G01X25988240Y4705000D02*
Y-375000D01*
G01X26582720Y-586670D02*
X26606350Y-554920D01*
X26633910Y-539040D01*
X26665410Y-533750D01*
X26704770Y-544330D01*
X26732340Y-570790D01*
X26740210Y-602540D01*
X26736270Y-634300D01*
X26720520Y-660750D01*
X26641780Y-713670D01*
X26606350Y-750710D01*
X26582720Y-803640D01*
X26574850Y-851250D01*
X26740210D01*
G01X26885880Y-787750D02*
X26909490Y-824800D01*
X26940990Y-845960D01*
X26976430Y-851250D01*
X27007930Y-845960D01*
X27039420Y-819510D01*
X27059100Y-787750D01*
X27063040Y-756000D01*
X27055170Y-718970D01*
X27027610Y-692500D01*
X27000050Y-681910D01*
X26964610D01*
G01X27000050D02*
X27023670Y-666040D01*
X27043360Y-639590D01*
X27051230Y-607840D01*
X27043360Y-576080D01*
X27023670Y-549630D01*
X26988240Y-533750D01*
X26952810Y-539040D01*
X26917370Y-560210D01*
G01X27279570Y-851250D02*
X27287450Y-782460D01*
X27299260Y-724260D01*
X27315010Y-671330D01*
X27334690Y-613130D01*
X27366190Y-533750D01*
X27208710D01*
G01X26897680Y48330D02*
X26921310Y80080D01*
X26948870Y95960D01*
X26980370Y101250D01*
X27019730Y90670D01*
X27047300Y64210D01*
X27055170Y32460D01*
X27051230Y700D01*
X27035480Y-25750D01*
X26956740Y-78670D01*
X26921310Y-115710D01*
X26897680Y-168640D01*
X26889810Y-216250D01*
X27055170D01*
G01X26972490Y418750D02*
Y736250D01*
X26925250Y672750D01*
G01Y418750D02*
X27019730D01*
G01X26897680Y1186030D02*
X26925250Y1223090D01*
X26948870Y1244250D01*
X26980370Y1254830D01*
X27007930Y1244250D01*
X27027610Y1223090D01*
X27043360Y1191330D01*
X27047300Y1154290D01*
X27043360Y1122540D01*
X27027610Y1090780D01*
X27003980Y1064330D01*
X26976430Y1053750D01*
X26944930Y1064330D01*
X26917370Y1096070D01*
X26901620Y1143710D01*
X26897680Y1196620D01*
X26905560Y1265410D01*
X26917370Y1302460D01*
X26937050Y1339500D01*
X26964610Y1365960D01*
X26992170Y1371250D01*
X27019730Y1360670D01*
X27039420Y1334210D01*
G01X26972490Y1688750D02*
X27000050Y1694040D01*
X27031540Y1709910D01*
X27051230Y1736360D01*
X27059100Y1773420D01*
X27051230Y1810450D01*
X27027610Y1842200D01*
X26992170Y1858090D01*
X26952810D01*
X26929180Y1868670D01*
X26909490Y1895120D01*
X26901620Y1932160D01*
X26913440Y1969210D01*
X26940990Y1995670D01*
X26972490Y2006250D01*
X27003980Y1995670D01*
X27031540Y1969210D01*
X27043360Y1932160D01*
X27035480Y1895120D01*
X27015800Y1868670D01*
X26992170Y1858090D01*
X26952810D01*
X26917370Y1842200D01*
X26893750Y1810450D01*
X26885880Y1773420D01*
X26893750Y1736360D01*
X26913440Y1709910D01*
X26944930Y1694040D01*
X26972490Y1688750D01*
G01X26897680Y2456030D02*
X26925250Y2493090D01*
X26948870Y2514250D01*
X26980370Y2524830D01*
X27007930Y2514250D01*
X27027610Y2493090D01*
X27043360Y2461330D01*
X27047300Y2424290D01*
X27043360Y2392540D01*
X27027610Y2360780D01*
X27003980Y2334330D01*
X26976430Y2323750D01*
X26944930Y2334330D01*
X26917370Y2366070D01*
X26901620Y2413710D01*
X26897680Y2466620D01*
X26905560Y2535410D01*
X26917370Y2572460D01*
X26937050Y2609500D01*
X26964610Y2635960D01*
X26992170Y2641250D01*
X27019730Y2630670D01*
X27039420Y2604210D01*
G01X26862250Y2958750D02*
Y3276250D01*
X26716580Y3048710D01*
X26913440D01*
G01X27177210Y2958750D02*
Y3276250D01*
X27031540Y3048710D01*
X27228400D01*
G01X26657530Y3593750D02*
Y3911250D01*
X26610290Y3847750D01*
G01Y3593750D02*
X26704770D01*
G01X26964610D02*
X26972490Y3662540D01*
X26984300Y3720740D01*
X27000050Y3773670D01*
X27019730Y3831870D01*
X27051230Y3911250D01*
X26893750D01*
G01X27287450D02*
X27255950Y3900670D01*
X27232330Y3874210D01*
X27216580Y3842460D01*
X27204770Y3800120D01*
X27200840Y3752500D01*
X27204770Y3704870D01*
X27216580Y3662540D01*
X27232330Y3630780D01*
X27255950Y3604330D01*
X27287450Y3593750D01*
X27318940Y3604330D01*
X27342570Y3630780D01*
X27358320Y3662540D01*
X27370130Y3704870D01*
X27374060Y3752500D01*
X27370130Y3800120D01*
X27358320Y3842460D01*
X27342570Y3874210D01*
X27318940Y3900670D01*
X27287450Y3911250D01*
G01X26657530Y4228750D02*
X26626030Y4234040D01*
X26598480Y4255200D01*
X26574850Y4286960D01*
X26559100Y4324000D01*
X26551230Y4366330D01*
Y4408670D01*
X26559100Y4451000D01*
X26574850Y4488040D01*
X26598480Y4519790D01*
X26626030Y4540960D01*
X26657530Y4546250D01*
X26689020Y4540960D01*
X26716580Y4519790D01*
X26740210Y4488040D01*
X26755960Y4451000D01*
X26763830Y4408670D01*
Y4366330D01*
X26755960Y4324000D01*
X26740210Y4286960D01*
X26716580Y4255200D01*
X26689020Y4234040D01*
X26657530Y4228750D01*
G01X26689020Y4313420D02*
X26736270Y4228750D01*
G01X26972490Y4546250D02*
Y4228750D01*
G01X26881940Y4546250D02*
X27063040D01*
G01X27287450Y4228750D02*
Y4371620D01*
X27208710Y4546250D01*
G01X27366190D02*
X27287450Y4371620D01*
M02*
