G04 ================== begin FILE IDENTIFICATION RECORD ==================*
G04 Layout Name:  F103_TUBE_CLOCK_V10A.brd*
G04 Film Name:    Drill_Legend*
G04 File Format:  Gerber RS274X*
G04 File Origin:  Cadence Allegro 17.2-S058*
G04 Origin Date:  Thu Apr 30 15:23:33 2020*
G04 *
G04 Layer:  MANUFACTURING/NCDRILL_FIGURE*
G04 Layer:  BOARD GEOMETRY/DIMENSION*
G04 Layer:  MANUFACTURING/NCDRILL_LEGEND*
G04 Layer:  MANUFACTURING/NCLEGEND-1-2*
G04 *
G04 Offset:    (0.0000 0.0000)*
G04 Mirror:    No*
G04 Mode:      Positive*
G04 Rotation:  0*
G04 FullContactRelief:  No*
G04 UndefLineWidth:     0.1524*
G04 ================== end FILE IDENTIFICATION RECORD ====================*
%FSLAX55Y55*MOMM*%
%IR0*IPPOS*OFA0.00000B0.00000*MIA0B0*SFA1.00000B1.00000*%
%AMMACRO14*
1,1,.1524,.31066,-.75*
20,1,.1524,.31066,-.75,-.31066,-.75,0.0*
1,1,.1524,-.31066,-.75*
20,1,.1524,-.31066,-.75,-.75,-.31066,0.0*
1,1,.1524,-.75,-.31066*
20,1,.1524,-.75,-.31066,-.75,.31066,0.0*
1,1,.1524,-.75,.31066*
20,1,.1524,-.75,.31066,-.31066,.75,0.0*
1,1,.1524,-.31066,.75*
20,1,.1524,-.31066,.75,.31066,.75,0.0*
1,1,.1524,.31066,.75*
20,1,.1524,.31066,.75,.75,.31066,0.0*
1,1,.1524,.75,.31066*
20,1,.1524,.75,.31066,.75,-.31066,0.0*
1,1,.1524,.75,-.31066*
20,1,.1524,.75,-.31066,.31066,-.75,0.0*
1,1,.1524,.31066,-.75*
%
%ADD14MACRO14*%
%AMMACRO11*
1,1,.1524,.4,.4*
20,1,.1524,.4,.4,.4,-.4,0.0*
1,1,.1524,.4,-.4*
20,1,.1524,.4,-.4,-.4,-.4,0.0*
1,1,.1524,-.4,-.4*
20,1,.1524,-.4,-.4,-.4,.4,0.0*
1,1,.1524,-.4,.4*
20,1,.1524,-.4,.4,.4,.4,0.0*
1,1,.1524,.4,.4*
%
%ADD11MACRO11*%
%AMMACRO10*
1,1,.1524,.1524,0.0*
20,1,.1524,.1524,0.0,-.1524,0.0,0.0*
1,1,.1524,-.1524,0.0*
1,1,.1524,0.0,.1524*
20,1,.1524,0.0,.1524,0.0,-.1524,0.0*
1,1,.1524,0.0,-.1524*
%
%ADD10MACRO10*%
%AMMACRO16*
1,1,.1524,0.0,.55*
20,1,.1524,0.0,.55,-.476314,.275,0.0*
1,1,.1524,-.476314,.275*
20,1,.1524,-.476314,.275,-.476314,-.275,0.0*
1,1,.1524,-.476314,-.275*
20,1,.1524,-.476314,-.275,0.0,-.55,0.0*
1,1,.1524,0.0,-.55*
20,1,.1524,0.0,-.55,.476314,-.275,0.0*
1,1,.1524,.476314,-.275*
20,1,.1524,.476314,-.275,.476314,.275,0.0*
1,1,.1524,.476314,.275*
20,1,.1524,.476314,.275,0.0,.55,0.0*
1,1,.1524,0.0,.55*
%
%ADD16MACRO16*%
%AMMACRO12*
1,1,.1524,-.5,-1.*
20,1,.1524,-.5,-1.,-.5,1.,0.0*
1,1,.1524,-.5,1.*
20,1,.1524,-.5,1.,-.492404,1.086824,0.0*
1,1,.1524,-.492404,1.086824*
20,1,.1524,-.492404,1.086824,-.469846,1.17101,0.0*
1,1,.1524,-.469846,1.17101*
20,1,.1524,-.469846,1.17101,-.433013,1.25,0.0*
1,1,.1524,-.433013,1.25*
20,1,.1524,-.433013,1.25,-.383022,1.321394,0.0*
1,1,.1524,-.383022,1.321394*
20,1,.1524,-.383022,1.321394,-.321394,1.383022,0.0*
1,1,.1524,-.321394,1.383022*
20,1,.1524,-.321394,1.383022,-.25,1.433013,0.0*
1,1,.1524,-.25,1.433013*
20,1,.1524,-.25,1.433013,-.17101,1.469846,0.0*
1,1,.1524,-.17101,1.469846*
20,1,.1524,-.17101,1.469846,-.086824,1.492404,0.0*
1,1,.1524,-.086824,1.492404*
20,1,.1524,-.086824,1.492404,0.0,1.5,0.0*
1,1,.1524,0.0,1.5*
20,1,.1524,0.0,1.5,.086824,1.492404,0.0*
1,1,.1524,.086824,1.492404*
20,1,.1524,.086824,1.492404,.17101,1.469846,0.0*
1,1,.1524,.17101,1.469846*
20,1,.1524,.17101,1.469846,.25,1.433013,0.0*
1,1,.1524,.25,1.433013*
20,1,.1524,.25,1.433013,.321394,1.383022,0.0*
1,1,.1524,.321394,1.383022*
20,1,.1524,.321394,1.383022,.383022,1.321394,0.0*
1,1,.1524,.383022,1.321394*
20,1,.1524,.383022,1.321394,.433013,1.25,0.0*
1,1,.1524,.433013,1.25*
20,1,.1524,.433013,1.25,.469846,1.17101,0.0*
1,1,.1524,.469846,1.17101*
20,1,.1524,.469846,1.17101,.492404,1.086824,0.0*
1,1,.1524,.492404,1.086824*
20,1,.1524,.492404,1.086824,.5,1.,0.0*
1,1,.1524,.5,1.*
20,1,.1524,.5,1.,.5,-1.,0.0*
1,1,.1524,.5,-1.*
20,1,.1524,.5,-1.,.492404,-1.086824,0.0*
1,1,.1524,.492404,-1.086824*
20,1,.1524,.492404,-1.086824,.469846,-1.17101,0.0*
1,1,.1524,.469846,-1.17101*
20,1,.1524,.469846,-1.17101,.433013,-1.25,0.0*
1,1,.1524,.433013,-1.25*
20,1,.1524,.433013,-1.25,.383022,-1.321394,0.0*
1,1,.1524,.383022,-1.321394*
20,1,.1524,.383022,-1.321394,.321394,-1.383022,0.0*
1,1,.1524,.321394,-1.383022*
20,1,.1524,.321394,-1.383022,.25,-1.433013,0.0*
1,1,.1524,.25,-1.433013*
20,1,.1524,.25,-1.433013,.17101,-1.469846,0.0*
1,1,.1524,.17101,-1.469846*
20,1,.1524,.17101,-1.469846,.086824,-1.492404,0.0*
1,1,.1524,.086824,-1.492404*
20,1,.1524,.086824,-1.492404,0.0,-1.5,0.0*
1,1,.1524,0.0,-1.5*
20,1,.1524,0.0,-1.5,-.086824,-1.492404,0.0*
1,1,.1524,-.086824,-1.492404*
20,1,.1524,-.086824,-1.492404,-.17101,-1.469846,0.0*
1,1,.1524,-.17101,-1.469846*
20,1,.1524,-.17101,-1.469846,-.25,-1.433013,0.0*
1,1,.1524,-.25,-1.433013*
20,1,.1524,-.25,-1.433013,-.321394,-1.383022,0.0*
1,1,.1524,-.321394,-1.383022*
20,1,.1524,-.321394,-1.383022,-.383022,-1.321394,0.0*
1,1,.1524,-.383022,-1.321394*
20,1,.1524,-.383022,-1.321394,-.433013,-1.25,0.0*
1,1,.1524,-.433013,-1.25*
20,1,.1524,-.433013,-1.25,-.469846,-1.17101,0.0*
1,1,.1524,-.469846,-1.17101*
20,1,.1524,-.469846,-1.17101,-.492404,-1.086824,0.0*
1,1,.1524,-.492404,-1.086824*
20,1,.1524,-.492404,-1.086824,-.5,-1.,0.0*
1,1,.1524,-.5,-1.*
1,1,.1524,-.25,-.25*
20,1,.1524,-.25,-.25,-.3167,-.2417,0.0*
1,1,.1524,-.3167,-.2417*
20,1,.1524,-.3167,-.2417,-.375,-.2083,0.0*
1,1,.1524,-.375,-.2083*
20,1,.1524,-.375,-.2083,-.425,-.1583,0.0*
1,1,.1524,-.425,-.1583*
20,1,.1524,-.425,-.1583,-.4583,-.1,0.0*
1,1,.1524,-.4583,-.1*
20,1,.1524,-.4583,-.1,-.475,-.0333,0.0*
1,1,.1524,-.475,-.0333*
20,1,.1524,-.475,-.0333,-.475,.0333,0.0*
1,1,.1524,-.475,.0333*
20,1,.1524,-.475,.0333,-.4583,.1,0.0*
1,1,.1524,-.4583,.1*
20,1,.1524,-.4583,.1,-.425,.1583,0.0*
1,1,.1524,-.425,.1583*
20,1,.1524,-.425,.1583,-.375,.2083,0.0*
1,1,.1524,-.375,.2083*
20,1,.1524,-.375,.2083,-.3167,.2417,0.0*
1,1,.1524,-.3167,.2417*
20,1,.1524,-.3167,.2417,-.25,.25,0.0*
1,1,.1524,-.25,.25*
20,1,.1524,-.25,.25,-.1833,.2417,0.0*
1,1,.1524,-.1833,.2417*
20,1,.1524,-.1833,.2417,-.125,.2083,0.0*
1,1,.1524,-.125,.2083*
20,1,.1524,-.125,.2083,-.075,.1583,0.0*
1,1,.1524,-.075,.1583*
20,1,.1524,-.075,.1583,-.0417,.1,0.0*
1,1,.1524,-.0417,.1*
20,1,.1524,-.0417,.1,-.025,.0333,0.0*
1,1,.1524,-.025,.0333*
20,1,.1524,-.025,.0333,-.025,-.0333,0.0*
1,1,.1524,-.025,-.0333*
20,1,.1524,-.025,-.0333,-.0417,-.1,0.0*
1,1,.1524,-.0417,-.1*
20,1,.1524,-.0417,-.1,-.075,-.1583,0.0*
1,1,.1524,-.075,-.1583*
20,1,.1524,-.075,-.1583,-.125,-.2083,0.0*
1,1,.1524,-.125,-.2083*
20,1,.1524,-.125,-.2083,-.1833,-.2417,0.0*
1,1,.1524,-.1833,-.2417*
20,1,.1524,-.1833,-.2417,-.25,-.25,0.0*
1,1,.1524,-.25,-.25*
1,1,.1524,.0418,-.25*
20,1,.1524,.0418,-.25,.2501,.25,0.0*
1,1,.1524,.2501,.25*
20,1,.1524,.2501,.25,.4584,-.25,0.0*
1,1,.1524,.4584,-.25*
1,1,.1524,.3834,-.075*
20,1,.1524,.3834,-.075,.1168,-.075,0.0*
1,1,.1524,.1168,-.075*
%
%ADD12MACRO12*%
%AMMACRO13*
1,1,.1524,-1.,.5*
20,1,.1524,-1.,.5,1.,.5,0.0*
1,1,.1524,1.,.5*
20,1,.1524,1.,.5,1.086824,.492404,0.0*
1,1,.1524,1.086824,.492404*
20,1,.1524,1.086824,.492404,1.17101,.469846,0.0*
1,1,.1524,1.17101,.469846*
20,1,.1524,1.17101,.469846,1.25,.433013,0.0*
1,1,.1524,1.25,.433013*
20,1,.1524,1.25,.433013,1.321394,.383022,0.0*
1,1,.1524,1.321394,.383022*
20,1,.1524,1.321394,.383022,1.383022,.321394,0.0*
1,1,.1524,1.383022,.321394*
20,1,.1524,1.383022,.321394,1.433013,.25,0.0*
1,1,.1524,1.433013,.25*
20,1,.1524,1.433013,.25,1.469846,.17101,0.0*
1,1,.1524,1.469846,.17101*
20,1,.1524,1.469846,.17101,1.492404,.086824,0.0*
1,1,.1524,1.492404,.086824*
20,1,.1524,1.492404,.086824,1.5,0.0,0.0*
1,1,.1524,1.5,0.0*
20,1,.1524,1.5,0.0,1.492404,-.086824,0.0*
1,1,.1524,1.492404,-.086824*
20,1,.1524,1.492404,-.086824,1.469846,-.17101,0.0*
1,1,.1524,1.469846,-.17101*
20,1,.1524,1.469846,-.17101,1.433013,-.25,0.0*
1,1,.1524,1.433013,-.25*
20,1,.1524,1.433013,-.25,1.383022,-.321394,0.0*
1,1,.1524,1.383022,-.321394*
20,1,.1524,1.383022,-.321394,1.321394,-.383022,0.0*
1,1,.1524,1.321394,-.383022*
20,1,.1524,1.321394,-.383022,1.25,-.433013,0.0*
1,1,.1524,1.25,-.433013*
20,1,.1524,1.25,-.433013,1.17101,-.469846,0.0*
1,1,.1524,1.17101,-.469846*
20,1,.1524,1.17101,-.469846,1.086824,-.492404,0.0*
1,1,.1524,1.086824,-.492404*
20,1,.1524,1.086824,-.492404,1.,-.5,0.0*
1,1,.1524,1.,-.5*
20,1,.1524,1.,-.5,-1.,-.5,0.0*
1,1,.1524,-1.,-.5*
20,1,.1524,-1.,-.5,-1.086824,-.492404,0.0*
1,1,.1524,-1.086824,-.492404*
20,1,.1524,-1.086824,-.492404,-1.17101,-.469846,0.0*
1,1,.1524,-1.17101,-.469846*
20,1,.1524,-1.17101,-.469846,-1.25,-.433013,0.0*
1,1,.1524,-1.25,-.433013*
20,1,.1524,-1.25,-.433013,-1.321394,-.383022,0.0*
1,1,.1524,-1.321394,-.383022*
20,1,.1524,-1.321394,-.383022,-1.383022,-.321394,0.0*
1,1,.1524,-1.383022,-.321394*
20,1,.1524,-1.383022,-.321394,-1.433013,-.25,0.0*
1,1,.1524,-1.433013,-.25*
20,1,.1524,-1.433013,-.25,-1.469846,-.17101,0.0*
1,1,.1524,-1.469846,-.17101*
20,1,.1524,-1.469846,-.17101,-1.492404,-.086824,0.0*
1,1,.1524,-1.492404,-.086824*
20,1,.1524,-1.492404,-.086824,-1.5,0.0,0.0*
1,1,.1524,-1.5,0.0*
20,1,.1524,-1.5,0.0,-1.492404,.086824,0.0*
1,1,.1524,-1.492404,.086824*
20,1,.1524,-1.492404,.086824,-1.469846,.17101,0.0*
1,1,.1524,-1.469846,.17101*
20,1,.1524,-1.469846,.17101,-1.433013,.25,0.0*
1,1,.1524,-1.433013,.25*
20,1,.1524,-1.433013,.25,-1.383022,.321394,0.0*
1,1,.1524,-1.383022,.321394*
20,1,.1524,-1.383022,.321394,-1.321394,.383022,0.0*
1,1,.1524,-1.321394,.383022*
20,1,.1524,-1.321394,.383022,-1.25,.433013,0.0*
1,1,.1524,-1.25,.433013*
20,1,.1524,-1.25,.433013,-1.17101,.469846,0.0*
1,1,.1524,-1.17101,.469846*
20,1,.1524,-1.17101,.469846,-1.086824,.492404,0.0*
1,1,.1524,-1.086824,.492404*
20,1,.1524,-1.086824,.492404,-1.,.5,0.0*
1,1,.1524,-1.,.5*
1,1,.1524,-.25,-.25*
20,1,.1524,-.25,-.25,-.3167,-.2417,0.0*
1,1,.1524,-.3167,-.2417*
20,1,.1524,-.3167,-.2417,-.375,-.2083,0.0*
1,1,.1524,-.375,-.2083*
20,1,.1524,-.375,-.2083,-.425,-.1583,0.0*
1,1,.1524,-.425,-.1583*
20,1,.1524,-.425,-.1583,-.4583,-.1,0.0*
1,1,.1524,-.4583,-.1*
20,1,.1524,-.4583,-.1,-.475,-.0333,0.0*
1,1,.1524,-.475,-.0333*
20,1,.1524,-.475,-.0333,-.475,.0333,0.0*
1,1,.1524,-.475,.0333*
20,1,.1524,-.475,.0333,-.4583,.1,0.0*
1,1,.1524,-.4583,.1*
20,1,.1524,-.4583,.1,-.425,.1583,0.0*
1,1,.1524,-.425,.1583*
20,1,.1524,-.425,.1583,-.375,.2083,0.0*
1,1,.1524,-.375,.2083*
20,1,.1524,-.375,.2083,-.3167,.2417,0.0*
1,1,.1524,-.3167,.2417*
20,1,.1524,-.3167,.2417,-.25,.25,0.0*
1,1,.1524,-.25,.25*
20,1,.1524,-.25,.25,-.1833,.2417,0.0*
1,1,.1524,-.1833,.2417*
20,1,.1524,-.1833,.2417,-.125,.2083,0.0*
1,1,.1524,-.125,.2083*
20,1,.1524,-.125,.2083,-.075,.1583,0.0*
1,1,.1524,-.075,.1583*
20,1,.1524,-.075,.1583,-.0417,.1,0.0*
1,1,.1524,-.0417,.1*
20,1,.1524,-.0417,.1,-.025,.0333,0.0*
1,1,.1524,-.025,.0333*
20,1,.1524,-.025,.0333,-.025,-.0333,0.0*
1,1,.1524,-.025,-.0333*
20,1,.1524,-.025,-.0333,-.0417,-.1,0.0*
1,1,.1524,-.0417,-.1*
20,1,.1524,-.0417,-.1,-.075,-.1583,0.0*
1,1,.1524,-.075,-.1583*
20,1,.1524,-.075,-.1583,-.125,-.2083,0.0*
1,1,.1524,-.125,-.2083*
20,1,.1524,-.125,-.2083,-.1833,-.2417,0.0*
1,1,.1524,-.1833,-.2417*
20,1,.1524,-.1833,-.2417,-.25,-.25,0.0*
1,1,.1524,-.25,-.25*
1,1,.1524,.0418,-.25*
20,1,.1524,.0418,-.25,.2501,.25,0.0*
1,1,.1524,.2501,.25*
20,1,.1524,.2501,.25,.4584,-.25,0.0*
1,1,.1524,.4584,-.25*
1,1,.1524,.3834,-.075*
20,1,.1524,.3834,-.075,.1168,-.075,0.0*
1,1,.1524,.1168,-.075*
%
%ADD13MACRO13*%
%AMMACRO15*
1,1,.1524,.45,0.0*
20,1,.1524,.45,0.0,.225,.389711,0.0*
1,1,.1524,.225,.389711*
20,1,.1524,.225,.389711,-.225,.389711,0.0*
1,1,.1524,-.225,.389711*
20,1,.1524,-.225,.389711,-.45,0.0,0.0*
1,1,.1524,-.45,0.0*
20,1,.1524,-.45,0.0,-.225,-.389711,0.0*
1,1,.1524,-.225,-.389711*
20,1,.1524,-.225,-.389711,.225,-.389711,0.0*
1,1,.1524,.225,-.389711*
20,1,.1524,.225,-.389711,.45,0.0,0.0*
1,1,.1524,.45,0.0*
%
%ADD15MACRO15*%
%ADD17C,.1524*%
G75*
%LPD*%
G75*
G54D10*
X140000Y760000D03*
Y1180000D03*
X180000Y1610000D03*
X220000Y1560000D03*
X274650Y2299040D03*
Y2099040D03*
Y2899040D03*
Y2699040D03*
Y2499040D03*
X99040Y3915350D03*
X299040D03*
X500000Y760000D03*
X710000Y1140000D03*
X560000D03*
X410000D03*
X710000Y1240000D03*
X759040Y3065350D03*
X499040Y3915350D03*
X1054650Y1319040D03*
Y1719040D03*
Y1519040D03*
X959040Y3065350D03*
X1159040D03*
X1639040Y1515350D03*
X1439040D03*
X1739040D03*
X1539040D03*
Y1605350D03*
X1739040D03*
X1639040D03*
X1778790Y3074700D03*
X2326190Y1611210D03*
X2126190D03*
X2378790Y3074700D03*
X2178790D03*
X1978790D03*
X2591840Y1859250D03*
Y1659250D03*
X2850000Y1610000D03*
X2591840Y2259250D03*
Y2059250D03*
X2920000Y3990000D03*
X3160000Y1380000D03*
X3250000D03*
X3340000D03*
X3160000Y1290000D03*
X3250000D03*
X3408580Y2963830D03*
Y3163830D03*
X3932280Y1688600D03*
X3597060Y1651640D03*
Y1451640D03*
X3595000Y1785000D03*
X3942280Y2038600D03*
X3597060Y2181640D03*
Y1981640D03*
X3808580Y2963830D03*
X3608580D03*
X3860000Y2530000D03*
X3808580Y3163830D03*
X3608580D03*
X4490000Y860000D03*
X4300000D03*
X4400000D03*
X4220000Y1100000D03*
X4532280Y1688600D03*
X4332280D03*
X4132280D03*
X4490000Y1500000D03*
X4390000D03*
X4542280Y2038600D03*
X4342280D03*
X4142280D03*
X4477500Y2793830D03*
X4277500D03*
X4077500D03*
X4790000Y912500D03*
X4600000Y1500000D03*
X4900000Y2800000D03*
X5190000Y850000D03*
Y1200000D03*
X5192280Y1448600D03*
X5392280D03*
X5090000Y1547500D03*
X5420000Y2240000D03*
X5209920Y2500000D03*
X5390000Y3330000D03*
Y3000000D03*
Y3132080D03*
X5213830Y3542500D03*
Y3742500D03*
X6117500Y1013830D03*
X5930000Y1020000D03*
X6100000Y1680000D03*
X5836200Y1776200D03*
X5870000Y2080000D03*
X5830000Y2400000D03*
Y2550000D03*
Y2690000D03*
Y2850000D03*
Y3040000D03*
X6200000Y1380000D03*
X6317500Y1013830D03*
X6567500Y1163830D03*
X6600000Y1450000D03*
X6520000Y1860000D03*
X6200000Y1680000D03*
X6520000Y2220000D03*
X6290000Y2390000D03*
X6300000Y2010000D03*
X6200000Y2260000D03*
X6290000Y2530000D03*
X6510000Y3130000D03*
Y3320000D03*
X6290000Y3130000D03*
X6278400Y3371600D03*
X7080000Y1220000D03*
X6767500Y1163830D03*
X6740000Y1760000D03*
Y1620000D03*
X7080000Y1860000D03*
Y1610000D03*
Y1460000D03*
X6890000Y1430000D03*
X7150000Y2450000D03*
X6780000Y2140000D03*
X7080000Y2010000D03*
X7030000Y2470000D03*
X6720000Y2730000D03*
Y2580000D03*
X7150000Y2600000D03*
Y2950000D03*
Y2740000D03*
Y2820000D03*
X6800000Y3000000D03*
X7120000Y3530000D03*
X7230000Y1220000D03*
X7390000D03*
X7610000Y1295000D03*
X7450000Y1543660D03*
Y1470000D03*
Y2320000D03*
X7365000Y2140000D03*
X7215010Y3270000D03*
X8100000Y1295000D03*
X7820000Y1710000D03*
X8100000Y2140000D03*
X8350000Y1200000D03*
X8642510Y2356320D03*
X8442510D03*
X8242510D03*
X8642510Y2156320D03*
X8442510D03*
X8242510D03*
X8290000Y2740000D03*
Y2820000D03*
X9242510Y2356320D03*
X9042510D03*
X8842510D03*
X9242510Y2156320D03*
X9042510D03*
X8842510D03*
X9597500Y1543830D03*
X9397500D03*
X9707500Y3283830D03*
X9507500D03*
X10280160Y810150D03*
X10080160D03*
X9960160Y1670150D03*
X10160160D03*
X10060160D03*
X10260160D03*
X10223970Y3354960D03*
X10023970D03*
X10260160Y3110150D03*
X10060160D03*
X10160160D03*
X9960160D03*
X10223970Y3954960D03*
X10023970D03*
X10223970Y3754960D03*
X10023970D03*
X10223970Y3554960D03*
X10023970D03*
X10430150Y1319840D03*
Y1119840D03*
X10460160Y1670150D03*
X10360160D03*
X10423970Y3354960D03*
X10360160Y3110150D03*
X10460160D03*
X10423970Y3954960D03*
Y3754960D03*
Y3554960D03*
X12621730Y4522500D03*
G54D11*
X702000Y866000D03*
Y3914000D03*
X1210000Y866000D03*
X956000D03*
Y3914000D03*
X1210000D03*
X1718000Y866000D03*
X1464000D03*
Y3914000D03*
X1718000D03*
X3386000Y866000D03*
X3132000D03*
Y3914000D03*
X3386000D03*
X3894000Y866000D03*
X3640000D03*
Y3914000D03*
X3894000D03*
X4148000Y866000D03*
Y3914000D03*
X5053000Y1920000D03*
X5307000D03*
X5467000Y2860000D03*
X5213000D03*
X6636000Y866000D03*
X6382000D03*
Y3914000D03*
X6636000D03*
X7144000Y866000D03*
X6890000D03*
Y3914000D03*
X7144000D03*
X7398000Y866000D03*
Y3914000D03*
X9066000Y866000D03*
X8812000D03*
Y3914000D03*
X9066000D03*
X9828000Y866000D03*
X9574000D03*
X9320000D03*
Y3914000D03*
X9574000D03*
X9828000D03*
X12621730Y3887500D03*
G54D12*
X810000Y2320000D03*
X1410000D03*
X12621730Y712500D03*
G54D13*
X1130000Y2800000D03*
X12621730Y1347500D03*
G54D14*
X2065000Y3590000D03*
X2765000D03*
X4915000D03*
X5615000D03*
X7745000D03*
X8445000D03*
X12621730Y1982500D03*
G54D15*
X2190000Y3840000D03*
X2640000D03*
X5040000D03*
X5490000D03*
X7870000D03*
X8320000D03*
X12621730Y3252500D03*
G54D16*
X8780000Y1220000D03*
Y3600000D03*
X9288000Y1220000D03*
X9034000D03*
X9288000Y3600000D03*
X9034000D03*
X9542000Y1220000D03*
Y3600000D03*
X12621730Y2617500D03*
G54D17*
G01X-867300Y2234750D02*
Y2425250D01*
X-955020Y2288730D01*
X-836480D01*
G01X-709990Y2234750D02*
X-705250Y2276020D01*
X-698140Y2310950D01*
X-688660Y2342700D01*
X-676800Y2377620D01*
X-657840Y2425250D01*
X-752660D01*
G01X-514750Y2228400D02*
X-519490Y2231580D01*
Y2237920D01*
X-514750Y2241100D01*
X-510010Y2237920D01*
Y2231580D01*
X-514750Y2228400D01*
G01X-324250Y2234750D02*
X-307660Y2237920D01*
X-288690Y2247450D01*
X-276840Y2263320D01*
X-272100Y2285550D01*
X-276840Y2307770D01*
X-291060Y2326820D01*
X-312400Y2336350D01*
X-336100D01*
X-350330Y2342700D01*
X-362180Y2358570D01*
X-366920Y2380800D01*
X-359810Y2403020D01*
X-343220Y2418900D01*
X-324250Y2425250D01*
X-305290Y2418900D01*
X-288690Y2403020D01*
X-281580Y2380800D01*
X-286320Y2358570D01*
X-298170Y2342700D01*
X-312400Y2336350D01*
X-336100D01*
X-357440Y2326820D01*
X-371660Y2307770D01*
X-376400Y2285550D01*
X-371660Y2263320D01*
X-359810Y2247450D01*
X-340840Y2237920D01*
X-324250Y2234750D01*
G01X4549000Y-515250D02*
Y-324750D01*
X4520550Y-362850D01*
G01Y-515250D02*
X4577440D01*
G01X4739500Y-324750D02*
X4720530Y-331100D01*
X4706310Y-346980D01*
X4696830Y-366020D01*
X4689720Y-391430D01*
X4687350Y-420000D01*
X4689720Y-448580D01*
X4696830Y-473980D01*
X4706310Y-493030D01*
X4720530Y-508900D01*
X4739500Y-515250D01*
X4758460Y-508900D01*
X4772690Y-493030D01*
X4782170Y-473980D01*
X4789280Y-448580D01*
X4791650Y-420000D01*
X4789280Y-391430D01*
X4782170Y-366020D01*
X4772690Y-346980D01*
X4758460Y-331100D01*
X4739500Y-324750D01*
G01X4877850Y-486680D02*
X4892070Y-502550D01*
X4908660Y-512080D01*
X4930000Y-515250D01*
X4951340Y-508900D01*
X4967930Y-496200D01*
X4979780Y-473980D01*
X4982150Y-448580D01*
X4977410Y-423180D01*
X4965560Y-407300D01*
X4948960Y-394600D01*
X4932370Y-391430D01*
X4915780Y-394600D01*
X4894440Y-407300D01*
X4901550Y-324750D01*
X4965560D01*
G01X5120500Y-521600D02*
X5115760Y-518420D01*
Y-512080D01*
X5120500Y-508900D01*
X5125240Y-512080D01*
Y-518420D01*
X5120500Y-521600D01*
G01X5258850Y-477150D02*
X5273070Y-499380D01*
X5292030Y-512080D01*
X5313370Y-515250D01*
X5332340Y-512080D01*
X5351300Y-496200D01*
X5363150Y-477150D01*
X5365520Y-458100D01*
X5360780Y-435880D01*
X5344190Y-420000D01*
X5327590Y-413650D01*
X5306260D01*
G01X5327590D02*
X5341820Y-404130D01*
X5353670Y-388250D01*
X5358410Y-369200D01*
X5353670Y-350150D01*
X5341820Y-334280D01*
X5320480Y-324750D01*
X5299150Y-327920D01*
X5277810Y-340630D01*
G01X-250000Y0D02*
X-860000D01*
G01X90000Y4780000D02*
X-860000D01*
G01X-610000Y2084260D02*
Y0D01*
G01X-672500Y400000D02*
X-610000Y0D01*
X-547500Y400000D01*
X-672500D01*
G01X-610000Y2575740D02*
Y4780000D01*
G01X-547500Y4380000D02*
X-610000Y4780000D01*
X-672500Y4380000D01*
X-547500D01*
G01X0Y-250000D02*
Y-670000D01*
G01X4327390Y-420000D02*
X0D01*
G01X400000Y-357500D02*
X0Y-420000D01*
X400000Y-482500D01*
Y-357500D01*
G01X5532610Y-420000D02*
X10530000D01*
G01X10130000Y-482500D02*
X10530000Y-420000D01*
X10130000Y-357500D01*
Y-482500D01*
G01X10530000Y430000D02*
Y-670000D01*
G01X11480000Y395000D02*
Y6760000D01*
X27306740D01*
Y395000D01*
X11480000D01*
G01Y1030000D02*
X27306740D01*
G01X11480000Y1665000D02*
X27306740D01*
G01X11480000Y2300000D02*
X27306740D01*
G01X11480000Y2935000D02*
X27306740D01*
G01X11480000Y3570000D02*
X27306740D01*
G01X11480000Y4205000D02*
X27306740D01*
G01X11759520Y4998750D02*
Y5316250D01*
X11909140D01*
G01X11854010Y5162800D02*
X11759520D01*
G01X12102050Y5316250D02*
X12196530D01*
G01X12149290D02*
Y4998750D01*
G01X12102050D02*
X12196530D01*
G01X12487870Y5157500D02*
X12566620D01*
Y5062250D01*
X12542990Y5030490D01*
X12515430Y5009330D01*
X12476060Y4998750D01*
X12436690Y5009330D01*
X12409130Y5030490D01*
X12385510Y5062250D01*
X12369760Y5099290D01*
X12361880Y5141620D01*
Y5178670D01*
X12369760Y5210410D01*
X12385510Y5247460D01*
X12409130Y5279210D01*
X12432750Y5300370D01*
X12464250Y5316250D01*
X12491810D01*
X12523300Y5305670D01*
X12546930Y5284500D01*
G01X12692600Y5316250D02*
Y5088710D01*
X12708340Y5041070D01*
X12739840Y5009330D01*
X12779210Y4998750D01*
X12818580Y5009330D01*
X12850080Y5041070D01*
X12865820Y5088710D01*
Y5316250D01*
G01X13015430Y4998750D02*
Y5316250D01*
X13113850D01*
X13145350Y5300370D01*
X13165040Y5279210D01*
X13172910Y5236870D01*
X13165040Y5194540D01*
X13141410Y5168090D01*
X13113850Y5152200D01*
X13015430D01*
G01X13113850D02*
X13172910Y4998750D01*
G01X13487870D02*
X13330390D01*
Y5316250D01*
X13487870D01*
G01X13424880Y5162800D02*
X13330390D01*
G01X11480000Y4840000D02*
X27306740D01*
G01X11480000Y5475000D02*
X27306740D01*
G01X11480000Y6110000D02*
X27306740D01*
G01X13763460Y5475000D02*
Y395000D01*
G01X14357940Y4998750D02*
Y5316250D01*
X14507560D01*
G01X14452430Y5162800D02*
X14357940D01*
G01X14700470Y5316250D02*
X14794950D01*
G01X14747710D02*
Y4998750D01*
G01X14700470D02*
X14794950D01*
G01X14972120D02*
Y5316250D01*
X15153220Y4998750D01*
Y5316250D01*
G01X15330390D02*
X15424870D01*
G01X15377630D02*
Y4998750D01*
G01X15330390D02*
X15424870D01*
G01X15609910Y5041070D02*
X15641410Y5014620D01*
X15676840Y4998750D01*
X15708340D01*
X15739830Y5014620D01*
X15763460Y5041070D01*
X15775270Y5078130D01*
X15767400Y5115160D01*
X15747710Y5146910D01*
X15712270Y5168090D01*
X15665030Y5178670D01*
X15637470Y5199830D01*
X15625660Y5236870D01*
X15633540Y5273920D01*
X15653220Y5300370D01*
X15680780Y5316250D01*
X15708340D01*
X15735900Y5305670D01*
X15759520Y5279210D01*
G01X15924870Y4998750D02*
Y5316250D01*
G01X16090230D02*
Y4998750D01*
G01Y5157500D02*
X15924870D01*
G01X16401250Y4998750D02*
X16243770D01*
Y5316250D01*
X16401250D01*
G01X16338260Y5162800D02*
X16243770D01*
G01X16550860Y4998750D02*
Y5316250D01*
X16629590D01*
X16661090Y5300370D01*
X16684710Y5279210D01*
X16704400Y5247460D01*
X16720150Y5210410D01*
X16724080Y5157500D01*
X16720150Y5104580D01*
X16704400Y5067540D01*
X16684710Y5035780D01*
X16661090Y5014620D01*
X16629590Y4998750D01*
X16550860D01*
G01X16834320Y4892920D02*
X17070540D01*
G01X17184710Y5041070D02*
X17216210Y5014620D01*
X17251640Y4998750D01*
X17283140D01*
X17314630Y5014620D01*
X17338260Y5041070D01*
X17350070Y5078130D01*
X17342200Y5115160D01*
X17322510Y5146910D01*
X17287070Y5168090D01*
X17239830Y5178670D01*
X17212270Y5199830D01*
X17200460Y5236870D01*
X17208340Y5273920D01*
X17228020Y5300370D01*
X17255580Y5316250D01*
X17283140D01*
X17310700Y5305670D01*
X17334320Y5279210D01*
G01X17535110Y5316250D02*
X17629590D01*
G01X17582350D02*
Y4998750D01*
G01X17535110D02*
X17629590D01*
G01X17822500Y5316250D02*
X17972120D01*
X17822500Y4998750D01*
X17972120D01*
G01X18291010D02*
X18133530D01*
Y5316250D01*
X18291010D01*
G01X18228020Y5162800D02*
X18133530D01*
G01X15291020Y617250D02*
X15314630Y580200D01*
X15346130Y559040D01*
X15381570Y553750D01*
X15413070Y559040D01*
X15444560Y585490D01*
X15464240Y617250D01*
X15468180Y649000D01*
X15460310Y686030D01*
X15432750Y712500D01*
X15405190Y723090D01*
X15369750D01*
G01X15405190D02*
X15428810Y738960D01*
X15448500Y765410D01*
X15456370Y797160D01*
X15448500Y828920D01*
X15428810Y855370D01*
X15393380Y871250D01*
X15357950Y865960D01*
X15322510Y844790D01*
G01X15692590Y543170D02*
X15684710Y548460D01*
Y559040D01*
X15692590Y564330D01*
X15700470Y559040D01*
Y548460D01*
X15692590Y543170D01*
G01X16007550Y871250D02*
X15976050Y860670D01*
X15952430Y834210D01*
X15936680Y802460D01*
X15924870Y760120D01*
X15920940Y712500D01*
X15924870Y664870D01*
X15936680Y622540D01*
X15952430Y590780D01*
X15976050Y564330D01*
X16007550Y553750D01*
X16039040Y564330D01*
X16062670Y590780D01*
X16078420Y622540D01*
X16090230Y664870D01*
X16094160Y712500D01*
X16090230Y760120D01*
X16078420Y802460D01*
X16062670Y834210D01*
X16039040Y860670D01*
X16007550Y871250D01*
G01X16263460Y765410D02*
X16381560Y553750D01*
G01Y765410D02*
X16263460Y553750D01*
G01X16637470D02*
Y871250D01*
X16590230Y807750D01*
G01Y553750D02*
X16684710D01*
G01X16952430Y543170D02*
X16944550Y548460D01*
Y559040D01*
X16952430Y564330D01*
X16960310Y559040D01*
Y548460D01*
X16952430Y543170D01*
G01X17267390Y871250D02*
X17235890Y860670D01*
X17212270Y834210D01*
X17196520Y802460D01*
X17184710Y760120D01*
X17180780Y712500D01*
X17184710Y664870D01*
X17196520Y622540D01*
X17212270Y590780D01*
X17235890Y564330D01*
X17267390Y553750D01*
X17298880Y564330D01*
X17322510Y590780D01*
X17338260Y622540D01*
X17350070Y664870D01*
X17354000Y712500D01*
X17350070Y760120D01*
X17338260Y802460D01*
X17322510Y834210D01*
X17298880Y860670D01*
X17267390Y871250D01*
G01X15291020Y1252250D02*
X15314630Y1215200D01*
X15346130Y1194040D01*
X15381570Y1188750D01*
X15413070Y1194040D01*
X15444560Y1220490D01*
X15464240Y1252250D01*
X15468180Y1284000D01*
X15460310Y1321030D01*
X15432750Y1347500D01*
X15405190Y1358090D01*
X15369750D01*
G01X15405190D02*
X15428810Y1373960D01*
X15448500Y1400410D01*
X15456370Y1432160D01*
X15448500Y1463920D01*
X15428810Y1490370D01*
X15393380Y1506250D01*
X15357950Y1500960D01*
X15322510Y1479790D01*
G01X15692590Y1178170D02*
X15684710Y1183460D01*
Y1194040D01*
X15692590Y1199330D01*
X15700470Y1194040D01*
Y1183460D01*
X15692590Y1178170D01*
G01X16007550Y1506250D02*
X15976050Y1495670D01*
X15952430Y1469210D01*
X15936680Y1437460D01*
X15924870Y1395120D01*
X15920940Y1347500D01*
X15924870Y1299870D01*
X15936680Y1257540D01*
X15952430Y1225780D01*
X15976050Y1199330D01*
X16007550Y1188750D01*
X16039040Y1199330D01*
X16062670Y1225780D01*
X16078420Y1257540D01*
X16090230Y1299870D01*
X16094160Y1347500D01*
X16090230Y1395120D01*
X16078420Y1437460D01*
X16062670Y1469210D01*
X16039040Y1495670D01*
X16007550Y1506250D01*
G01X16263460Y1400410D02*
X16381560Y1188750D01*
G01Y1400410D02*
X16263460Y1188750D01*
G01X16637470D02*
Y1506250D01*
X16590230Y1442750D01*
G01Y1188750D02*
X16684710D01*
G01X16952430Y1178170D02*
X16944550Y1183460D01*
Y1194040D01*
X16952430Y1199330D01*
X16960310Y1194040D01*
Y1183460D01*
X16952430Y1178170D01*
G01X17267390Y1506250D02*
X17235890Y1495670D01*
X17212270Y1469210D01*
X17196520Y1437460D01*
X17184710Y1395120D01*
X17180780Y1347500D01*
X17184710Y1299870D01*
X17196520Y1257540D01*
X17212270Y1225780D01*
X17235890Y1199330D01*
X17267390Y1188750D01*
X17298880Y1199330D01*
X17322510Y1225780D01*
X17338260Y1257540D01*
X17350070Y1299870D01*
X17354000Y1347500D01*
X17350070Y1395120D01*
X17338260Y1437460D01*
X17322510Y1469210D01*
X17298880Y1495670D01*
X17267390Y1506250D01*
G01X15535110Y4681250D02*
X15503610Y4670670D01*
X15479990Y4644210D01*
X15464240Y4612460D01*
X15452430Y4570120D01*
X15448500Y4522500D01*
X15452430Y4474870D01*
X15464240Y4432540D01*
X15479990Y4400780D01*
X15503610Y4374330D01*
X15535110Y4363750D01*
X15566600Y4374330D01*
X15590230Y4400780D01*
X15605980Y4432540D01*
X15617790Y4474870D01*
X15621720Y4522500D01*
X15617790Y4570120D01*
X15605980Y4612460D01*
X15590230Y4644210D01*
X15566600Y4670670D01*
X15535110Y4681250D01*
G01X15850070Y4353170D02*
X15842190Y4358460D01*
Y4369040D01*
X15850070Y4374330D01*
X15857950Y4369040D01*
Y4358460D01*
X15850070Y4353170D01*
G01X16078420Y4427250D02*
X16102030Y4390200D01*
X16133530Y4369040D01*
X16168970Y4363750D01*
X16200470Y4369040D01*
X16231960Y4395490D01*
X16251640Y4427250D01*
X16255580Y4459000D01*
X16247710Y4496030D01*
X16220150Y4522500D01*
X16192590Y4533090D01*
X16157150D01*
G01X16192590D02*
X16216210Y4548960D01*
X16235900Y4575410D01*
X16243770Y4607160D01*
X16235900Y4638920D01*
X16216210Y4665370D01*
X16180780Y4681250D01*
X16145350Y4675960D01*
X16109910Y4654790D01*
G01X16479990Y4681250D02*
X16448490Y4670670D01*
X16424870Y4644210D01*
X16409120Y4612460D01*
X16397310Y4570120D01*
X16393380Y4522500D01*
X16397310Y4474870D01*
X16409120Y4432540D01*
X16424870Y4400780D01*
X16448490Y4374330D01*
X16479990Y4363750D01*
X16511480Y4374330D01*
X16535110Y4400780D01*
X16550860Y4432540D01*
X16562670Y4474870D01*
X16566600Y4522500D01*
X16562670Y4570120D01*
X16550860Y4612460D01*
X16535110Y4644210D01*
X16511480Y4670670D01*
X16479990Y4681250D01*
G01X16842190Y4363750D02*
Y4681250D01*
X16696520Y4453710D01*
X16893380D01*
G01X17109910Y4363750D02*
X17137470Y4369040D01*
X17168960Y4384910D01*
X17188650Y4411360D01*
X17196520Y4448420D01*
X17188650Y4485450D01*
X17165030Y4517200D01*
X17129590Y4533090D01*
X17090230D01*
X17066600Y4543670D01*
X17046910Y4570120D01*
X17039040Y4607160D01*
X17050860Y4644210D01*
X17078410Y4670670D01*
X17109910Y4681250D01*
X17141400Y4670670D01*
X17168960Y4644210D01*
X17180780Y4607160D01*
X17172900Y4570120D01*
X17153220Y4543670D01*
X17129590Y4533090D01*
X17090230D01*
X17054790Y4517200D01*
X17031170Y4485450D01*
X17023300Y4448420D01*
X17031170Y4411360D01*
X17050860Y4384910D01*
X17082350Y4369040D01*
X17109910Y4363750D01*
G01X15042980Y5633750D02*
X15141410Y5951250D01*
X15239840Y5633750D01*
G01X15204400Y5744870D02*
X15078410D01*
G01X15377630Y5951250D02*
Y5633750D01*
X15535110D01*
G01X15692590Y5951250D02*
Y5633750D01*
X15850070D01*
G01X16314640Y5951250D02*
Y5723710D01*
X16330380Y5676070D01*
X16361880Y5644330D01*
X16401250Y5633750D01*
X16440620Y5644330D01*
X16472120Y5676070D01*
X16487860Y5723710D01*
Y5951250D01*
G01X16625660Y5633750D02*
Y5951250D01*
X16806760Y5633750D01*
Y5951250D01*
G01X16983930D02*
X17078410D01*
G01X17031170D02*
Y5633750D01*
G01X16983930D02*
X17078410D01*
G01X17346130Y5951250D02*
Y5633750D01*
G01X17255580Y5951250D02*
X17436680D01*
G01X17578410Y5676070D02*
X17609910Y5649620D01*
X17645340Y5633750D01*
X17676840D01*
X17708330Y5649620D01*
X17731960Y5676070D01*
X17743770Y5713130D01*
X17735900Y5750160D01*
X17716210Y5781910D01*
X17680770Y5803090D01*
X17633530Y5813670D01*
X17605970Y5834830D01*
X17594160Y5871870D01*
X17602040Y5908920D01*
X17621720Y5935370D01*
X17649280Y5951250D01*
X17676840D01*
X17704400Y5940670D01*
X17728020Y5914210D01*
G01X18192580Y5633750D02*
X18291010Y5951250D01*
X18389440Y5633750D01*
G01X18354000Y5744870D02*
X18228010D01*
G01X18527230Y5633750D02*
Y5951250D01*
X18625650D01*
X18657150Y5935370D01*
X18676840Y5914210D01*
X18684710Y5871870D01*
X18676840Y5829540D01*
X18653210Y5803090D01*
X18625650Y5787200D01*
X18527230D01*
G01X18625650D02*
X18684710Y5633750D01*
G01X18999670D02*
X18842190D01*
Y5951250D01*
X18999670D01*
G01X18936680Y5797800D02*
X18842190D01*
G01X19503610Y5951250D02*
X19598090D01*
G01X19550850D02*
Y5633750D01*
G01X19503610D02*
X19598090D01*
G01X19775260D02*
Y5951250D01*
X19956360Y5633750D01*
Y5951250D01*
G01X20393360Y5633750D02*
Y5951250D01*
X20495730Y5686670D01*
X20598100Y5951250D01*
Y5633750D01*
G01X20763450Y5951250D02*
X20857930D01*
G01X20810690D02*
Y5633750D01*
G01X20763450D02*
X20857930D01*
G01X21046910Y5951250D02*
Y5633750D01*
X21204390D01*
G01X21361870Y5951250D02*
Y5633750D01*
X21519350D01*
G01X21708330Y5951250D02*
X21802810D01*
G01X21755570D02*
Y5633750D01*
G01X21708330D02*
X21802810D01*
G01X21968160D02*
Y5951250D01*
X22070530Y5686670D01*
X22172900Y5951250D01*
Y5633750D01*
G01X22464230D02*
X22306750D01*
Y5951250D01*
X22464230D01*
G01X22401240Y5797800D02*
X22306750D01*
G01X22700450Y5951250D02*
Y5633750D01*
G01X22609900Y5951250D02*
X22791000D01*
G01X23094150Y5633750D02*
X22936670D01*
Y5951250D01*
X23094150D01*
G01X23031160Y5797800D02*
X22936670D01*
G01X23251630Y5633750D02*
Y5951250D01*
X23350050D01*
X23381550Y5935370D01*
X23401240Y5914210D01*
X23409110Y5871870D01*
X23401240Y5829540D01*
X23377610Y5803090D01*
X23350050Y5787200D01*
X23251630D01*
G01X23350050D02*
X23409110Y5633750D01*
G01X23562650Y5676070D02*
X23594150Y5649620D01*
X23629580Y5633750D01*
X23661080D01*
X23692570Y5649620D01*
X23716200Y5676070D01*
X23728010Y5713130D01*
X23720140Y5750160D01*
X23700450Y5781910D01*
X23665010Y5803090D01*
X23617770Y5813670D01*
X23590210Y5834830D01*
X23578400Y5871870D01*
X23586280Y5908920D01*
X23605960Y5935370D01*
X23633520Y5951250D01*
X23661080D01*
X23688640Y5940670D01*
X23712260Y5914210D01*
G01X15369760Y6283750D02*
Y6601250D01*
X15448490D01*
X15479990Y6585370D01*
X15503610Y6564210D01*
X15523300Y6532460D01*
X15539050Y6495410D01*
X15542980Y6442500D01*
X15539050Y6389580D01*
X15523300Y6352540D01*
X15503610Y6320780D01*
X15479990Y6299620D01*
X15448490Y6283750D01*
X15369760D01*
G01X15692590D02*
Y6601250D01*
X15791010D01*
X15822510Y6585370D01*
X15842200Y6564210D01*
X15850070Y6521870D01*
X15842200Y6479540D01*
X15818570Y6453090D01*
X15791010Y6437200D01*
X15692590D01*
G01X15791010D02*
X15850070Y6283750D01*
G01X16039050Y6601250D02*
X16133530D01*
G01X16086290D02*
Y6283750D01*
G01X16039050D02*
X16133530D01*
G01X16322510Y6601250D02*
Y6283750D01*
X16479990D01*
G01X16637470Y6601250D02*
Y6283750D01*
X16794950D01*
G01X17432740Y6574790D02*
X17409120Y6590670D01*
X17381570Y6601250D01*
X17350070D01*
X17314630Y6585370D01*
X17287080Y6558920D01*
X17267390Y6527160D01*
X17251640Y6474250D01*
X17247700Y6426620D01*
X17255580Y6379000D01*
X17267390Y6347250D01*
X17291010Y6315490D01*
X17318570Y6294330D01*
X17346130Y6283750D01*
X17373690D01*
X17401250Y6294330D01*
X17424870Y6310200D01*
X17444560Y6331360D01*
G01X17578410Y6283750D02*
Y6601250D01*
G01X17743770D02*
Y6283750D01*
G01Y6442500D02*
X17578410D01*
G01X17877620Y6283750D02*
X17976050Y6601250D01*
X18074480Y6283750D01*
G01X18039040Y6394870D02*
X17913050D01*
G01X18212270Y6283750D02*
Y6601250D01*
X18310690D01*
X18342190Y6585370D01*
X18361880Y6564210D01*
X18369750Y6521870D01*
X18361880Y6479540D01*
X18338250Y6453090D01*
X18310690Y6437200D01*
X18212270D01*
G01X18310690D02*
X18369750Y6283750D01*
G01X18605970Y6601250D02*
Y6283750D01*
G01X18515420Y6601250D02*
X18696520D01*
G01X18920930Y6273170D02*
X18913050Y6278460D01*
Y6289040D01*
X18920930Y6294330D01*
X18928810Y6289040D01*
Y6278460D01*
X18920930Y6273170D01*
G01Y6416030D02*
X18913050Y6421330D01*
Y6431910D01*
X18920930Y6437200D01*
X18928810Y6431910D01*
Y6421330D01*
X18920930Y6416030D01*
G01X19550850Y6601250D02*
Y6283750D01*
G01X19460300Y6601250D02*
X19641400D01*
G01X19865810Y6283750D02*
X19834310Y6289040D01*
X19806760Y6310200D01*
X19783130Y6341960D01*
X19767380Y6379000D01*
X19759510Y6421330D01*
Y6463670D01*
X19767380Y6506000D01*
X19783130Y6543040D01*
X19806760Y6574790D01*
X19834310Y6595960D01*
X19865810Y6601250D01*
X19897300Y6595960D01*
X19924860Y6574790D01*
X19948490Y6543040D01*
X19964240Y6506000D01*
X19972110Y6463670D01*
Y6421330D01*
X19964240Y6379000D01*
X19948490Y6341960D01*
X19924860Y6310200D01*
X19897300Y6289040D01*
X19865810Y6283750D01*
G01X20102030D02*
Y6601250D01*
X20196520D01*
X20228010Y6585370D01*
X20251640Y6548330D01*
X20259510Y6506000D01*
X20251640Y6463670D01*
X20231950Y6431910D01*
X20196520Y6416030D01*
X20102030D01*
G01X20810690Y6601250D02*
Y6283750D01*
G01X20755570Y6495410D02*
X20865810D01*
G01X21125650Y6283750D02*
X21102030Y6289040D01*
X21078410Y6310200D01*
X21062650Y6347250D01*
X21054780Y6389580D01*
X21062650Y6431910D01*
X21078410Y6468960D01*
X21102030Y6490120D01*
X21125650Y6495410D01*
X21149270Y6490120D01*
X21172890Y6468960D01*
X21188640Y6431910D01*
X21192580Y6389580D01*
X21188640Y6347250D01*
X21172890Y6310200D01*
X21149270Y6289040D01*
X21125650Y6283750D01*
G01X21787060Y6453090D02*
X21802810Y6468960D01*
X21814620Y6495410D01*
X21822500Y6532460D01*
X21814620Y6564210D01*
X21798880Y6585370D01*
X21771320Y6601250D01*
X21665020D01*
Y6283750D01*
X21794940D01*
X21822500Y6304910D01*
X21838250Y6336670D01*
X21846120Y6373710D01*
X21838250Y6410740D01*
X21814620Y6442500D01*
X21787060Y6453090D01*
X21665020D01*
G01X22070530Y6283750D02*
X22039030Y6289040D01*
X22011480Y6310200D01*
X21987850Y6341960D01*
X21972100Y6379000D01*
X21964230Y6421330D01*
Y6463670D01*
X21972100Y6506000D01*
X21987850Y6543040D01*
X22011480Y6574790D01*
X22039030Y6595960D01*
X22070530Y6601250D01*
X22102020Y6595960D01*
X22129580Y6574790D01*
X22153210Y6543040D01*
X22168960Y6506000D01*
X22176830Y6463670D01*
Y6421330D01*
X22168960Y6379000D01*
X22153210Y6341960D01*
X22129580Y6310200D01*
X22102020Y6289040D01*
X22070530Y6283750D01*
G01X22385490Y6601250D02*
Y6283750D01*
G01X22294940Y6601250D02*
X22476040D01*
G01X22700450D02*
Y6283750D01*
G01X22609900Y6601250D02*
X22791000D01*
G01X23015410Y6283750D02*
X22983910Y6289040D01*
X22956360Y6310200D01*
X22932730Y6341960D01*
X22916980Y6379000D01*
X22909110Y6421330D01*
Y6463670D01*
X22916980Y6506000D01*
X22932730Y6543040D01*
X22956360Y6574790D01*
X22983910Y6595960D01*
X23015410Y6601250D01*
X23046900Y6595960D01*
X23074460Y6574790D01*
X23098090Y6543040D01*
X23113840Y6506000D01*
X23121710Y6463670D01*
Y6421330D01*
X23113840Y6379000D01*
X23098090Y6341960D01*
X23074460Y6310200D01*
X23046900Y6289040D01*
X23015410Y6283750D01*
G01X23228000D02*
Y6601250D01*
X23330370Y6336670D01*
X23432740Y6601250D01*
Y6283750D01*
G01X16007550Y1823750D02*
Y2141250D01*
X15960310Y2077750D01*
G01Y1823750D02*
X16054790D01*
G01X16322510Y1813170D02*
X16314630Y1818460D01*
Y1829040D01*
X16322510Y1834330D01*
X16330390Y1829040D01*
Y1818460D01*
X16322510Y1813170D01*
G01X16550860Y1871360D02*
X16574470Y1844910D01*
X16602030Y1829040D01*
X16637470Y1823750D01*
X16672910Y1834330D01*
X16700460Y1855490D01*
X16720150Y1892540D01*
X16724080Y1934870D01*
X16716210Y1977200D01*
X16696520Y2003670D01*
X16668960Y2024830D01*
X16641410Y2030120D01*
X16613850Y2024830D01*
X16578420Y2003670D01*
X16590230Y2141250D01*
X16696520D01*
G01X16007550Y2458750D02*
Y2776250D01*
X15960310Y2712750D01*
G01Y2458750D02*
X16054790D01*
G01X16322510Y2448170D02*
X16314630Y2453460D01*
Y2464040D01*
X16322510Y2469330D01*
X16330390Y2464040D01*
Y2453460D01*
X16322510Y2448170D01*
G01X16637470Y2458750D02*
Y2776250D01*
X16590230Y2712750D01*
G01Y2458750D02*
X16684710D01*
G01X16007550Y3411250D02*
X15976050Y3400670D01*
X15952430Y3374210D01*
X15936680Y3342460D01*
X15924870Y3300120D01*
X15920940Y3252500D01*
X15924870Y3204870D01*
X15936680Y3162540D01*
X15952430Y3130780D01*
X15976050Y3104330D01*
X16007550Y3093750D01*
X16039040Y3104330D01*
X16062670Y3130780D01*
X16078420Y3162540D01*
X16090230Y3204870D01*
X16094160Y3252500D01*
X16090230Y3300120D01*
X16078420Y3342460D01*
X16062670Y3374210D01*
X16039040Y3400670D01*
X16007550Y3411250D01*
G01X16322510Y3083170D02*
X16314630Y3088460D01*
Y3099040D01*
X16322510Y3104330D01*
X16330390Y3099040D01*
Y3088460D01*
X16322510Y3083170D01*
G01X16570540Y3130780D02*
X16598100Y3104330D01*
X16629590Y3093750D01*
X16661090Y3104330D01*
X16688650Y3136070D01*
X16708340Y3183710D01*
X16716210Y3231330D01*
Y3289540D01*
X16708340Y3337160D01*
X16688650Y3379500D01*
X16665030Y3400670D01*
X16637470Y3411250D01*
X16605970Y3400670D01*
X16582350Y3379500D01*
X16566600Y3347750D01*
X16558730Y3305410D01*
X16566600Y3268380D01*
X16586290Y3231330D01*
X16609910Y3210160D01*
X16637470Y3204870D01*
X16668960Y3215450D01*
X16692590Y3241910D01*
X16716210Y3289540D01*
G01X16007550Y4046250D02*
X15976050Y4035670D01*
X15952430Y4009210D01*
X15936680Y3977460D01*
X15924870Y3935120D01*
X15920940Y3887500D01*
X15924870Y3839870D01*
X15936680Y3797540D01*
X15952430Y3765780D01*
X15976050Y3739330D01*
X16007550Y3728750D01*
X16039040Y3739330D01*
X16062670Y3765780D01*
X16078420Y3797540D01*
X16090230Y3839870D01*
X16094160Y3887500D01*
X16090230Y3935120D01*
X16078420Y3977460D01*
X16062670Y4009210D01*
X16039040Y4035670D01*
X16007550Y4046250D01*
G01X16322510Y3718170D02*
X16314630Y3723460D01*
Y3734040D01*
X16322510Y3739330D01*
X16330390Y3734040D01*
Y3723460D01*
X16322510Y3718170D01*
G01X16637470Y3728750D02*
X16665030Y3734040D01*
X16696520Y3749910D01*
X16716210Y3776360D01*
X16724080Y3813420D01*
X16716210Y3850450D01*
X16692590Y3882200D01*
X16657150Y3898090D01*
X16617790D01*
X16594160Y3908670D01*
X16574470Y3935120D01*
X16566600Y3972160D01*
X16578420Y4009210D01*
X16605970Y4035670D01*
X16637470Y4046250D01*
X16668960Y4035670D01*
X16696520Y4009210D01*
X16708340Y3972160D01*
X16700460Y3935120D01*
X16680780Y3908670D01*
X16657150Y3898090D01*
X16617790D01*
X16582350Y3882200D01*
X16558730Y3850450D01*
X16550860Y3813420D01*
X16558730Y3776360D01*
X16578420Y3749910D01*
X16609910Y3734040D01*
X16637470Y3728750D01*
G01X18881560Y5475000D02*
Y395000D01*
G01X19641400Y590780D02*
X19668960Y564330D01*
X19700450Y553750D01*
X19731950Y564330D01*
X19759510Y596070D01*
X19779200Y643710D01*
X19787070Y691330D01*
Y749540D01*
X19779200Y797160D01*
X19759510Y839500D01*
X19735890Y860670D01*
X19708330Y871250D01*
X19676830Y860670D01*
X19653210Y839500D01*
X19637460Y807750D01*
X19629590Y765410D01*
X19637460Y728380D01*
X19657150Y691330D01*
X19680770Y670160D01*
X19708330Y664870D01*
X19739820Y675450D01*
X19763450Y701910D01*
X19787070Y749540D01*
G01X20023290Y871250D02*
X19991790Y860670D01*
X19968170Y834210D01*
X19952420Y802460D01*
X19940610Y760120D01*
X19936680Y712500D01*
X19940610Y664870D01*
X19952420Y622540D01*
X19968170Y590780D01*
X19991790Y564330D01*
X20023290Y553750D01*
X20054780Y564330D01*
X20078410Y590780D01*
X20094160Y622540D01*
X20105970Y664870D01*
X20109900Y712500D01*
X20105970Y760120D01*
X20094160Y802460D01*
X20078410Y834210D01*
X20054780Y860670D01*
X20023290Y871250D01*
G01X20338250Y543170D02*
X20330370Y548460D01*
Y559040D01*
X20338250Y564330D01*
X20346130Y559040D01*
Y548460D01*
X20338250Y543170D01*
G01X20653210Y871250D02*
X20621710Y860670D01*
X20598090Y834210D01*
X20582340Y802460D01*
X20570530Y760120D01*
X20566600Y712500D01*
X20570530Y664870D01*
X20582340Y622540D01*
X20598090Y590780D01*
X20621710Y564330D01*
X20653210Y553750D01*
X20684700Y564330D01*
X20708330Y590780D01*
X20724080Y622540D01*
X20735890Y664870D01*
X20739820Y712500D01*
X20735890Y760120D01*
X20724080Y802460D01*
X20708330Y834210D01*
X20684700Y860670D01*
X20653210Y871250D01*
G01X20968170D02*
X20936670Y860670D01*
X20913050Y834210D01*
X20897300Y802460D01*
X20885490Y760120D01*
X20881560Y712500D01*
X20885490Y664870D01*
X20897300Y622540D01*
X20913050Y590780D01*
X20936670Y564330D01*
X20968170Y553750D01*
X20999660Y564330D01*
X21023290Y590780D01*
X21039040Y622540D01*
X21050850Y664870D01*
X21054780Y712500D01*
X21050850Y760120D01*
X21039040Y802460D01*
X21023290Y834210D01*
X20999660Y860670D01*
X20968170Y871250D01*
G01X21283130D02*
X21251630Y860670D01*
X21228010Y834210D01*
X21212260Y802460D01*
X21200450Y760120D01*
X21196520Y712500D01*
X21200450Y664870D01*
X21212260Y622540D01*
X21228010Y590780D01*
X21251630Y564330D01*
X21283130Y553750D01*
X21314620Y564330D01*
X21338250Y590780D01*
X21354000Y622540D01*
X21365810Y664870D01*
X21369740Y712500D01*
X21365810Y760120D01*
X21354000Y802460D01*
X21338250Y834210D01*
X21314620Y860670D01*
X21283130Y871250D01*
G01X19314630Y4998750D02*
Y5316250D01*
X19413050D01*
X19444550Y5300370D01*
X19464240Y5279210D01*
X19472110Y5236870D01*
X19464240Y5194540D01*
X19440610Y5168090D01*
X19413050Y5152200D01*
X19314630D01*
G01X19413050D02*
X19472110Y4998750D01*
G01X19708330D02*
X19676830Y5004040D01*
X19649280Y5025200D01*
X19625650Y5056960D01*
X19609900Y5094000D01*
X19602030Y5136330D01*
Y5178670D01*
X19609900Y5221000D01*
X19625650Y5258040D01*
X19649280Y5289790D01*
X19676830Y5310960D01*
X19708330Y5316250D01*
X19739820Y5310960D01*
X19767380Y5289790D01*
X19791010Y5258040D01*
X19806760Y5221000D01*
X19814630Y5178670D01*
Y5136330D01*
X19806760Y5094000D01*
X19791010Y5056960D01*
X19767380Y5025200D01*
X19739820Y5004040D01*
X19708330Y4998750D01*
G01X20023290Y5316250D02*
Y4998750D01*
G01X19932740Y5316250D02*
X20113840D01*
G01X20239820Y4998750D02*
X20338250Y5316250D01*
X20436680Y4998750D01*
G01X20401240Y5109870D02*
X20275250D01*
G01X20653210Y5316250D02*
Y4998750D01*
G01X20562660Y5316250D02*
X20743760D01*
G01X20920930D02*
X21015410D01*
G01X20968170D02*
Y4998750D01*
G01X20920930D02*
X21015410D01*
G01X21283130D02*
X21251630Y5004040D01*
X21224080Y5025200D01*
X21200450Y5056960D01*
X21184700Y5094000D01*
X21176830Y5136330D01*
Y5178670D01*
X21184700Y5221000D01*
X21200450Y5258040D01*
X21224080Y5289790D01*
X21251630Y5310960D01*
X21283130Y5316250D01*
X21314620Y5310960D01*
X21342180Y5289790D01*
X21365810Y5258040D01*
X21381560Y5221000D01*
X21389430Y5178670D01*
Y5136330D01*
X21381560Y5094000D01*
X21365810Y5056960D01*
X21342180Y5025200D01*
X21314620Y5004040D01*
X21283130Y4998750D01*
G01X21507540D02*
Y5316250D01*
X21688640Y4998750D01*
Y5316250D01*
G01X19865810Y1506250D02*
X19834310Y1495670D01*
X19810690Y1469210D01*
X19794940Y1437460D01*
X19783130Y1395120D01*
X19779200Y1347500D01*
X19783130Y1299870D01*
X19794940Y1257540D01*
X19810690Y1225780D01*
X19834310Y1199330D01*
X19865810Y1188750D01*
X19897300Y1199330D01*
X19920930Y1225780D01*
X19936680Y1257540D01*
X19948490Y1299870D01*
X19952420Y1347500D01*
X19948490Y1395120D01*
X19936680Y1437460D01*
X19920930Y1469210D01*
X19897300Y1495670D01*
X19865810Y1506250D01*
G01X20180770Y1178170D02*
X20172890Y1183460D01*
Y1194040D01*
X20180770Y1199330D01*
X20188650Y1194040D01*
Y1183460D01*
X20180770Y1178170D01*
G01X20495730Y1506250D02*
X20464230Y1495670D01*
X20440610Y1469210D01*
X20424860Y1437460D01*
X20413050Y1395120D01*
X20409120Y1347500D01*
X20413050Y1299870D01*
X20424860Y1257540D01*
X20440610Y1225780D01*
X20464230Y1199330D01*
X20495730Y1188750D01*
X20527220Y1199330D01*
X20550850Y1225780D01*
X20566600Y1257540D01*
X20578410Y1299870D01*
X20582340Y1347500D01*
X20578410Y1395120D01*
X20566600Y1437460D01*
X20550850Y1469210D01*
X20527220Y1495670D01*
X20495730Y1506250D01*
G01X20810690D02*
X20779190Y1495670D01*
X20755570Y1469210D01*
X20739820Y1437460D01*
X20728010Y1395120D01*
X20724080Y1347500D01*
X20728010Y1299870D01*
X20739820Y1257540D01*
X20755570Y1225780D01*
X20779190Y1199330D01*
X20810690Y1188750D01*
X20842180Y1199330D01*
X20865810Y1225780D01*
X20881560Y1257540D01*
X20893370Y1299870D01*
X20897300Y1347500D01*
X20893370Y1395120D01*
X20881560Y1437460D01*
X20865810Y1469210D01*
X20842180Y1495670D01*
X20810690Y1506250D01*
G01X21125650D02*
X21094150Y1495670D01*
X21070530Y1469210D01*
X21054780Y1437460D01*
X21042970Y1395120D01*
X21039040Y1347500D01*
X21042970Y1299870D01*
X21054780Y1257540D01*
X21070530Y1225780D01*
X21094150Y1199330D01*
X21125650Y1188750D01*
X21157140Y1199330D01*
X21180770Y1225780D01*
X21196520Y1257540D01*
X21208330Y1299870D01*
X21212260Y1347500D01*
X21208330Y1395120D01*
X21196520Y1437460D01*
X21180770Y1469210D01*
X21157140Y1495670D01*
X21125650Y1506250D01*
G01X20444550Y1929580D02*
X20546910D01*
G01X20444550Y2564580D02*
X20546910D01*
G01X20444550Y3199580D02*
X20546910D01*
G01X20444550Y3834580D02*
X20546910D01*
G01X20444550Y4469580D02*
X20546910D01*
G01X21438070Y236250D02*
Y-81250D01*
G01X21347520Y236250D02*
X21528620D01*
G01X21753030Y-81250D02*
X21721530Y-75960D01*
X21693980Y-54800D01*
X21670350Y-23040D01*
X21654600Y14000D01*
X21646730Y56330D01*
Y98670D01*
X21654600Y141000D01*
X21670350Y178040D01*
X21693980Y209790D01*
X21721530Y230960D01*
X21753030Y236250D01*
X21784520Y230960D01*
X21812080Y209790D01*
X21835710Y178040D01*
X21851460Y141000D01*
X21859330Y98670D01*
Y56330D01*
X21851460Y14000D01*
X21835710Y-23040D01*
X21812080Y-54800D01*
X21784520Y-75960D01*
X21753030Y-81250D01*
G01X22067990Y236250D02*
Y-81250D01*
G01X21977440Y236250D02*
X22158540D01*
G01X22284520Y-81250D02*
X22382950Y236250D01*
X22481380Y-81250D01*
G01X22445940Y29870D02*
X22319950D01*
G01X22619170Y236250D02*
Y-81250D01*
X22776650D01*
G01X23245150D02*
Y236250D01*
G01X23410510D02*
Y-81250D01*
G01Y77500D02*
X23245150D01*
G01X23642790Y-81250D02*
X23611290Y-75960D01*
X23583740Y-54800D01*
X23560110Y-23040D01*
X23544360Y14000D01*
X23536490Y56330D01*
Y98670D01*
X23544360Y141000D01*
X23560110Y178040D01*
X23583740Y209790D01*
X23611290Y230960D01*
X23642790Y236250D01*
X23674280Y230960D01*
X23701840Y209790D01*
X23725470Y178040D01*
X23741220Y141000D01*
X23749090Y98670D01*
Y56330D01*
X23741220Y14000D01*
X23725470Y-23040D01*
X23701840Y-54800D01*
X23674280Y-75960D01*
X23642790Y-81250D01*
G01X23879010Y236250D02*
Y-81250D01*
X24036490D01*
G01X24351450D02*
X24193970D01*
Y236250D01*
X24351450D01*
G01X24288460Y82800D02*
X24193970D01*
G01X24504990Y-38930D02*
X24536490Y-65380D01*
X24571920Y-81250D01*
X24603420D01*
X24634910Y-65380D01*
X24658540Y-38930D01*
X24670350Y-1870D01*
X24662480Y35160D01*
X24642790Y66910D01*
X24607350Y88090D01*
X24560110Y98670D01*
X24532550Y119830D01*
X24520740Y156870D01*
X24528620Y193920D01*
X24548300Y220370D01*
X24575860Y236250D01*
X24603420D01*
X24630980Y225670D01*
X24654600Y199210D01*
G01X24902630Y-91830D02*
X24894750Y-86540D01*
Y-75960D01*
X24902630Y-70670D01*
X24910510Y-75960D01*
Y-86540D01*
X24902630Y-91830D01*
G01Y51030D02*
X24894750Y56330D01*
Y66910D01*
X24902630Y72200D01*
X24910510Y66910D01*
Y56330D01*
X24902630Y51030D01*
G01X22109900Y5475000D02*
Y395000D01*
G01X22857930Y553750D02*
Y871250D01*
X22952420D01*
X22983910Y855370D01*
X23007540Y818330D01*
X23015410Y776000D01*
X23007540Y733670D01*
X22987850Y701910D01*
X22952420Y686030D01*
X22857930D01*
G01X23172890Y871250D02*
Y553750D01*
X23330370D01*
G01X23468160D02*
X23566590Y871250D01*
X23665020Y553750D01*
G01X23629580Y664870D02*
X23503590D01*
G01X23881550Y871250D02*
Y553750D01*
G01X23791000Y871250D02*
X23972100D01*
G01X24275250Y553750D02*
X24117770D01*
Y871250D01*
X24275250D01*
G01X24212260Y717800D02*
X24117770D01*
G01X24424860Y553750D02*
Y871250D01*
X24503590D01*
X24535090Y855370D01*
X24558710Y834210D01*
X24578400Y802460D01*
X24594150Y765410D01*
X24598080Y712500D01*
X24594150Y659580D01*
X24578400Y622540D01*
X24558710Y590780D01*
X24535090Y569620D01*
X24503590Y553750D01*
X24424860D01*
G01X22857930Y1188750D02*
Y1506250D01*
X22952420D01*
X22983910Y1490370D01*
X23007540Y1453330D01*
X23015410Y1411000D01*
X23007540Y1368670D01*
X22987850Y1336910D01*
X22952420Y1321030D01*
X22857930D01*
G01X23172890Y1506250D02*
Y1188750D01*
X23330370D01*
G01X23468160D02*
X23566590Y1506250D01*
X23665020Y1188750D01*
G01X23629580Y1299870D02*
X23503590D01*
G01X23881550Y1506250D02*
Y1188750D01*
G01X23791000Y1506250D02*
X23972100D01*
G01X24275250Y1188750D02*
X24117770D01*
Y1506250D01*
X24275250D01*
G01X24212260Y1352800D02*
X24117770D01*
G01X24424860Y1188750D02*
Y1506250D01*
X24503590D01*
X24535090Y1490370D01*
X24558710Y1469210D01*
X24578400Y1437460D01*
X24594150Y1400410D01*
X24598080Y1347500D01*
X24594150Y1294580D01*
X24578400Y1257540D01*
X24558710Y1225780D01*
X24535090Y1204620D01*
X24503590Y1188750D01*
X24424860D01*
G01X22857930Y1823750D02*
Y2141250D01*
X22952420D01*
X22983910Y2125370D01*
X23007540Y2088330D01*
X23015410Y2046000D01*
X23007540Y2003670D01*
X22987850Y1971910D01*
X22952420Y1956030D01*
X22857930D01*
G01X23172890Y2141250D02*
Y1823750D01*
X23330370D01*
G01X23468160D02*
X23566590Y2141250D01*
X23665020Y1823750D01*
G01X23629580Y1934870D02*
X23503590D01*
G01X23881550Y2141250D02*
Y1823750D01*
G01X23791000Y2141250D02*
X23972100D01*
G01X24275250Y1823750D02*
X24117770D01*
Y2141250D01*
X24275250D01*
G01X24212260Y1987800D02*
X24117770D01*
G01X24424860Y1823750D02*
Y2141250D01*
X24503590D01*
X24535090Y2125370D01*
X24558710Y2104210D01*
X24578400Y2072460D01*
X24594150Y2035410D01*
X24598080Y1982500D01*
X24594150Y1929580D01*
X24578400Y1892540D01*
X24558710Y1860780D01*
X24535090Y1839620D01*
X24503590Y1823750D01*
X24424860D01*
G01X22857930Y2458750D02*
Y2776250D01*
X22952420D01*
X22983910Y2760370D01*
X23007540Y2723330D01*
X23015410Y2681000D01*
X23007540Y2638670D01*
X22987850Y2606910D01*
X22952420Y2591030D01*
X22857930D01*
G01X23172890Y2776250D02*
Y2458750D01*
X23330370D01*
G01X23468160D02*
X23566590Y2776250D01*
X23665020Y2458750D01*
G01X23629580Y2569870D02*
X23503590D01*
G01X23881550Y2776250D02*
Y2458750D01*
G01X23791000Y2776250D02*
X23972100D01*
G01X24275250Y2458750D02*
X24117770D01*
Y2776250D01*
X24275250D01*
G01X24212260Y2622800D02*
X24117770D01*
G01X24424860Y2458750D02*
Y2776250D01*
X24503590D01*
X24535090Y2760370D01*
X24558710Y2739210D01*
X24578400Y2707460D01*
X24594150Y2670410D01*
X24598080Y2617500D01*
X24594150Y2564580D01*
X24578400Y2527540D01*
X24558710Y2495780D01*
X24535090Y2474620D01*
X24503590Y2458750D01*
X24424860D01*
G01X22857930Y3093750D02*
Y3411250D01*
X22952420D01*
X22983910Y3395370D01*
X23007540Y3358330D01*
X23015410Y3316000D01*
X23007540Y3273670D01*
X22987850Y3241910D01*
X22952420Y3226030D01*
X22857930D01*
G01X23172890Y3411250D02*
Y3093750D01*
X23330370D01*
G01X23468160D02*
X23566590Y3411250D01*
X23665020Y3093750D01*
G01X23629580Y3204870D02*
X23503590D01*
G01X23881550Y3411250D02*
Y3093750D01*
G01X23791000Y3411250D02*
X23972100D01*
G01X24275250Y3093750D02*
X24117770D01*
Y3411250D01*
X24275250D01*
G01X24212260Y3257800D02*
X24117770D01*
G01X24424860Y3093750D02*
Y3411250D01*
X24503590D01*
X24535090Y3395370D01*
X24558710Y3374210D01*
X24578400Y3342460D01*
X24594150Y3305410D01*
X24598080Y3252500D01*
X24594150Y3199580D01*
X24578400Y3162540D01*
X24558710Y3130780D01*
X24535090Y3109620D01*
X24503590Y3093750D01*
X24424860D01*
G01X22857930Y3728750D02*
Y4046250D01*
X22952420D01*
X22983910Y4030370D01*
X23007540Y3993330D01*
X23015410Y3951000D01*
X23007540Y3908670D01*
X22987850Y3876910D01*
X22952420Y3861030D01*
X22857930D01*
G01X23172890Y4046250D02*
Y3728750D01*
X23330370D01*
G01X23468160D02*
X23566590Y4046250D01*
X23665020Y3728750D01*
G01X23629580Y3839870D02*
X23503590D01*
G01X23881550Y4046250D02*
Y3728750D01*
G01X23791000Y4046250D02*
X23972100D01*
G01X24275250Y3728750D02*
X24117770D01*
Y4046250D01*
X24275250D01*
G01X24212260Y3892800D02*
X24117770D01*
G01X24424860Y3728750D02*
Y4046250D01*
X24503590D01*
X24535090Y4030370D01*
X24558710Y4009210D01*
X24578400Y3977460D01*
X24594150Y3940410D01*
X24598080Y3887500D01*
X24594150Y3834580D01*
X24578400Y3797540D01*
X24558710Y3765780D01*
X24535090Y3744620D01*
X24503590Y3728750D01*
X24424860D01*
G01X22857930Y4363750D02*
Y4681250D01*
X22952420D01*
X22983910Y4665370D01*
X23007540Y4628330D01*
X23015410Y4586000D01*
X23007540Y4543670D01*
X22987850Y4511910D01*
X22952420Y4496030D01*
X22857930D01*
G01X23172890Y4681250D02*
Y4363750D01*
X23330370D01*
G01X23468160D02*
X23566590Y4681250D01*
X23665020Y4363750D01*
G01X23629580Y4474870D02*
X23503590D01*
G01X23881550Y4681250D02*
Y4363750D01*
G01X23791000Y4681250D02*
X23972100D01*
G01X24275250Y4363750D02*
X24117770D01*
Y4681250D01*
X24275250D01*
G01X24212260Y4527800D02*
X24117770D01*
G01X24424860Y4363750D02*
Y4681250D01*
X24503590D01*
X24535090Y4665370D01*
X24558710Y4644210D01*
X24578400Y4612460D01*
X24594150Y4575410D01*
X24598080Y4522500D01*
X24594150Y4469580D01*
X24578400Y4432540D01*
X24558710Y4400780D01*
X24535090Y4379620D01*
X24503590Y4363750D01*
X24424860D01*
G01X22857930Y4998750D02*
Y5316250D01*
X22952420D01*
X22983910Y5300370D01*
X23007540Y5263330D01*
X23015410Y5221000D01*
X23007540Y5178670D01*
X22987850Y5146910D01*
X22952420Y5131030D01*
X22857930D01*
G01X23172890Y5316250D02*
Y4998750D01*
X23330370D01*
G01X23468160D02*
X23566590Y5316250D01*
X23665020Y4998750D01*
G01X23629580Y5109870D02*
X23503590D01*
G01X23881550Y5316250D02*
Y4998750D01*
G01X23791000Y5316250D02*
X23972100D01*
G01X24275250Y4998750D02*
X24117770D01*
Y5316250D01*
X24275250D01*
G01X24212260Y5162800D02*
X24117770D01*
G01X24424860Y4998750D02*
Y5316250D01*
X24503590D01*
X24535090Y5300370D01*
X24558710Y5279210D01*
X24578400Y5247460D01*
X24594150Y5210410D01*
X24598080Y5157500D01*
X24594150Y5104580D01*
X24578400Y5067540D01*
X24558710Y5035780D01*
X24535090Y5014620D01*
X24503590Y4998750D01*
X24424860D01*
G01X25338240Y5475000D02*
Y395000D01*
G01X25932720Y183330D02*
X25956350Y215080D01*
X25983910Y230960D01*
X26015410Y236250D01*
X26054770Y225670D01*
X26082340Y199210D01*
X26090210Y167460D01*
X26086270Y135700D01*
X26070520Y109250D01*
X25991780Y56330D01*
X25956350Y19290D01*
X25932720Y-33640D01*
X25924850Y-81250D01*
X26090210D01*
G01X26247680Y51030D02*
X26275250Y88090D01*
X26298870Y109250D01*
X26330370Y119830D01*
X26357930Y109250D01*
X26377610Y88090D01*
X26393360Y56330D01*
X26397300Y19290D01*
X26393360Y-12460D01*
X26377610Y-44220D01*
X26353980Y-70670D01*
X26326430Y-81250D01*
X26294930Y-70670D01*
X26267370Y-38930D01*
X26251620Y8710D01*
X26247680Y61620D01*
X26255560Y130410D01*
X26267370Y167460D01*
X26287050Y204500D01*
X26314610Y230960D01*
X26342170Y236250D01*
X26369730Y225670D01*
X26389420Y199210D01*
G01X26637450Y-81250D02*
Y236250D01*
X26590210Y172750D01*
G01Y-81250D02*
X26684690D01*
G01X26007530Y4363750D02*
Y4681250D01*
X25960290Y4617750D01*
G01Y4363750D02*
X26054770D01*
G01X26255560Y4400780D02*
X26283120Y4374330D01*
X26314610Y4363750D01*
X26346110Y4374330D01*
X26373670Y4406070D01*
X26393360Y4453710D01*
X26401230Y4501330D01*
Y4559540D01*
X26393360Y4607160D01*
X26373670Y4649500D01*
X26350050Y4670670D01*
X26322490Y4681250D01*
X26290990Y4670670D01*
X26267370Y4649500D01*
X26251620Y4617750D01*
X26243750Y4575410D01*
X26251620Y4538380D01*
X26271310Y4501330D01*
X26294930Y4480160D01*
X26322490Y4474870D01*
X26353980Y4485450D01*
X26377610Y4511910D01*
X26401230Y4559540D01*
G01X26684690Y4363750D02*
Y4681250D01*
X26539020Y4453710D01*
X26735880D01*
G01X26007530Y4998750D02*
X25976030Y5004040D01*
X25948480Y5025200D01*
X25924850Y5056960D01*
X25909100Y5094000D01*
X25901230Y5136330D01*
Y5178670D01*
X25909100Y5221000D01*
X25924850Y5258040D01*
X25948480Y5289790D01*
X25976030Y5310960D01*
X26007530Y5316250D01*
X26039020Y5310960D01*
X26066580Y5289790D01*
X26090210Y5258040D01*
X26105960Y5221000D01*
X26113830Y5178670D01*
Y5136330D01*
X26105960Y5094000D01*
X26090210Y5056960D01*
X26066580Y5025200D01*
X26039020Y5004040D01*
X26007530Y4998750D01*
G01X26039020Y5083420D02*
X26086270Y4998750D01*
G01X26322490Y5316250D02*
Y4998750D01*
G01X26231940Y5316250D02*
X26413040D01*
G01X26637450Y4998750D02*
Y5141620D01*
X26558710Y5316250D01*
G01X26716190D02*
X26637450Y5141620D01*
G01X26247680Y818330D02*
X26271310Y850080D01*
X26298870Y865960D01*
X26330370Y871250D01*
X26369730Y860670D01*
X26397300Y834210D01*
X26405170Y802460D01*
X26401230Y770700D01*
X26385480Y744250D01*
X26306740Y691330D01*
X26271310Y654290D01*
X26247680Y601360D01*
X26239810Y553750D01*
X26405170D01*
G01X26322490Y1188750D02*
Y1506250D01*
X26275250Y1442750D01*
G01Y1188750D02*
X26369730D01*
G01X26247680Y1956030D02*
X26275250Y1993090D01*
X26298870Y2014250D01*
X26330370Y2024830D01*
X26357930Y2014250D01*
X26377610Y1993090D01*
X26393360Y1961330D01*
X26397300Y1924290D01*
X26393360Y1892540D01*
X26377610Y1860780D01*
X26353980Y1834330D01*
X26326430Y1823750D01*
X26294930Y1834330D01*
X26267370Y1866070D01*
X26251620Y1913710D01*
X26247680Y1966620D01*
X26255560Y2035410D01*
X26267370Y2072460D01*
X26287050Y2109500D01*
X26314610Y2135960D01*
X26342170Y2141250D01*
X26369730Y2130670D01*
X26389420Y2104210D01*
G01X26322490Y2458750D02*
X26350050Y2464040D01*
X26381540Y2479910D01*
X26401230Y2506360D01*
X26409100Y2543420D01*
X26401230Y2580450D01*
X26377610Y2612200D01*
X26342170Y2628090D01*
X26302810D01*
X26279180Y2638670D01*
X26259490Y2665120D01*
X26251620Y2702160D01*
X26263440Y2739210D01*
X26290990Y2765670D01*
X26322490Y2776250D01*
X26353980Y2765670D01*
X26381540Y2739210D01*
X26393360Y2702160D01*
X26385480Y2665120D01*
X26365800Y2638670D01*
X26342170Y2628090D01*
X26302810D01*
X26267370Y2612200D01*
X26243750Y2580450D01*
X26235880Y2543420D01*
X26243750Y2506360D01*
X26263440Y2479910D01*
X26294930Y2464040D01*
X26322490Y2458750D01*
G01X26247680Y3226030D02*
X26275250Y3263090D01*
X26298870Y3284250D01*
X26330370Y3294830D01*
X26357930Y3284250D01*
X26377610Y3263090D01*
X26393360Y3231330D01*
X26397300Y3194290D01*
X26393360Y3162540D01*
X26377610Y3130780D01*
X26353980Y3104330D01*
X26326430Y3093750D01*
X26294930Y3104330D01*
X26267370Y3136070D01*
X26251620Y3183710D01*
X26247680Y3236620D01*
X26255560Y3305410D01*
X26267370Y3342460D01*
X26287050Y3379500D01*
X26314610Y3405960D01*
X26342170Y3411250D01*
X26369730Y3400670D01*
X26389420Y3374210D01*
G01X26212250Y3728750D02*
Y4046250D01*
X26066580Y3818710D01*
X26263440D01*
G01X26527210Y3728750D02*
Y4046250D01*
X26381540Y3818710D01*
X26578400D01*
M02*
