M48
METRIC,TZ
T01C.3048
T02C.8
T03C.9
T04C1.1
T05C1.5
;LEADER: 12 
;HEADER: 
;CODE  : ASCII 
;FILE  : F103_TUBE_CLOCK_V10A-1-2.drl for board H:/Nixie-Tube-Clock/HARDWARE/F103_TUBE_CLOCK_V10A/PCB/#Taaaafm12588.tmp ... layers TOP and BOTTOM
;T01 Holesize 1. = 0.304800 Tolerance = +0.000000/-0.000000 PLATED MM Quantity = 170
;T02 Holesize 2. = 0.800000 Tolerance = +0.000000/-0.000000 PLATED MM Quantity = 44
;T03 Holesize 3. = 0.900000 Tolerance = +0.000000/-0.000000 PLATED MM Quantity = 6
;T04 Holesize 4. = 1.100000 Tolerance = +0.000000/-0.000000 PLATED MM Quantity = 8
;T05 Holesize 5. = 1.500000 Tolerance = +0.000000/-0.000000 PLATED MM Quantity = 6
%
G90
T01
X140000Y80000
X500000Y80000
X570000Y410000
X680000Y410000
X140000Y500000
X680000Y500000
X360000Y710000
X440000Y710000
X220000Y880000
X180000Y930000
X274650Y1419040
X274650Y1619040
X274650Y1819040
X274650Y2019040
X274650Y2219040
X759040Y2385350
X99040Y3235350
X299040Y3235350
X499040Y3235350
X959040Y2385350
X1159040Y2385350
X2178790Y2394700
X1978790Y2394700
X1778790Y2394700
X2126190Y931210
X1910000Y440000
X2850000Y930000
X2326190Y931210
X2591840Y979250
X2591840Y1179250
X2591840Y1379250
X2591840Y1579250
X2378790Y2394700
X2980000Y3270000
X3808580Y2483830
X3608580Y2483830
X3408580Y2483830
X3808580Y2283830
X3608580Y2283830
X3408580Y2283830
X3597060Y1501640
X3597060Y1301640
X3597060Y1101640
X3597060Y901640
X3340000Y700000
X3250000Y700000
X3160000Y700000
X3250000Y610000
X3160000Y610000
X4300000Y180000
X4400000Y180000
X4490000Y180000
X4230000Y280000
X4220000Y420000
X4390000Y820000
X4490000Y820000
X4092280Y1108600
X4292280Y1108600
X4492280Y1108600
X4092280Y1308600
X4292280Y1308600
X4492280Y1308600
X3860000Y1850000
X4077500Y2113830
X4277500Y2113830
X4477500Y2113830
X4677500Y2113830
X4692280Y1308600
X4692280Y1108600
X4800000Y860000
X4600000Y820000
X5192280Y768600
X5190000Y520000
X5190000Y340000
X4680000Y280000
X5960000Y430000
X5392280Y768600
X5870000Y1400000
X5830000Y1720000
X5450000Y1730000
X5450000Y1870000
X5830000Y1870000
X5630000Y2000000
X5830000Y2010000
X5830000Y2170000
X5790000Y2290000
X5880000Y2430000
X5440000Y2530000
X5950000Y2840000
X6800000Y2320000
X6720000Y2010000
X6720000Y1860000
X6290000Y1580000
X6780000Y1460000
X6664990Y1460000
X6470000Y1430000
X6100000Y1400000
X6470000Y1170000
X6290000Y1120000
X6740000Y1080000
X6100000Y1000000
X6740000Y940000
X6600000Y770000
X6200000Y700000
X7080000Y540000
X7230000Y540000
X7390000Y540000
X7616200Y646200
X6890000Y750000
X7080000Y780000
X7450000Y790000
X7450000Y863660
X7080000Y930000
X7080000Y1180000
X7080000Y1330000
X7365000Y1460000
X7450000Y1640000
X7150000Y1770000
X7150000Y1920000
X7150000Y2060000
X7150000Y2140000
X7150000Y2270000
X7320000Y2690000
X7120000Y2850000
X8290000Y2140000
X8290000Y2060000
X8242510Y1676320
X8242510Y1476320
X8100000Y1270000
X7820000Y1030000
X8306200Y646200
X8350000Y520000
X8442510Y1476320
X8642510Y1476320
X8842510Y1476320
X9042510Y1476320
X8442510Y1676320
X8642510Y1676320
X8842510Y1676320
X9042510Y1676320
X9242510Y1676320
X9242510Y1476320
X10080160Y130150
X10280160Y130150
X10430150Y439840
X10430150Y639840
X9960160Y990150
X10060160Y990150
X10160160Y990150
X10260160Y990150
X10360160Y990150
X10460160Y990150
X9960160Y2430150
X10060160Y2430150
X10160160Y2430150
X10260160Y2430150
X10360160Y2430150
X10460160Y2430150
X10023970Y2674960
X10223970Y2674960
X10423970Y2674960
X10023970Y2874960
X10223970Y2874960
X10423970Y2874960
X10023970Y3074960
X10223970Y3074960
X10423970Y3074960
X10023970Y3274960
X10223970Y3274960
X10423970Y3274960
T02
X702000Y186000
X956000Y186000
X1210000Y186000
X1464000Y186000
X1718000Y186000
X3132000Y186000
X3386000Y186000
X3640000Y186000
X3894000Y186000
X4148000Y186000
X5053000Y1240000
X5307000Y1240000
X6382000Y186000
X6636000Y186000
X6890000Y186000
X7144000Y186000
X7398000Y186000
X8812000Y186000
X9066000Y186000
X9320000Y186000
X9574000Y186000
X9828000Y186000
X9828000Y3234000
X9574000Y3234000
X9320000Y3234000
X9066000Y3234000
X8812000Y3234000
X7398000Y3234000
X7144000Y3234000
X6890000Y3234000
X6636000Y3234000
X6382000Y3234000
X5467000Y2180000
X5213000Y2180000
X4148000Y3234000
X3894000Y3234000
X3640000Y3234000
X3386000Y3234000
X3132000Y3234000
X1718000Y3234000
X1464000Y3234000
X1210000Y3234000
X956000Y3234000
X702000Y3234000
T03
X2190000Y3160000
X2640000Y3160000
X5040000Y3160000
X5490000Y3160000
X7870000Y3160000
X8320000Y3160000
T04
X8780000Y540000
X9034000Y540000
X9288000Y540000
X9542000Y540000
X9542000Y2920000
X9288000Y2920000
X9034000Y2920000
X8780000Y2920000
T05
X2065000Y2910000
X2765000Y2910000
X4915000Y2910000
X5615000Y2910000
X7745000Y2910000
X8445000Y2910000
M30
