M48
METRIC,TZ
T01C.3048
T02C.8
T03C.9
T04C1.1
T05C1.5
;LEADER: 12 
;HEADER: 
;CODE  : ASCII 
;FILE  : F103_TUBE_CLOCK_V10A-1-2.drl for board H:/Nixie-Tube-Clock/HARDWARE/F103_TUBE_CLOCK_V10A/PCB/#Taaaabp10320.tmp ... layers TOP and BOTTOM
;T01 Holesize 1. = 0.304800 Tolerance = +0.000000/-0.000000 PLATED MM Quantity = 194
;T02 Holesize 2. = 0.800000 Tolerance = +0.000000/-0.000000 PLATED MM Quantity = 44
;T03 Holesize 3. = 0.900000 Tolerance = +0.000000/-0.000000 PLATED MM Quantity = 6
;T04 Holesize 4. = 1.100000 Tolerance = +0.000000/-0.000000 PLATED MM Quantity = 8
;T05 Holesize 5. = 1.500000 Tolerance = +0.000000/-0.000000 PLATED MM Quantity = 6
%
G90
T01
X140000Y760000
X500000Y760000
X410000Y1140000
X560000Y1140000
X710000Y1140000
X140000Y1180000
X710000Y1240000
X220000Y1560000
X180000Y1610000
X274650Y2099040
X274650Y2299040
X274650Y2499040
X274650Y2699040
X274650Y2899040
X759040Y3065350
X99040Y3915350
X299040Y3915350
X499040Y3915350
X1159040Y3065350
X959040Y3065350
X1054650Y1719040
X1054650Y1519040
X1439040Y1515350
X1054650Y1319040
X1539040Y1515350
X1639040Y1515350
X1739040Y1515350
X1539040Y1605350
X1639040Y1605350
X1739040Y1605350
X2126190Y1611210
X1778790Y3074700
X1978790Y3074700
X2178790Y3074700
X2920000Y3990000
X2378790Y3074700
X2591840Y2259250
X2591840Y2059250
X2591840Y1859250
X2591840Y1659250
X2850000Y1610000
X2326190Y1611210
X3160000Y1290000
X3250000Y1290000
X3160000Y1380000
X3250000Y1380000
X3340000Y1380000
X3597060Y1451640
X3597060Y1651640
X3595000Y1785000
X3597060Y1981640
X3597060Y2181640
X3408580Y2963830
X3608580Y2963830
X3808580Y2963830
X3408580Y3163830
X3608580Y3163830
X3808580Y3163830
X4477500Y2793830
X4277500Y2793830
X4077500Y2793830
X3860000Y2530000
X4542280Y2038600
X4342280Y2038600
X4142280Y2038600
X3942280Y2038600
X4532280Y1688600
X4332280Y1688600
X4132280Y1688600
X3932280Y1688600
X4490000Y1500000
X4390000Y1500000
X4220000Y1100000
X4490000Y860000
X4400000Y860000
X4300000Y860000
X5190000Y850000
X4790000Y912500
X5190000Y1200000
X5192280Y1448600
X4600000Y1500000
X5090000Y1547500
X5209920Y2500000
X4900000Y2800000
X5213830Y3542500
X5213830Y3742500
X5390000Y3330000
X5390000Y3132080
X5830000Y3040000
X5390000Y3000000
X5830000Y2850000
X5830000Y2690000
X5830000Y2550000
X5830000Y2400000
X5420000Y2240000
X5870000Y2080000
X5836200Y1776200
X5392280Y1448600
X5930000Y1020000
X6117500Y1013830
X6317500Y1013830
X6567500Y1163830
X6767500Y1163830
X6200000Y1380000
X6600000Y1450000
X6740000Y1620000
X6100000Y1680000
X6200000Y1680000
X6740000Y1760000
X6520000Y1860000
X6300000Y2010000
X6780000Y2140000
X6520000Y2220000
X6200000Y2260000
X6290000Y2390000
X6290000Y2530000
X6720000Y2580000
X6720000Y2730000
X6800000Y3000000
X6290000Y3130000
X6510000Y3130000
X6510000Y3320000
X6278400Y3371600
X7120000Y3530000
X7215010Y3270000
X7150000Y2950000
X7150000Y2820000
X7150000Y2740000
X7150000Y2600000
X7030000Y2470000
X7150000Y2450000
X7450000Y2320000
X7365000Y2140000
X7080000Y2010000
X7080000Y1860000
X7080000Y1610000
X7450000Y1543660
X7450000Y1470000
X7080000Y1460000
X6890000Y1430000
X7610000Y1295000
X7390000Y1220000
X7230000Y1220000
X7080000Y1220000
X8350000Y1200000
X8100000Y1295000
X7820000Y1710000
X8100000Y2140000
X8242510Y2156320
X8242510Y2356320
X8290000Y2740000
X8290000Y2820000
X8442510Y2156320
X8642510Y2156320
X8842510Y2156320
X9042510Y2156320
X8442510Y2356320
X8642510Y2356320
X8842510Y2356320
X9042510Y2356320
X9397500Y1543830
X9597500Y1543830
X9242510Y2156320
X9242510Y2356320
X9507500Y3283830
X9707500Y3283830
X10423970Y3954960
X10223970Y3954960
X10023970Y3954960
X10423970Y3754960
X10223970Y3754960
X10023970Y3754960
X10423970Y3554960
X10223970Y3554960
X10023970Y3554960
X10423970Y3354960
X10223970Y3354960
X10023970Y3354960
X10460160Y3110150
X10360160Y3110150
X10260160Y3110150
X10160160Y3110150
X10060160Y3110150
X9960160Y3110150
X10460160Y1670150
X10360160Y1670150
X10260160Y1670150
X10160160Y1670150
X10060160Y1670150
X9960160Y1670150
X10430150Y1319840
X10430150Y1119840
X10280160Y810150
X10080160Y810150
T02
X702000Y866000
X956000Y866000
X1210000Y866000
X1464000Y866000
X1718000Y866000
X3132000Y866000
X3386000Y866000
X3640000Y866000
X3894000Y866000
X4148000Y866000
X5053000Y1920000
X5307000Y1920000
X6382000Y866000
X6636000Y866000
X6890000Y866000
X7144000Y866000
X7398000Y866000
X8812000Y866000
X9066000Y866000
X9320000Y866000
X9574000Y866000
X9828000Y866000
X9828000Y3914000
X9574000Y3914000
X9320000Y3914000
X9066000Y3914000
X8812000Y3914000
X7398000Y3914000
X7144000Y3914000
X6890000Y3914000
X6636000Y3914000
X6382000Y3914000
X5467000Y2860000
X5213000Y2860000
X4148000Y3914000
X3894000Y3914000
X3640000Y3914000
X3386000Y3914000
X3132000Y3914000
X1718000Y3914000
X1464000Y3914000
X1210000Y3914000
X956000Y3914000
X702000Y3914000
T03
X2190000Y3840000
X2640000Y3840000
X5040000Y3840000
X5490000Y3840000
X7870000Y3840000
X8320000Y3840000
T04
X8780000Y1220000
X9034000Y1220000
X9288000Y1220000
X9542000Y1220000
X9542000Y3600000
X9288000Y3600000
X9034000Y3600000
X8780000Y3600000
T05
X2065000Y3590000
X2765000Y3590000
X4915000Y3590000
X5615000Y3590000
X7745000Y3590000
X8445000Y3590000
M30
