G04 ================== begin FILE IDENTIFICATION RECORD ==================*
G04 Layout Name:  F103_TUBE_CLOCK_V10A.brd*
G04 Film Name:    PasteMask_Bottom*
G04 File Format:  Gerber RS274X*
G04 File Origin:  Cadence Allegro 17.2-S045*
G04 Origin Date:  Wed Apr 03 19:26:57 2019*
G04 *
G04 Layer:  BOARD GEOMETRY/OUTLINE*
G04 Layer:  PIN/PASTEMASK_BOTTOM*
G04 Layer:  PACKAGE GEOMETRY/PASTEMASK_BOTTOM*
G04 *
G04 Offset:    (0.0000 0.0000)*
G04 Mirror:    No*
G04 Mode:      Positive*
G04 Rotation:  0*
G04 FullContactRelief:  No*
G04 UndefLineWidth:     0.1524*
G04 ================== end FILE IDENTIFICATION RECORD ====================*
%FSLAX55Y55*MOMM*%
%IR0*IPPOS*OFA0.00000B0.00000*MIA0B0*SFA1.00000B1.00000*%
%ADD27R,1.2X.3*%
%ADD28R,.3X1.2*%
%ADD26R,2.X.5*%
%ADD11R,.6X1.1*%
%ADD18R,1.1X.6*%
%ADD22R,1.5X.6*%
%ADD29R,1.3X.9*%
%ADD14R,.8X1.4*%
%ADD21R,.6X1.8*%
%ADD23R,.5X.5*%
%ADD17C,.75*%
%ADD10R,.8X.8*%
%ADD19R,1.2X1.*%
%ADD12R,1.X1.2*%
%ADD15R,2.4X2.*%
%ADD30R,1.8X1.*%
%ADD31R,1.X1.8*%
%ADD24R,.4X.5*%
%ADD20R,2.3X4.4*%
%ADD16R,5.6X2.3*%
%ADD13R,2.1X5.7*%
%ADD25R,.8X.25*%
%ADD32C,.1*%
G75*
%LPD*%
G75*
G54D10*
X150000Y223800D03*
Y376200D03*
X290000D03*
Y223800D03*
X150000Y790230D03*
Y637830D03*
X432800Y223800D03*
Y376200D03*
X680000Y637830D03*
Y790230D03*
X2000000Y503800D03*
Y656200D03*
X4756200Y180000D03*
X4603800D03*
X4670000Y2843800D03*
Y2996200D03*
X5331120Y1560000D03*
X5178720D03*
Y1870000D03*
X5331120D03*
Y1730000D03*
X5178720D03*
X5331120Y2010000D03*
X5178720D03*
X5331120Y2670000D03*
X5178720D03*
X5331120Y2530000D03*
X5178720D03*
X5957400Y590000D03*
X5805000D03*
X5957400Y1000000D03*
X5805000D03*
X5983800Y1580000D03*
X6136200D03*
Y2430000D03*
X5983800D03*
Y2290000D03*
X6136200D03*
Y2150000D03*
X5983800D03*
X6136200Y2570000D03*
X5983800D03*
X6466200Y860000D03*
X6313800D03*
X6466200Y690000D03*
X6313800D03*
X6456200Y1020000D03*
X6303800D03*
X6290000Y2417600D03*
Y2570000D03*
X6810000Y1336200D03*
Y1183800D03*
X6666800D03*
Y1336200D03*
X7710000Y646200D03*
Y493800D03*
X7360000Y1183800D03*
Y1336200D03*
X7220000Y2836200D03*
Y2683800D03*
X8000000Y646200D03*
Y493800D03*
X8200000Y646200D03*
Y493800D03*
X8103800Y840000D03*
X8480000Y646200D03*
Y493800D03*
X8256200Y840000D03*
X9135600D03*
X8833800D03*
X8986200D03*
X9288000D03*
G54D20*
X3100000Y1000000D03*
Y2600000D03*
G54D11*
X316600Y844030D03*
Y584030D03*
X411600Y844030D03*
X506600D03*
X411600Y584030D03*
X506600D03*
G54D30*
X7775000Y1335000D03*
Y1185000D03*
Y1935000D03*
Y1785000D03*
Y1635000D03*
Y1485000D03*
Y2235000D03*
Y2085000D03*
G54D12*
X208400Y1050000D03*
X411600D03*
G54D21*
X4035500Y1530000D03*
Y2530000D03*
X4416500Y1530000D03*
X4543500D03*
X4162500D03*
X4289500D03*
X4416500Y2530000D03*
X4543500D03*
X4162500D03*
X4289500D03*
X4924500Y1530000D03*
X4797500D03*
X4670500D03*
X4924500Y2530000D03*
X4670500D03*
X4797500D03*
G54D13*
X895000Y684030D03*
X1385000D03*
G54D31*
X7950000Y1060000D03*
X8100000D03*
Y2360000D03*
X7950000D03*
X8250000Y1060000D03*
X8400000D03*
X8550000D03*
X8700000D03*
Y2360000D03*
X8550000D03*
X8400000D03*
X8250000D03*
X8850000Y1060000D03*
X9000000D03*
X9150000D03*
Y2360000D03*
X9000000D03*
X8850000D03*
X9300000Y1060000D03*
X9450000D03*
X9600000D03*
X9750000D03*
Y2360000D03*
X9600000D03*
X9450000D03*
X9300000D03*
G54D22*
X4954920Y359500D03*
Y232500D03*
Y105500D03*
Y867500D03*
Y740500D03*
Y613500D03*
Y486500D03*
Y994500D03*
X5554920Y105500D03*
Y232500D03*
Y359500D03*
Y486500D03*
Y613500D03*
Y740500D03*
Y867500D03*
Y994500D03*
G54D32*
G01X0Y0D02*
X10530000D01*
Y3420000D01*
X0D01*
Y0D01*
G01X3160000Y1440000D02*
G03I-60000J0D01*
G01Y2190000D02*
G03I-60000J0D01*
G54D23*
X5540000Y1290000D03*
X5670000Y2230000D03*
G54D14*
X1315000Y1110000D03*
X965000D03*
G54D24*
X5500000Y1190000D03*
X5580000D03*
X5630000Y2130000D03*
X5710000D03*
G54D15*
X1740000Y875430D03*
Y552530D03*
G54D25*
X5805000Y875000D03*
Y825000D03*
Y775000D03*
Y725000D03*
X6115000D03*
Y775000D03*
Y825000D03*
Y875000D03*
G54D16*
X1890000Y1270000D03*
Y2010000D03*
G54D17*
X2000000Y190000D03*
X2860000D03*
G54D26*
X6060000Y1750000D03*
Y1870000D03*
Y1990000D03*
G54D18*
X2390000Y675000D03*
Y580000D03*
Y485000D03*
X2650000D03*
Y675000D03*
G54D27*
X6515000Y1905010D03*
Y1854990D03*
Y1805010D03*
Y1754990D03*
Y2305010D03*
Y2254990D03*
Y2205010D03*
Y2154990D03*
Y2105010D03*
Y2054990D03*
Y2005010D03*
Y1954990D03*
X7365000Y1754990D03*
Y1805010D03*
Y1854990D03*
Y1905010D03*
Y1954990D03*
Y2005010D03*
Y2054990D03*
Y2105010D03*
Y2154990D03*
Y2205010D03*
Y2254990D03*
Y2305010D03*
G54D19*
X2170000Y478400D03*
Y681600D03*
X2860000Y478400D03*
Y681600D03*
G54D28*
X6664990Y1605000D03*
X6715010D03*
X6764990D03*
X6815010D03*
X6864990D03*
X6915010D03*
X6964990D03*
X7015010D03*
X7064990D03*
X7115010D03*
Y2455000D03*
X7064990D03*
X7015010D03*
X6964990D03*
X6915010D03*
X6864990D03*
X6815010D03*
X6764990D03*
X6715010D03*
X6664990D03*
X7164990Y1605000D03*
X7215010D03*
Y2455000D03*
X7164990D03*
G54D29*
X7710000Y340000D03*
Y140000D03*
X8200000Y340000D03*
Y140000D03*
X8000000Y340000D03*
Y140000D03*
X8480000Y340000D03*
Y140000D03*
M02*
