G04 ================== begin FILE IDENTIFICATION RECORD ==================*
G04 Layout Name:  F103_TUBE_CLOCK_V10A.brd*
G04 Film Name:    PasteMask_Bottom*
G04 File Format:  Gerber RS274X*
G04 File Origin:  Cadence Allegro 17.2-S058*
G04 Origin Date:  Thu Apr 30 15:23:33 2020*
G04 *
G04 Layer:  PIN/PASTEMASK_BOTTOM*
G04 Layer:  PACKAGE GEOMETRY/PASTEMASK_BOTTOM*
G04 *
G04 Offset:    (0.0000 0.0000)*
G04 Mirror:    No*
G04 Mode:      Positive*
G04 Rotation:  0*
G04 FullContactRelief:  No*
G04 UndefLineWidth:     0.1524*
G04 ================== end FILE IDENTIFICATION RECORD ====================*
%FSLAX55Y55*MOMM*%
%IR0*IPPOS*OFA0.00000B0.00000*MIA0B0*SFA1.00000B1.00000*%
%ADD30R,1.2X.3*%
%ADD31R,.3X1.2*%
%ADD27R,2.X.5*%
%ADD10R,.6X1.1*%
%ADD18R,1.1X.6*%
%ADD22R,1.5X.6*%
%ADD32R,1.3X.9*%
%ADD14R,.8X1.4*%
%ADD21R,.6X1.8*%
%ADD25R,.5X.5*%
%ADD19C,.75*%
%ADD15R,.8X.8*%
%ADD29R,1.2X1.*%
%ADD12R,1.X1.2*%
%ADD17R,2.5X1.*%
%ADD33R,1.8X1.*%
%ADD34R,1.X1.8*%
%ADD13R,1.4X4.2*%
%ADD26R,.4X.5*%
%ADD20R,2.3X4.4*%
%ADD23R,.5X.6*%
%ADD16R,5.6X2.3*%
%ADD28R,1.6X2.7*%
%ADD11R,.6X.5*%
%ADD24R,.8X.25*%
%LPD*%
G75*
G54D10*
X316600Y1264030D03*
Y1524030D03*
X411600Y1264030D03*
X506600D03*
X411600Y1524030D03*
X506600D03*
G54D11*
X290000Y935000D03*
Y1025000D03*
X150000Y1349030D03*
Y1025000D03*
Y935000D03*
Y1439030D03*
X432800Y1025000D03*
Y935000D03*
X680000Y1349030D03*
Y1439030D03*
X1790000Y1305000D03*
Y1215000D03*
X4670000Y3645000D03*
Y3555000D03*
X6810000Y1895000D03*
X6666800D03*
X6810000Y1985000D03*
X6666800D03*
X7360000Y1895000D03*
Y1985000D03*
X7220000Y3395000D03*
Y3485000D03*
X8200000Y1205000D03*
Y1295000D03*
X7710000Y1205000D03*
Y1295000D03*
X8000000Y1205000D03*
Y1295000D03*
X8100000Y1535000D03*
Y1445000D03*
X8480000Y1205000D03*
Y1295000D03*
G54D20*
X3100000Y1680000D03*
Y3280000D03*
G54D12*
X208400Y1730000D03*
X411600D03*
G54D21*
X4035500Y2210000D03*
Y3210000D03*
X4416500Y2210000D03*
X4543500D03*
X4162500D03*
X4289500D03*
X4416500Y3210000D03*
X4543500D03*
X4162500D03*
X4289500D03*
X4924500Y2210000D03*
X4797500D03*
X4670500D03*
X4924500Y3210000D03*
X4670500D03*
X4797500D03*
G54D30*
X6515000Y2434990D03*
Y2934990D03*
Y2885010D03*
Y2834990D03*
Y2785010D03*
Y2734990D03*
Y2685010D03*
Y2634990D03*
Y2585010D03*
Y2534990D03*
Y2485010D03*
Y2985010D03*
X7365000Y2434990D03*
Y2485010D03*
Y2534990D03*
Y2585010D03*
Y2634990D03*
Y2685010D03*
Y2734990D03*
Y2785010D03*
Y2834990D03*
Y2885010D03*
Y2934990D03*
Y2985010D03*
G54D13*
X865000Y1394030D03*
X1255000D03*
G54D22*
X4954920Y785500D03*
Y1420500D03*
Y1293500D03*
Y1166500D03*
Y1039500D03*
Y912500D03*
Y1674500D03*
Y1547500D03*
X5554920Y785500D03*
Y912500D03*
Y1039500D03*
Y1166500D03*
Y1293500D03*
Y1420500D03*
Y1547500D03*
Y1674500D03*
G54D31*
X6664990Y2285000D03*
X6715010D03*
X6764990D03*
X6815010D03*
X6864990D03*
X6915010D03*
X6964990D03*
X7015010D03*
X7064990D03*
X7115010D03*
Y3135000D03*
X7064990D03*
X7015010D03*
X6964990D03*
X6915010D03*
X6864990D03*
X6815010D03*
X6764990D03*
X6715010D03*
X6664990D03*
X7164990Y2285000D03*
X7215010D03*
Y3135000D03*
X7164990D03*
G54D23*
X4595000Y912500D03*
X4685000D03*
X5209920Y2240000D03*
X5299920D03*
X5209920Y2410000D03*
X5299920D03*
X5209920Y2690000D03*
X5299920D03*
Y3000000D03*
X5209920D03*
Y3135000D03*
X5299920D03*
X5209920Y3330000D03*
X5299920D03*
X5836200Y1270000D03*
X5926200D03*
X5836200Y1680000D03*
X5926200D03*
X6105000Y2260000D03*
X6015000D03*
Y2820000D03*
X6105000D03*
Y3020000D03*
X6015000D03*
X6345000Y1400000D03*
X6435000D03*
X6345000Y1540000D03*
X6435000D03*
X6345000Y1680000D03*
X6435000D03*
G54D14*
X885000Y1790000D03*
X1235000D03*
X4145000Y3420000D03*
X4495000D03*
X4145000Y3630000D03*
X4495000D03*
G54D32*
X7710000Y820000D03*
Y1020000D03*
X8200000Y820000D03*
X8000000D03*
X8200000Y1020000D03*
X8000000D03*
X8480000Y820000D03*
Y1020000D03*
G54D24*
X5805000Y1405000D03*
X6115000D03*
X5805000Y1555000D03*
Y1505000D03*
Y1455000D03*
X6115000D03*
Y1505000D03*
Y1555000D03*
G54D33*
X7775000Y1865000D03*
Y2465000D03*
Y2315000D03*
Y2165000D03*
Y2015000D03*
Y2915000D03*
Y2765000D03*
Y2615000D03*
G54D15*
X1470000Y1233800D03*
Y1386200D03*
X1630000Y1233800D03*
Y1386200D03*
X2040000Y1233800D03*
Y1386200D03*
X2720000Y1233800D03*
Y1386200D03*
G54D16*
X1890000Y1950000D03*
Y2690000D03*
G54D34*
X7950000Y1740000D03*
X8100000D03*
Y3040000D03*
X7950000D03*
X8250000Y1740000D03*
X8400000D03*
X8550000D03*
X8700000D03*
Y3040000D03*
X8550000D03*
X8400000D03*
X8250000D03*
X8850000Y1740000D03*
X9000000D03*
X9150000D03*
Y3040000D03*
X9000000D03*
X8850000D03*
X9300000Y1740000D03*
X9450000D03*
X9600000D03*
X9750000D03*
Y3040000D03*
X9600000D03*
X9450000D03*
X9300000D03*
G54D25*
X6060000Y1930000D03*
Y2120000D03*
G54D26*
X6020000Y1830000D03*
X6100000D03*
X6020000Y2020000D03*
X6100000D03*
G54D17*
X1890000Y2170000D03*
Y2470000D03*
G54D18*
X2260000Y1405000D03*
Y1310000D03*
Y1215000D03*
X2520000D03*
Y1405000D03*
G54D27*
X6060000Y2430000D03*
Y2550000D03*
Y2670000D03*
G54D28*
X5680000Y2127000D03*
Y2773000D03*
G54D19*
X2040000Y1090000D03*
X2720000D03*
G54D29*
X6150000Y3371600D03*
Y3168400D03*
X5970000Y3371600D03*
Y3168400D03*
M02*
