G04 ================== begin FILE IDENTIFICATION RECORD ==================*
G04 Layout Name:  F103_TUBE_CLOCK_V10A.brd*
G04 Film Name:    SolderMask_Bottom*
G04 File Format:  Gerber RS274X*
G04 File Origin:  Cadence Allegro 17.2-S058*
G04 Origin Date:  Thu Apr 30 15:23:33 2020*
G04 *
G04 Layer:  PIN/SOLDERMASK_BOTTOM*
G04 Layer:  PACKAGE GEOMETRY/SOLDERMASK_BOTTOM*
G04 Layer:  BOARD GEOMETRY/SOLDERMASK_BOTTOM*
G04 *
G04 Offset:    (0.0000 0.0000)*
G04 Mirror:    No*
G04 Mode:      Positive*
G04 Rotation:  0*
G04 FullContactRelief:  No*
G04 UndefLineWidth:     0.1524*
G04 ================== end FILE IDENTIFICATION RECORD ====================*
%FSLAX55Y55*MOMM*%
%IR0*IPPOS*OFA0.00000B0.00000*MIA0B0*SFA1.00000B1.00000*%
%ADD35R,1.3X.4*%
%ADD36R,.4X1.3*%
%ADD32R,2.1X.6*%
%ADD10R,.8X1.3*%
%ADD21R,1.3X.8*%
%ADD27R,1.6X.7*%
%ADD15R,.9X1.5*%
%ADD26R,.7X1.9*%
%ADD30R,.6X.6*%
%ADD22C,.85*%
%ADD18R,.9X.9*%
%ADD37R,1.4X1.*%
%ADD34R,1.3X1.1*%
%ADD12R,1.1X1.3*%
%ADD20R,2.6X1.1*%
%ADD38R,1.9X1.1*%
%ADD39R,1.1X1.9*%
%ADD14R,1.5X4.3*%
%ADD17O,4.15X2.15*%
%ADD31R,.5X.6*%
%ADD25R,2.4X4.5*%
%ADD16O,2.15X4.15*%
%ADD28R,.6X.7*%
%ADD19R,5.7X2.4*%
%ADD33R,1.7X2.8*%
%ADD23C,2.3*%
%ADD13C,1.4*%
%ADD11R,.7X.6*%
%ADD29R,.9X.35*%
%ADD24C,1.9*%
%ADD40R,1.9X1.9*%
%LPD*%
G75*
G54D10*
X316600Y1264030D03*
Y1524030D03*
X411600Y1264030D03*
X506600D03*
X411600Y1524030D03*
X506600D03*
G54D11*
X290000Y935000D03*
Y1025000D03*
X150000Y1349030D03*
Y1025000D03*
Y935000D03*
Y1439030D03*
X432800Y1025000D03*
Y935000D03*
X680000Y1349030D03*
Y1439030D03*
X1790000Y1305000D03*
Y1215000D03*
X4670000Y3645000D03*
Y3555000D03*
X6810000Y1895000D03*
X6666800D03*
X6810000Y1985000D03*
X6666800D03*
X7360000Y1895000D03*
Y1985000D03*
X7220000Y3395000D03*
Y3485000D03*
X8200000Y1205000D03*
Y1295000D03*
X7710000Y1205000D03*
Y1295000D03*
X8000000Y1205000D03*
Y1295000D03*
X8100000Y1535000D03*
Y1445000D03*
X8480000Y1205000D03*
Y1295000D03*
G54D20*
X1890000Y2170000D03*
Y2470000D03*
G54D12*
X208400Y1730000D03*
X411600D03*
G54D30*
X6060000Y1930000D03*
Y2120000D03*
G54D21*
X2260000Y1405000D03*
Y1310000D03*
Y1215000D03*
X2520000D03*
Y1405000D03*
G54D40*
X8780000Y1220000D03*
Y3600000D03*
G54D13*
X702000Y866000D03*
Y3914000D03*
X1210000Y866000D03*
X956000D03*
Y3914000D03*
X1210000D03*
X1718000Y866000D03*
X1464000D03*
Y3914000D03*
X1718000D03*
X3386000Y866000D03*
X3132000D03*
Y3914000D03*
X3386000D03*
X3894000Y866000D03*
X3640000D03*
Y3914000D03*
X3894000D03*
X4148000Y866000D03*
Y3914000D03*
X5053000Y1920000D03*
X5307000D03*
X5467000Y2860000D03*
X5213000D03*
X6636000Y866000D03*
X6382000D03*
Y3914000D03*
X6636000D03*
X7144000Y866000D03*
X6890000D03*
Y3914000D03*
X7144000D03*
X7398000Y866000D03*
Y3914000D03*
X9066000Y866000D03*
X8812000D03*
Y3914000D03*
X9066000D03*
X9828000Y866000D03*
X9574000D03*
X9320000D03*
Y3914000D03*
X9574000D03*
X9828000D03*
G54D31*
X6020000Y1830000D03*
X6100000D03*
X6020000Y2020000D03*
X6100000D03*
G54D22*
X2040000Y1090000D03*
X2720000D03*
G54D23*
X2065000Y3590000D03*
X2765000D03*
X4915000D03*
X5615000D03*
X7745000D03*
X8445000D03*
G54D14*
X865000Y1394030D03*
X1255000D03*
G54D32*
X6060000Y2430000D03*
Y2550000D03*
Y2670000D03*
G54D24*
X2190000Y3840000D03*
X2640000D03*
X5040000D03*
X5490000D03*
X7870000D03*
X8320000D03*
X9288000Y1220000D03*
X9034000D03*
X9288000Y3600000D03*
X9034000D03*
X9542000Y1220000D03*
Y3600000D03*
G54D33*
X5680000Y2127000D03*
Y2773000D03*
G54D15*
X885000Y1790000D03*
X1235000D03*
X4145000Y3420000D03*
X4495000D03*
X4145000Y3630000D03*
X4495000D03*
G54D16*
X810000Y2320000D03*
X1410000D03*
G54D25*
X3100000Y1680000D03*
Y3280000D03*
G54D34*
X6150000Y3371600D03*
Y3168400D03*
X5970000Y3371600D03*
Y3168400D03*
G54D17*
X1130000Y2800000D03*
G54D26*
X4035500Y2210000D03*
Y3210000D03*
X4416500Y2210000D03*
X4543500D03*
X4162500D03*
X4289500D03*
X4416500Y3210000D03*
X4543500D03*
X4162500D03*
X4289500D03*
X4924500Y2210000D03*
X4797500D03*
X4670500D03*
X4924500Y3210000D03*
X4670500D03*
X4797500D03*
G54D35*
X6515000Y2434990D03*
Y2934990D03*
Y2885010D03*
Y2834990D03*
Y2785010D03*
Y2734990D03*
Y2685010D03*
Y2634990D03*
Y2585010D03*
Y2534990D03*
Y2485010D03*
Y2985010D03*
X7365000Y2434990D03*
Y2485010D03*
Y2534990D03*
Y2585010D03*
Y2634990D03*
Y2685010D03*
Y2734990D03*
Y2785010D03*
Y2834990D03*
Y2885010D03*
Y2934990D03*
Y2985010D03*
G54D18*
X1470000Y1233800D03*
Y1386200D03*
X1630000Y1233800D03*
Y1386200D03*
X2040000Y1233800D03*
Y1386200D03*
X2720000Y1233800D03*
Y1386200D03*
G54D27*
X4954920Y785500D03*
Y1420500D03*
Y1293500D03*
Y1166500D03*
Y1039500D03*
Y912500D03*
Y1674500D03*
Y1547500D03*
X5554920Y785500D03*
Y912500D03*
Y1039500D03*
Y1166500D03*
Y1293500D03*
Y1420500D03*
Y1547500D03*
Y1674500D03*
G54D36*
X6664990Y2285000D03*
X6715010D03*
X6764990D03*
X6815010D03*
X6864990D03*
X6915010D03*
X6964990D03*
X7015010D03*
X7064990D03*
X7115010D03*
Y3135000D03*
X7064990D03*
X7015010D03*
X6964990D03*
X6915010D03*
X6864990D03*
X6815010D03*
X6764990D03*
X6715010D03*
X6664990D03*
X7164990Y2285000D03*
X7215010D03*
Y3135000D03*
X7164990D03*
G54D19*
X1890000Y1950000D03*
Y2690000D03*
G54D28*
X4595000Y912500D03*
X4685000D03*
X5209920Y2240000D03*
X5299920D03*
X5209920Y2410000D03*
X5299920D03*
X5209920Y2690000D03*
X5299920D03*
Y3000000D03*
X5209920D03*
Y3135000D03*
X5299920D03*
X5209920Y3330000D03*
X5299920D03*
X5836200Y1270000D03*
X5926200D03*
X5836200Y1680000D03*
X5926200D03*
X6105000Y2260000D03*
X6015000D03*
Y2820000D03*
X6105000D03*
Y3020000D03*
X6015000D03*
X6345000Y1400000D03*
X6435000D03*
X6345000Y1540000D03*
X6435000D03*
X6345000Y1680000D03*
X6435000D03*
G54D37*
X7710000Y820000D03*
Y1020000D03*
X8200000Y820000D03*
X8000000D03*
X8200000Y1020000D03*
X8000000D03*
X8480000Y820000D03*
Y1020000D03*
G54D29*
X5805000Y1405000D03*
X6115000D03*
X5805000Y1555000D03*
Y1505000D03*
Y1455000D03*
X6115000D03*
Y1505000D03*
Y1555000D03*
G54D38*
X7775000Y1865000D03*
Y2465000D03*
Y2315000D03*
Y2165000D03*
Y2015000D03*
Y2915000D03*
Y2765000D03*
Y2615000D03*
G54D39*
X7950000Y1740000D03*
X8100000D03*
Y3040000D03*
X7950000D03*
X8250000Y1740000D03*
X8400000D03*
X8550000D03*
X8700000D03*
Y3040000D03*
X8550000D03*
X8400000D03*
X8250000D03*
X8850000Y1740000D03*
X9000000D03*
X9150000D03*
Y3040000D03*
X9000000D03*
X8850000D03*
X9300000Y1740000D03*
X9450000D03*
X9600000D03*
X9750000D03*
Y3040000D03*
X9600000D03*
X9450000D03*
X9300000D03*
M02*
