G04 ================== begin FILE IDENTIFICATION RECORD ==================*
G04 Layout Name:  F103_TUBE_CLOCK_V10A.brd*
G04 Film Name:    SolderMask_Top*
G04 File Format:  Gerber RS274X*
G04 File Origin:  Cadence Allegro 17.2-S045*
G04 Origin Date:  Wed Apr 03 19:26:57 2019*
G04 *
G04 Layer:  BOARD GEOMETRY/OUTLINE*
G04 Layer:  PIN/SOLDERMASK_TOP*
G04 Layer:  PACKAGE GEOMETRY/SOLDERMASK_TOP*
G04 Layer:  BOARD GEOMETRY/SOLDERMASK_TOP*
G04 *
G04 Offset:    (0.0000 0.0000)*
G04 Mirror:    No*
G04 Mode:      Positive*
G04 Rotation:  0*
G04 FullContactRelief:  No*
G04 UndefLineWidth:     0.1524*
G04 ================== end FILE IDENTIFICATION RECORD ====================*
%FSLAX55Y55*MOMM*%
%IR0*IPPOS*OFA0.00000B0.00000*MIA0B0*SFA1.00000B1.00000*%
%ADD12O,4.15X2.15*%
%ADD11O,2.15X4.15*%
%ADD13C,2.3*%
%ADD10C,1.4*%
%ADD15R,2.X2.*%
%ADD14C,1.9*%
%ADD16C,.1*%
G75*
%LPD*%
G75*
G54D10*
X702000Y186000D03*
Y3234000D03*
X1210000Y186000D03*
X956000D03*
Y3234000D03*
X1210000D03*
X1718000Y186000D03*
X1464000D03*
Y3234000D03*
X1718000D03*
X3386000Y186000D03*
X3132000D03*
Y3234000D03*
X3386000D03*
X3894000Y186000D03*
X3640000D03*
Y3234000D03*
X3894000D03*
X4148000Y186000D03*
Y3234000D03*
X5053000Y1240000D03*
X5307000D03*
X5467000Y2180000D03*
X5213000D03*
X6636000Y186000D03*
X6382000D03*
Y3234000D03*
X6636000D03*
X7144000Y186000D03*
X6890000D03*
Y3234000D03*
X7144000D03*
X7398000Y186000D03*
Y3234000D03*
X9066000Y186000D03*
X8812000D03*
Y3234000D03*
X9066000D03*
X9828000Y186000D03*
X9574000D03*
X9320000D03*
Y3234000D03*
X9574000D03*
X9828000D03*
G54D11*
X810000Y1640000D03*
X1410000D03*
G54D12*
X1130000Y2120000D03*
G54D13*
X2065000Y2910000D03*
X2765000D03*
X4915000D03*
X5615000D03*
X7745000D03*
X8445000D03*
G54D14*
X2190000Y3160000D03*
X2640000D03*
X5040000D03*
X5490000D03*
X7870000D03*
X8320000D03*
X9288000Y540000D03*
X9034000D03*
X9288000Y2920000D03*
X9034000D03*
X9542000Y540000D03*
Y2920000D03*
G54D15*
X8780000Y540000D03*
Y2920000D03*
G54D16*
G01X0Y0D02*
X10530000D01*
Y3420000D01*
X0D01*
Y0D01*
G01X3160000Y1440000D02*
G03I-60000J0D01*
G01Y2190000D02*
G03I-60000J0D01*
M02*
