G04 ================== begin FILE IDENTIFICATION RECORD ==================*
G04 Layout Name:  F103_TUBE_CLOCK_V10A.brd*
G04 Film Name:    TOP*
G04 File Format:  Gerber RS274X*
G04 File Origin:  Cadence Allegro 17.2-S045*
G04 Origin Date:  Wed Apr 03 19:26:57 2019*
G04 *
G04 Layer:  BOARD GEOMETRY/OUTLINE*
G04 Layer:  VIA CLASS/TOP*
G04 Layer:  PIN/TOP*
G04 Layer:  ETCH/TOP*
G04 *
G04 Offset:    (0.0000 0.0000)*
G04 Mirror:    No*
G04 Mode:      Positive*
G04 Rotation:  0*
G04 FullContactRelief:  No*
G04 UndefLineWidth:     0.1524*
G04 ================== end FILE IDENTIFICATION RECORD ====================*
%FSLAX55Y55*MOMM*%
%IR0*IPPOS*OFA0.00000B0.00000*MIA0B0*SFA1.00000B1.00000*%
%ADD10C,.6096*%
%ADD13O,4.X2.*%
%ADD12O,2.X4.*%
%ADD14C,2.2*%
%ADD11C,1.3*%
%ADD15C,1.8*%
%ADD16R,1.9X1.9*%
%ADD17C,.1*%
%ADD18C,.2032*%
%ADD19C,.508*%
%ADD20O,3.0164X5.0164*%
%ADD22C,1.5244*%
%ADD21C,2.3164*%
G75*
%LPD*%
G75*
G36*
G01X738760Y3349820D02*
X701670D01*
X701440D01*
G03X586180Y3234000I561J-115820D01*
G03X702000Y3118180I115820J0D01*
G03X817820Y3233440I0J115821D01*
G01Y3233770D01*
Y3234000D01*
Y3270760D01*
X826340Y3279290D01*
X837120Y3290070D01*
X848820Y3278360D01*
X846710Y3272330D01*
G03X840180Y3234000I109287J-38340D01*
G03X1071820I115820J0D01*
G01Y3234030D01*
G03X1066770Y3267840I-115822J-17D01*
G02X1086200Y3294100I19430J5942D01*
G01X1094340D01*
G02X1103670Y3279910I3J-10161D01*
G03X1094180Y3234000I106329J-45915D01*
G03X1128780Y3151430I115823J0D01*
G01X1128810Y3151400D01*
X1154100Y3126110D01*
Y2696850D01*
X1604100Y2246850D01*
Y1273150D01*
X1154100Y823150D01*
Y293890D01*
X1128810Y268600D01*
X1128780Y268570D01*
G03X1094180Y186850I81223J-82574D01*
G01Y186220D01*
Y186000D01*
G03X1101410Y145720I115820J0D01*
G01X1103680Y139610D01*
X1091880Y127820D01*
X1071820Y147880D01*
Y186000D01*
G03X840180I-115820J0D01*
G03X845770Y150440I115822J-12D01*
G01X847680Y144530D01*
X836110Y132950D01*
X823920Y145130D01*
X819170Y149880D01*
X817820Y186840D01*
Y186980D01*
G03X702000Y301820I-115820J-984D01*
G03X586180Y186000I0J-115820D01*
G03X701410Y70180I115822J0D01*
G01X702000D01*
X740770D01*
X756510Y54430D01*
G02X741890Y20000I-14621J-14111D01*
G01X20000D01*
Y3400000D01*
X739890D01*
G02X754510Y3365570I-1J-20319D01*
G01X745210Y3356260D01*
X738760Y3349820D01*
G37*
G36*
G01X768990Y131530D02*
X766980Y186370D01*
X700170Y187760D01*
X702000Y121000D01*
X758840D01*
G03X768990Y131530I0J10157D01*
G37*
G36*
G01X756840Y3299000D02*
X702000D01*
X700200Y3232200D01*
X767000Y3234000D01*
Y3288840D01*
G03X756840Y3299000I-10160J0D01*
G37*
G36*
G01X1500760Y301820D02*
X1463670D01*
X1463440D01*
G03X1348180Y186000I561J-115820D01*
G03X1353070Y152700I115828J0D01*
G02X1333610Y126540I-19462J-5840D01*
G01X1315770D01*
Y138770D01*
X1316580Y140680D01*
G03X1325820Y186000I-106578J45331D01*
G03X1291220Y268570I-115823J0D01*
G01X1291190Y268600D01*
X1265900Y293890D01*
Y776850D01*
X1715900Y1226850D01*
Y2293150D01*
X1265900Y2743150D01*
Y3126110D01*
X1291190Y3151400D01*
X1291220Y3151430D01*
G03X1325820Y3234000I-81223J82570D01*
G01Y3234030D01*
G03X1320770Y3267840I-115822J-17D01*
G02X1340200Y3294100I19430J5942D01*
G01X1352550D01*
X1360410Y3286240D01*
X1357670Y3279910D01*
G03X1348180Y3234000I106329J-45915D01*
G03X1579820I115820J0D01*
G01Y3234030D01*
G03X1574770Y3267840I-115822J-17D01*
G02X1594200Y3294100I19430J5942D01*
G01X1606550D01*
X1614410Y3286240D01*
X1611670Y3279910D01*
G03X1602180Y3234000I106329J-45915D01*
G03X1833820I115820J0D01*
G01Y3234020D01*
G03X1828600Y3268390I-115822J-9D01*
G02X1848000Y3294740I19403J6031D01*
G01X2076540D01*
G02X2090840Y3259990I-5J-20319D01*
G03X2049180Y3160000I99165J-99990D01*
G03X2330820I140820J0D01*
G03X2289160Y3259990I-140825J0D01*
G02X2303460Y3294740I14305J14431D01*
G01X2526540D01*
G02X2540840Y3259990I-5J-20319D01*
G03X2499180Y3160000I99165J-99990D01*
G03X2780820I140820J0D01*
G03X2739720Y3259430I-140822J0D01*
G02X2754100Y3294100I14386J14350D01*
G01X2883540D01*
G02X2903850Y3273220I-3J-20321D01*
G03X2903780Y3270000I76149J-3266D01*
G03X2924100Y3218190I76210J0D01*
G01Y586850D01*
X2965370Y545570D01*
G02X2950750Y511140I-14621J-14111D01*
G01X1939190D01*
X1935750Y511740D01*
G03X1910010Y516220I-25746J-71741D01*
G01X1910000D01*
G03X1833940Y444910I0J-76218D01*
G02X1813660Y425900I-20278J1310D01*
G01X1624850D01*
X1500760Y301820D01*
G37*
G36*
G01X1021000Y129800D02*
Y186000D01*
X954230Y187820D01*
X955750Y121010D01*
X1010590Y119640D01*
G03X1021000Y129800I247J10160D01*
G37*
G36*
G01X1202820Y270740D02*
X1164040Y231960D01*
X1210000Y183460D01*
X1255960Y231960D01*
X1217180Y270740D01*
G03X1202820I-7180J-7180D01*
G37*
G36*
G01X1217180Y3149260D02*
X1255960Y3188040D01*
X1210000Y3236540D01*
X1164040Y3188040D01*
X1202820Y3149260D01*
G03X1217180I7180J7180D01*
G37*
G36*
G01X1518840Y251000D02*
X1464000D01*
X1462200Y184200D01*
X1529000Y186000D01*
Y240840D01*
G03X1518840Y251000I-10160J0D01*
G37*
G36*
G01X1772470Y252990D02*
X1717630Y250980D01*
X1716240Y184170D01*
X1783000Y186000D01*
Y242840D01*
G03X1772470Y252990I-10157J0D01*
G37*
G36*
G01X3077160Y121000D02*
X3132000D01*
X3133800Y187800D01*
X3067000Y186000D01*
Y131160D01*
G03X3077160Y121000I10160J0D01*
G37*
G36*
G01X3321000Y240840D02*
Y186000D01*
X3387800Y184200D01*
X3386000Y251000D01*
X3331160D01*
G03X3321000Y240840I0J-10160D01*
G37*
G36*
G01X4190220Y528830D02*
X4163150Y555900D01*
X3415740D01*
Y691440D01*
X3415800Y691980D01*
G03X3416220Y699970I-75802J7991D01*
G01Y700030D01*
G03X3415800Y708020I-76222J-1D01*
G01X3415740Y708560D01*
Y1621050D01*
X3528950Y1734260D01*
X5478950D01*
X5482040Y1737350D01*
X5710530Y1508860D01*
X6218860D01*
Y1149190D01*
X6218260Y1145750D01*
G03X6213780Y1120010I71741J-25746D01*
G01Y1120000D01*
G03X6272760Y1045750I76227J0D01*
G02X6282790Y1011850I-4591J-19792D01*
G01X6186850Y915900D01*
X4851810D01*
G03X4800000Y936220I-51810J-55890D01*
G03X4789840Y935540I-1J-76220D01*
G01Y935550D01*
G03X4745490Y913290I10158J-75549D01*
G02X4716530Y912530I-14854J13862D01*
G01X4653150Y975900D01*
X4356850D01*
X4244100Y863150D01*
Y495090D01*
X4233100D01*
X4232290Y495220D01*
G03X4226500Y495940I-12294J-75220D01*
G01X4222800Y496260D01*
X4190220Y528830D01*
G37*
G36*
G01X5392470Y1780000D02*
X3510000D01*
X3370000Y1640000D01*
Y590000D01*
X3340000Y560000D01*
X3150000D01*
X3120000Y590000D01*
Y1371810D01*
X3126370Y1374370D01*
G03Y1505630I-26369J65630D01*
G01X3120000Y1508190D01*
Y1750000D01*
X3270000Y1900000D01*
X5480000D01*
X5500000Y1880000D01*
Y1820000D01*
X5480250Y1800250D01*
X5474280Y1802250D01*
G03X5450000Y1806220I-24280J-72262D01*
G03X5392470Y1780000I0J-76224D01*
G37*
G36*
G01X3168760Y3118180D02*
X3332850Y2954100D01*
X4603150D01*
X4878710Y3229660D01*
X5336600D01*
G02X5355940Y3203120I-2J-20318D01*
G03X5349180Y3160030I134062J-43107D01*
G01Y3160000D01*
G03X5630820I140820J0D01*
G01Y3160030D01*
G03X5624060Y3203120I-140822J-17D01*
G02X5643400Y3229660I19342J6222D01*
G01X6265910D01*
X6266950Y3220670D01*
G03X6300720Y3151490I115051J13329D01*
G01X6300740Y3151470D01*
X6326100Y3126110D01*
Y2303560D01*
G02X6291410Y2289200I-20319J4D01*
G01X6219470Y2361140D01*
X5819190D01*
X5815750Y2361740D01*
G03X5790000Y2366220I-25746J-71741D01*
G03X5764250Y2361740I-4J-76221D01*
G01X5762580Y2361140D01*
X5569470D01*
X5511140Y2419470D01*
Y2500810D01*
X5511740Y2504250D01*
G03X5516220Y2530000I-71741J25746D01*
G03X5511740Y2555750I-76221J4D01*
G01X5511140Y2557420D01*
Y2610530D01*
X5539470Y2638860D01*
X5849470D01*
X5980910Y2770300D01*
X5982510Y2771060D01*
G03X6026220Y2840000I-32512J68940D01*
G03X5950000Y2916220I-76220J0D01*
G03X5881060Y2872510I0J-76222D01*
G01X5880300Y2870910D01*
X5790530Y2781140D01*
X5480530D01*
X5368860Y2669470D01*
Y2559190D01*
X5368260Y2555750D01*
G03X5363780Y2530000I71741J-25746D01*
G03X5368260Y2504250I76221J-4D01*
G01X5368860Y2502580D01*
Y2360530D01*
X5415750Y2313650D01*
G02X5411170Y2281480I-14372J-14365D01*
G03X5351180Y2180000I55838J-101480D01*
G03X5582820I115820J0D01*
G03X5581740Y2195770I-115819J-10D01*
G02X5601870Y2218860I20130J2770D01*
G01X5760810D01*
X5764250Y2218260D01*
G03X5790000Y2213780I25746J71741D01*
G03X5815750Y2218260I4J76221D01*
G01X5817420Y2218860D01*
X6160530D01*
X6218860Y2160530D01*
Y1651140D01*
X5769470D01*
X5545740Y1874870D01*
Y1898950D01*
X5498950Y1945740D01*
X5458560D01*
X5458020Y1945800D01*
G03X5450030Y1946220I-7991J-75802D01*
G01X5449970D01*
G03X5441980Y1945800I1J-76222D01*
G01X5441440Y1945740D01*
X3251050D01*
X3074260Y1768950D01*
Y1506170D01*
X3068590Y1503370D01*
G03X3065990Y1502020I31287J-63434D01*
G02X3035900Y1519830I-9771J17815D01*
G01Y2110170D01*
G02X3065990Y2127980I20319J-5D01*
G03X3099990Y2119270I34004J62022D01*
G01X3100000D01*
G03Y2260730I0J70730D01*
G01X3099990D01*
G03X3065990Y2252020I4J-70732D01*
G02X3035900Y2269830I-9771J17815D01*
G01Y3120900D01*
G02X3067970Y3137470I20317J-3D01*
G03X3132000Y3118170I64021J96533D01*
G03X3133470Y3118180I-53J115830D01*
G01X3168760D01*
G37*
G36*
G01X3451000Y3179160D02*
Y3234000D01*
X3384200Y3235800D01*
X3386000Y3169000D01*
X3440840D01*
G03X3451000Y3179160I0J10160D01*
G37*
G36*
G01X3197000D02*
Y3234000D01*
X3130200Y3235800D01*
X3132000Y3169000D01*
X3186840D01*
G03X3197000Y3179160I0J10160D01*
G37*
G36*
G01X3067000Y3288840D02*
Y3234000D01*
X3133800Y3232200D01*
X3132000Y3299000D01*
X3077160D01*
G03X3067000Y3288840I0J-10160D01*
G37*
G36*
G01X2987180Y3234080D02*
X3001550Y3248450D01*
X2980000Y3272540D01*
X2958450Y3248450D01*
X2972820Y3234080D01*
G03X2987180I7180J7180D01*
G37*
G36*
G01X3829000Y240840D02*
Y186000D01*
X3895800Y184200D01*
X3894000Y251000D01*
X3839160D01*
G03X3829000Y240840I0J-10160D01*
G37*
G36*
G01X3959000Y3179160D02*
Y3234000D01*
X3892200Y3235800D01*
X3894000Y3169000D01*
X3948840D01*
G03X3959000Y3179160I0J10160D01*
G37*
G36*
G01X4526150Y838840D02*
G03X4523780Y820000I73848J-18859D01*
G03X4544100Y768190I76210J0D01*
G01Y143150D01*
X4536850Y135900D01*
X4493560D01*
G02X4473850Y161160I2J20321D01*
G03X4476220Y180000I-73848J18859D01*
G03X4455900Y231810I-76210J0D01*
G01Y776300D01*
X4457310Y784190D01*
X4457990Y785520D01*
G03X4466230Y820000I-67992J34473D01*
G03X4465840Y827720I-76231J19D01*
G01X4465690Y828960D01*
G03X4463850Y838840I-75686J-8984D01*
G02X4483560Y864100I19712J4939D01*
G01X4506440D01*
G02X4526150Y838840I-2J-20321D01*
G37*
G36*
G01X4292820Y215920D02*
X4278450Y201550D01*
X4300000Y177460D01*
X4321550Y201550D01*
X4307180Y215920D01*
G03X4292820I-7180J-7180D01*
G37*
G36*
G01X4213000Y131160D02*
Y186000D01*
X4146200Y187800D01*
X4148000Y121000D01*
X4202840D01*
G03X4213000Y131160I0J10160D01*
G37*
G36*
G01X4093160Y121000D02*
X4148000D01*
X4149800Y187800D01*
X4083000Y186000D01*
Y131160D01*
G03X4093160Y121000I10160J0D01*
G37*
G36*
G01X4392820Y215920D02*
X4378450Y201550D01*
X4400000Y177460D01*
X4421550Y201550D01*
X4407180Y215920D01*
G03X4392820I-7180J-7180D01*
G37*
G36*
G01X4189520Y440320D02*
Y420000D01*
X4221800Y418200D01*
X4220000Y450480D01*
X4199680D01*
G03X4189520Y440320I0J-10160D01*
G37*
G36*
G01X4410000Y779470D02*
X4414360Y803840D01*
X4389370Y822460D01*
X4368450Y798450D01*
X4392820Y774080D01*
G03X4410000Y779470I7182J7183D01*
G37*
G36*
G01X6233150Y804100D02*
X6437900Y1008850D01*
Y3126110D01*
X6463190Y3151400D01*
X6463220Y3151430D01*
G03X6497820Y3234000I-81223J82570D01*
G03X6493390Y3265720I-115819J-6D01*
G01X6493000Y3267080D01*
Y3278660D01*
X6512290D01*
X6520180Y3270770D01*
Y3234310D01*
Y3234000D01*
Y3233440D01*
G03X6636000Y3118180I115820J561D01*
G03X6751810Y3232810I0J115816D01*
G01X6751820Y3233430D01*
Y3234000D01*
G03X6738350Y3288220I-115822J9D01*
G01X6737980Y3288900D01*
X6737780Y3289280D01*
G02X6755630Y3319300I17853J9701D01*
G01X6770370D01*
G02X6788540Y3289900I-5J-20318D01*
G01X6787650Y3288220D01*
G03X6774180Y3234000I102352J-54211D01*
G01Y3233430D01*
X6774190Y3232810D01*
G03X6808780Y3151430I115818J1186D01*
G01X6808810Y3151400D01*
X6834100Y3126110D01*
Y801810D01*
G03X6813780Y750000I55890J-51810D01*
G03X6820700Y718270I76219J3D01*
G02X6802060Y689860I-18642J-8089D01*
G01X4939190D01*
X4837860Y791200D01*
X4845530Y798870D01*
X4846090Y799290D01*
G03X4851810Y804100I-46136J60671D01*
G01X6233150D01*
G37*
G36*
G01X4835920Y867180D02*
X4821550Y881550D01*
X4797460Y860000D01*
X4821550Y838450D01*
X4835920Y852820D01*
G03Y867180I-7180J7180D01*
G37*
G36*
G01X4607180Y784080D02*
X4621550Y798450D01*
X4600000Y822540D01*
X4578450Y798450D01*
X4592820Y784080D01*
G03X4607180I7180J7180D01*
G37*
G36*
G01X5225920Y347180D02*
X5211550Y361550D01*
X5187460Y340000D01*
X5211550Y318450D01*
X5225920Y332820D01*
G03Y347180I-7180J7180D01*
G37*
G36*
G01Y527180D02*
X5211550Y541550D01*
X5187460Y520000D01*
X5211550Y498450D01*
X5225920Y512820D01*
G03Y527180I-7180J7180D01*
G37*
G36*
G01X6447000Y131160D02*
Y186000D01*
X6380200Y187800D01*
X6382000Y121000D01*
X6436840D01*
G03X6447000Y131160I0J10160D01*
G37*
G36*
G01X6571000Y240840D02*
Y186000D01*
X6637800Y184200D01*
X6636000Y251000D01*
X6581160D01*
G03X6571000Y240840I0J-10160D01*
G37*
G36*
G01X8760850Y734100D02*
X8893180Y601770D01*
Y540000D01*
G03X8944070Y431640I140810J0D01*
G02X8930830Y395900I-13238J-15418D01*
G01X8610630D01*
X8530630Y475900D01*
X6593150D01*
X6525680Y543370D01*
G02X6540050Y578060I14369J14369D01*
G01X6897110D01*
X7015900Y696850D01*
Y1444440D01*
G02X7050590Y1458800I20319J-4D01*
G01X7120530Y1388860D01*
X7293860D01*
Y705530D01*
X7424330Y575060D01*
X7587010D01*
X7590450Y574460D01*
G03X7616200Y569980I25746J71741D01*
G03X7641950Y574460I4J76221D01*
G01X7643620Y575060D01*
X8277010D01*
X8280450Y574460D01*
G03X8306190Y569980I25746J71741D01*
G01X8306200D01*
G03X8382420Y646200I0J76220D01*
G03X8360630Y699560I-76230J0D01*
G02X8375140Y734100I14512J14221D01*
G01X8760850D01*
G37*
G36*
G01X6571000Y3288840D02*
Y3234000D01*
X6637800Y3232200D01*
X6636000Y3299000D01*
X6581160D01*
G03X6571000Y3288840I0J-10160D01*
G37*
G36*
G01X6389180Y3149260D02*
X6427960Y3188040D01*
X6382000Y3236540D01*
X6336040Y3188040D01*
X6374820Y3149260D01*
G03X6389180I7180J7180D01*
G37*
G36*
G01X6324280Y3285560D02*
X6324290Y3241280D01*
X6383720Y3232130D01*
X6376450Y3292670D01*
X6335180Y3295690D01*
G03X6324280Y3285560I-743J-10130D01*
G37*
G36*
G01X6690840Y251000D02*
X6636000D01*
X6634200Y184200D01*
X6701000Y186000D01*
Y240840D01*
G03X6690840Y251000I-10160J0D01*
G37*
G36*
G01X7091330Y109230D02*
X7146170Y121240D01*
X7145610Y187960D01*
X7079000Y186000D01*
Y119160D01*
G03X7091330Y109230I10164J0D01*
G37*
G36*
G01X7198840Y251000D02*
X7144000D01*
X7142200Y184200D01*
X7209000Y186000D01*
Y240840D01*
G03X7198840Y251000I-10160J0D01*
G37*
G36*
G01X6882820Y785920D02*
X6868450Y771550D01*
X6890000Y747460D01*
X6911550Y771550D01*
X6897180Y785920D01*
G03X6882820I-7180J-7180D01*
G37*
G36*
G01X7434760Y3349820D02*
X7397670D01*
X7397440D01*
G03X7282180Y3234000I561J-115820D01*
G03X7398000Y3118180I115820J0D01*
G03X7513820Y3233440I0J115821D01*
G01Y3233770D01*
Y3234000D01*
Y3270760D01*
X7519080Y3276030D01*
X7527150Y3284100D01*
X8196730D01*
G02X8212270Y3250690I-1J-20320D01*
G03X8179180Y3160000I107732J-90690D01*
G03X8460820I140820J0D01*
G03X8427730Y3250690I-140822J0D01*
G02X8443270Y3284100I15541J13090D01*
G01X8679160D01*
G02X8698990Y3259340I0J-20321D01*
G03X8696180Y3234000I113008J-25357D01*
G03X8927820I115820J0D01*
G01Y3234030D01*
G03X8921850Y3270720I-115822J-15D01*
G01X8921330Y3272290D01*
Y3284100D01*
X8933160D01*
G02X8952990Y3259340I0J-20321D01*
G03X8950180Y3234000I113008J-25357D01*
G03X9181820I115820J0D01*
G01Y3234030D01*
G03X9175850Y3270720I-115822J-15D01*
G01X9175330Y3272290D01*
Y3284100D01*
X9187160D01*
G02X9206990Y3259340I0J-20321D01*
G03X9204180Y3234000I113008J-25357D01*
G03X9435820I115820J0D01*
G01Y3234030D01*
G03X9429850Y3270720I-115822J-15D01*
G01X9429330Y3272290D01*
Y3284100D01*
X9441160D01*
G02X9460990Y3259340I0J-20321D01*
G03X9458180Y3234000I113008J-25357D01*
G03X9689820I115820J0D01*
G03X9684220Y3269550I-115816J-28D01*
G01Y3269560D01*
X9682320Y3275480D01*
X9693890Y3287050D01*
X9706080Y3274870D01*
X9710830Y3270120D01*
X9712180Y3233160D01*
Y3233020D01*
G03X9828000Y3118180I115820J984D01*
G03X9943820Y3234000I0J115820D01*
G03X9828590Y3349820I-115822J0D01*
G01X9828000D01*
X9789230D01*
X9773490Y3365570D01*
G02X9788110Y3400000I14621J14111D01*
G01X10510000D01*
Y2390000D01*
X9910000D01*
Y1050000D01*
X10510000D01*
Y20000D01*
X9798110D01*
G02X9783490Y54430I1J20319D01*
G01X9793570Y64520D01*
X9833100Y70290D01*
X9833590Y70320D01*
G03X9943820Y186000I-5585J115680D01*
G03X9828560Y301820I-115821J0D01*
G01X9828550D01*
X9828000D01*
X9791240D01*
X9741870Y351190D01*
X9697150Y395900D01*
X9645170D01*
G02X9631930Y431640I-2J20322D01*
G03X9682820Y540000I-89920J108360D01*
G03X9682450Y550160I-140818J-41D01*
G03X9640190Y640940I-140452J-10157D01*
G01X9640140Y640990D01*
X9613140Y668000D01*
Y1167470D01*
X9439470Y1341140D01*
X8129470D01*
X7939470Y1531140D01*
X7394190D01*
X7390750Y1531740D01*
G03X7365000Y1536220I-25746J-71741D01*
G03X7339250Y1531740I-4J-76221D01*
G01X7337580Y1531140D01*
X7179470D01*
X7111140Y1599470D01*
Y1965260D01*
G02X7135210Y1985230I20320J-1D01*
G03X7150000Y1983780I14796J74769D01*
G03X7201810Y2004100I0J76210D01*
G01X8238190D01*
G03X8290000Y1983780I51810J55890D01*
G03X8366220Y2060000I0J76220D01*
G03X8354880Y2100000I-76217J0D01*
G03X8366220Y2140000I-64877J40000D01*
G03X8290000Y2216220I-76220J0D01*
G03X8238190Y2195900I0J-76210D01*
G01X7201810D01*
G03X7150000Y2216220I-51810J-55890D01*
G03X7135210Y2214770I6J-76219D01*
G02X7111140Y2234740I-3750J19971D01*
G01Y2540530D01*
X7189470Y2618860D01*
X7290810D01*
X7294250Y2618260D01*
G03X7320000Y2613780I25746J71741D01*
G03X7345750Y2618260I4J76221D01*
G01X7347420Y2618860D01*
X9009470D01*
X9105140Y2714530D01*
Y2792000D01*
X9132170Y2819040D01*
X9132220Y2819090D01*
G03X9144990Y2833330I-98212J100919D01*
G02X9177010I16010J-12512D01*
G03X9398990I110990J86672D01*
G02X9431010I16010J-12512D01*
G03X9542000Y2779180I110990J86672D01*
G03Y3060820I0J140820D01*
G03X9431010Y3006670I0J-140822D01*
G02X9398990I-16010J12512D01*
G03X9177010I-110990J-86672D01*
G02X9144990I-16010J12512D01*
G03X9034000Y3060820I-110990J-86672D01*
G03X8893180Y2920000I0J-140820D01*
G03X8893550Y2909840I140818J41D01*
G03X8935810Y2819060I140452J10157D01*
G01X8935860Y2819010D01*
X8962860Y2792000D01*
Y2773470D01*
X8950530Y2761140D01*
X7349190D01*
X7345750Y2761740D01*
G03X7320000Y2766220I-25746J-71741D01*
G03X7294250Y2761740I-4J-76221D01*
G01X7292580Y2761140D01*
X7130530D01*
X7050590Y2681200D01*
G02X7015900Y2695560I-14371J14364D01*
G01Y3036850D01*
X7055940Y3076890D01*
X7097240Y3118180D01*
X7144000D01*
G03X7259820Y3234000I0J115820D01*
G03X7144980Y3349820I-115824J0D01*
G01X7144840D01*
X7107880Y3351170D01*
X7093490Y3365570D01*
G02X7108110Y3400000I14621J14111D01*
G01X7435890D01*
G02X7450510Y3365570I-1J-20319D01*
G01X7441210Y3356260D01*
X7434760Y3349820D01*
G37*
G36*
G01X7079160Y3169000D02*
X7144000D01*
X7145940Y3235640D01*
X7079170Y3235820D01*
X7069160Y3180980D01*
G03X7079160Y3169000I10000J-1816D01*
G37*
G36*
G01X7079000Y3290840D02*
Y3234000D01*
X7145760Y3232170D01*
X7144370Y3298980D01*
X7089530Y3300990D01*
G03X7079000Y3290840I-373J-10150D01*
G37*
G36*
G01X6897180Y3149260D02*
X6935960Y3188040D01*
X6890000Y3236540D01*
X6844040Y3188040D01*
X6882820Y3149260D01*
G03X6897180I7180J7180D01*
G37*
G36*
G01X7463000Y131160D02*
Y186000D01*
X7396200Y187800D01*
X7398000Y121000D01*
X7452840D01*
G03X7463000Y131160I0J10160D01*
G37*
G36*
G01X7485920Y870840D02*
X7471550Y885210D01*
X7447460Y863660D01*
X7471550Y842110D01*
X7485920Y856480D01*
G03Y870840I-7180J7180D01*
G37*
G36*
G01Y797180D02*
X7471550Y811550D01*
X7447460Y790000D01*
X7471550Y768450D01*
X7485920Y782820D01*
G03Y797180I-7180J7180D01*
G37*
G36*
G01X9226230Y680820D02*
X8987490Y919560D01*
X7501810D01*
G03X7456390Y939610I-51812J-55900D01*
G01X7454030Y939810D01*
G02X7436140Y959980I2429J20174D01*
G01Y1388860D01*
X7880530D01*
X8030300Y1239090D01*
X8031060Y1237490D01*
G03X8100000Y1193780I68940J32512D01*
G01X8100010D01*
G03X8125750Y1198260I-6J76221D01*
G01X8127420Y1198860D01*
X9380530D01*
X9470860Y1108530D01*
Y668000D01*
X9443830Y640960D01*
X9443780Y640910D01*
G03X9431010Y626670I98212J-100919D01*
G02X9398990I-16010J12512D01*
G03X9288000Y680820I-110990J-86672D01*
G01X9226230D01*
G37*
G36*
G01X7185920Y2067180D02*
X7171550Y2081550D01*
X7147460Y2060000D01*
X7171550Y2038450D01*
X7185920Y2052820D01*
G03Y2067180I-7180J7180D01*
G37*
G36*
G01Y2147180D02*
X7171550Y2161550D01*
X7147460Y2140000D01*
X7171550Y2118450D01*
X7185920Y2132820D01*
G03Y2147180I-7180J7180D01*
G37*
G36*
G01X7452840Y3299000D02*
X7398000D01*
X7396200Y3232200D01*
X7463000Y3234000D01*
Y3288840D01*
G03X7452840Y3299000I-10160J0D01*
G37*
G36*
G01X8254080Y2052820D02*
X8268450Y2038450D01*
X8292540Y2060000D01*
X8268450Y2081550D01*
X8254080Y2067180D01*
G03Y2052820I7180J-7180D01*
G37*
G36*
G01Y2132820D02*
X8268450Y2118450D01*
X8292540Y2140000D01*
X8268450Y2161550D01*
X8254080Y2147180D01*
G03Y2132820I7180J-7180D01*
G37*
G36*
G01X8727260Y178820D02*
X8766040Y140040D01*
X8814540Y186000D01*
X8766040Y231960D01*
X8727260Y193180D01*
G03Y178820I7180J-7180D01*
G37*
G36*
G01X9001000Y240840D02*
Y186000D01*
X9067800Y184200D01*
X9066000Y251000D01*
X9011160D01*
G03X9001000Y240840I0J-10160D01*
G37*
G36*
G01X9198000Y619840D02*
Y540000D01*
X9289800Y538200D01*
X9288000Y630000D01*
X9208160D01*
G03X9198000Y619840I0J-10160D01*
G37*
G36*
G01X8944000D02*
Y540000D01*
X9035800Y538200D01*
X9034000Y630000D01*
X8954160D01*
G03X8944000Y619840I0J-10160D01*
G37*
G36*
G01X9051960Y2810680D02*
X9097630Y2856370D01*
X9034000Y2926350D01*
X8970370Y2856370D01*
X9016040Y2810680D01*
G03X9051960I17960J17960D01*
G37*
G36*
G01X9521220Y109850D02*
X9576060Y121220D01*
X9575620Y187960D01*
X9509000Y186000D01*
Y119800D01*
G03X9521220Y109850I10161J0D01*
G37*
G36*
G01X9524040Y649320D02*
X9478370Y603630D01*
X9542000Y533650D01*
X9605630Y603630D01*
X9559960Y649320D01*
G03X9524040I-17960J-17960D01*
G37*
G36*
G01X9763000Y240840D02*
Y186000D01*
X9829800Y184200D01*
X9828000Y251000D01*
X9773160D01*
G03X9763000Y240840I0J-10160D01*
G37*
G36*
G01X9774630Y113110D02*
X9829470Y121120D01*
X9829670Y187910D01*
X9763000Y186000D01*
Y123160D01*
G03X9774630Y113110I10157J0D01*
G37*
G36*
G01X9761010Y3288470D02*
X9763020Y3233630D01*
X9829830Y3232240D01*
X9828000Y3299000D01*
X9771160D01*
G03X9761010Y3288470I0J-10157D01*
G37*
%LPC*%
G75*
G36*
G01X1230000Y1969180D02*
X1030000D01*
G02Y2270820I0J150820D01*
G01X1230000D01*
G02Y1969180I0J-150820D01*
G37*
G54D20*
X1410000Y1640000D03*
G54D22*
X6664990Y1460000D03*
G54D21*
X5307000Y1240000D03*
X5053000D03*
X5213000Y2180000D03*
%LPD*%
G75*
G54D10*
X140000Y80000D03*
X220000Y880000D03*
X360000Y710000D03*
X140000Y500000D03*
X274650Y1419040D03*
X180000Y930000D03*
X274650Y1819040D03*
Y1619040D03*
Y2219040D03*
Y2019040D03*
X99040Y3235350D03*
X299040D03*
X500000Y80000D03*
X440000Y710000D03*
X680000Y500000D03*
Y410000D03*
X570000D03*
X759040Y2385350D03*
X499040Y3235350D03*
X959040Y2385350D03*
X1159040D03*
X1910000Y440000D03*
X1778790Y2394700D03*
X2326190Y931210D03*
X2126190D03*
X2378790Y2394700D03*
X2178790D03*
X1978790D03*
X2591840Y1379250D03*
Y1179250D03*
Y979250D03*
X2850000Y930000D03*
X2591840Y1579250D03*
X2980000Y3270000D03*
X3160000Y700000D03*
X3250000D03*
X3340000D03*
X3160000Y610000D03*
X3250000D03*
X3408580Y2283830D03*
Y2483830D03*
X3597060Y901640D03*
Y1301640D03*
Y1101640D03*
Y1501640D03*
X3860000Y1850000D03*
X3808580Y2283830D03*
X3608580D03*
X3808580Y2483830D03*
X3608580D03*
X4490000Y180000D03*
X4300000D03*
X4230000Y280000D03*
X4400000Y180000D03*
X4490000Y820000D03*
X4220000Y420000D03*
X4390000Y820000D03*
X4492280Y1308600D03*
X4292280D03*
X4092280D03*
X4492280Y1108600D03*
X4292280D03*
X4092280D03*
X4477500Y2113830D03*
X4277500D03*
X4077500D03*
X4680000Y280000D03*
X4800000Y860000D03*
X4600000Y820000D03*
X4692280Y1308600D03*
Y1108600D03*
X4677500Y2113830D03*
X5190000Y340000D03*
X5192280Y768600D03*
X5392280D03*
X5190000Y520000D03*
X5450000Y1730000D03*
Y1870000D03*
X5440000Y2530000D03*
X5960000Y430000D03*
X6100000Y1000000D03*
Y1400000D03*
X5870000D03*
X5830000Y1720000D03*
Y1870000D03*
Y2010000D03*
Y2170000D03*
X5630000Y2000000D03*
X5880000Y2430000D03*
X5790000Y2290000D03*
X5950000Y2840000D03*
X6200000Y700000D03*
X6600000Y770000D03*
X6470000Y1170000D03*
X6290000Y1120000D03*
X6470000Y1430000D03*
X6290000Y1580000D03*
X7080000Y780000D03*
Y540000D03*
X6890000Y750000D03*
X6740000Y1080000D03*
Y940000D03*
X7080000Y1330000D03*
Y1180000D03*
Y930000D03*
X6720000Y1860000D03*
X7150000Y1920000D03*
Y1770000D03*
X6780000Y1460000D03*
X6664990D03*
X6720000Y2010000D03*
X7150000Y2270000D03*
X6800000Y2320000D03*
X7150000Y2060000D03*
Y2140000D03*
X7120000Y2850000D03*
X7230000Y540000D03*
X7390000D03*
X7616200Y646200D03*
X7450000Y863660D03*
Y790000D03*
Y1640000D03*
X7365000Y1460000D03*
X7320000Y2690000D03*
X7820000Y1030000D03*
X8100000Y1270000D03*
X8350000Y520000D03*
X8306200Y646200D03*
X8642510Y1676320D03*
X8442510D03*
X8242510D03*
X8642510Y1476320D03*
X8442510D03*
X8242510D03*
X8290000Y2060000D03*
Y2140000D03*
X9242510Y1676320D03*
X9042510D03*
X8842510D03*
X9242510Y1476320D03*
X9042510D03*
X8842510D03*
X10280160Y130150D03*
X10080160D03*
X9960160Y990150D03*
X10160160D03*
X10060160D03*
X10260160D03*
Y2430150D03*
X10060160D03*
X10160160D03*
X9960160D03*
X10223970Y2874960D03*
X10023970D03*
X10223970Y2674960D03*
X10023970D03*
X10223970Y3274960D03*
X10023970D03*
X10223970Y3074960D03*
X10023970D03*
X10430150Y639840D03*
Y439840D03*
X10460160Y990150D03*
X10360160D03*
Y2430150D03*
X10460160D03*
X10423970Y2874960D03*
Y2674960D03*
Y3274960D03*
Y3074960D03*
G54D11*
X702000Y186000D03*
Y3234000D03*
X1210000Y186000D03*
X956000D03*
Y3234000D03*
X1210000D03*
X1718000Y186000D03*
X1464000D03*
Y3234000D03*
X1718000D03*
X3386000Y186000D03*
X3132000D03*
Y3234000D03*
X3386000D03*
X3894000Y186000D03*
X3640000D03*
Y3234000D03*
X3894000D03*
X4148000Y186000D03*
Y3234000D03*
X5053000Y1240000D03*
X5307000D03*
X5467000Y2180000D03*
X5213000D03*
X6636000Y186000D03*
X6382000D03*
Y3234000D03*
X6636000D03*
X7144000Y186000D03*
X6890000D03*
Y3234000D03*
X7144000D03*
X7398000Y186000D03*
Y3234000D03*
X9066000Y186000D03*
X8812000D03*
Y3234000D03*
X9066000D03*
X9828000Y186000D03*
X9574000D03*
X9320000D03*
Y3234000D03*
X9574000D03*
X9828000D03*
G54D12*
X810000Y1640000D03*
X1410000D03*
G54D13*
X1130000Y2120000D03*
G54D14*
X2065000Y2910000D03*
X2765000D03*
X4915000D03*
X5615000D03*
X7745000D03*
X8445000D03*
G54D15*
X2190000Y3160000D03*
X2640000D03*
X5040000D03*
X5490000D03*
X7870000D03*
X8320000D03*
X9288000Y540000D03*
X9034000D03*
X9288000Y2920000D03*
X9034000D03*
X9542000Y540000D03*
Y2920000D03*
G54D16*
X8780000Y540000D03*
Y2920000D03*
G54D17*
G01X0Y0D02*
X10530000D01*
Y3420000D01*
X0D01*
Y0D01*
G01X3160000Y1440000D02*
G03I-60000J0D01*
G01Y2190000D02*
G03I-60000J0D01*
G54D18*
G01X3132000Y186000D02*
X2976000Y30000D01*
X860000D01*
X704000Y186000D01*
X702000D01*
G01Y3234000D02*
X818000Y3350000D01*
X1772520D01*
X1773160Y3350640D01*
X2706840D01*
X2707480Y3350000D01*
X3016000D01*
X3132000Y3234000D01*
G01X3386000Y186000D02*
X3283280Y288720D01*
X3028720D01*
X2810640Y70640D01*
X1070000D01*
X956000Y184640D01*
Y186000D01*
G01X1210000D02*
Y800000D01*
X1660000Y1250000D01*
Y2270000D01*
X1210000Y2720000D01*
Y3234000D01*
G01X3894000Y186000D02*
X3710000Y370000D01*
X1648000D01*
X1464000Y186000D01*
G01X1718000D02*
Y188000D01*
X1859360Y329360D01*
X3670640D01*
X3770000Y230000D01*
Y110000D01*
X3800000Y80000D01*
X4042000D01*
X4148000Y186000D01*
G01X2980000Y3270000D02*
Y610000D01*
X3090000Y500000D01*
X4140000D01*
X4220000Y420000D01*
G01X3386000Y3234000D02*
X3569360Y3050640D01*
X4563160D01*
X4847080Y3334560D01*
X6535440D01*
X6636000Y3234000D01*
G01X3132000D02*
X3356000Y3010000D01*
X4580000D01*
X4855560Y3285560D01*
X6334440D01*
X6382000Y3238000D01*
Y3234000D01*
G01X3894000D02*
X4036720Y3091280D01*
X4546320D01*
X4830240Y3375200D01*
X7004800D01*
X7144000Y3236000D01*
Y3234000D01*
G01D02*
X7134000D01*
X6960000Y3060000D01*
Y720000D01*
X6873960Y633960D01*
X4916040D01*
X4630000Y920000D01*
X4380000D01*
X4300000Y840000D01*
Y180000D01*
G01X4600000Y590000D02*
Y120000D01*
X4560000Y80000D01*
X4254000D01*
X4148000Y186000D01*
G01X4400000Y180000D02*
Y810000D01*
X4390000Y820000D01*
G01X4800000Y860000D02*
X6210000D01*
X6382000Y1032000D01*
Y3234000D01*
G01X4600000Y590000D02*
Y820000D01*
G01X9828000Y186000D02*
X9674000Y340000D01*
X8587480D01*
X8507480Y420000D01*
X6570000D01*
X6396680Y593320D01*
X4899200D01*
X4897510Y595010D01*
X4605010D01*
X4600000Y590000D01*
G01X5190000Y340000D02*
X6030000D01*
X6340640Y29360D01*
X6999360D01*
X7144000Y174000D01*
Y186000D01*
G01X5190000Y520000D02*
X6302000D01*
X6636000Y186000D01*
G01X8812000D02*
X8624000D01*
X8480640Y329360D01*
X6849360D01*
X6760000Y240000D01*
Y120000D01*
X6710000Y70000D01*
X6498000D01*
X6382000Y186000D01*
G01X9066000D02*
X8962000Y290000D01*
X8580000D01*
X8500000Y370000D01*
X6820000D01*
X6636000Y186000D01*
G01X9574000D02*
Y174640D01*
X9480000Y80640D01*
X7699360D01*
X7493440Y286560D01*
X7244560D01*
X7144000Y186000D01*
G01X6890000Y750000D02*
Y3234000D01*
G01X8290000Y2060000D02*
X7150000D01*
G01X8290000Y2140000D02*
X7150000D01*
G01X7398000Y186000D02*
X7544000Y40000D01*
X9690000D01*
X9828000Y178000D01*
Y186000D01*
G01X9288000Y540000D02*
X8964340Y863660D01*
X7450000D01*
G01Y790000D02*
X8784000D01*
X9034000Y540000D01*
G01X7398000Y3234000D02*
X7504000Y3340000D01*
X9720000D01*
X9826000Y3234000D01*
X9828000D01*
G54D19*
G01X1910000Y440000D02*
X4070000D01*
X4230000Y280000D01*
G01X5960000Y430000D02*
X4830000D01*
X4680000Y280000D01*
G01X5450000Y1870000D02*
X5740000Y1580000D01*
X6290000D01*
G01X5790000Y2290000D02*
X5540000D01*
X5440000Y2390000D01*
Y2530000D01*
G01X5950000Y2840000D02*
X5820000Y2710000D01*
X5510000D01*
X5440000Y2640000D01*
Y2530000D01*
G01X6290000Y1580000D02*
Y2190000D01*
X6190000Y2290000D01*
X5790000D01*
G01X6290000Y1120000D02*
Y1580000D01*
G01X7365000Y1460000D02*
X7150000D01*
X7040000Y1570000D01*
Y2570000D01*
X7160000Y2690000D01*
X7320000D01*
G01X8306200Y646200D02*
X7616200D01*
G01D02*
X7453800D01*
X7365000Y735000D01*
Y1460000D01*
G01D02*
X7910000D01*
X8100000Y1270000D01*
G01X7320000Y2690000D02*
X8980000D01*
X9034000Y2744000D01*
Y2920000D01*
G01X8100000Y1270000D02*
X9410000D01*
X9542000Y1138000D01*
Y540000D01*
M02*
